<svg xmlns="http://www.w3.org/2000/svg" xml:space="preserve" width="252mm" height="152mm" version="1.1" style="shape-rendering:geometricPrecision; text-rendering:geometricPrecision; image-rendering:optimizeQuality; fill-rule:evenodd; clip-rule:evenodd"
viewBox="0 0 25200 15200"
 xmlns:xlink="http://www.w3.org/1999/xlink"
 xmlns:xodm="http://www.corel.com/coreldraw/odm/2003">
 <defs>
  <style type="text/css">
   <![CDATA[
    .fil16 {fill:#4B61A6}
    .fil8 {fill:#263138;fill-rule:nonzero}
    .fil11 {fill:#274073;fill-rule:nonzero}
    .fil7 {fill:#445964;fill-rule:nonzero}
    .fil12 {fill:#4B61A6;fill-rule:nonzero}
    .fil4 {fill:#6099FC;fill-rule:nonzero}
    .fil14 {fill:#6F4438;fill-rule:nonzero}
    .fil9 {fill:#8091F2;fill-rule:nonzero}
    .fil13 {fill:#AE7361;fill-rule:nonzero}
    .fil15 {fill:#B3ADD9;fill-rule:nonzero}
    .fil6 {fill:#CF0F0F;fill-rule:nonzero}
    .fil3 {fill:#DFDFDF;fill-rule:nonzero}
    .fil0 {fill:#EBEBEB;fill-rule:nonzero}
    .fil5 {fill:#F4F4F4;fill-rule:nonzero}
    .fil2 {fill:white;fill-rule:nonzero}
    .fil1 {fill:#FFD000;fill-rule:nonzero}
    .fil10 {fill:black;fill-rule:nonzero;fill-opacity:0.301961}
   ]]>
  </style>
 </defs>
 <g id="Capa_x0020_1">
  <metadata id="CorelCorpID_0Corel-Layer"/>
  <path class="fil0" d="M23472.43 5153.4c-44.24,-192.7 -188.36,-261.37 -300.91,-252.06 -122.32,10.11 -211.8,107.39 -211.8,107.39 0,0 -25.43,-129.7 -124.43,-202.27 -91.07,-66.77 -249.83,-83.55 -388.27,57.6 -288.92,294.58 286.42,946.59 286.42,946.59 0,0 831.3,-255.09 738.99,-657.25z"/>
  <path class="fil0" d="M12071.47 964.36c-141.25,-258.15 -375.46,-298.28 -532.89,-239.44 -171.15,63.94 -260,239.44 -260,239.44 0,0 -88.84,-175.5 -259.98,-239.44 -157.45,-58.84 -391.66,-18.71 -532.9,239.44 -294.8,538.76 792.88,1240.17 792.88,1240.17 0,0 1087.69,-701.41 792.89,-1240.17z"/>
  <path class="fil0" d="M13599.04 272.69c-89.32,-163.24 -237.42,-188.6 -336.98,-151.41 -108.22,40.43 -164.39,151.41 -164.39,151.41 0,0 -56.19,-110.98 -164.41,-151.41 -99.55,-37.19 -247.64,-11.83 -336.96,151.41 -186.41,340.68 501.37,784.21 501.37,784.21 0,0 687.78,-443.53 501.37,-784.21z"/>
  <path class="fil1" d="M15555.57 1094.45c-327.63,708.11 -19.18,1547.76 688.94,1875.38 708.12,327.63 1547.75,19.18 1875.38,-688.94 327.63,-708.12 19.18,-1547.76 -688.93,-1875.39 -708.13,-327.63 -1547.77,-19.17 -1875.39,688.95z"/>
  <path class="fil2" d="M17351.56 1660.61c-43.22,93.42 -20.89,195.69 49.86,228.42 70.76,32.75 163.16,-16.44 206.38,-109.86 43.22,-93.41 20.89,-195.68 -49.86,-228.42 -70.76,-32.73 -163.17,16.45 -206.38,109.86z"/>
  <path class="fil2" d="M16285.9 1167.57c-43.21,93.41 -20.89,195.68 49.87,228.41 70.75,32.75 163.16,-16.44 206.37,-109.86 43.22,-93.41 20.9,-195.67 -49.85,-228.42 -70.77,-32.73 -163.16,16.46 -206.39,109.87z"/>
  <path class="fil2" d="M16380.79 1515.14c-120.14,259.68 -19.47,561.82 224.85,674.86 244.33,113.04 539.78,-5.82 659.93,-265.49l-884.78 -409.37z"/>
  <path class="fil0" d="M16407.39 2014.44c0,0 138.85,-70.96 281.73,-4.87 142.87,66.12 179.23,218.14 179.23,218.14 0,0 -280.35,42.87 -460.96,-213.27z"/>
  <polygon class="fil3" points="7056.68,1028.76 7466.05,2350.14 6974.38,2502.46 6565.01,1181.09 "/>
  <polygon class="fil4" points="7189.51,987.62 7598.88,2308.99 7107.21,2461.32 6697.84,1139.94 "/>
  <path class="fil2" d="M6944.55 1414.12c18.98,61.27 84.04,95.55 145.31,76.56 61.27,-18.98 95.56,-84.03 76.57,-145.3 -18.98,-61.27 -84.04,-95.56 -145.31,-76.58 -61.27,18.99 -95.55,84.05 -76.57,145.32z"/>
  <path class="fil0" d="M6627.41 1379.61c3.53,-4.51 49.23,25.31 102.08,66.61 52.87,41.3 92.85,78.43 89.33,82.94 -3.52,4.51 -49.22,-25.31 -102.08,-66.62 -52.86,-41.29 -92.85,-78.42 -89.33,-82.93z"/>
  <path class="fil0" d="M6672.7 1525.79c3.52,-4.5 49.23,25.32 102.08,66.61 52.87,41.3 92.85,78.44 89.33,82.95 -3.52,4.51 -49.22,-25.31 -102.09,-66.62 -52.85,-41.29 -92.84,-78.43 -89.32,-82.94z"/>
  <path class="fil0" d="M6717.99 1671.98c3.53,-4.52 49.24,25.31 102.08,66.6 52.87,41.31 92.85,78.44 89.33,82.95 -3.52,4.51 -49.23,-25.31 -102.09,-66.62 -52.85,-41.29 -92.84,-78.42 -89.32,-82.93z"/>
  <path class="fil0" d="M6763.28 1818.16c3.53,-4.51 49.24,25.32 102.08,66.61 52.87,41.31 92.86,78.43 89.33,82.94 -3.53,4.52 -49.23,-25.3 -102.08,-66.61 -52.86,-41.29 -92.85,-78.43 -89.33,-82.94z"/>
  <path class="fil0" d="M6808.57 1964.35c3.53,-4.51 49.24,25.31 102.08,66.61 52.87,41.3 92.85,78.44 89.33,82.95 -3.52,4.5 -49.22,-25.31 -102.09,-66.62 -52.85,-41.29 -92.84,-78.43 -89.32,-82.94z"/>
  <path class="fil0" d="M6853.86 2110.53c3.52,-4.51 49.23,25.32 102.08,66.6 52.87,41.31 92.86,78.45 89.32,82.96 -3.52,4.5 -49.21,-25.31 -102.08,-66.62 -52.85,-41.29 -92.84,-78.43 -89.32,-82.94z"/>
  <path class="fil0" d="M6899.14 2256.72c3.53,-4.51 49.24,25.31 102.09,66.6 52.87,41.32 92.85,78.44 89.33,82.95 -3.53,4.51 -49.22,-25.3 -102.09,-66.61 -52.85,-41.29 -92.85,-78.43 -89.33,-82.94z"/>
  <path class="fil0" d="M6588.81 1250.26c3.52,-4.51 49.23,25.31 102.09,66.6 52.86,41.31 92.85,78.44 89.33,82.95 -3.53,4.51 -49.22,-25.31 -102.1,-66.61 -52.85,-41.3 -92.85,-78.43 -89.32,-82.94z"/>
  <path class="fil0" d="M6617.28 1164.9c3.52,-4.51 31.75,11.65 63.03,36.09 31.29,24.45 53.79,47.92 50.26,52.43 -3.52,4.51 -31.73,-11.65 -63.03,-36.1 -31.28,-24.43 -53.78,-47.91 -50.26,-52.42z"/>
  <path class="fil3" d="M6693.91 2475.74l-388.41 -1159.38c0,0 -275.64,30.07 -616.8,-251.54 -225.75,-186.36 -245.98,-451.66 -307.26,-545.19 -37.46,-57.18 -181.53,1.29 -244.05,28.92 -59.24,26.17 -150.21,91.84 -162.75,202.24 -23.27,204.68 220.97,601.51 220.97,601.51 0,0 75.49,72.83 -47.44,110.92l-438.42 135.82c-56.84,17.62 -106.99,53.64 -138.63,104.04 -27.8,44.28 -44.53,103.67 -16.15,174.86 64.85,162.74 175.77,210.17 186.65,245.29 10.88,35.12 -18.37,111.53 48.03,201.62 66.41,90.1 85.63,74.51 100.59,122.8 14.96,48.3 61.82,168.49 115.68,233.59 53.84,65.12 99.85,89.35 99.85,89.35 0,0 31.35,166.46 108.24,240.72 100.83,97.34 414.45,85.55 516.91,-6.18 47.93,-42.93 289.61,-185.95 403.01,-254.76 113.39,-68.82 423.76,-294.98 559.98,-274.63z"/>
  <path class="fil4" d="M6855 2440.36l-365.86 -1180.89c0,0 -275.64,30.07 -616.79,-251.56 -225.76,-186.35 -353.41,-353.83 -414.68,-447.37 -37.45,-57.18 -110.67,-81.02 -173.19,-53.39 -59.23,26.18 -125.68,73.21 -138.22,183.6 -23.26,204.69 232.98,604.66 232.98,604.66 0,0 75.5,72.83 -47.43,110.92l-438.41 135.82c-56.85,17.61 -106.99,53.63 -138.64,104.03 -27.79,44.28 -44.52,103.67 -16.15,174.86 64.85,162.75 175.77,210.17 186.65,245.29 10.88,35.12 -18.37,111.54 48.03,201.63 66.4,90.08 85.63,74.51 100.6,122.8 14.95,48.29 61.81,168.49 115.67,233.59 53.85,65.11 99.85,89.36 99.85,89.36 0,0 35.79,162.11 108.25,240.7 72.46,78.59 271.8,69.76 333.26,50.72 61.45,-19.05 473.25,-242.85 586.65,-311.66 113.39,-68.81 401.22,-273.45 537.43,-253.11z"/>
  <path class="fil0" d="M5081.69 1129.2c3.05,-4.99 66.29,28.4 144.14,69.32 77.8,41.08 141.09,74.32 138.72,79.66 -2.27,5.13 -69.9,-19.89 -148.39,-61.32 -78.53,-41.28 -137.42,-82.9 -134.47,-87.66z"/>
  <path class="fil0" d="M5009.16 978.61c3.12,-4.88 60.33,25.08 133.73,56.49 73.64,31.39 131.99,61.86 129.34,67.35 -2.35,4.81 -63.44,-16.72 -137.68,-48.37 -74.53,-31.91 -128.55,-70.75 -125.39,-75.47z"/>
  <path class="fil0" d="M4977.05 832.48c3.35,-5.35 49.44,20.23 110.19,41.1 62.18,20.39 109.72,47.25 106.96,52.44 -2.63,4.98 -51.66,-12.47 -113.92,-32.91 -63.38,-21.88 -106.24,-56.46 -103.23,-60.63z"/>
  <path class="fil0" d="M4988.53 698.75c2.27,-5.26 39.84,5.89 83.92,24.89 44.1,19.01 77.98,38.68 75.72,43.93 -2.26,5.25 -39.83,-5.89 -83.93,-24.89 -44.07,-19.01 -77.97,-38.68 -75.71,-43.93z"/>
  <path class="fil0" d="M5055.87 601.11c1.36,-5.56 24.68,-3.61 52.07,4.36 27.39,7.98 48.1,18.84 46.26,24.26 -1.83,5.42 -25.14,3.48 -52.06,-4.36 -26.91,-7.83 -47.63,-18.7 -46.27,-24.26z"/>
  <path class="fil0" d="M5180.4 1326.72c2.27,-5.25 41.93,6.85 88.57,27.02 46.66,20.18 82.62,40.8 80.35,46.05 -2.26,5.25 -41.92,-6.85 -88.57,-27.02 -46.64,-20.17 -82.63,-40.79 -80.35,-46.05z"/>
  <path class="fil0" d="M4594.38 1959.52c1.69,-5.46 75.96,12.66 165.86,40.49 89.93,27.83 161.43,54.82 159.74,60.29 -1.69,5.46 -75.95,-12.66 -165.87,-40.49 -89.89,-27.82 -161.42,-54.82 -159.73,-60.29z"/>
  <path class="fil0" d="M4539.28 1757.2c1.7,-5.47 46.53,3.65 100.11,20.34 53.6,16.71 95.66,34.68 93.96,40.15 -1.71,5.46 -46.53,-3.65 -100.13,-20.35 -53.58,-16.7 -95.65,-34.68 -93.94,-40.14z"/>
  <path class="fil0" d="M4750.23 2225.34c1.06,-5.49 57.78,1.07 124.74,21.75 67.06,20.52 117.65,46.95 115.44,52.07 -2.27,5.42 -55.6,-12.09 -121.53,-32.26 -65.84,-20.33 -119.81,-35.82 -118.65,-41.56z"/>
  <path class="fil0" d="M4884.72 2433.02c1.93,-5.4 56.05,9.02 120.86,32.17 64.83,23.17 115.82,46.32 113.89,51.71 -1.92,5.39 -56.02,-9.02 -120.87,-32.19 -64.81,-23.16 -115.81,-46.31 -113.88,-51.69z"/>
  <path class="fil0" d="M5019.31 2686.31c2.37,-5.38 63.33,16.68 138.93,41.8 75.55,25.33 137.55,44.29 136.21,50.02 -1.2,5.43 -66.15,-4.69 -142.77,-30.36 -76.66,-25.47 -134.68,-56.39 -132.37,-61.46z"/>
  <path class="fil0" d="M5145.73 2895.29c2.3,-5.14 73.37,20.25 161.84,49.44 88.3,29.8 160.38,52.18 159.13,57.66 -1.27,5.69 -76.65,-7.95 -165.68,-38 -89.21,-29.42 -157.7,-63.8 -155.29,-69.1z"/>
  <path class="fil5" d="M6832.53 7420.09l-4599.69 0c-129.14,0 -233.83,-104.7 -233.83,-233.84l0 -1357.8c0,-129.15 104.69,-233.84 233.83,-233.84l4599.69 0c129.14,0 233.84,104.69 233.84,233.84l0 1357.8c0,129.14 -104.7,233.84 -233.84,233.84z"/>
  <path class="fil3" d="M3196.42 6497.95c0,184 -149.16,333.16 -333.17,333.16 -184,0 -333.16,-149.16 -333.16,-333.16 0,-184.01 149.16,-333.17 333.16,-333.17 184.01,0 333.17,149.16 333.17,333.17z"/>
  <polygon class="fil3" points="6063.45,6497.95 3428.01,6497.95 3428.01,6343.05 6063.45,6343.05 "/>
  <polygon class="fil3" points="4491.49,6771.31 3428.01,6771.31 3428.01,6616.41 4491.49,6616.41 "/>
  <path class="fil5" d="M23013.67 9701.67l-4599.7 0c-129.14,0 -233.83,-104.69 -233.83,-233.83l0 -1357.82c0,-129.14 104.69,-233.82 233.83,-233.82l4599.7 0c129.14,0 233.83,104.68 233.83,233.82l0 1357.82c0,129.14 -104.69,233.83 -233.83,233.83z"/>
  <path class="fil3" d="M19377.55 8779.54c0,184 -149.16,333.16 -333.16,333.16 -184.01,0 -333.17,-149.16 -333.17,-333.16 0,-184.01 149.16,-333.18 333.17,-333.18 184,0 333.16,149.17 333.16,333.18z"/>
  <polygon class="fil3" points="22244.58,8779.54 19609.15,8779.54 19609.15,8624.64 22244.58,8624.64 "/>
  <polygon class="fil3" points="20672.62,9052.89 19609.15,9052.89 19609.15,8898 20672.62,8898 "/>
  <polygon class="fil3" points="2704.8,3294.44 3106.19,2633.34 3352.18,2782.69 2950.78,3443.81 "/>
  <polygon class="fil0" points="2638.34,3254.1 3039.72,2593 3285.72,2742.35 2884.33,3403.45 "/>
  <path class="fil2" d="M2907.65 3198.56c18.62,-30.65 8.86,-70.59 -21.8,-89.21 -30.66,-18.6 -70.58,-8.84 -89.2,21.8 -18.61,30.66 -8.86,70.61 21.8,89.22 30.66,18.6 70.59,8.84 89.2,-21.81z"/>
  <path class="fil0" d="M3010.75 3344.11c-3.19,0.2 -7.65,-30 -9.95,-67.42 -2.3,-37.44 -1.59,-67.95 1.62,-68.14 3.19,-0.2 7.64,29.99 9.95,67.42 2.3,37.44 1.58,67.94 -1.62,68.14z"/>
  <path class="fil0" d="M3055.16 3270.96c-3.2,0.2 -7.65,-29.99 -9.95,-67.42 -2.3,-37.43 -1.59,-67.93 1.61,-68.12 3.19,-0.2 7.64,29.97 9.95,67.42 2.3,37.42 1.59,67.92 -1.61,68.12z"/>
  <path class="fil0" d="M3099.56 3197.82c-3.19,0.2 -7.64,-29.98 -9.95,-67.41 -2.3,-37.44 -1.58,-67.94 1.62,-68.14 3.19,-0.19 7.64,29.99 9.95,67.42 2.3,37.43 1.58,67.94 -1.62,68.13z"/>
  <path class="fil0" d="M3143.97 3124.69c-3.19,0.2 -7.65,-30 -9.95,-67.42 -2.3,-37.45 -1.59,-67.94 1.62,-68.14 3.18,-0.2 7.65,29.99 9.95,67.42 2.3,37.43 1.58,67.94 -1.62,68.14z"/>
  <path class="fil0" d="M3188.38 3051.55c-3.2,0.19 -7.65,-29.99 -9.95,-67.42 -2.3,-37.44 -1.59,-67.94 1.61,-68.14 3.19,-0.19 7.65,29.99 9.95,67.43 2.31,37.42 1.58,67.93 -1.61,68.13z"/>
  <path class="fil0" d="M3232.79 2978.41c-3.2,0.2 -7.65,-30 -9.96,-67.42 -2.3,-37.43 -1.58,-67.94 1.62,-68.14 3.18,-0.19 7.65,29.99 9.95,67.43 2.3,37.43 1.58,67.93 -1.61,68.13z"/>
  <path class="fil0" d="M3277.2 2905.27c-3.21,0.19 -7.66,-29.99 -9.96,-67.41 -2.3,-37.45 -1.58,-67.95 1.61,-68.15 3.19,-0.19 7.66,29.99 9.95,67.43 2.31,37.42 1.59,67.93 -1.6,68.13z"/>
  <path class="fil0" d="M2970.91 3408.2c-3.19,0.2 -7.64,-29.99 -9.95,-67.41 -2.3,-37.45 -1.58,-67.95 1.62,-68.14 3.19,-0.2 7.65,29.98 9.95,67.43 2.3,37.42 1.58,67.93 -1.62,68.12z"/>
  <path class="fil0" d="M2924.63 3427.93c-3.2,0.19 -6.89,-17.61 -8.25,-39.77 -1.37,-22.16 0.12,-40.27 3.31,-40.47 3.19,-0.2 6.89,17.6 8.26,39.77 1.36,22.14 -0.13,40.27 -3.32,40.47z"/>
  <path class="fil3" d="M3444.95 2910.01l-341.36 592.29c0,0 114.74,104.23 123.31,351.41 5.66,163.57 -97.89,270.37 -114.33,330.69 -10.06,36.86 67.82,75.5 102.55,91.44 32.92,15.09 94.12,28.84 144.98,-6.84 94.31,-66.12 169.9,-315.42 169.9,-315.42 0,0 2.51,-58.6 64,-21.26l219.36 133.18c28.44,17.26 62.1,24.9 94.93,19.47 28.84,-4.78 59.89,-19.79 79.18,-58.05 44.09,-87.46 22.83,-151.47 33.5,-169.04 10.67,-17.57 53.49,-33.65 66.59,-94.85 13.1,-61.17 -0.54,-63.45 14.13,-87.61 14.67,-24.16 47.61,-88.32 54.9,-135 7.3,-46.67 0.39,-74.91 0.39,-74.91 0,0 58.06,-74.82 60.65,-134.52 3.38,-78.29 -117.79,-205.2 -194.17,-214.09 -35.73,-4.15 -185.18,-52.31 -256.01,-74.28 -70.84,-21.96 -280.54,-68.06 -322.5,-132.61z"/>
  <path class="fil0" d="M3370.43 2855.68l-358.72 590.83c0,0 114.75,104.24 123.31,351.42 5.66,163.57 -17.14,279.08 -33.58,339.39 -10.05,36.87 7.11,76.36 41.84,92.29 32.91,15.09 77.22,25.47 128.08,-10.19 94.31,-66.13 166.76,-321.63 166.76,-321.63 0,0 2.51,-58.6 64,-21.26l219.36 133.18c28.44,17.26 62.1,24.91 94.93,19.48 28.84,-4.78 59.9,-19.79 79.17,-58.06 44.1,-87.46 22.84,-151.47 33.51,-169.04 10.66,-17.56 53.49,-33.65 66.59,-94.83 13.1,-61.18 -0.54,-63.46 14.13,-87.62 14.66,-24.16 47.61,-88.33 54.91,-135 7.29,-46.68 0.39,-74.91 0.39,-74.91 0,0 54.6,-75.07 60.64,-134.53 6.04,-59.46 -71.54,-139.63 -102.29,-158.3 -30.75,-18.66 -277.06,-108.09 -347.89,-130.05 -70.83,-21.97 -263.17,-66.61 -305.14,-131.17z"/>
  <path class="fil0" d="M3478.83 4083.95c-3.22,0.57 -12.68,-38.28 -24.4,-86.04 -11.65,-47.79 -21.19,-86.6 -18.07,-87.58 2.98,-0.96 17.57,36.62 29.32,84.84 11.83,48.16 16.23,88.24 13.15,88.78z"/>
  <path class="fil0" d="M3442.67 4170.12c-3.19,0.5 -11.87,-34.56 -25.91,-76.92 -14.15,-42.46 -23.03,-78.17 -19.75,-79.1 2.88,-0.8 16.51,32.75 30.78,75.56 14.26,43.02 18.03,80.03 14.88,80.46z"/>
  <path class="fil0" d="M3393.41 4237.72c-3.49,0.57 -9.86,-28.2 -23.64,-61.37 -14.51,-33.57 -20.88,-63.43 -17.69,-64.2 3.06,-0.74 13.92,26.25 28.44,59.89 14.33,34.63 15.75,65.39 12.89,65.68z"/>
  <path class="fil0" d="M3333.17 4282.48c-3.04,1 -12.3,-18.87 -20.68,-44.35 -8.39,-25.51 -12.72,-46.98 -9.67,-47.99 3.04,-0.99 12.29,18.87 20.67,44.36 8.39,25.5 12.72,46.98 9.68,47.98z"/>
  <path class="fil0" d="M3267.34 4290.48c-2.83,1.5 -10.66,-8.98 -17.47,-23.41 -6.81,-14.42 -9.94,-27.13 -6.99,-28.36 2.94,-1.24 10.76,9.24 17.47,23.41 6.69,14.17 9.82,26.86 6.99,28.36z"/>
  <path class="fil0" d="M3524.92 3969.42c-3.04,1 -12.67,-20.09 -21.51,-47.1 -8.85,-27.01 -13.55,-49.7 -10.5,-50.7 3.04,-0.99 12.66,20.09 21.51,47.1 8.84,27 13.55,49.7 10.5,50.7z"/>
  <path class="fil0" d="M4007.01 3980.19c-2.92,1.31 -22.85,-36.49 -44.52,-84.44 -21.69,-47.96 -36.89,-87.89 -33.97,-89.21 2.91,-1.32 22.84,36.48 44.53,84.44 21.67,47.94 36.88,87.88 33.96,89.21z"/>
  <path class="fil0" d="M3942.74 4078.24c-2.91,1.31 -15.72,-20.83 -28.58,-49.45 -12.88,-28.63 -20.94,-52.89 -18.03,-54.2 2.92,-1.32 15.72,20.82 28.6,49.44 12.86,28.63 20.94,52.9 18.01,54.21z"/>
  <path class="fil0" d="M4060.52 3816.44c-2.69,1.57 -20.96,-24.59 -37.13,-60.29 -16.27,-35.68 -23.95,-66.65 -20.98,-67.63 3.1,-1.05 15.54,27.76 31.53,62.83 15.89,35.1 29.42,63.43 26.58,65.09z"/>
  <path class="fil0" d="M4097.6 3683.16c-2.97,1.19 -17,-26.8 -31.32,-62.52 -14.33,-35.73 -23.54,-65.64 -20.57,-66.84 2.97,-1.19 16.99,26.79 31.33,62.53 14.32,35.71 23.53,65.64 20.56,66.83z"/>
  <path class="fil0" d="M4153.75 3532.94c-3.13,1 -16.49,-32.69 -33.99,-73.65 -17.41,-41.01 -32.44,-73.98 -29.56,-75.55 2.72,-1.51 22.56,29.43 40.21,71.02 17.76,41.52 26.31,77.27 23.34,78.18z"/>
  <path class="fil0" d="M4194.37 3402.57c-3,0.94 -18.71,-38.23 -39.28,-86.07 -20.26,-48.01 -37.61,-86.47 -34.85,-87.99 2.85,-1.58 25.09,35.04 45.5,83.44 20.75,48.25 31.74,89.66 28.63,90.62z"/>
  <path class="fil3" d="M22678.82 1515.55c-59.09,-107.99 -157.06,-124.76 -222.92,-100.16 -71.59,26.75 -108.76,100.16 -108.76,100.16 0,0 -37.16,-73.41 -108.75,-100.16 -65.86,-24.6 -163.83,-7.83 -222.91,100.16 -123.33,225.37 331.66,518.77 331.66,518.77 0,0 454.99,-293.4 331.68,-518.77z"/>
  <path class="fil3" d="M3155.95 11626.08l213.43 223.94c24.01,25.19 59.65,37.09 95.31,31.82l317.1 -46.83c89.81,-13.26 153.9,77.99 108.46,154.42l-160.43 269.84c-18.05,30.34 -19.63,66.93 -4.24,97.83l136.86 274.71c38.76,77.82 -33.14,166.83 -121.68,150.64l-312.59 -57.18c-35.15,-6.43 -71.78,4.28 -97.93,28.65l-232.51 216.6c-65.85,61.36 -174.39,25.12 -183.66,-61.31l-32.77 -305.18c-3.68,-34.32 -24.73,-64.28 -56.28,-80.12l-280.55 -140.85c-79.47,-39.89 -74.64,-151.3 8.16,-188.53l292.34 -131.43c32.89,-14.78 56.49,-44.01 63.14,-78.16l59.12 -303.66c16.74,-86.01 128.27,-118.63 188.72,-55.2z"/>
  <path class="fil6" d="M21940.39 11502.47l389.14 556.4c42.64,60.96 133.4,59.45 173.97,-2.89l376.66 -578.69 -939.77 25.18z"/>
  <path class="fil6" d="M22863.16 11810.33l-964.19 0c-204.4,0 -370.1,-165.7 -370.1,-370.11l0 -499.27c0,-204.41 165.7,-370.11 370.1,-370.11l964.18 0c204.4,0 370.1,165.7 370.1,370.11l0 499.28c0,204.4 -165.7,370.1 -370.09,370.1z"/>
  <path class="fil2" d="M22714.81 11076.66c-54.64,-99.84 -145.23,-115.36 -206.12,-92.61 -66.19,24.73 -100.56,92.61 -100.56,92.61 0,0 -34.36,-67.88 -100.55,-92.61 -60.9,-22.75 -151.49,-7.23 -206.12,92.61 -114.02,208.38 306.67,479.67 306.67,479.67 0,0 420.69,-271.29 306.68,-479.67z"/>
  <path class="fil5" d="M4095.65 12350.61c0,526.23 -426.59,952.81 -952.81,952.81 -526.23,0 -952.81,-426.58 -952.81,-952.81 0,-526.22 426.58,-952.81 952.81,-952.81 526.22,0 952.81,426.59 952.81,952.81z"/>
  <path class="fil5" d="M11052.12 1969.1c0,613.34 -497.22,1110.57 -1110.57,1110.57 -613.36,0 -1110.58,-497.23 -1110.58,-1110.57 0,-613.36 497.22,-1110.58 1110.58,-1110.58 613.35,0 1110.57,497.22 1110.57,1110.58z"/>
  <path class="fil7" d="M18184.24 14305.87l-12328.64 0c-407.51,0 -737.87,-343.79 -737.87,-767.88l0 -8805.51c0,-309.36 240.98,-560.14 538.25,-560.14l12757.49 0c280.92,0 508.64,236.98 508.64,529.32l0 8836.33c0,424.09 -330.35,767.88 -737.87,767.88z"/>
  <path class="fil7" d="M18907.68 14460.14l-13653.89 0c-393.97,0 -713.34,-332.36 -713.34,-742.35l0 -115.71c0,-15.79 12.31,-28.6 27.49,-28.6l14901.02 0c15.18,0 27.49,12.81 27.49,28.6l0 245.34c0,338.39 -263.6,612.72 -588.77,612.72z"/>
  <path class="fil8" d="M18907.68 14460.14c0,0 6.76,-0.63 20.15,-1.46 13.3,-1.6 33.52,-0.23 59.55,-5.61 52.03,-6.92 131.06,-25.04 219.69,-80.6 44.76,-26.58 90.24,-64.67 133.17,-113.33 42.79,-48.73 82.42,-109.53 110.69,-182.23 28.69,-72.53 43.94,-156.8 42.9,-247.18 -0.06,-45.28 -0.12,-92.03 -0.17,-140.22 -0.04,-24.1 -0.07,-48.56 -0.09,-73.38 0.13,-12.59 1.12,-24.95 -7.88,-32.72 -7.89,-8.73 -20.23,-6.69 -32.65,-6.84 -785.34,0.6 -1921.49,1.46 -3325.36,2.52 -2808.03,0.59 -6686.88,1.42 -10970.95,2.33 -133.93,0 -267.46,-0.01 -400.56,-0.01l-99.77 0 -49.81 0 -24.9 0 -12.44 0c-3.74,-0.02 -6.22,0.41 -9.13,1.68 -5.48,2.46 -9.9,7.62 -11.35,13.67 -1.3,4.97 -0.45,15.71 -0.7,23.75l0 51.71c-0.63,34.63 0.84,68.7 2.77,102.63 5.63,67.67 18.05,135.15 41.97,198.35 9.86,32.45 25.92,62.14 39.59,92.86 17.23,28.67 32.05,59.08 52.68,85.31 76.11,109.82 182.94,194.61 301.87,246.15 59.88,25.1 122.76,41.47 186.56,49.65 63.75,6.4 128.74,5.11 193.51,5.1 129.45,0.01 258.4,0.03 386.83,0.03 256.87,0.02 511.67,0.05 764.22,0.07 1010.22,0.16 1984.65,0.32 2912.92,0.46 1856.48,0.64 3528.27,1.22 4932.27,1.7 1403.86,1.07 2539.93,1.93 3325.17,2.52 392.47,0.65 697.24,1.15 904.04,1.5 103.24,0.34 182,0.6 235.1,0.79 52.97,0.26 80.11,0.8 80.11,0.8 0,0 -27.14,0.55 -80.11,0.81 -53.1,0.18 -131.86,0.44 -235.1,0.79 -206.8,0.34 -511.57,0.84 -904.04,1.49 -785.24,0.6 -1921.31,1.46 -3325.17,2.53 -1404,0.48 -3075.79,1.05 -4932.27,1.7 -928.27,0.14 -1902.7,0.29 -2912.92,0.46 -252.55,0.03 -507.35,0.04 -764.22,0.07 -128.43,0.01 -257.38,0.02 -386.83,0.03 -64.62,-0.01 -129.57,1.37 -195.21,-5.17 -65.19,-8.35 -129.42,-25.07 -190.61,-50.71 -121.52,-52.63 -230.61,-139.26 -308.37,-251.4 -21.06,-26.83 -36.26,-57.85 -53.82,-87.16 -14,-31.37 -30.36,-61.72 -40.47,-94.87 -24.41,-64.57 -37.14,-133.52 -42.88,-202.63 -1.99,-34.79 -3.45,-69.51 -2.82,-103.86l0 -51.71c0.46,-9.14 -1.1,-15.9 1.2,-27.83 2.64,-10.75 10.33,-19.81 20.06,-24.17 4.72,-2.23 10.6,-3.06 15.15,-2.96l12.44 0 24.9 0 49.81 0 99.77 0c133.1,0 266.63,-0.01 400.56,-0.01 4284.07,0.91 8162.92,1.73 10970.95,2.32 1403.87,1.07 2540.02,1.93 3325.36,2.52l18.6 0.17c6.7,0.64 13.21,3.59 18.05,8.42 4.9,4.72 8.23,11.17 9.24,18.02 0.84,7.17 0.22,12.73 0.4,19.14 -0.03,24.82 -0.06,49.28 -0.08,73.38 -0.06,48.19 -0.12,94.94 -0.18,140.22 0.84,90.87 -14.8,176.03 -43.94,248.96 -28.7,73.17 -68.84,134.25 -112.08,183.13 -43.38,48.81 -89.29,86.9 -134.42,113.39 -89.34,55.4 -168.8,73.06 -221.03,79.46 -26.14,5.13 -46.42,3.5 -59.75,4.82 -13.41,0.57 -20.17,0.65 -20.17,0.65z"/>
  <polygon class="fil8" points="10659.1,13556.41 10844.69,13884.11 13456.17,13884.11 13628.51,13556.41 "/>
  <polygon class="fil2" points="18449.39,13243.74 5794.64,13243.74 5794.64,4942.98 18449.39,4942.98 "/>
  <polygon class="fil3" points="18449.39,5775.13 5794.64,5775.13 5794.64,4942.98 18449.39,4942.98 "/>
  <path class="fil2" d="M6312.97 5324.6c0,69.92 -54.6,126.6 -121.96,126.6 -67.36,0 -121.96,-56.68 -121.96,-126.6 0,-69.91 54.6,-126.6 121.96,-126.6 67.36,0 121.96,56.69 121.96,126.6z"/>
  <path class="fil2" d="M6669.08 5324.6c0,69.92 -54.6,126.6 -121.96,126.6 -67.35,0 -121.95,-56.68 -121.95,-126.6 0,-69.91 54.6,-126.6 121.95,-126.6 67.36,0 121.96,56.69 121.96,126.6z"/>
  <path class="fil2" d="M7025.2 5324.6c0,69.92 -54.6,126.6 -121.96,126.6 -67.35,0 -121.96,-56.68 -121.96,-126.6 0,-69.91 54.61,-126.6 121.96,-126.6 67.36,0 121.96,56.69 121.96,126.6z"/>
  <path class="fil9" d="M8442.09 7881.77c0,458.62 -371.79,830.4 -830.41,830.4 -458.62,0 -830.4,-371.78 -830.4,-830.4 0,-458.61 371.78,-830.41 830.4,-830.41 458.62,0 830.41,371.8 830.41,830.41z"/>
  <path class="fil3" d="M9448.07 10099.87l-2740.33 0c-82.62,0 -149.58,-66.96 -149.58,-149.57l0 -648.5c0,-82.61 66.96,-149.58 149.58,-149.58l2740.33 0c82.6,0 149.57,66.97 149.57,149.58l0 648.5c0,82.61 -66.97,149.57 -149.57,149.57z"/>
  <path class="fil3" d="M9448.07 11354.5l-2740.33 0c-82.62,0 -149.58,-66.96 -149.58,-149.58l0 -648.49c0,-82.6 66.96,-149.57 149.58,-149.57l2740.33 0c82.6,0 149.57,66.97 149.57,149.57l0 648.49c0,82.62 -66.97,149.58 -149.57,149.58z"/>
  <path class="fil3" d="M9448.07 12580.65l-2740.33 0c-82.62,0 -149.58,-66.97 -149.58,-149.58l0 -648.5c0,-82.6 66.96,-149.58 149.58,-149.58l2740.33 0c82.6,0 149.57,66.98 149.57,149.58l0 648.5c0,82.61 -66.97,149.58 -149.57,149.58z"/>
  <polygon class="fil3" points="17473.91,13243.74 9941.55,13243.74 9941.55,7004.16 17473.91,7004.16 "/>
  <path class="fil10" d="M16581.05 13113.87l-8783.35 0c-141.76,0 -256.67,-114.92 -256.67,-256.67l0 -8427.78c0,-141.76 114.91,-256.68 256.67,-256.68l8783.35 0c141.76,0 256.68,114.92 256.68,256.68l0 8427.78c0,141.75 -114.92,256.67 -256.68,256.67z"/>
  <path class="fil2" d="M16435.9 2219.8l0 10354.24c0,134.64 -109.14,243.78 -243.78,243.78l-7982.49 0c-134.64,0 -243.78,-109.14 -243.78,-243.78l0 -10354.24c0,-134.64 109.14,-243.79 243.78,-243.79l7982.49 0c134.64,0 243.78,109.15 243.78,243.79z"/>
  <path class="fil11" d="M16435.9 2936.64l-8470.05 0 0 -721.48c0,-132.08 107.07,-239.15 239.15,-239.15l8008.17 0c123.01,0 222.73,99.73 222.73,222.74l0 737.89z"/>
  <path class="fil8" d="M16435.9 2219.8c0,0 -0.71,-8.34 -1.68,-24.78 -2.57,-16.2 -5.73,-40.95 -18.79,-70.87 -13.01,-29.55 -35.44,-64.75 -73.28,-94.64 -37.39,-29.88 -91.73,-52.61 -155.31,-51.82 -254.61,0.36 -629.88,0.89 -1113.13,1.57 -966.8,0.62 -2365.52,1.53 -4093.85,2.65 -432.11,0.16 -884.82,0.35 -1356.53,0.54 -235.85,0.08 -476.45,0.16 -721.6,0.24 -122.58,0.04 -246.3,0.08 -371.12,0.12 -62.42,0.02 -125.11,0.04 -188.07,0.06 -31.49,0.01 -63.04,0.02 -94.66,0.03 -31.89,0.04 -62.93,-0.93 -92.93,6.63 -60.15,13.95 -114.19,53.01 -146.69,106.11 -16.35,26.45 -27.4,56.21 -32.22,87.06 -4.82,30.54 -2.7,63.11 -3.17,95.4 0.03,129.18 0.07,259.42 0.1,390.7 0.08,262.55 0.14,529.26 0.2,799.91 0.12,541.31 0.24,1098.41 0.36,1669.72 0.2,2285.23 0.42,4797.6 0.65,7434.69 0.18,39.89 10.18,79.52 29.2,114.44 19.7,34.38 47.05,64.96 81.04,85.62 33.55,21.2 72.42,33.88 112.07,35.63 40.08,1.35 81.78,0.38 122.52,0.68 163.88,0 327.24,0 490.07,0.01 325.64,0.01 649.12,0.02 970.27,0.03 642.26,0.04 1275.12,0.09 1896.97,0.13 1243.67,0.17 2443.3,0.32 3586.09,0.48 285.69,0.06 567.83,0.11 846.22,0.17 34.52,-0.45 70.2,1.03 103.57,-1 33.49,-2.7 66.38,-12.62 95.48,-29.26 58.52,-32.81 101.67,-91.15 115.48,-156.36 7.64,-32.28 4.78,-66.43 5.35,-100.86 0.01,-34.21 0.01,-68.35 0.01,-102.43 0.02,-68.17 0.04,-136.08 0.06,-203.76 0.14,-541.36 0.28,-1066.92 0.42,-1575.05 0.36,-1016.29 0.7,-1962.93 1.01,-2827.15 1.12,-1728.32 2.03,-3126.94 2.65,-4093.63 0.68,-483.19 1.21,-858.39 1.56,-1112.96 0.37,-127.13 0.65,-224.1 0.84,-289.44 0.28,-65.21 0.84,-98.61 0.84,-98.61 0,0 0.58,33.4 0.85,98.61 0.19,65.34 0.47,162.31 0.84,289.44 0.35,254.57 0.88,629.77 1.56,1112.96 0.62,966.69 1.53,2365.31 2.65,4093.63 0.31,864.22 0.65,1810.86 1.01,2827.15 0.14,508.13 0.28,1033.69 0.42,1575.05 0.02,67.68 0.03,135.59 0.05,203.76 0.01,34.08 0.02,68.22 0.02,102.43 -0.59,33.74 2.48,68.92 -5.62,103.95 -14.65,69.38 -60.48,131.39 -122.68,166.29 -30.94,17.69 -65.93,28.28 -101.54,31.17 -35.89,2.15 -69.76,0.6 -104.83,1.09 -278.39,0.06 -560.53,0.11 -846.22,0.17 -1142.79,0.15 -2342.42,0.31 -3586.09,0.49 -621.85,0.03 -1254.71,0.08 -1896.97,0.12 -321.15,0.01 -644.63,0.02 -970.27,0.03 -162.83,0.01 -326.19,0.01 -490.07,0.01 -41.16,-0.31 -81.53,0.7 -123.44,-0.7 -42.42,-1.89 -84.12,-15.47 -120.03,-38.18 -36.37,-22.15 -65.7,-54.8 -86.74,-91.66 -20.4,-37.35 -31.12,-79.95 -31.29,-122.49 0.24,-2637.09 0.46,-5149.46 0.66,-7434.69 0.12,-571.31 0.23,-1128.41 0.35,-1669.72 0.06,-270.65 0.14,-537.36 0.2,-799.91 0.04,-131.28 0.07,-261.52 0.11,-390.7 0.53,-32.18 -1.73,-64.48 3.39,-97.59 5.13,-32.66 16.86,-64.2 34.18,-92.19 34.46,-56.19 91.66,-97.49 155.37,-112.24 31.91,-8 64.93,-6.93 96.11,-6.95 31.62,0.01 63.17,0.02 94.66,0.03 62.96,0.02 125.65,0.04 188.07,0.06 124.82,0.04 248.54,0.08 371.12,0.12 245.15,0.08 485.75,0.16 721.6,0.24 471.71,0.19 924.42,0.37 1356.53,0.54 1728.33,1.12 3127.05,2.03 4093.85,2.65 483.25,0.68 858.52,1.21 1113.13,1.57 64.32,-0.54 119.3,22.78 156.88,53.17 38.06,30.43 60.44,66.1 73.28,95.97 12.89,30.25 15.78,55.18 18.08,71.45 0.69,16.53 0.82,24.87 0.82,24.87z"/>
  <path class="fil9" d="M10311.39 7041.76l-792.37 0c-68.28,0 -123.64,-55.35 -123.64,-123.63l0 -792.37c0,-68.28 55.36,-123.64 123.64,-123.64l792.37 0c68.28,0 123.63,55.36 123.63,123.64l0 792.37c0,68.28 -55.35,123.63 -123.63,123.63z"/>
  <polygon class="fil2" points="9900.29,6769.61 9609.05,6544.56 9687.59,6442.92 9882.89,6593.84 10160.63,6274.27 10257.56,6358.52 "/>
  <polygon class="fil3" points="14693.58,5025.05 10989.6,5025.05 10989.6,4777.39 14693.58,4777.39 "/>
  <path class="fil3" d="M10311.39 5421.04l-792.37 0c-68.28,0 -123.64,-55.35 -123.64,-123.63l0 -792.38c0,-68.28 55.36,-123.64 123.64,-123.64l792.37 0c68.28,0 123.63,55.36 123.63,123.64l0 792.38c0,68.28 -55.35,123.63 -123.63,123.63z"/>
  <polygon class="fil12" points="13954.93,6701.14 10989.6,6701.14 10989.6,6453.48 13954.93,6453.48 "/>
  <path class="fil3" d="M10311.39 8734.09l-792.37 0c-68.28,0 -123.64,-55.35 -123.64,-123.63l0 -792.37c0,-68.28 55.36,-123.64 123.64,-123.64l792.37 0c68.28,0 123.63,55.36 123.63,123.64l0 792.37c0,68.28 -55.35,123.63 -123.63,123.63z"/>
  <polygon class="fil3" points="14269.21,8377.23 10989.6,8377.23 10989.6,8129.56 14269.21,8129.56 "/>
  <path class="fil3" d="M10311.39 10410.18l-792.37 0c-68.28,0 -123.64,-55.35 -123.64,-123.63l0 -792.37c0,-68.29 55.36,-123.64 123.64,-123.64l792.37 0c68.28,0 123.63,55.35 123.63,123.64l0 792.37c0,68.28 -55.35,123.63 -123.63,123.63z"/>
  <path class="fil3" d="M10311.39 11993.91l-792.37 0c-68.28,0 -123.64,-55.35 -123.64,-123.63l0 -792.37c0,-68.28 55.36,-123.64 123.64,-123.64l792.37 0c68.28,0 123.63,55.36 123.63,123.64l0 792.37c0,68.28 -55.35,123.63 -123.63,123.63z"/>
  <polygon class="fil3" points="12987.73,10053.32 10989.6,10053.32 10989.6,9805.65 12987.73,9805.65 "/>
  <polygon class="fil3" points="14693.58,11619.26 10989.6,11619.26 10989.6,11371.59 14693.58,11371.59 "/>
  <path class="fil2" d="M8607.17 2430.6c0,84.17 -68.25,152.4 -152.41,152.4 -84.18,0 -152.42,-68.23 -152.42,-152.4 0,-84.18 68.24,-152.41 152.42,-152.41 84.16,0 152.41,68.23 152.41,152.41z"/>
  <path class="fil2" d="M9018.66 2430.6c0,84.17 -68.23,152.4 -152.41,152.4 -84.16,0 -152.4,-68.23 -152.4,-152.4 0,-84.18 68.24,-152.41 152.4,-152.41 84.18,0 152.41,68.23 152.41,152.41z"/>
  <path class="fil2" d="M9430.17 2430.6c0,84.17 -68.25,152.4 -152.41,152.4 -84.18,0 -152.41,-68.23 -152.41,-152.4 0,-84.18 68.23,-152.41 152.41,-152.41 84.16,0 152.41,68.23 152.41,152.41z"/>
  <path class="fil10" d="M18133.61 10366.64l-5445.96 0c-68.15,0 -123.39,-55.24 -123.39,-123.39l0 -1505.3c0,-68.15 55.24,-123.39 123.39,-123.39l5445.96 0c68.14,0 123.39,55.24 123.39,123.39l0 1505.3c0,68.15 -55.25,123.39 -123.39,123.39z"/>
  <path class="fil2" d="M17919.07 10063.18l-5445.96 0c-68.15,0 -123.39,-55.24 -123.39,-123.39l0 -1505.31c0,-68.15 55.24,-123.39 123.39,-123.39l5445.96 0c68.15,0 123.4,55.24 123.4,123.39l0 1505.31c0,68.15 -55.25,123.39 -123.4,123.39z"/>
  <path class="fil8" d="M17919.08 10063.18c-0.12,-0.82 13.15,0.66 37.04,-6.59 22.87,-7.37 59.07,-27.75 76.68,-73.73 9.74,-22.54 7.52,-50.23 7.58,-80.36 -0.12,-30.19 -0.25,-63.18 -0.39,-98.9 -0.23,-71.53 -0.48,-153.99 -0.77,-246.8 -0.39,-185.79 -0.86,-412.96 -1.42,-676.65 -0.2,-131.9 -0.41,-272.93 -0.64,-422.47 -0.06,-18.95 0.72,-37.22 -4.45,-54.64 -4.67,-17.53 -13.8,-33.92 -26.19,-47.48 -24.66,-28.03 -62.32,-41.6 -101.15,-38.86 -78.97,0.09 -159.99,0.19 -242.99,0.28 -1328.35,0.63 -3162.77,1.5 -5188.92,2.45 -29.66,-0.11 -58.9,11.65 -80.07,32.21 -21.34,20.37 -34.22,49.11 -35.11,78.49 -0.09,62.86 -0.16,125.5 -0.24,187.96 -0.01,125.1 -0.02,249.38 -0.03,372.76 -0.04,246.74 -0.09,489.88 -0.12,728.78 -0.02,59.72 -0.04,119.19 -0.05,178.38 0.68,29.99 -3.08,59.22 8.23,84.44 10.18,25.58 29.81,47.14 54.15,59.74 12.12,6.34 25.39,10.51 38.98,12.01 13.19,1.41 28.32,0.78 42.81,0.93 29.17,0.01 58.28,0.02 87.3,0.03 58.05,0.02 115.81,0.04 173.26,0.06 229.82,0.1 454.8,0.19 674.32,0.28 878.01,0.67 1668.7,1.28 2332.81,1.78 663.82,1.12 1201.05,2.03 1572.71,2.65 185.44,0.68 329.5,1.21 427.59,1.57 48.64,0.37 85.8,0.64 111.19,0.83 25.05,0.28 37.89,0.85 37.89,0.85 0,0 -12.84,0.57 -37.89,0.85 -25.39,0.19 -62.55,0.47 -111.19,0.83 -98.09,0.35 -242.15,0.89 -427.59,1.56 -371.66,0.64 -908.89,1.53 -1572.71,2.65 -664.11,0.52 -1454.8,1.12 -2332.81,1.79 -219.52,0.09 -444.5,0.18 -674.32,0.28 -57.45,0.02 -115.21,0.03 -173.26,0.05 -29.02,0.01 -58.13,0.02 -87.3,0.04 -14.66,-0.19 -28.82,0.59 -44.72,-1.03 -15.49,-1.71 -30.66,-6.46 -44.5,-13.68 -27.76,-14.35 -50.12,-38.87 -61.76,-68.07 -5.88,-14.54 -9.12,-30.23 -9.29,-45.94l-0.14 -44.5c-0.02,-59.19 -0.04,-118.66 -0.04,-178.38 -0.05,-238.9 -0.09,-482.04 -0.13,-728.78 -0.01,-123.38 -0.03,-247.66 -0.04,-372.76 0.08,-62.66 0.16,-125.52 0.24,-188.58 1.01,-33.6 15.8,-66.61 40.2,-89.88 24.17,-23.5 57.83,-37.02 91.63,-36.88 2026.15,0.96 3860.57,1.83 5188.92,2.45 83,0.09 164.02,0.19 242.99,0.28 39.9,-2.93 83,12.12 109.24,42.77 13.5,14.84 23.4,32.78 28.47,51.92 5.6,19.23 4.66,39.2 4.69,57.51 -0.23,149.54 -0.45,290.57 -0.65,422.47 -0.55,263.69 -1.02,490.86 -1.41,676.65 -0.29,92.81 -0.55,175.27 -0.77,246.8 -0.14,35.72 -0.28,68.71 -0.4,98.9 -0.32,29.79 1.67,58.37 -8.6,81.55 -18.65,47.05 -55.97,67.22 -79.3,74.17 -24.4,6.81 -37.56,4.96 -37.56,4.96z"/>
  <path class="fil9" d="M15140.46 8823.51l-80.34 162.79c-9.03,18.31 -26.5,30.99 -46.71,33.93l-179.64 26.1c-50.88,7.4 -71.2,69.93 -34.38,105.82l129.99 126.71c14.62,14.25 21.29,34.78 17.84,54.9l-30.69 178.92c-8.69,50.67 44.5,89.32 90.01,65.4l160.68 -84.48c18.07,-9.5 39.66,-9.5 57.73,0l160.68 84.48c45.51,23.92 98.7,-14.73 90.01,-65.4l-30.68 -178.92c-3.46,-20.12 3.21,-40.65 17.83,-54.9l129.99 -126.71c36.82,-35.89 16.51,-98.42 -34.38,-105.82l-179.64 -26.1c-20.2,-2.94 -37.67,-15.62 -46.7,-33.93l-80.34 -162.79c-22.76,-46.11 -88.5,-46.11 -111.26,0z"/>
  <path class="fil9" d="M16175.14 8823.51l-80.34 162.79c-9.04,18.31 -26.51,30.99 -46.72,33.93l-179.63 26.1c-50.88,7.4 -71.21,69.93 -34.39,105.82l129.99 126.71c14.63,14.25 21.3,34.78 17.85,54.9l-30.69 178.92c-8.7,50.67 44.5,89.32 90.01,65.4l160.67 -84.48c18.07,-9.5 39.67,-9.5 57.74,0l160.68 84.48c45.5,23.92 98.7,-14.73 90,-65.4l-30.69 -178.92c-3.45,-20.12 3.22,-40.65 17.85,-54.9l129.99 -126.71c36.82,-35.89 16.49,-98.42 -34.39,-105.82l-179.63 -26.1c-20.21,-2.94 -37.68,-15.62 -46.71,-33.93l-80.35 -162.79c-22.74,-46.11 -88.49,-46.11 -111.24,0z"/>
  <path class="fil3" d="M17209.81 8823.51l-80.34 162.79c-9.03,18.31 -26.51,30.99 -46.7,33.93l-179.65 26.1c-50.88,7.4 -71.2,69.93 -34.38,105.82l129.99 126.71c14.62,14.25 21.29,34.78 17.84,54.9l-30.69 178.92c-8.69,50.67 44.5,89.32 90.01,65.4l160.68 -84.48c18.07,-9.5 39.66,-9.5 57.73,0l160.68 84.48c45.51,23.92 98.7,-14.73 90.01,-65.4l-30.68 -178.92c-3.46,-20.12 3.22,-40.65 17.83,-54.9l129.99 -126.71c36.82,-35.89 16.51,-98.42 -34.38,-105.82l-179.64 -26.1c-20.2,-2.94 -37.67,-15.62 -46.71,-33.93l-80.33 -162.79c-22.76,-46.11 -88.5,-46.11 -111.26,0z"/>
  <path class="fil9" d="M14105.79 8823.51l-80.34 162.79c-9.04,18.31 -26.5,30.99 -46.71,33.93l-179.64 26.1c-50.88,7.4 -71.21,69.93 -34.38,105.82l129.98 126.71c14.63,14.25 21.3,34.78 17.85,54.9l-30.69 178.92c-8.69,50.67 44.5,89.32 90.01,65.4l160.67 -84.48c18.07,-9.5 39.67,-9.5 57.74,0l160.67 84.48c45.51,23.92 98.71,-14.73 90.01,-65.4l-30.68 -178.92c-3.46,-20.12 3.22,-40.65 17.84,-54.9l129.99 -126.71c36.82,-35.89 16.5,-98.42 -34.39,-105.82l-179.63 -26.1c-20.21,-2.94 -37.67,-15.62 -46.71,-33.93l-80.34 -162.79c-22.76,-46.11 -88.5,-46.11 -111.25,0z"/>
  <path class="fil9" d="M13071.11 8823.51l-80.34 162.79c-9.03,18.31 -26.51,30.99 -46.71,33.93l-179.64 26.1c-50.87,7.4 -71.19,69.93 -34.38,105.82l130 126.71c14.61,14.25 21.28,34.78 17.83,54.9l-30.69 178.92c-8.69,50.67 44.5,89.32 90.01,65.4l160.68 -84.48c18.07,-9.5 39.66,-9.5 57.73,0l160.68 84.48c45.51,23.92 98.7,-14.73 90.01,-65.4l-30.69 -178.92c-3.45,-20.12 3.23,-40.65 17.84,-54.9l129.99 -126.71c36.82,-35.89 16.51,-98.42 -34.38,-105.82l-179.64 -26.1c-20.2,-2.94 -37.67,-15.62 -46.7,-33.93l-80.35 -162.79c-22.75,-46.11 -88.5,-46.11 -111.25,0z"/>
  <path class="fil2" d="M6018.75 8141.52l-3717.52 0c-324.17,0 -586.96,262.79 -586.96,586.96l0 1394.32c0,324.16 262.79,586.95 586.96,586.95l2146.41 0c97.17,210.43 279.39,379.37 485.22,490.65 168.36,91.01 351.59,148.41 538.58,191.94 73.38,17.09 128.32,-66.33 82.37,-126.03 -124.97,-162.39 -210.48,-355.15 -249.54,-556.56l714.48 0c324.16,0 586.96,-262.79 586.96,-586.95l0 -1394.32c0,-324.17 -262.8,-586.96 -586.96,-586.96z"/>
  <path class="fil8" d="M6018.75 8141.52c0,0 6.21,-0.08 18.46,0.35 12.18,1.01 30.65,-0.15 54.5,3.48 47.77,5.03 119.27,19.97 202.69,62.5 82.06,43.29 175.72,118.76 242.41,237.66 32.39,59.49 57.15,129.28 67.21,206.4 5.21,38.46 5.82,78.82 5.76,119.65 0.07,41 0.15,83.16 0.24,126.48 0.1,346.66 2.37,766.65 0.52,1248.2 -1.3,60.75 -13.84,122.1 -35.49,180.81 -21.75,58.58 -51.8,115.75 -92.85,165.67 -80.8,99.97 -196.67,179.01 -330.33,208.23 -66.42,15.78 -136.31,16.24 -204.87,15.69 -69.02,0.04 -138.86,0.09 -209.5,0.14 -141.28,0.09 -285.76,0.19 -433.22,0.29l7.17 -8.71c30.3,155.33 89.28,309.73 177.4,450.89 22.09,35.27 45.95,69.52 71.5,103.11 13.83,18.29 20.69,42.69 16.75,65.8 -4.01,22.99 -16.91,44.32 -36.18,57.81 -18.79,14.22 -44.03,18.87 -66.91,14.58 -21.78,-4.46 -42.21,-9.76 -63.38,-14.95 -42.01,-10.53 -84.04,-21.93 -125.98,-34.47 -167.38,-50.11 -335.03,-118.85 -484.52,-223.48 -148.53,-104.12 -280.25,-243.26 -359.9,-414.47l7.41 4.73c-494.23,0.06 -1006.23,0.11 -1530.68,0.18 -130.69,-0.01 -260.59,-0.01 -389.66,-0.02 -64.53,0 -128.85,0 -192.94,-0.01 -31.85,0.58 -64.49,-1.42 -96.74,-3.5l-47.97 -7.32c-16,-2.38 -31.4,-7.58 -47.1,-11.24 -62.11,-17.37 -121.18,-44.49 -174.57,-79.97 -52.8,-36.34 -99.48,-80.82 -138.31,-131.04 -39.13,-50.01 -69.81,-106.44 -89.89,-166.17 -20.03,-59.55 -32.91,-121.84 -33.1,-184.41 0.24,-493 0.48,-968.55 0.69,-1421.58 0.23,-57.49 12.43,-113.8 28.5,-167.92 17.44,-53.99 43.54,-104.27 74.06,-151.01 32.06,-45.83 69.81,-86.91 111.72,-122.72 43.2,-34.12 89.27,-64.32 139.21,-85.94 49.95,-20.92 101.74,-37.85 154.97,-44.12 53.07,-8.32 106.28,-6.6 158,-6.73 104.06,0.08 206.48,0.15 307.18,0.22 402.75,0.36 777.92,0.71 1120.46,1.02 684.8,1.11 1239.01,2.02 1622.39,2.65 191.32,0.68 339.93,1.2 441.1,1.57 50.19,0.36 88.53,0.63 114.71,0.82 25.84,0.28 39.08,0.85 39.08,0.85 0,0 -13.24,0.58 -39.08,0.86 -26.18,0.19 -64.52,0.46 -114.71,0.82 -101.17,0.36 -249.78,0.89 -441.1,1.56 -383.38,0.63 -937.59,1.54 -1622.39,2.65 -342.54,0.32 -717.71,0.65 -1120.46,1.02 -100.7,0.07 -203.12,0.14 -307.18,0.22 -52.18,0.19 -104.47,-1.39 -155.93,6.77 -51.93,6.16 -102.41,22.78 -151.1,43.22 -48.69,21.13 -93.56,50.67 -135.66,83.96 -40.83,34.99 -77.58,75.07 -108.8,119.77 -29.67,45.61 -55.08,94.61 -72.02,147.23 -15.56,52.75 -27.46,107.59 -27.59,163.63 0.09,452.8 0.19,928.1 0.29,1420.86 0.17,60.89 12.78,121.42 32.26,179.32 19.51,58.07 49.38,112.92 87.45,161.54 37.78,48.82 83.19,92.06 134.53,127.39 51.91,34.47 109.33,60.8 169.7,77.68 15.27,3.53 30.23,8.63 45.78,10.91l46.64 7.12c31.43,1.97 62.73,3.97 94.98,3.39 64.09,0 128.41,-0.01 192.94,-0.02 129.07,0 258.97,0 389.66,-0.01 524.45,0.06 1036.45,0.12 1530.68,0.17l5.21 0 2.21 4.75c78.02,167.98 207.64,305.28 354.28,408.19 147.42,103.35 313.5,171.71 479.8,221.62 41.67,12.49 83.46,23.88 125.27,34.39 20.76,5.12 42.1,10.63 62.4,14.8 19.16,3.52 39.59,-0.15 55.13,-11.9 15.96,-11.06 26.68,-28.91 30,-47.77 3.18,-18.98 -2.27,-38.61 -13.8,-54.08 -25.65,-33.77 -49.88,-68.64 -72.16,-104.29 -89.01,-142.9 -148.45,-299.06 -178.89,-456.14l-1.68 -8.72 8.87 0.01c147.46,0.09 291.94,0.18 433.22,0.28 70.64,0.04 140.48,0.1 209.5,0.14 69.24,0.66 136.81,0.28 201.86,-15.01 130.66,-28.32 244.1,-105.43 323.36,-203.1 40.29,-48.77 69.78,-104.67 91.18,-161.97 21.3,-57.43 33.74,-117.49 35.12,-177.01 1.11,-480.96 2.08,-901.15 2.88,-1247.73 -1.1,-86.49 3.8,-169.12 -4.98,-245.14 -9.59,-76.15 -33.73,-145.22 -65.45,-204.2 -65.34,-117.87 -157.6,-193.24 -238.71,-236.83 -82.44,-42.84 -153.34,-58.46 -200.83,-64.21 -23.72,-4 -42.11,-3.22 -54.26,-4.62 -12.21,-0.81 -18.42,-1.52 -18.42,-1.52z"/>
  <path class="fil11" d="M2902.8 9370.32c0,190.72 -154.61,345.33 -345.33,345.33 -190.72,0 -345.32,-154.61 -345.32,-345.33 0,-190.72 154.6,-345.33 345.32,-345.33 190.72,0 345.33,154.61 345.33,345.33z"/>
  <polygon class="fil3" points="5874.44,9188.07 3142.84,9188.07 3142.84,9027.53 5874.44,9027.53 "/>
  <polygon class="fil3" points="5874.44,9571.76 3142.84,9571.76 3142.84,9411.21 5874.44,9411.21 "/>
  <polygon class="fil3" points="4245.12,9955.44 3142.84,9955.44 3142.84,9794.9 4245.12,9794.9 "/>
  <path class="fil8" d="M19427.61 13952.64l30.16 550.37c0,0 -549.31,215.5 -553.63,317.75l1069.23 -20.15 -11.79 -859.47 -533.97 11.5z"/>
  <path class="fil7" d="M19973.37 14800.61l-1.14 -83.24 -1026.89 48.36c0,0 -47.22,21.61 -41.2,55.03l1069.23 -20.15z"/>
  <path class="fil2" d="M19440.33 14497.89c0.27,5.23 26.43,7.11 52.43,23.41 26.43,15.62 40.1,37.99 44.86,35.83 4.79,-1.11 -3.58,-32.17 -35.41,-51.36 -31.65,-19.46 -63.1,-12.64 -61.88,-7.88z"/>
  <path class="fil2" d="M19329.05 14546.4c-1.1,5.08 21.69,13.53 39.84,35.28 18.78,21.21 23.71,45.01 28.91,44.67 4.92,0.75 7.95,-29.9 -15.13,-56.52 -22.84,-26.81 -53.6,-28.41 -53.62,-23.43z"/>
  <path class="fil2" d="M19267.89 14681.82c4.77,1.03 11.54,-25.2 -2.41,-53.53 -13.74,-28.46 -38.58,-39.27 -40.7,-34.88 -2.88,4.36 13.27,19.4 24.36,42.83 11.65,23.18 13.55,45.17 18.75,45.58z"/>
  <path class="fil8" d="M21457.26 13885.62l179.68 642.2 288.58 466.97c20.8,33.65 8.75,77.89 -26.24,96.35 -19.59,10.34 -42.77,10.64 -62.54,0.63 -125.8,-63.71 -587.37,-300.38 -597.89,-348.11 -12.17,-55.29 -234.51,-664.82 -234.51,-664.82l452.92 -193.22z"/>
  <path class="fil7" d="M21899.28 15091.14l-673.55 -390.53 8.23 27.03c7.13,23.37 22.2,43.5 42.77,56.68 55.01,35.27 209.02,129.32 558.07,308.06 20.32,10.39 44.6,9.94 64.48,-1.24z"/>
  <path class="fil2" d="M21668.57 14856.83c4.14,0.67 8.35,-37.12 40.82,-66.65 31.58,-30.5 69.56,-32.24 69.16,-36.42 0.09,-1.74 -9.5,-4.24 -25.06,-1.8 -15.46,2.33 -36.42,10.99 -54.11,27.53 -17.64,16.58 -27.66,36.92 -30.98,52.19 -3.44,15.39 -1.57,25.12 0.17,25.15z"/>
  <path class="fil2" d="M21740.03 14928.42c3.88,1.83 18.03,-25.14 48.15,-44.65 29.69,-20.18 60.03,-22.73 59.85,-27.01 0.85,-3.81 -33.98,-7.99 -67.96,14.81 -34.2,22.42 -43.89,56.14 -40.04,56.85z"/>
  <path class="fil2" d="M21550.64 14773.11c3.91,2.12 25.48,-39.49 69.65,-73.91 43.65,-35.13 89.08,-46.6 87.91,-50.89 0,-3.72 -50.1,1.86 -97,39.4 -47.27,37.06 -64.18,84.54 -60.56,85.4z"/>
  <path class="fil2" d="M21479.7 14582.46c2.87,3.29 33.63,-22.16 78.98,-37.79 45.14,-16.25 85.05,-15.68 85.23,-20.05 0.8,-3.66 -41.55,-11.11 -90.09,6.23 -48.71,16.92 -77.04,49.25 -74.12,51.61z"/>
  <path class="fil2" d="M21421.47 14432.47c3.1,3.1 32.06,-28.97 81.17,-41.51 48.84,-13.63 89.92,-0.3 91.05,-4.53 0.64,-1.64 -8.76,-7.52 -26.06,-11.55 -17.17,-4.07 -42.39,-5.07 -68.78,1.94 -26.34,7.09 -47.7,20.54 -60.55,32.63 -12.99,12.12 -18.2,21.91 -16.83,23.02z"/>
  <path class="fil8" d="M21323.64 5921.02c3.37,-64.09 -55.59,-124.46 -119.75,-122.6 61.88,-52.84 58.03,-163.99 -7.34,-212.43 -65.38,-48.43 -172.84,-19.73 -205.35,54.85 -29.52,-120.89 -163.8,-205.55 -285.61,-180.07 -121.81,25.47 -210.91,156.83 -189.52,279.43l1.24 592.82c12.96,53.78 56.3,99.13 109.43,114.52 53.14,15.4 114.01,0.24 153.72,-38.27 44.78,42.49 118.94,49.87 171.22,17.01 52.26,-32.86 77.79,-102.87 58.92,-161.66 22.05,43.5 84.46,55.16 127.19,31.66 42.73,-23.49 66.24,-72.78 71.12,-121.3 4.88,-48.53 -6.05,-97.1 -17.21,-144.57 63.61,8.57 128.57,-45.29 131.94,-109.39z"/>
  <path class="fil8" d="M20783.84 6056.6c-77.89,-197.26 -220.93,-342.25 -421.95,-410.29 -113.42,-38.37 -168.18,-29.81 -257.38,-33.95 -89.21,-4.16 -177.4,16.14 -248.64,69.93 -84.62,63.87 -163.1,140.61 -206.26,237.42 -44.31,99.43 -88.87,199.56 -114.22,305.43 -25.35,105.87 -30.61,218.97 3.42,322.39l248.63 129.97c143.81,51.49 289.69,103.44 441.96,115.65 152.27,12.2 314.3,-19.89 429.9,-119.64 160.62,-138.58 202.44,-419.64 124.54,-616.91z"/>
  <path class="fil13" d="M20550.14 5979.89l-306.3 -251.73 -95.1 -18.71c-206.54,-65.3 -421.68,116.47 -476.53,282.98 -60.94,184.99 -128.04,413.26 -142.35,559.4 -28.79,293.87 198.7,391.93 198.7,391.93l-56.98 274.12 220.15 239.67 310.42 -230.89 410.6 -1122.92c14.46,-51.26 -12.74,-105.06 -62.61,-123.85z"/>
  <path class="fil14" d="M19963.17 6619.6c2.73,-15.1 -1.22,-30.49 -8.68,-42.58 -14.92,-24.18 -44.42,-35.51 -71.28,-27.38 -26.88,8.13 -49.45,35.21 -54.58,65.46 6.93,20.91 22.15,38.41 42.48,46.91 3.17,1.32 6.4,2.49 9.7,3.45 16,4.67 33.85,4.48 49.7,-3.33 15.85,-7.8 29.29,-23.89 32.66,-42.53z"/>
  <path class="fil8" d="M19725.52 6274.76c-5.67,18.96 5.72,39.36 25.41,45.63 19.63,6.26 40.18,-3.96 45.84,-22.89 5.66,-18.93 -5.71,-39.37 -25.35,-45.63 -19.68,-6.28 -40.24,3.97 -45.9,22.89z"/>
  <path class="fil8" d="M19705.37 6105.29c3.27,5.89 36,-7.24 74.95,3.02 39.06,9.69 62.44,37.19 67.91,33.51 2.63,-1.56 0.26,-11.27 -9.81,-23.58 -9.9,-12.22 -28.54,-26.44 -52.84,-32.68 -24.31,-6.18 -47.07,-2.58 -61.19,3.51 -14.38,6.06 -20.68,13.53 -19.02,16.22z"/>
  <path class="fil8" d="M19855.34 6484.23c0.77,-2.16 -22.37,-12.66 -60.32,-27.91 -9.68,-3.62 -18.59,-8.06 -18.5,-15.28 -0.46,-7.8 6.49,-17.43 14.34,-27.74 15.64,-21.63 32.01,-44.3 49.19,-68.05 69,-97.15 121.73,-178.1 117.8,-180.84 -3.96,-2.74 -63.08,73.78 -132.09,170.94 -16.78,24.03 -32.8,46.91 -48.08,68.82 -6.72,10.32 -16.53,21.45 -15.34,37.68 0.74,8.14 6.64,15.44 12.58,18.82 5.87,3.6 11.44,5.17 16.28,6.75 38.96,12.42 63.42,18.99 64.14,16.81z"/>
  <path class="fil14" d="M19728.2 6943.31c0,0 186.82,61.77 404.55,-2.21 0,0 -145.76,186.23 -421.55,86.13l17 -83.92z"/>
  <path class="fil8" d="M19963.02 6541.07c-6.23,-2.01 -17.35,40.23 -61.4,60.79 -43.99,20.68 -87.86,4.18 -89.72,10 -1.29,2.5 7.9,10.83 26.79,16.31 18.51,5.51 47.34,6.62 74.28,-5.96 26.9,-12.63 42.81,-34.7 48.77,-51.67 6.22,-17.25 4.24,-28.96 1.28,-29.47z"/>
  <path class="fil8" d="M19761.37 5975.43c4.07,11.22 35.58,12.65 69.7,24.63 34.49,10.89 60.61,28.7 70.51,22.13 4.51,-3.29 3.12,-13.55 -6.47,-26.27 -9.43,-12.62 -27.72,-26.81 -51.3,-34.7 -23.58,-7.83 -46.64,-7.45 -61.67,-2.97 -15.24,4.44 -22.4,11.84 -20.77,17.18z"/>
  <path class="fil8" d="M20135.89 6380.16c-5.03,19.12 -25.38,30.61 -45.46,25.72 -20.03,-4.87 -32.24,-24.29 -27.21,-43.4 5.03,-19.12 25.38,-30.63 45.41,-25.76 20.08,4.87 32.28,24.32 27.26,43.44z"/>
  <path class="fil8" d="M20228.51 6256.42c-5.85,3.33 -26.96,-24.91 -65.56,-36.44 -38.39,-12.04 -72.68,-0.73 -75.44,-6.72 -1.42,-2.7 5.65,-9.77 20.67,-15.02 14.82,-5.28 38.14,-7.73 62.13,-0.4 23.99,7.36 41.53,22.29 50.42,34.83 9.12,12.65 10.6,22.31 7.78,23.75z"/>
  <path class="fil8" d="M20244.77 6126.43c-10.23,6.46 -37.26,-11.58 -72.9,-22.78 -35.3,-12.32 -67.85,-14.02 -72.07,-25.27 -1.73,-5.36 5.69,-12.69 21.44,-16.99 15.53,-4.32 39.38,-4.51 63.77,3.55 24.37,8.1 43.29,22.44 53.03,35.16 9.94,12.79 11.37,23.06 6.73,26.33z"/>
  <path class="fil8" d="M20487.67 6495.46l-64.04 34.43c-143.93,-264.93 -390.29,-891.78 -377.14,-854.91 0,0 160.91,-12.92 306.82,62.75 145.92,75.67 413.92,246.56 351.15,426.98 -62.78,180.42 -216.79,330.75 -216.79,330.75z"/>
  <path class="fil13" d="M20415.74 6554.48c5.52,-20.99 42.77,-64.21 64.38,-62.03 57.72,5.82 156.54,36.33 120.75,177.33 -48.94,192.72 -232.52,103.84 -231.45,98.23 0.83,-4.4 27.2,-141.01 46.32,-213.53z"/>
  <path class="fil14" d="M20440.51 6711.1c1.01,-0.4 2.78,3.2 7.78,7.24 4.91,3.94 13.98,8.11 25,6.89 22.27,-2.3 47.64,-30.27 57.38,-64.77 4.96,-17.43 5.52,-35.06 2.82,-50.46 -2.32,-15.6 -8.94,-27.77 -18.74,-32.18 -9.6,-4.96 -18.43,-0.65 -22.16,4.16 -3.97,4.74 -3.72,8.9 -4.82,8.96 -0.66,0.36 -3.32,-4.27 0.25,-11.83 1.77,-3.63 5.18,-7.61 10.66,-10.16 5.58,-2.58 12.88,-2.77 19.84,-0.19 14.61,4.81 24.52,21.88 27.5,38.79 3.79,17.19 3.57,37.11 -1.98,56.67 -11.1,38.53 -40.22,69.82 -70.16,70.8 -14.45,0.08 -24.75,-6.87 -29.43,-12.9 -4.78,-6.26 -4.69,-10.85 -3.94,-11.02z"/>
  <path class="fil7" d="M20783.22 6507.34c-0.84,-0.28 2.76,-12.27 8.5,-34.03 5.8,-21.76 12.93,-53.6 18.14,-93.42 10.77,-79.2 9.47,-192.91 -29.85,-309.19 -39.31,-116.33 -107.29,-207.51 -163.91,-263.93 -28.31,-28.49 -53.3,-49.46 -71.1,-63.23 -17.77,-13.82 -27.9,-21.16 -27.41,-21.9 0.21,-0.3 2.98,1.17 8.07,4.26 5.01,3.21 12.7,7.57 21.84,14.25 18.69,12.82 44.66,33.07 73.97,61.19 58.63,55.61 128.8,147.59 168.78,265.9 39.99,118.26 40.03,233.93 27.18,313.71 -6.24,40.14 -14.6,71.99 -21.67,93.52 -3.22,10.87 -6.67,19 -8.71,24.59 -2.17,5.56 -3.48,8.41 -3.83,8.28z"/>
  <path class="fil8" d="M19070.83 9187.77c-16.42,16.74 -355.68,793.43 -338.49,1204.82 17.18,411.39 265.2,1843.33 265.2,1843.33l396.4 2215.16 575.67 0c0,0 0,-1416.12 -51.56,-1803.77 -51.55,-387.65 -111.69,-601.27 -128.87,-886.07 -17.19,-284.8 -22.08,-883.8 -39.27,-860.07 -17.17,23.73 1328.09,3470.8 1328.09,3470.8l565.92 -37.47c0,0 -205.04,-1183.14 -248,-1407.47 -42.96,-224.34 -214.81,-912.62 -343.69,-1260.72 -128.89,-348.1 -174.06,-1216.31 -352.28,-1589.82 -178.22,-373.52 -214.86,-734.1 -214.86,-734.1l-1414.26 -154.62z"/>
  <path class="fil9" d="M21004.12 1396.36l342.4 958.89c38.51,107.85 129.79,191.3 244.09,223.16l1016.22 283.21c287.83,80.22 358.58,440.36 119.72,609.44l-843.33 596.94c-94.85,67.14 -148.54,175.05 -143.57,288.55l44.2 1009.2c12.53,285.84 -322.76,457.39 -567.36,290.29l-863.6 -589.96c-97.14,-66.35 -221.6,-83.12 -332.82,-44.82l-988.91 340.5c-280.09,96.45 -558.05,-157.68 -470.37,-430.02l309.6 -961.56c34.82,-108.15 11.58,-226.42 -62.13,-316.25l-655.39 -798.76c-185.62,-226.24 -22.13,-554.84 276.67,-556.06l1054.94 -4.31c118.66,-0.49 228.76,-56.82 294.43,-150.64l583.85 -834.17c165.37,-236.26 544.38,-185.22 641.36,86.37z"/>
  <path class="fil13" d="M18448.56 5484.44l70.07 -118.63c0,0 -176.7,-368.14 -177.81,-401.39 -1.1,-33.25 163.61,-261.95 163.61,-261.95l189.73 -30.19c0,0 15.18,44.54 -29.35,59.72 -44.54,15.18 -103.94,30.47 -103.94,30.47l-50.18 79.99c0,0 86.43,-25.97 110.9,-32.27 24.46,-6.29 237.15,-5.13 234.76,29.02 -2.39,34.16 -33.54,86.88 -77.27,90.68 -43.74,3.8 -154.67,36.08 -154.67,36.08 0,0 -41.43,25.57 -11.78,40.29 29.66,14.73 165.06,-23.84 190.63,3.11 25.57,26.96 -7.48,57.81 -31.15,52.73 -23.67,-5.09 -137.89,28.04 -137.89,28.04 0,0 152.2,143.41 153.62,221.3 1.4,77.88 -53.88,311.96 -53.88,311.96l-285.4 -138.96z"/>
  <path class="fil13" d="M21436.34 6032.78c0,0 -37.71,-245.46 -24.24,-298.29 13.48,-52.84 232.93,-235.41 216.59,-234.71 -16.34,0.71 -151.26,-91.72 -148.03,-118.93 3.24,-27.22 3.24,-27.22 3.24,-27.22 0,0 -19.91,-67.77 5.84,-83.99 25.74,-16.21 105.67,26.94 105.67,26.94 0,0 79.53,-39.3 135.49,-26.59 55.96,12.71 88.78,146.67 88.78,146.67 0,0 67.84,-33.13 54.85,-86.09 -12.97,-52.96 -29,-118.39 -29,-118.39 0,0 30.45,-23.97 57.47,18.95 27.04,42.91 53.44,218.06 43.85,273.26 -9.6,55.19 -229.36,171.78 -239.34,210.55 -9.99,38.78 46.75,287.25 46.75,287.25l-317.92 30.59z"/>
  <path class="fil15" d="M20375.9 8908.48l357.22 -1677.24 -483.41 -75.89c0,0 -148.63,109.98 -320.61,109.98 -171.98,0 -241.75,-169.38 -241.75,-169.38l-312.59 -75.45c0,0 -435.77,473.94 -497.1,1051.16 -15.89,149.68 49.28,505.9 83.74,678.74 13.13,65.84 13.78,133.41 2.11,199.52l-114.42 648.34c433.86,415.61 1175.1,355.89 1676.17,-30.77 51.95,-70.16 8.36,-201.07 -31.46,-278.75l-117.9 -380.26z"/>
  <path class="fil15" d="M18439.8 5452.67c0,0 -505.05,990.36 -424.14,1154.73 158.18,321.35 1053.08,1042.89 1053.08,1042.89l400.96 -548.76 -935.69 -637.45 265.97 -912.12 -360.18 -99.29z"/>
  <path class="fil15" d="M21375.12 5989.33l70.55 908.65 -920.21 298.22 -30.36 810.46 1213.52 -560.98c142.28,-54.17 226.85,-285.66 220.84,-504.58 -10.91,-397.04 -166.3,-1091.32 -166.3,-1091.32l-388.04 139.55z"/>
  <path class="fil8" d="M19312.88 7114.85c3.92,2.42 -62.97,117.7 -149.38,257.44 -86.42,139.8 -159.64,251.12 -163.56,248.7 -3.91,-2.42 62.96,-117.66 149.39,-257.46 86.4,-139.74 159.64,-251.1 163.55,-248.68z"/>
  <path class="fil8" d="M21478.17 7074.06c-4.25,1.78 -23.08,-30.29 -42.06,-71.64 -18.99,-41.35 -31.03,-76.53 -26.91,-78.59 4.11,-2.06 22.94,30.01 42.06,71.64 19.11,41.62 31.15,76.81 26.91,78.59z"/>
  <path class="fil8" d="M20600.19 7669.52c-4.35,0.56 -17.22,-78.39 -17.66,-176.78 -0.71,-98.43 11.25,-177.5 15.62,-177 4.79,0.46 0.34,79.49 1.05,176.9 0.42,97.38 5.78,176.37 0.99,176.88z"/>
  <g id="_2624656335152">
   <path class="fil16" d="M10642.03 3639.53l84.11 0 0 22.53c0,26.12 9.22,46.94 29.73,63.26 24.53,19.53 56.27,25.39 86.91,25.39 29.04,0 61.8,-4.28 86.52,-20.72 17.49,-11.64 27.13,-26.48 27.13,-47.71 0,-12.16 -2.91,-23.13 -12.86,-30.73 -16.22,-12.39 -58.25,-20.6 -77.97,-24.04l-91.95 -16.04c-32.24,-5.63 -65.13,-17.3 -88.13,-41.59 -22.35,-23.61 -30.94,-53.91 -30.94,-85.94 0,-43.87 17.36,-80.26 52.28,-106.94 37.84,-28.92 85.55,-38.13 132.24,-38.13 47.83,0 97.03,9.34 135.51,39.48 36.12,28.28 53.05,67.28 54.57,112.78l0.7 20.92 -82.49 0 -1.63 -18.46c-1.97,-22.19 -9.76,-41.4 -28.01,-54.99 -21.38,-15.94 -51.45,-19.8 -77.36,-19.8 -25.91,0 -55.34,3.84 -77.25,18.8 -15.87,10.83 -23.85,24.55 -23.85,43.85 0,12.67 3.68,22.67 14.18,30.1 17.52,12.41 55.94,19.94 76.76,23.58l81.99 14.34c34.16,5.98 71.28,17.77 96.7,42.49 24.37,23.7 33.42,55.26 33.42,88.63 0,46.27 -17.12,85.59 -54.22,113.75 -40.07,30.42 -91.97,39.29 -141.15,39.29 -52.4,0 -106.2,-10.42 -148.03,-43.89 -39.19,-31.34 -56.91,-73.92 -56.91,-123.59l0 -26.62zm446.6 -289.3l84.12 0 0 285.13c0,30.47 5.1,66.67 28.43,88.69 24,22.67 63.84,27.26 95.28,27.26 31.75,0 71.56,-4.67 95.83,-27.49 23.42,-22.02 28.68,-57.88 28.68,-88.46l0 -285.13 84.12 0 0 296.49c0,52.95 -14.8,102.77 -55.44,138.78 -41.94,37.16 -98.6,48.13 -153.09,48.13 -54.34,0 -111.57,-10.76 -153.27,-48.1 -40.72,-36.46 -54.66,-87.66 -54.66,-140.9l0 -294.4zm840.85 165.96c-6.83,-28.86 -20.96,-52.83 -45.35,-70 -26.87,-18.91 -59.63,-25 -91.95,-25 -44.71,0 -87.29,10.86 -119.38,43.39 -32.37,32.82 -42.89,76.66 -42.89,121.67 0,44.58 10.52,87.5 41.71,120.61 30.03,31.88 68.78,43.85 111.99,43.85 36.29,0 69.99,-8.97 98.92,-31.26 27.74,-21.38 44.19,-49.59 51.66,-83.73l3.48 -15.91 86.69 0 -4.47 23.96c-10.36,55.42 -35.78,103.03 -79.8,138.63 -44.74,36.17 -98.04,51.23 -155.18,51.23 -66.53,0 -127.08,-19.62 -173.77,-68.06 -47.32,-49.1 -65.34,-112.02 -65.34,-179.22 0,-67.63 17.65,-131.99 66.26,-180.85 48.64,-48.88 112.96,-66.63 180.62,-66.63 53.44,0 105.71,11.81 148.85,44.69 41.05,31.3 63.86,74.17 71.32,125.03l3.39 23.18 -83.07 0 -3.69 -15.58zm484.16 0c-6.83,-28.86 -20.96,-52.83 -45.35,-70 -26.87,-18.91 -59.63,-25 -91.95,-25 -44.71,0 -87.29,10.86 -119.38,43.39 -32.37,32.82 -42.89,76.66 -42.89,121.67 0,44.58 10.52,87.5 41.71,120.61 30.03,31.88 68.78,43.85 111.99,43.85 36.29,0 69.99,-8.97 98.92,-31.26 27.74,-21.38 44.19,-49.59 51.66,-83.73l3.48 -15.91 86.69 0 -4.47 23.96c-10.36,55.42 -35.78,103.03 -79.8,138.63 -44.74,36.17 -98.04,51.23 -155.18,51.23 -66.53,0 -127.08,-19.62 -173.77,-68.06 -47.32,-49.1 -65.34,-112.02 -65.34,-179.22 0,-67.63 17.65,-131.99 66.26,-180.85 48.64,-48.88 112.96,-66.63 180.62,-66.63 53.44,0 105.71,11.81 148.85,44.69 41.05,31.3 63.86,74.17 71.32,125.03l3.39 23.18 -83.07 0 -3.69 -15.58zm204.91 -85.43l0 110.74 266.59 0 0 81.13 -266.59 0 0 118.51 288.71 0 0 81.13 -372.22 0 0 -472.04 372.22 0 0 80.53 -288.71 0zm310.99 208.77l84.11 0 0 22.53c0,26.12 9.22,46.94 29.73,63.26 24.53,19.53 56.27,25.39 86.91,25.39 29.04,0 61.8,-4.28 86.52,-20.72 17.49,-11.64 27.13,-26.48 27.13,-47.71 0,-12.16 -2.91,-23.13 -12.86,-30.73 -16.22,-12.39 -58.25,-20.6 -77.97,-24.04l-91.95 -16.04c-32.24,-5.63 -65.13,-17.3 -88.13,-41.59 -22.35,-23.61 -30.94,-53.91 -30.94,-85.94 0,-43.87 17.36,-80.26 52.28,-106.94 37.84,-28.92 85.55,-38.13 132.24,-38.13 47.83,0 97.03,9.34 135.51,39.48 36.12,28.28 53.05,67.28 54.57,112.78l0.7 20.92 -82.49 0 -1.63 -18.46c-1.97,-22.19 -9.76,-41.4 -28.01,-54.99 -21.38,-15.94 -51.45,-19.8 -77.36,-19.8 -25.91,0 -55.34,3.84 -77.25,18.8 -15.87,10.83 -23.85,24.55 -23.85,43.85 0,12.67 3.68,22.67 14.18,30.1 17.52,12.41 55.94,19.94 76.76,23.58l81.99 14.34c34.16,5.98 71.28,17.77 96.7,42.49 24.37,23.7 33.42,55.26 33.42,88.63 0,46.27 -17.12,85.59 -54.22,113.75 -40.07,30.42 -91.97,39.29 -141.15,39.29 -52.4,0 -106.2,-10.42 -148.03,-43.89 -39.19,-31.34 -56.91,-73.92 -56.91,-123.59l0 -26.62zm429.87 0l84.11 0 0 22.53c0,26.12 9.22,46.94 29.73,63.26 24.53,19.53 56.27,25.39 86.91,25.39 29.04,0 61.8,-4.28 86.52,-20.72 17.49,-11.64 27.13,-26.48 27.13,-47.71 0,-12.16 -2.91,-23.13 -12.86,-30.73 -16.22,-12.39 -58.25,-20.6 -77.97,-24.04l-91.95 -16.04c-32.24,-5.63 -65.13,-17.3 -88.13,-41.59 -22.35,-23.61 -30.94,-53.91 -30.94,-85.94 0,-43.87 17.36,-80.26 52.28,-106.94 37.84,-28.92 85.55,-38.13 132.24,-38.13 47.83,0 97.03,9.34 135.51,39.48 36.12,28.28 53.05,67.28 54.57,112.78l0.7 20.92 -82.49 0 -1.63 -18.46c-1.97,-22.19 -9.76,-41.4 -28.01,-54.99 -21.38,-15.94 -51.45,-19.8 -77.36,-19.8 -25.91,0 -55.34,3.84 -77.25,18.8 -15.87,10.83 -23.85,24.55 -23.85,43.85 0,12.67 3.68,22.67 14.18,30.1 17.52,12.41 55.94,19.94 76.76,23.58l81.99 14.34c34.16,5.98 71.28,17.77 96.7,42.49 24.37,23.7 33.42,55.26 33.42,88.63 0,46.27 -17.12,85.59 -54.22,113.75 -40.07,30.42 -91.97,39.29 -141.15,39.29 -52.4,0 -106.2,-10.42 -148.03,-43.89 -39.19,-31.34 -56.91,-73.92 -56.91,-123.59l0 -26.62z"/>
  </g>
  <path class="fil12" d="M10662.27 3659.77l43.63 0 0 2.29c0,32.88 12.46,59.28 37.36,79.1 24.91,19.83 58.08,29.79 99.52,29.79 41.05,0 73.62,-8.07 97.73,-24.11 24.11,-16.04 36.16,-37.56 36.16,-64.56 0,-20.62 -6.97,-36.26 -20.82,-46.82 -13.94,-10.66 -42.83,-19.92 -86.77,-27.89l-91.95 -16.04c-34.27,-5.88 -59.97,-17.73 -76.91,-35.57 -16.93,-17.93 -25.4,-41.94 -25.4,-72.02 0,-37.96 14.74,-68.24 44.33,-90.86 29.59,-22.61 69.54,-33.97 119.95,-33.97 52.2,0 93.14,11.76 123.03,35.17 29.89,23.41 45.43,55.89 46.82,97.53l-43.03 0c-2.69,-30.39 -14.75,-53.5 -36.07,-69.44 -21.32,-15.84 -51.1,-23.81 -89.46,-23.81 -37.26,0 -66.84,7.47 -88.66,22.32 -21.82,14.94 -32.68,35.06 -32.68,60.57 0,20.32 7.57,35.86 22.72,46.62 15.24,10.76 43.53,19.83 84.97,27l81.99 14.34c39.25,6.98 67.94,19.33 86.08,37.06 18.23,17.64 27.29,42.34 27.29,74.12 0,41.64 -15.44,74.22 -46.22,97.63 -30.89,23.41 -73.82,35.17 -128.91,35.17 -57.39,0 -102.51,-13.15 -135.39,-39.45 -32.87,-26.3 -49.31,-62.17 -49.31,-107.79l0 -6.38zm446.6 -289.3l43.64 0 0 264.89c0,47.02 11.56,81.49 34.77,103.41 23.11,21.82 59.47,32.78 109.18,32.78 49.81,0 86.37,-10.96 109.69,-32.98 23.41,-21.92 35.06,-56.38 35.06,-103.21l0 -264.89 43.64 0 0 276.25c0,53.7 -16.24,94.94 -48.62,123.63 -32.38,28.69 -78.9,43.04 -139.67,43.04 -61.27,0 -107.89,-14.35 -139.77,-42.94 -31.98,-28.59 -47.92,-70.53 -47.92,-125.82l0 -274.16zm840.31 141.06c-8.37,-35.36 -26.2,-62.66 -53.4,-81.89 -27.29,-19.12 -61.76,-28.69 -103.6,-28.69 -56.69,0 -101.22,16.44 -133.79,49.42 -32.48,32.97 -48.72,78.3 -48.72,135.88 0,56.19 15.74,101.02 47.22,134.49 31.58,33.47 73.72,50.21 126.72,50.21 43.53,0 80.59,-11.86 111.28,-35.47 30.58,-23.61 50.31,-55.39 59.07,-95.43l46.03 0c-9.96,53.29 -34.17,95.53 -72.63,126.61 -38.55,31.19 -86.07,46.73 -142.45,46.73 -66.35,0 -119.45,-20.62 -159.2,-61.87 -39.75,-41.24 -59.67,-96.23 -59.67,-165.17 0,-70.53 20.12,-126.12 60.37,-166.57 40.24,-40.44 95.73,-60.67 166.27,-60.67 55.68,0 101.11,13.55 136.58,40.55 35.36,27 56.58,64.25 63.56,111.87l-43.64 0zm484.16 0c-8.37,-35.36 -26.2,-62.66 -53.4,-81.89 -27.29,-19.12 -61.76,-28.69 -103.6,-28.69 -56.69,0 -101.22,16.44 -133.79,49.42 -32.48,32.97 -48.72,78.3 -48.72,135.88 0,56.19 15.74,101.02 47.22,134.49 31.58,33.47 73.72,50.21 126.72,50.21 43.53,0 80.59,-11.86 111.28,-35.47 30.58,-23.61 50.31,-55.39 59.07,-95.43l46.03 0c-9.96,53.29 -34.17,95.53 -72.63,126.61 -38.55,31.19 -86.07,46.73 -142.45,46.73 -66.35,0 -119.45,-20.62 -159.2,-61.87 -39.75,-41.24 -59.67,-96.23 -59.67,-165.17 0,-70.53 20.12,-126.12 60.37,-166.57 40.24,-40.44 95.73,-60.67 166.27,-60.67 55.68,0 101.11,13.55 136.58,40.55 35.36,27 56.58,64.25 63.56,111.87l-43.64 0zm121.94 290.5l0 -431.56 331.74 0 0 40.05 -288.71 0 0 151.22 266.59 0 0 40.65 -266.59 0 0 158.99 288.71 0 0 40.65 -331.74 0zm394.5 -142.26l43.63 0 0 2.29c0,32.88 12.46,59.28 37.36,79.1 24.91,19.83 58.08,29.79 99.52,29.79 41.05,0 73.62,-8.07 97.73,-24.11 24.11,-16.04 36.16,-37.56 36.16,-64.56 0,-20.62 -6.97,-36.26 -20.82,-46.82 -13.94,-10.66 -42.83,-19.92 -86.77,-27.89l-91.95 -16.04c-34.27,-5.88 -59.97,-17.73 -76.91,-35.57 -16.93,-17.93 -25.4,-41.94 -25.4,-72.02 0,-37.96 14.74,-68.24 44.33,-90.86 29.59,-22.61 69.54,-33.97 119.95,-33.97 52.2,0 93.14,11.76 123.03,35.17 29.89,23.41 45.43,55.89 46.82,97.53l-43.03 0c-2.69,-30.39 -14.75,-53.5 -36.07,-69.44 -21.32,-15.84 -51.1,-23.81 -89.46,-23.81 -37.26,0 -66.84,7.47 -88.66,22.32 -21.82,14.94 -32.68,35.06 -32.68,60.57 0,20.32 7.57,35.86 22.72,46.62 15.24,10.76 43.53,19.83 84.97,27l81.99 14.34c39.25,6.98 67.94,19.33 86.08,37.06 18.23,17.64 27.29,42.34 27.29,74.12 0,41.64 -15.44,74.22 -46.22,97.63 -30.89,23.41 -73.82,35.17 -128.91,35.17 -57.39,0 -102.51,-13.15 -135.39,-39.45 -32.87,-26.3 -49.31,-62.17 -49.31,-107.79l0 -6.38zm429.87 0l43.63 0 0 2.29c0,32.88 12.46,59.28 37.36,79.1 24.91,19.83 58.08,29.79 99.52,29.79 41.05,0 73.62,-8.07 97.73,-24.11 24.11,-16.04 36.16,-37.56 36.16,-64.56 0,-20.62 -6.97,-36.26 -20.82,-46.82 -13.94,-10.66 -42.83,-19.92 -86.77,-27.89l-91.95 -16.04c-34.27,-5.88 -59.97,-17.73 -76.91,-35.57 -16.93,-17.93 -25.4,-41.94 -25.4,-72.02 0,-37.96 14.74,-68.24 44.33,-90.86 29.59,-22.61 69.54,-33.97 119.95,-33.97 52.2,0 93.14,11.76 123.03,35.17 29.89,23.41 45.43,55.89 46.82,97.53l-43.03 0c-2.69,-30.39 -14.75,-53.5 -36.07,-69.44 -21.32,-15.84 -51.1,-23.81 -89.46,-23.81 -37.26,0 -66.84,7.47 -88.66,22.32 -21.82,14.94 -32.68,35.06 -32.68,60.57 0,20.32 7.57,35.86 22.72,46.62 15.24,10.76 43.53,19.83 84.97,27l81.99 14.34c39.25,6.98 67.94,19.33 86.08,37.06 18.23,17.64 27.29,42.34 27.29,74.12 0,41.64 -15.44,74.22 -46.22,97.63 -30.89,23.41 -73.82,35.17 -128.91,35.17 -57.39,0 -102.51,-13.15 -135.39,-39.45 -32.87,-26.3 -49.31,-62.17 -49.31,-107.79l0 -6.38z"/>
 </g>
</svg>
