<svg xmlns="http://www.w3.org/2000/svg" xml:space="preserve" width="252mm" height="152mm" version="1.1" style="shape-rendering:geometricPrecision; text-rendering:geometricPrecision; image-rendering:optimizeQuality; fill-rule:evenodd; clip-rule:evenodd"
viewBox="0 0 25200 15200"
 xmlns:xlink="http://www.w3.org/1999/xlink"
 xmlns:xodm="http://www.corel.com/coreldraw/odm/2003">
 <defs>
  <style type="text/css">
   <![CDATA[
    .fil8 {fill:#263138;fill-rule:nonzero}
    .fil7 {fill:#274073;fill-rule:nonzero}
    .fil6 {fill:#325E57;fill-rule:nonzero}
    .fil5 {fill:#445964;fill-rule:nonzero}
    .fil13 {fill:#4B61A6;fill-rule:nonzero}
    .fil14 {fill:#6F4438;fill-rule:nonzero}
    .fil16 {fill:#8091F2;fill-rule:nonzero}
    .fil15 {fill:#AE7361;fill-rule:nonzero}
    .fil1 {fill:#DFDFDF;fill-rule:nonzero}
    .fil2 {fill:#EBEBEB;fill-rule:nonzero}
    .fil12 {fill:#F2F2F2;fill-rule:nonzero}
    .fil4 {fill:#F4F4F4;fill-rule:nonzero}
    .fil0 {fill:#F9F9F9;fill-rule:nonzero}
    .fil17 {fill:#FF725D;fill-rule:nonzero}
    .fil11 {fill:#FF9A6C;fill-rule:nonzero}
    .fil10 {fill:#FFBF9C;fill-rule:nonzero}
    .fil3 {fill:white;fill-rule:nonzero}
    .fil9 {fill:black;fill-rule:nonzero;fill-opacity:0.301961}
   ]]>
  </style>
 </defs>
 <g id="Capa_x0020_1">
  <metadata id="CorelCorpID_0Corel-Layer"/>
  <polygon class="fil0" points="8925.95,4503.87 5169.41,4503.87 5169.41,1143.04 8925.95,1143.04 "/>
  <path class="fil1" d="M6609.8 1740.2c0,5.54 -197.72,10.04 -441.57,10.04 -243.95,0 -441.63,-4.5 -441.63,-10.04 0,-5.54 197.68,-10.04 441.63,-10.04 243.85,0 441.57,4.5 441.57,10.04z"/>
  <path class="fil1" d="M8201.5 1992.54c0,5.55 -543.2,10.03 -1213.12,10.03 -670.16,0 -1213.25,-4.48 -1213.25,-10.03 0,-5.54 543.09,-10.03 1213.25,-10.03 669.92,0 1213.12,4.49 1213.12,10.03z"/>
  <polygon class="fil1" points="5891.33,2578.25 5733.07,2578.25 5733.07,2419.99 5891.33,2419.99 "/>
  <polygon class="fil1" points="6280.9,2578.25 6122.64,2578.25 6122.64,2419.99 6280.9,2419.99 "/>
  <polygon class="fil1" points="6677.65,2571.07 6519.39,2571.07 6519.39,2412.81 6677.65,2412.81 "/>
  <polygon class="fil1" points="7060.04,2578.25 6901.78,2578.25 6901.78,2419.99 7060.04,2419.99 "/>
  <polygon class="fil1" points="7449.61,2578.25 7291.35,2578.25 7291.35,2419.99 7449.61,2419.99 "/>
  <polygon class="fil1" points="7839.18,2578.25 7680.92,2578.25 7680.92,2419.99 7839.18,2419.99 "/>
  <polygon class="fil2" points="8228.74,2578.25 8070.48,2578.25 8070.48,2419.99 8228.74,2419.99 "/>
  <polygon class="fil2" points="5891.33,2914.71 5733.07,2914.71 5733.07,2756.45 5891.33,2756.45 "/>
  <polygon class="fil1" points="6280.9,2914.71 6122.64,2914.71 6122.64,2756.45 6280.9,2756.45 "/>
  <polygon class="fil2" points="6670.48,2914.71 6512.21,2914.71 6512.21,2756.45 6670.48,2756.45 "/>
  <polygon class="fil1" points="7060.04,2914.71 6901.78,2914.71 6901.78,2756.45 7060.04,2756.45 "/>
  <polygon class="fil1" points="7449.61,2914.71 7291.35,2914.71 7291.35,2756.45 7449.61,2756.45 "/>
  <polygon class="fil1" points="7846.36,2907.53 7688.1,2907.53 7688.1,2749.26 7846.36,2749.26 "/>
  <polygon class="fil1" points="8228.74,2914.71 8070.48,2914.71 8070.48,2756.45 8228.74,2756.45 "/>
  <polygon class="fil1" points="5891.33,3251.17 5733.07,3251.17 5733.07,3092.91 5891.33,3092.91 "/>
  <polygon class="fil1" points="6288.09,3243.98 6129.82,3243.98 6129.82,3085.72 6288.09,3085.72 "/>
  <polygon class="fil1" points="6670.48,3251.17 6512.21,3251.17 6512.21,3092.91 6670.48,3092.91 "/>
  <polygon class="fil2" points="7060.04,3251.17 6901.78,3251.17 6901.78,3092.91 7060.04,3092.91 "/>
  <polygon class="fil1" points="7449.61,3251.17 7291.35,3251.17 7291.35,3092.91 7449.61,3092.91 "/>
  <polygon class="fil1" points="7839.18,3251.17 7680.92,3251.17 7680.92,3092.91 7839.18,3092.91 "/>
  <polygon class="fil1" points="8228.74,3251.17 8070.48,3251.17 8070.48,3092.91 8228.74,3092.91 "/>
  <polygon class="fil1" points="5891.33,3587.63 5733.07,3587.63 5733.07,3429.36 5891.33,3429.36 "/>
  <polygon class="fil1" points="6280.9,3587.63 6122.64,3587.63 6122.64,3429.36 6280.9,3429.36 "/>
  <polygon class="fil1" points="6670.48,3587.63 6512.21,3587.63 6512.21,3429.36 6670.48,3429.36 "/>
  <polygon class="fil1" points="7067.22,3580.44 6908.96,3580.44 6908.96,3422.18 7067.22,3422.18 "/>
  <polygon class="fil1" points="7449.61,3587.63 7291.35,3587.63 7291.35,3429.36 7449.61,3429.36 "/>
  <polygon class="fil2" points="7839.18,3587.63 7680.92,3587.63 7680.92,3429.36 7839.18,3429.36 "/>
  <polygon class="fil1" points="8228.74,3587.63 8070.48,3587.63 8070.48,3429.36 8228.74,3429.36 "/>
  <polygon class="fil1" points="5891.33,3924.08 5733.07,3924.08 5733.07,3765.81 5891.33,3765.81 "/>
  <polygon class="fil2" points="6280.9,3924.08 6122.64,3924.08 6122.64,3765.81 6280.9,3765.81 "/>
  <polygon class="fil1" points="6670.48,3924.08 6512.21,3924.08 6512.21,3765.81 6670.48,3765.81 "/>
  <polygon class="fil1" points="7060.04,3924.08 6901.78,3924.08 6901.78,3765.81 7060.04,3765.81 "/>
  <polygon class="fil1" points="7449.61,3924.08 7291.35,3924.08 7291.35,3765.81 7449.61,3765.81 "/>
  <polygon class="fil1" points="7846.36,3916.9 7688.1,3916.9 7688.1,3758.64 7846.36,3758.64 "/>
  <polygon class="fil1" points="8228.74,3924.08 8070.48,3924.08 8070.48,3765.81 8228.74,3765.81 "/>
  <path class="fil3" d="M19859.82 2407.85c-0.02,-0.12 1.22,-0.25 3.64,-0.37 2.82,-0.11 6.37,-0.25 10.76,-0.43 9.46,-0.66 23.48,0 41.5,2.07 17.87,2.82 39.84,7.66 63.41,18.86 23.47,11.12 47.81,29.31 69,54.58 20.42,25.7 39.14,57.6 47.81,96.02 8.22,38.43 4.04,81.62 -10.46,123.2 -7.08,20.9 -16.7,41.46 -28.02,61.58 -11.25,20.08 -22.54,40.29 -31.93,62.21 -18.82,43.51 -33.73,91.41 -40.31,141.49l-0.43 3.32 -3.22 0.06c-31.48,0.51 -64.73,1.05 -98.47,1.59 -35.37,0.56 -70.24,1.1 -103.27,1.62l-3.67 0.06 -0.13 -3.74c-1.69,-50.17 -24.25,-95.83 -47.89,-136.29 -11.98,-20.44 -25.08,-39.57 -37.33,-58.97 -12.01,-19.01 -25.51,-37.22 -35.04,-57.12 -19.67,-39.67 -23.03,-83.61 -15.62,-121.46 7.13,-37.92 19.72,-72.29 38.47,-99.37 18.68,-27.06 42.45,-45.92 64.91,-58.43 22.56,-12.57 43.81,-19.38 61.24,-23.67 17.49,-4.23 31.35,-5.89 40.71,-6.63 4.7,-0.26 8.28,-0.47 10.7,-0.42 2.4,-0.01 3.62,0.14 3.64,0.24 0,0.14 -1.23,0.23 -3.62,0.47 -2.78,0.29 -6.26,0.65 -10.58,1.1 -9.27,1.19 -22.97,3.28 -40.18,7.87 -17.15,4.65 -37.99,11.76 -59.98,24.45 -21.87,12.61 -44.82,31.32 -62.73,57.86 -17.93,26.36 -30.06,60.34 -36.76,97.51 -6.97,37.1 -3.43,79.26 15.76,117.56 9.33,19.26 22.56,36.95 34.94,56.37 12.17,19.08 25.47,38.41 37.62,58.98 23.97,40.88 47.3,87.18 49.19,139.84l-3.78 -3.67c33.05,-0.53 67.9,-1.1 103.28,-1.68 33.73,-0.52 66.99,-1.05 98.48,-1.53l-3.66 3.37c6.81,-51.5 21.96,-99.5 41.17,-143.66 9.51,-22.1 21.22,-42.86 32.45,-62.72 11.22,-19.77 20.75,-39.94 27.77,-60.35 14.41,-40.68 18.64,-82.57 10.96,-119.82 -8.04,-37.06 -26.24,-68.87 -45.91,-94.08 -20.46,-24.9 -43.99,-42.96 -66.85,-54.23 -22.93,-11.3 -44.48,-16.47 -62.08,-19.68 -17.75,-2.46 -31.66,-3.56 -41.1,-3.34 -4.4,-0.12 -7.93,-0.21 -10.74,-0.28 -2.41,-0.11 -3.65,-0.22 -3.65,-0.34z"/>
  <path class="fil3" d="M19910.95 2961.75c0,0 -0.26,-1.06 -0.61,-3.13 -0.37,-2.2 -0.86,-5.28 -1.51,-9.25 -1.27,-8.27 -3.09,-20.24 -5.45,-35.59 -4.45,-30.94 -11.11,-75.76 -15.58,-131.54 -1.04,-13.95 -2.02,-28.58 -2.58,-43.84 -0.49,-15.26 -1.15,-31.16 -0.27,-47.66 0.94,-16.44 3.61,-33.75 11.24,-49.9 7.63,-15.88 20.33,-30.8 38.03,-38.08 17.55,-7.55 39.86,-3.61 54.28,10.34 7.1,6.98 11.87,16.96 11.64,27.3 -0.04,10.3 -4.02,20.34 -10.19,28.57 -6.14,8.35 -14.7,14.79 -23.99,19.37 -9.33,4.67 -19.44,7.59 -29.64,9.84 -20.43,4.3 -41.54,6.67 -62.94,7.32 -21.39,0.48 -42.58,0.1 -63.32,-3.06 -10.34,-1.69 -20.54,-4.37 -30.01,-8.67 -9.5,-4.26 -18.16,-10.33 -25.14,-17.87 -6.97,-7.53 -12.28,-16.69 -14.47,-26.67 -2.32,-9.99 -0.77,-20.57 3.55,-29.54 4.31,-8.96 11.6,-16.65 20.86,-20.29 9.27,-3.76 19.79,-2.7 28.38,1.31 8.68,4.01 15.88,10.48 21.17,18.01 5.32,7.62 8.5,16.25 10.61,24.84 4.08,17.34 3.97,34.52 5.03,50.87 1.71,32.83 3.31,63.39 4.77,91.32 2.81,55.74 5.08,100.89 6.67,132.25 0.72,15.52 1.27,27.61 1.65,35.96 0.16,4.02 0.27,7.13 0.35,9.37 0.07,2.09 0.03,3.18 0.03,3.18 0,0 -0.18,-1.07 -0.35,-3.17 -0.15,-2.22 -0.37,-5.34 -0.65,-9.33 -0.52,-8.36 -1.28,-20.44 -2.24,-35.95 -1.82,-31.33 -4.43,-76.46 -7.65,-132.18 -1.58,-27.92 -3.3,-58.5 -5.15,-91.31 -1.1,-16.38 -1.09,-33.52 -5.13,-50.36 -2.05,-8.36 -5.18,-16.7 -10.21,-23.88 -5.06,-7.16 -11.94,-13.29 -20.07,-17.01 -8.08,-3.74 -17.72,-4.64 -26.14,-1.22 -8.44,3.34 -15.24,10.47 -19.25,18.88 -4.05,8.42 -5.47,18.28 -3.3,27.6 2.07,9.37 7.09,18.07 13.76,25.25 13.42,14.71 33.22,22.42 53.41,25.56 20.37,3.09 41.54,3.49 62.75,3.02 21.23,-0.64 42.17,-3 62.38,-7.25 10.05,-2.2 19.91,-5.07 28.91,-9.57 9.02,-4.42 17.12,-10.53 22.93,-18.44 5.87,-7.79 9.58,-17.25 9.62,-26.76 0.24,-9.56 -4.11,-18.63 -10.71,-25.18 -13.48,-13.08 -34.56,-16.94 -51.14,-9.8 -16.82,6.87 -29.2,21.22 -36.63,36.62 -7.44,15.62 -10.16,32.59 -11.14,48.84 -0.92,16.33 -0.33,32.21 0.11,47.43 0.49,15.25 1.4,29.85 2.38,43.77 4.17,55.71 10.49,100.55 14.58,131.54 2.1,15.39 3.74,27.38 4.87,35.68 0.51,3.97 0.91,7.06 1.2,9.28 0.26,2.09 0.3,3.18 0.3,3.18z"/>
  <path class="fil3" d="M19779.67 2967.01c0.49,0.45 1.33,12.38 2.6,33.14 1.24,24.06 2.71,52.83 4.44,86.39l-0.82 -2.1c20.05,23.09 42.69,49.19 67.13,77.36l-3.45 -1.48c24.43,-1.38 50.53,-2.85 77.61,-4.38l-3.28 1.65c12.46,-15.2 25.42,-31.03 38.65,-47.19 6.54,-7.95 13.02,-15.84 19.39,-23.59l-1.04 3.04c-1.04,-45.5 -2.04,-88.57 -2.95,-127.85l4.25 4.01c-56.57,0.64 -105.59,1.18 -144.99,1.62 -15.73,-0.03 -29.56,-0.04 -41.92,-0.06 -9.84,-0.08 -15.28,-0.26 -15.62,-0.56 -0.33,-0.31 4.49,-0.75 13.82,-1.33 12.06,-0.62 25.56,-1.32 40.92,-2.12 40.12,-1.59 90.01,-3.54 147.57,-5.8l4.12 -0.17 0.13 4.19c1.18,39.28 2.48,82.34 3.84,127.82l0.06 1.69 -1.09 1.34c-6.37,7.76 -12.84,15.65 -19.37,23.62 -13.26,16.13 -26.25,31.91 -38.74,47.11l-1.28 1.55 -2 0.1c-27.08,1.32 -53.19,2.59 -77.64,3.79l-2.12 0.11 -1.34 -1.6c-23.97,-28.56 -46.18,-55.02 -65.86,-78.44l-0.81 -0.97 0 -1.16c-0.33,-34.41 -0.61,-63.91 -0.85,-88.59 0.01,-20.6 0.16,-31.61 0.64,-31.14z"/>
  <path class="fil3" d="M19979.98 3079.33c-0.11,0.2 -2.69,-1.01 -7.36,-3.12 -4.66,-2.11 -11.5,-5 -20.14,-7.97 -17.21,-5.97 -42.22,-11.54 -70.1,-10.68 -27.87,0.84 -52.49,7.92 -69.31,14.93 -8.46,3.49 -15.1,6.78 -19.62,9.18 -4.52,2.4 -7.03,3.76 -7.16,3.56 -0.09,-0.17 2.18,-1.88 6.56,-4.61 4.37,-2.73 10.92,-6.35 19.36,-10.14 16.77,-7.61 41.73,-15.17 70.08,-16.01 28.34,-0.88 53.72,5.14 70.93,11.7 8.64,3.27 15.4,6.5 19.94,8.97 4.53,2.45 6.92,4.02 6.82,4.19z"/>
  <path class="fil3" d="M19979.95 3048.27c-0.11,0.2 -2.69,-1 -7.36,-3.11 -4.66,-2.12 -11.5,-5.02 -20.14,-7.98 -17.21,-5.97 -42.22,-11.52 -70.09,-10.67 -27.88,0.84 -52.5,7.91 -69.32,14.93 -8.45,3.49 -15.1,6.78 -19.62,9.18 -4.54,2.39 -7.03,3.75 -7.16,3.56 -0.11,-0.17 2.18,-1.88 6.55,-4.61 4.39,-2.74 10.94,-6.36 19.36,-10.14 16.79,-7.63 41.75,-15.17 70.09,-16.02 28.35,-0.88 53.71,5.14 70.93,11.7 8.65,3.27 15.42,6.5 19.94,8.96 4.53,2.46 6.92,4.03 6.82,4.2z"/>
  <path class="fil3" d="M19978.13 3018.75c-0.12,0.2 -2.7,-1.01 -7.36,-3.12 -4.67,-2.12 -11.5,-5.02 -20.16,-7.97 -17.2,-5.98 -42.21,-11.54 -70.09,-10.68 -27.87,0.84 -52.5,7.93 -69.32,14.93 -8.43,3.49 -15.08,6.78 -19.6,9.18 -4.54,2.4 -7.04,3.77 -7.17,3.56 -0.1,-0.17 2.19,-1.88 6.56,-4.61 4.37,-2.73 10.92,-6.37 19.36,-10.14 16.78,-7.61 41.73,-15.17 70.09,-16.01 28.35,-0.88 53.71,5.14 70.92,11.71 8.64,3.26 15.41,6.49 19.93,8.94 4.54,2.47 6.93,4.04 6.84,4.21z"/>
  <polygon class="fil2" points="19380.18,1296.5 19529.36,4760.14 23853.25,4812.28 23659.13,1342.27 "/>
  <polygon class="fil4" points="23625.21,4514.93 19330.08,4514.93 19330.08,1271.68 23625.21,1271.68 "/>
  <path class="fil1" d="M23625.21 4514.93c0,0 -0.89,-20.89 -1.33,-60.16 -0.31,-40.13 -0.77,-97.89 -1.38,-173.06 -0.72,-152.07 -1.77,-373.61 -3.12,-656.27 -1.52,-565.52 -3.68,-1374.75 -6.31,-2353.76l12.12 12.12c-1214.23,0.75 -2696.36,1.65 -4294.74,2.65l-0.35 0 14.74 -14.77c-0.52,1166.42 -1,2270.84 -1.43,3243.25l-13.31 -13.33c1270.84,2.73 2342.83,5.02 3098.15,6.64 377.71,1.52 676.03,2.71 881.11,3.54 101.75,0.69 180.13,1.23 234.22,1.61 26.05,0.33 46.07,0.58 60.6,0.77 13.68,0.25 21.03,0.77 21.03,0.77 0,0 -6.31,0.52 -19.49,0.77 -14.18,0.19 -33.71,0.44 -59.12,0.77 -53.49,0.37 -131,0.89 -231.57,1.6 -204.38,0.81 -501.7,2.02 -878.12,3.54 -757.42,1.63 -1832.41,3.92 -3106.81,6.65l-13.33 0.02 0 -13.35c-0.43,-972.41 -0.93,-2076.83 -1.45,-3243.25l0 -14.78 14.78 0 0.35 0c1598.38,1 3080.51,1.89 4294.74,2.64l12.16 0 -0.02 12.14c-2.62,982.17 -4.79,1794.01 -6.31,2361.36 -1.33,281.49 -2.39,502.11 -3.1,653.56 -0.61,74.15 -1.06,131.17 -1.4,170.75 -0.43,38.44 -1.31,57.58 -1.31,57.58z"/>
  <polygon class="fil4" points="21589.36,4150.02 19848.22,4150.02 19848.22,1958.77 21589.36,1958.77 "/>
  <path class="fil1" d="M21589.36 4150.02c-0.25,-0.25 -0.52,-3.98 -0.77,-11.06 -0.21,-8.3 -0.44,-18.45 -0.77,-31.17 -0.37,-28.86 -0.89,-68.76 -1.56,-119.82 -0.83,-105.88 -2.02,-257.79 -3.52,-449.57 -1.6,-385.71 -3.89,-931.53 -6.6,-1579.63l13.2 13.22c-518.85,0.46 -1112.65,0.98 -1740.93,1.54 -3.5,3.13 27.8,-27.73 14.58,-14.37l0 0.61 0 1.18 0 2.38 0 4.75 0 9.49 0 18.99 -0.02 37.92 0 75.57c0,50.25 -0.02,100.26 -0.04,150.01 -0.03,99.54 -0.09,197.99 -0.13,295.29 -0.17,194.6 -0.31,384.49 -0.48,568.6 -0.66,368.06 -1.29,712.97 -1.85,1026.07l-12.25 -12.24c522.38,2.62 955.81,4.81 1260.62,6.35 151.2,1.35 270.39,2.41 353.71,3.14 39.75,0.61 70.9,1.06 93.77,1.4 21.34,0.46 33.04,1.35 33.04,1.35 0.46,0.46 -9.89,0.9 -30.42,1.36 -22.28,0.35 -52.66,0.81 -91.44,1.39 -82.66,0.75 -200.92,1.81 -350.95,3.17 -306.67,1.52 -742.77,3.72 -1268.33,6.35l-12.24 0.06 -0.02 -12.33c-0.56,-313.1 -1.19,-658.01 -1.85,-1026.07 -0.17,-184.11 -0.32,-374 -0.48,-568.6 -0.04,-97.3 -0.09,-195.75 -0.15,-295.29 0,-49.75 -0.02,-99.76 -0.02,-150.01l0 -75.57 -0.02 -37.92 0 -18.99 0 -9.49 0 -4.75 0 -2.38 0 -1.18 0 -0.61c-13.16,13.04 17.89,-18.47 14.97,-15.18 628.28,0.57 1222.08,1.09 1740.93,1.54l13.31 0.03 -0.07 13.22c-2.7,651.64 -4.99,1200.4 -6.62,1588.21 -1.5,190.51 -2.66,341.4 -3.5,446.58 -0.66,49.93 -1.2,88.97 -1.58,117.21 -0.31,12.14 -0.56,21.8 -0.77,29.71 -0.25,6.58 -0.5,9.79 -0.75,9.54z"/>
  <polygon class="fil4" points="23251.73,1773.09 19914.92,1773.09 19914.92,1457.34 23251.73,1457.34 "/>
  <path class="fil1" d="M23251.73 1773.09c-0.38,-0.38 -0.75,-7.71 -1.17,-21.62 -0.35,-15.39 -0.83,-35.61 -1.42,-61.24 -0.79,-54.87 -1.93,-132.79 -3.39,-232.87l5.95 5.96c-562.7,5.19 -1845.4,8.79 -3336.61,8.79l-0.17 0c29.49,-29.51 8.18,-8.12 14.76,-14.68l0 0.06 0 0.33 0 0.63 0 1.27 0 2.54 0 5.06 0 10.14 0 20.24 -0.02 40.35c0,26.83 0,53.5 0,79.95 -0.02,52.87 -0.02,104.8 -0.04,155.07l-14.7 -14.71c933.15,2.48 1764.73,4.69 2365.19,6.27 299.38,1.86 541.01,3.33 709.91,4.38 82.5,0.87 147.16,1.56 193.15,2.06 20.99,0.41 37.67,0.75 50.65,1 11.49,0.33 17.55,0.66 17.91,1.02 0.33,0.33 -5.04,0.66 -15.91,1 -12.46,0.27 -28.53,0.6 -48.71,1.02 -45.21,0.48 -108.74,1.16 -189.82,2.04 -168.07,1.04 -408.54,2.54 -706.45,4.37 -603.19,1.58 -1438.54,3.79 -2375.92,6.27l-14.72 0.04 0 -14.76c0,-50.27 -0.02,-102.2 -0.04,-155.07 0,-26.45 0,-53.12 0,-79.95l0 -40.35 0 -20.24 0 -10.14 0 -5.06 0 -2.54 0 -1.27 0 -0.63 0 -0.33 0 -0.06c6.58,-6.62 -14.79,14.66 14.76,-14.85l0.17 0c1491.21,0 2773.91,3.62 3336.61,8.81l6.08 0.04 -0.1 5.93c-1.46,101.56 -2.58,180.65 -3.39,236.33 -0.59,25.07 -1.04,44.85 -1.4,59.89 -0.42,13.3 -0.79,19.88 -1.16,19.51z"/>
  <polygon class="fil4" points="23251.73,3279.42 21802.53,3279.42 21802.53,1958.77 23251.73,1958.77 "/>
  <path class="fil1" d="M23251.73 3279.42c-0.48,-0.46 -0.94,-9.16 -1.42,-25.53 -0.35,-18.28 -0.83,-41.98 -1.44,-71.67 -0.79,-64.57 -1.89,-155.09 -3.27,-269.23 -1.56,-232.34 -3.79,-560.41 -6.45,-954.22l12.55 12.55c-418.56,0.63 -916.24,1.4 -1449.05,2.21 -3.37,3.15 27.82,-27.86 14.64,-14.55l0 0.35 0 0.71 0 1.41 0 2.82 0 5.62 0 11.26 0 22.49 -0.02 44.83c0,29.84 0,59.56 -0.02,89.15 -0.02,59.16 -0.04,117.8 -0.08,175.87 -0.13,116.09 -0.25,229.85 -0.36,340.69 -0.47,221.54 -0.91,431.42 -1.33,625.24l-12.95 -12.95c429.79,2.69 789.91,4.96 1045.33,6.56 125.71,1.44 225.53,2.6 296.56,3.41 32.9,0.63 59.08,1.13 79.13,1.5 18.08,0.5 27.68,1 28.18,1.48 0.49,0.5 -8.13,1 -25.31,1.48 -19.4,0.4 -44.74,0.9 -76.6,1.52 -70.32,0.81 -169.17,1.96 -293.63,3.42 -257.46,1.6 -620.45,3.85 -1053.66,6.55l-12.95 0.09 -0.02 -13.06c-0.42,-193.82 -0.88,-403.7 -1.34,-625.24 -0.1,-110.84 -0.22,-224.6 -0.35,-340.69 -0.02,-58.07 -0.06,-116.71 -0.08,-175.87 0,-29.59 -0.02,-59.31 -0.02,-89.15l0 -44.83 0 -22.49 0 -11.26 0 -5.62 0 -2.82 0 -1.41 0 -0.71 0 -0.35c-13.21,13.07 17.92,-18.24 14.88,-15 532.81,0.82 1030.49,1.57 1449.05,2.21l12.66 0.02 -0.08 12.56c-2.64,397.1 -4.87,727.92 -6.45,962.2 -1.38,112.95 -2.48,202.49 -3.27,266.39 -0.59,28.7 -1.06,51.58 -1.44,69.28 -0.48,15.49 -0.94,23.26 -1.39,22.78z"/>
  <polygon class="fil4" points="23251.73,4150.02 21802.53,4150.02 21802.53,3486.47 23251.73,3486.47 "/>
  <path class="fil1" d="M23251.73 4150.02c-0.75,-0.73 -1.48,-17.32 -2.3,-48.1 -0.66,-33.38 -1.56,-77.71 -2.68,-133.25 -1.4,-117.09 -3.35,-281.01 -5.75,-482.2l10.7 10.7c-377.92,1.06 -887.86,2.5 -1449.07,4.06 -13.26,13.18 17.85,-17.99 14.66,-14.7l0 0.17 0 0.35 0 0.67 0 1.37 0 2.73 0 5.48 0 10.91 -0.02 21.8 0 43.42c-0.02,28.88 -0.02,57.59 -0.04,86.12 -0.04,57.08 -0.1,113.45 -0.12,168.96 -0.21,110.99 -0.4,218.56 -0.59,321.51l-13.99 -14.01c417.96,2.7 777.58,5.02 1036.29,6.68 126.69,1.63 228.52,2.92 302,3.87 33.46,0.71 60.43,1.3 81.57,1.75 18.74,0.59 28.75,1.15 29.34,1.71 0.56,0.58 -8.33,1.15 -26.01,1.73 -20.39,0.46 -46.4,1.04 -78.65,1.75 -72.74,0.94 -173.48,2.25 -298.8,3.85 -261.08,1.69 -623.96,4 -1045.74,6.69l-13.99 0.1 -0.02 -14.12c-0.19,-102.95 -0.38,-210.52 -0.57,-321.51 -0.06,-55.51 -0.1,-111.88 -0.14,-168.96 -0.02,-28.53 -0.02,-57.24 -0.04,-86.12l0 -43.42 0 -21.8 0 -10.91 0 -5.48 0 -2.73 0 -1.37 0 -0.67 0 -0.35 0 -0.17c-3.25,3.12 27.98,-28.03 14.86,-14.85 561.21,1.59 1071.15,3 1449.07,4.06l10.87 0.02 -0.14 10.71c-2.4,203.9 -4.35,370.07 -5.75,488.74 -1.12,54.54 -2.02,98.08 -2.69,130.83 -0.79,29.61 -1.52,44.73 -2.26,43.98z"/>
  <path class="fil3" d="M21546.28 1962.56c-538.97,744.51 -1159.11,1442.97 -1698.06,2187.46l1698.06 -2187.46z"/>
  <polygon class="fil3" points="19848.22,1958.77 21589.36,4150.02 "/>
  <path class="fil1" d="M21589.36 4150.02c-6.39,5.08 -401.37,-481.37 -882.09,-1086.39 -480.9,-605.23 -865.44,-1099.8 -859.05,-1104.86 6.38,-5.08 401.27,481.27 882.16,1086.49 480.75,605 865.35,1099.7 858.98,1104.76z"/>
  <path class="fil1" d="M19529.36 1963.43c0,150.43 -121.94,272.37 -272.37,272.37 -150.45,0 -272.39,-121.94 -272.39,-272.37 0,-150.45 121.94,-272.39 272.39,-272.39 150.43,0 272.37,121.94 272.37,272.39z"/>
  <path class="fil1" d="M23984.29 1302.25c0,150.43 -121.94,272.37 -272.37,272.37 -150.45,0 -272.41,-121.94 -272.41,-272.37 0,-150.45 121.96,-272.39 272.41,-272.39 150.43,0 272.37,121.94 272.37,272.39z"/>
  <path class="fil5" d="M22944.63 12375.04c151.23,-101.87 339.49,-134.84 521.63,-126.2 97.85,4.64 201.29,21.66 275.05,86.12 73.76,64.47 100.98,189.92 33.22,260.65 -40.34,42.1 -101.94,54.99 -159.93,61.1 -140.07,14.73 -298.16,8.25 -400.06,105.49 -58.14,55.47 -91.25,140.26 -164.72,172.79 -71.87,31.83 -161.18,-2.34 -208.6,-65.02 -47.41,-62.69 -58.58,-146.68 -49.01,-224.69 0,0 0.07,-167.62 152.42,-270.24z"/>
  <path class="fil5" d="M22553.17 12047.16c114.86,129.06 300.7,60.14 379.35,-36.03 78.66,-96.17 101.6,-224.9 121.85,-347.48 46.28,-280.06 91.64,-573.49 1.4,-842.62 -26.98,-80.47 -67.45,-159.12 -132.57,-213.54 -65.12,-54.41 -158.52,-80.4 -237.49,-49.33 -93.46,36.76 -142.36,138.23 -175.17,233.16 -96.46,279.03 -129.64,579.74 -96.33,873.09 15.54,137 48.48,278.73 138.96,382.75z"/>
  <path class="fil6" d="M22306.49 12280.47c92.03,-139.33 90.67,-326.67 24.54,-479.99 -66.14,-153.32 -189.37,-275.91 -326.07,-371.78 -160.29,-112.4 -342.69,-193.11 -533.66,-236.15 -75.15,-16.94 -153.64,-28.06 -228.97,-11.89 -75.32,16.18 -147.47,64.1 -175.07,136.03 -40.81,106.34 23.77,221.99 89.84,314.76 116.42,163.46 245.71,317.74 386.28,460.95 113.1,115.21 240.29,227.02 396.77,266.76 156.47,39.74 311.26,14.81 378.51,-98.35l-12.17 19.66z"/>
  <path class="fil1" d="M22733.96 13827.51c1.86,-0.11 2.18,-23.23 1.44,-64.91 -0.91,-47.03 -2.06,-106.06 -3.43,-176.31 -0.45,-74.29 0.05,-162.83 9.31,-260.26 9.22,-97.19 28.99,-203.66 57.64,-312.64 30.16,-108.54 70.71,-208.72 122.16,-291.08 50.98,-82.63 114.15,-145.51 175.87,-184.74 61.42,-39.83 118.36,-59.75 158.09,-70.28 40.26,-8.95 62.71,-14.83 62.52,-16.64 -0.2,-1.83 -23.1,0.55 -64.84,6.57 -41.15,7.62 -100.81,25.24 -165.87,64.53 -65.35,38.63 -132.66,102.85 -186.39,187.41 -54.27,84.27 -96.46,186.75 -127.15,297.22 -29.14,110.9 -48.32,218.37 -56.4,317.5 -8.04,98.97 -6.56,188.25 -3.71,262.88 3.12,74.68 8.04,134.86 11.88,176.41 3.92,41.54 7.08,64.44 8.88,64.34z"/>
  <path class="fil1" d="M22790.84 14032.82c0.9,-0.16 0.27,-10.43 -1.75,-29.85 -2.67,-22.26 -6.03,-50.3 -10.14,-84.73 -8.81,-73.52 -21.22,-179.97 -32.66,-311.86 -24.23,-263.63 -34.69,-549.18 -37.63,-953.16 -2.47,-379.89 2.05,-822.87 27.49,-1113.51 5.03,-66 10.9,-125.57 16.88,-177.81 5.4,-52.31 9.97,-97.39 15.18,-134.04 4.13,-34.41 7.49,-62.44 10.17,-84.7 2.03,-19.42 2.66,-29.69 1.76,-29.84 -0.9,-0.15 -3.31,9.83 -7.05,28.99 -3.96,22.08 -8.96,49.91 -15.1,84.08 -6.8,36.51 -12.87,81.49 -19.7,133.74 -7.39,52.2 -14.58,111.78 -20.82,177.83 -27.94,263.93 -47.33,630.5 -44.71,1035.47 2.94,404.81 25.78,771.04 54.86,1034.78 13.84,131.95 29.12,238.29 41.1,311.49 6.13,34.18 11.12,62.01 15.08,84.1 3.73,19.18 6.13,29.17 7.04,29.02z"/>
  <path class="fil1" d="M22710.5 13330.7c1.82,-0.28 -2.18,-31.7 -10.98,-88.46 -9.91,-56.52 -27.35,-137.83 -55.16,-236.69 -28.75,-98.5 -66.44,-215.05 -118.89,-340.35 -23.09,-57.38 -77.68,-194.97 -194.51,-396.43 -154.84,-273.37 -347.02,-489.2 -507.32,-618.06 -38.12,-34.72 -78.81,-58.22 -111.94,-82.04 -17.02,-11.28 -32.24,-22.74 -47.39,-31.46 -15.16,-8.03 -29.26,-15.49 -42.33,-22.42 -50.93,-26.73 -79.32,-40.65 -80.12,-39 -3.56,6.25 113.85,58.04 269.81,189.38 155.35,131.08 342.75,345.83 496.32,616.9 85.14,146.81 148.03,279.29 194.9,392.53 53.34,123.92 92.6,239.06 123.47,336.29 29.94,97.58 50.06,177.75 63.03,233.38 11.86,55.85 19.31,86.71 21.11,86.43z"/>
  <polygon class="fil7" points="21973.4,13584.71 22044.21,14554.86 23290.53,14554.86 23361.34,13584.71 "/>
  <polygon class="fil7" points="21853.02,13202.32 21853.02,13584.71 23510.05,13584.71 23510.05,13202.32 "/>
  <polygon class="fil7" points="21853.02,14517.74 21853.02,14623.73 21930.88,14623.73 23482.67,14623.73 23482.67,14517.74 "/>
  <polygon class="fil7" points="22007.19,14810.29 21930.88,14623.73 23423.31,14623.73 23334.27,14810.29 "/>
  <path class="fil4" d="M23338.2 13901.78c0.28,0.23 -1.7,3.25 -5.81,8.91 -4.94,6.56 -11.07,14.69 -18.62,24.7 -17.7,22.66 -42.02,53.77 -72.6,92.91l-3.23 4.14 -3.13 -4.33c-45.63,-63.11 -106.6,-147.43 -178.37,-246.69l10.26 0c-53.06,75.12 -112.15,158.81 -175.61,248.66l-5.51 7.79 -6.16 -7.33c-64.81,-77.11 -135.19,-160.85 -208.27,-247.8l12.01 -0.15c-3.62,4.54 -7.53,9.47 -11.46,14.4 -64.59,80.98 -127.11,159.35 -186.23,233.47l-6.21 7.78 -5.73 -8.1c-63.22,-89.46 -122.29,-173.04 -175.7,-248.6l10.22 0.48c-86.59,98.66 -160.02,182.33 -216.39,246.54l-3.84 4.38 -2.93 -4.93c-28.53,-47.92 -51.27,-86.14 -67.75,-113.83 -7.09,-12.35 -12.82,-22.34 -17.38,-30.31 -3.83,-6.93 -5.65,-10.6 -5.32,-10.81 0.33,-0.2 2.8,3.07 7.26,9.61 5.06,7.67 11.4,17.28 19.24,29.17 17.3,27.19 41.18,64.71 71.12,111.75l-6.77 -0.55c55.46,-64.99 127.72,-149.68 212.92,-249.54l5.37 -6.29 4.85 6.78c53.89,75.23 113.49,158.43 177.28,247.47l-11.93 -0.32c58.97,-74.23 121.34,-152.71 185.78,-233.81 3.93,-4.94 7.85,-9.86 11.46,-14.4l5.92 -7.43 6.09 7.28c72.88,87.11 143.07,171.02 207.7,248.28l-11.66 0.46c64.08,-89.39 123.77,-172.66 177.36,-247.41l5.2 -7.25 5.08 7.25c70.25,100.35 129.93,185.58 174.6,249.38l-6.35 -0.19c31.83,-38.15 57.12,-68.47 75.53,-90.55 8.2,-9.49 14.86,-17.19 20.23,-23.41 4.66,-5.21 7.2,-7.79 7.48,-7.56z"/>
  <path class="fil4" d="M23378.68 13578.31c0,4.29 -312.28,7.76 -697.41,7.76 -385.28,0 -697.5,-3.47 -697.5,-7.76 0,-4.28 312.22,-7.76 697.5,-7.76 385.13,0 697.41,3.48 697.41,7.76z"/>
  <path class="fil7" d="M23441.65 14634.18c0,4.29 -339.39,7.76 -757.96,7.76 -418.72,0 -758.04,-3.47 -758.04,-7.76 0,-4.28 339.32,-7.75 758.04,-7.75 418.57,0 757.96,3.47 757.96,7.75z"/>
  <path class="fil8" d="M24966.53 14803.56c0,5.07 -5513.38,9.19 -12312.9,9.19 -6801.89,0 -12314.1,-4.12 -12314.1,-9.19 0,-5.07 5512.21,-9.18 12314.1,-9.18 6799.52,0 12312.9,4.11 12312.9,9.18z"/>
  <path class="fil8" d="M3817.64 13647.69c0,0 -169.12,-1162.7 -155.02,-1839.18 14.09,-676.48 -0.84,-1437.53 -0.84,-1437.53l77.93 0c0,0 -52.77,1342.76 4.67,2152.6 57.39,809.22 208.61,1124.11 208.61,1124.11l-135.35 0z"/>
  <path class="fil6" d="M4321.39 9062.77c-15.67,-39.72 -34.93,-81.1 -71,-103.96 -49.43,-31.33 -114.25,-18.3 -169.43,1.21 -235.47,83.28 -444.2,522.3 -539.37,753.21l312.61 1053.32c564.24,-523.46 661.95,-1210.18 467.19,-1703.78z"/>
  <path class="fil8" d="M4232.14 9001.43c0.41,0.18 -1.16,4.91 -4.53,13.74 -4.03,10.09 -9.09,22.79 -15.31,38.38 -13.7,33.14 -32.93,81.35 -55.91,141.18 -46.06,119.6 -104.69,286.83 -157.12,475.22 -52.21,188.52 -88.17,362.06 -110.35,488.29 -11.15,63.11 -19.53,114.33 -24.86,149.79 -2.71,16.56 -4.92,30.05 -6.67,40.77 -1.67,9.3 -2.76,14.17 -3.19,14.11 -0.45,-0.05 -0.22,-5.02 0.62,-14.44 1.12,-10.81 2.53,-24.41 4.27,-41.12 3.81,-35.7 10.83,-87.19 20.84,-150.62 19.93,-126.85 54.58,-301.2 106.93,-490.23 52.56,-188.9 112.73,-356.14 161.05,-475.11 24.11,-59.51 44.65,-107.26 59.78,-139.82 7.13,-15.21 12.93,-27.61 17.54,-37.44 4.14,-8.51 6.51,-12.88 6.91,-12.7z"/>
  <path class="fil5" d="M3715.25 11019.11c-293.01,-161.9 -465.69,-466.51 -481.81,-800.88 -11.26,-233.75 60.55,-463.11 141.92,-682.53 7.06,-19.03 15.44,-39.54 33.1,-49.54 24.58,-13.92 55.33,-1.53 79.88,12.45 212.92,121.23 341.92,352.39 410.57,587.59 45.68,156.51 69.33,321.55 48.2,483.2 -21.13,161.66 -113.54,337.54 -231.86,449.71z"/>
  <path class="fil8" d="M3715.25 11019.11c-0.44,-0.02 -0.82,-4.88 -1.14,-14.13 -0.2,-10.67 -0.46,-24.04 -0.77,-40.43 -0.1,-35.08 -1.52,-85.86 -4.4,-148.48 -5.63,-125.28 -22.06,-297.96 -54.38,-486.6 -32.52,-188.66 -71.96,-357.61 -101.02,-479.72 -14.33,-59.74 -26.07,-108.71 -34.68,-144.59 -3.66,-15.98 -6.64,-29.02 -9.02,-39.43 -1.92,-9.04 -2.73,-13.85 -2.3,-13.97 0.43,-0.11 2.07,4.47 4.81,13.32 3,10.24 6.76,23.08 11.36,38.82 9.64,33.79 22.95,82.84 38.68,143.66 31.34,121.63 72.26,290.54 104.87,479.74 32.42,189.18 47.48,362.7 50.79,488.41 1.72,62.85 1.74,113.75 0.3,148.88 -0.66,16.4 -1.21,29.77 -1.65,40.44 -0.51,9.24 -1,14.09 -1.45,14.08z"/>
  <path class="fil9" d="M3715.25 11019.11c-293.01,-161.9 -465.69,-466.51 -481.81,-800.88 -11.26,-233.75 60.55,-463.11 141.92,-682.53 7.06,-19.03 15.44,-39.54 33.1,-49.54 24.58,-13.92 55.33,-1.53 79.88,12.45 212.92,121.23 341.92,352.39 410.57,587.59 45.68,156.51 69.33,321.55 48.2,483.2 -21.13,161.66 -113.54,337.54 -231.86,449.71z"/>
  <path class="fil5" d="M4045.84 12798.11c288.39,63.35 525.84,266.77 804.05,365.67 184.08,65.44 392.24,88.59 539.21,217.3 -35.26,-89.04 -118.87,-148.34 -200.1,-199.07 -228.79,-142.91 -473.79,-259.87 -728.77,-347.91 -130.89,-45.2 -272.91,-82.96 -406.28,-45.74l-8.11 9.75z"/>
  <path class="fil5" d="M3628.89 13055.03c-361.16,-5.82 -741.42,-313.3 -1100.92,-331.65 376.2,-121.46 914.86,-22.25 1100.92,331.65z"/>
  <path class="fil5" d="M3770 12188.66c183.4,-66.1 384.75,-69.24 577.39,-39.29 192.63,29.95 378.67,91.71 563.66,153.21 -18.53,-125.31 -120,-219.53 -215.34,-302.94 -71.74,-62.75 -144.03,-125.91 -226.34,-173.97 -82.31,-48.06 -176.22,-80.61 -271.44,-76.58 -114.89,4.86 -224.26,64.14 -299.6,151 -75.34,86.87 -115.86,174.27 -128.33,288.57z"/>
  <path class="fil5" d="M3028.78 11789.9c-227.35,-194.1 -571.7,-175.11 -870.56,-168.38 459.4,219.65 954.45,520.78 1350.12,841.34 12.14,-211.28 -192.38,-427.77 -479.56,-672.96z"/>
  <path class="fil9" d="M3028.78 11789.9c-227.35,-194.1 -571.7,-175.11 -870.56,-168.38 459.4,219.65 954.45,520.78 1350.12,841.34 12.14,-211.28 -192.38,-427.77 -479.56,-672.96z"/>
  <path class="fil5" d="M3872.25 11521.97c114.32,-76.21 229.97,-148.85 349.64,-203.22 119.65,-54.36 231.29,-140.97 346.87,-203.56 149.86,-81.15 279.69,-193.94 417.24,-294.54 137.56,-100.6 288.66,-191.41 456.98,-218.06 -137.27,-28.32 -280.68,-12.87 -415.88,24.05 -135.2,36.92 -263.63,94.72 -391.42,152.28 -177.34,79.89 -357.77,161.75 -502.74,291.45 -144.97,129.69 -276.01,257.68 -260.69,451.6z"/>
  <path class="fil8" d="M4843.29 13055.03c-0.22,0.38 -4.15,-1.33 -11.43,-4.93 -8.53,-4.42 -18.93,-9.81 -31.52,-16.33 -27.19,-14.48 -66.24,-35.92 -115.41,-60.64 -24.34,-12.85 -51.31,-26.26 -80.58,-39.99 -28.97,-14.4 -60.45,-28.58 -93.78,-43 -66.7,-28.49 -141.16,-58.21 -222.39,-77.5 -80.96,-19.88 -161.66,-24.24 -231.66,-5.83 -35.32,8.54 -68.58,16.96 -98.16,29.31 -29.7,12.04 -56.18,26.11 -79.24,40.68 -46.28,29.13 -78.61,60.01 -99.58,82.26 -20.92,22.41 -31.11,36.12 -32.03,35.43 -0.36,-0.26 1.88,-3.9 6.48,-10.62 4.52,-6.78 11.82,-16.33 21.82,-28.16 20.04,-23.5 51.86,-55.89 98.36,-86.56 23.17,-15.34 49.94,-30.17 80.12,-42.91 30.13,-13.08 64.13,-22.11 99.49,-30.98 71.54,-19.56 155.4,-15.39 237.37,4.83 82.49,19.62 157.34,49.93 224.18,79.17 33.39,14.8 64.84,29.42 93.7,44.27 29.19,14.21 56.01,28.13 80.12,41.53 48.76,25.82 87.2,48.51 113.66,64.34 12.12,7.37 22.14,13.45 30.34,18.44 6.87,4.34 10.37,6.8 10.14,7.19z"/>
  <path class="fil8" d="M3359.5 12876.06c0.31,-0.83 8.33,1.56 22.62,6.62 14.36,4.86 34.56,13.51 58.85,25.58 48.59,23.99 112.52,64.87 172.55,122.36 59.87,57.69 103.28,119.94 129.19,167.54 13.03,23.78 22.49,43.62 27.91,57.77 5.63,14.07 8.34,21.98 7.52,22.33 -2.08,0.92 -15.56,-29.66 -43.31,-75.53 -27.62,-45.87 -71.39,-106.1 -130.24,-162.82 -59.01,-56.51 -120.94,-97.83 -167.88,-123.59 -46.94,-25.9 -78.05,-38.15 -77.21,-40.26z"/>
  <path class="fil8" d="M2560.43 11771.77c0.15,-0.42 5.44,1.16 15.39,4.55 11.18,3.97 25.55,9.09 43.34,15.43 19.26,7.1 42.11,15.52 68.36,25.2 26.63,9.9 55.56,24.51 88.28,38.93 130.03,59.03 303.07,158.37 470.19,299.57 82.41,71.73 156.93,144.65 219.25,215.91 62.09,71.4 114.66,138.56 155.63,197.17 41.22,58.41 72.5,107.07 93.92,140.72 10.14,15.9 18.34,28.74 24.71,38.74 5.6,8.89 8.37,13.69 8.01,13.95 -0.36,0.26 -3.84,-4.04 -10.14,-12.47 -6.32,-8.42 -15.48,-20.97 -26.75,-37.43 -22.73,-32.85 -55.1,-80.64 -97.15,-138.19 -41.78,-57.73 -94.85,-124.01 -157.1,-194.61 -62.5,-70.46 -136.82,-142.68 -218.73,-213.98 -166.09,-140.31 -337.2,-240.23 -465.72,-301.14 -32.34,-14.89 -60.9,-30.02 -87.18,-40.52 -25.87,-10.43 -48.38,-19.51 -67.36,-27.17 -17.42,-7.25 -31.48,-13.11 -42.43,-17.67 -9.66,-4.17 -14.66,-6.57 -14.52,-6.99z"/>
  <path class="fil8" d="M4311.91 11985.65c-0.24,0.86 -10.51,-0.51 -28.79,-3.7 -9.94,-1.84 -20.94,-3.87 -33.18,-6.13 -12.9,-2.5 -27.97,-2.56 -44.36,-4.26 -64.95,-4.71 -159.57,0.65 -248.22,48.98 -44.72,22.63 -82.24,53.18 -112.94,83.81 -31.16,30.39 -54.8,62.07 -72.61,89.77 -36.24,55.46 -47.43,95.53 -49.64,94.75 -0.71,-0.18 1.32,-10.37 7.34,-28.15 6.64,-17.47 16.87,-42.85 34.56,-71.41 17.14,-28.81 40.48,-61.72 71.91,-93.31 30.94,-31.81 69.3,-63.52 115.37,-86.86 91.43,-49.82 189.31,-53.83 255.02,-46.65 16.61,2.3 31.85,3.03 44.77,6.23 12.21,3.08 23.18,5.84 33.09,8.33 18.08,4.74 27.92,7.75 27.68,8.6z"/>
  <path class="fil8" d="M4674.89 10859.6c0.2,0.4 -4.51,3.29 -13.67,8.43 -10.4,5.64 -23.75,12.9 -40.29,21.88 -35.04,18.88 -85.45,46.73 -146.72,82.83 -60.96,36.58 -132.8,81.49 -209.22,136.12 -76.19,54.75 -158.05,118.4 -233.6,195.71 -37.26,38.9 -71.6,79.52 -95.54,123.7 -23.65,45.44 -46.27,89.34 -67.06,131.5 -41.78,84.24 -75.78,161.79 -100.35,228.43 -24.49,66.67 -39.76,122.16 -48.81,160.84 -9.24,38.65 -12.58,60.45 -13.85,60.25 -0.43,-0.07 0.07,-5.56 1.45,-15.98 1.3,-10.43 3.49,-25.77 7.5,-45.33 7.58,-39.18 21.61,-95.41 45.14,-162.87 23.6,-67.42 56.94,-145.78 98.25,-230.56 20.57,-42.43 43.01,-86.54 66.52,-132.09 24.86,-46.2 59.74,-87.38 97.49,-126.84 76.47,-78.25 159.03,-141.93 235.98,-196.43 77.18,-54.37 149.78,-98.64 211.51,-134.32 62.03,-35.19 113.21,-61.88 149.01,-79.41 17,-8.11 30.74,-14.66 41.43,-19.76 9.54,-4.38 14.63,-6.5 14.83,-6.1z"/>
  <path class="fil8" d="M3662.18 11953.12c-0.88,0.13 -3.38,-10.72 -7.17,-30.44 -4.21,-22.28 -9.5,-50.22 -15.79,-83.44 -13.76,-70.3 -34.79,-167.13 -68.29,-271.01 -33.21,-104.03 -73.62,-194.54 -103.15,-259.82 -14.02,-30.79 -25.81,-56.68 -35.21,-77.33 -8.21,-18.32 -12.38,-28.64 -11.58,-29.04 0.79,-0.39 6.48,9.17 16.08,26.82 9.59,17.65 23.06,43.41 38.94,75.64 31.69,64.41 73.71,154.93 107.18,259.77 33.76,104.68 53.49,202.44 64.99,273.35 5.67,35.51 9.73,64.31 11.79,84.31 2.26,19.97 3.09,31.06 2.21,31.19z"/>
  <path class="fil6" d="M3636.05 11131.46c-9.06,-136.45 -53.51,-269.03 -117.44,-389.91 -175.3,-331.43 -504.75,-577.11 -872.41,-650.58 269.22,401.27 538.45,802.54 807.67,1203.81l104.3 214.86c71.16,-116.77 86.94,-241.74 77.88,-378.18z"/>
  <polygon class="fil7" points="4794.61,13836.73 2916.53,13836.73 2916.53,13503.86 4794.61,13503.86 "/>
  <polygon class="fil7" points="3056.79,13770.7 3216.71,14803.56 4463.52,14803.56 4654.36,13770.7 "/>
  <path class="fil8" d="M4793.57 13837.15c0,3.65 -423.62,6.6 -946.07,6.6 -522.63,0 -946.17,-2.95 -946.17,-6.6 0,-3.65 423.54,-6.6 946.17,-6.6 522.45,0 946.07,2.95 946.07,6.6z"/>
  <path class="fil8" d="M19640.61 9115.73l-2354.38 -513.83 -406.05 -639.58 -207.21 46.65 -79.8 1609.17 1755.18 607.14 -904.62 2362.42 574.22 387.99c0,0 1861.63,-2626.74 2000.63,-2919.81 139,-293.08 90.29,-835.16 -377.97,-940.15z"/>
  <path class="fil8" d="M16645.63 4305.02c273.85,-584.04 265.19,-1215.37 539.06,-1799.42l32.75 -89.6c-72.18,-218.64 -427.52,-248.14 -611.18,-184.84 -183.67,63.31 -294.32,208.46 -355.95,363.01 -61.61,154.55 -82.32,322.59 -133.5,480.83 -123.37,381.45 -424.52,714.81 -391.75,1128.63l581.55 144.36 149.71 -296.06 -20.01 278.51 209.32 -25.42z"/>
  <path class="fil5" d="M16805.41 2526.08c35.55,-71.15 72.16,-143.42 127.7,-200.37 55.54,-56.94 133.97,-97.16 212.93,-87.67 37.18,4.47 75.93,22.78 90.67,57.19 14.74,34.41 -8.4,83.31 -45.84,82.79l-7.46 7.33c-77.88,78.98 -157.32,156.41 -238.28,232.25 -20.37,19.08 -41.54,38.52 -67.63,48.5 -26.1,9.98 -58.57,8.41 -78.5,-11.17 -32.9,-32.37 -14.22,-87.55 6.41,-128.85z"/>
  <path class="fil8" d="M17008.99 2397.12c280.89,-202.44 605.13,-275.63 941.11,-191.96 189.54,47.21 257.19,107.25 383.31,180.17 126.13,72.9 229.31,178.51 279.69,315.22 59.84,162.35 99.92,336.98 73.81,508.03 -26.84,175.71 -53.94,352.58 -112.5,520.4 -58.55,167.83 -151.06,327.9 -288.98,440.02l-455.94 -40.51c-242.85,-55.97 -488.94,-113.15 -708.76,-230.57 -219.82,-117.43 -413.97,-304.33 -484.74,-543.28 -98.32,-331.99 92.1,-755.09 373,-957.52z"/>
  <path class="fil10" d="M17397.49 2497.65l642.5 -75.99 147.06 58.11c341.16,92.28 476.24,531.68 404.71,808.85 -79.46,307.93 -188.61,680.74 -297.82,894.2 -219.62,429.21 -618.39,363.47 -618.39,363.47l-45.37 191.06 51.07 365.43 -576.05 276.49 -796.1 -270.74 401.39 -586.68 491.84 -1909.18c25.33,-83.19 110.12,-133.15 195.16,-115.02z"/>
  <path class="fil11" d="M17639.27 3894.06c9.56,-23.16 28.56,-40.82 49.47,-50.87 41.81,-20.07 92.29,-9.65 122.02,25.2 29.71,34.85 36.83,91.95 17.18,138.03 -27.93,22.64 -64.27,33.28 -99.69,27.05 -5.52,-0.97 -10.96,-2.22 -16.35,-3.81 -26.07,-7.68 -50.41,-23.67 -65.3,-48.38 -14.88,-24.69 -19.13,-58.64 -7.33,-87.22z"/>
  <path class="fil8" d="M18330.99 3650.17c-8.93,31.03 -42.55,49.04 -75.1,40.31 -32.49,-8.7 -51.68,-40.85 -42.77,-71.87 8.92,-31 42.56,-49.05 75.04,-40.35 32.57,8.71 51.75,40.92 42.83,71.91z"/>
  <path class="fil8" d="M18446.72 3414.48c-9.67,5.21 -43.04,-41.68 -105.57,-61.91 -62.17,-21.1 -118.5,-3.92 -122.78,-13.79 -2.23,-4.47 9.57,-15.73 34.27,-23.76 24.37,-8.06 62.48,-11.19 101.35,1.67 38.84,12.91 66.91,37.93 80.93,58.73 14.4,21 16.44,36.82 11.8,39.06z"/>
  <path class="fil8" d="M17906.67 3803.05c0.86,-3.64 41.88,2.33 107.44,14.81 16.48,3.55 32.63,5.31 38.87,-4.69 7.52,-10.31 6.46,-29.67 4.78,-50.75 -2.4,-43.51 -4.9,-89.1 -7.54,-136.88 -9.05,-194.32 -10.08,-352.03 -2.27,-352.31 7.85,-0.3 21.56,156.98 30.63,351.3 1.84,47.8 3.66,93.37 5.31,136.95 0.12,20.1 3.79,44.05 -12.16,65.31 -8.2,10.52 -22.72,15.34 -33.85,14.77 -11.25,-0.22 -20.26,-2.98 -28.32,-5.08 -64.43,-17.26 -103.82,-29.8 -102.89,-33.43z"/>
  <path class="fil11" d="M17676.43 4545.98c0,0 -310.95,-79.74 -553.48,-359.56 0,0 59.1,366.48 526,471.98l27.48 -112.42z"/>
  <path class="fil8" d="M17708.72 3786.27c10.34,2.72 -11.66,70.57 30.69,137.65 42.16,67.2 116.93,83.17 114.37,92.82 -0.44,4.56 -20.39,7.92 -51.17,-1.2 -30.25,-8.75 -70.83,-32.63 -96.72,-73.66 -25.8,-41.06 -28.17,-85.42 -21.39,-113.99 6.66,-29.19 19.7,-43.53 24.22,-41.62z"/>
  <path class="fil8" d="M18484.33 3186.68c-15.47,11.83 -59.99,-13.99 -117.4,-27.58 -56.95,-15.43 -108.52,-13.99 -116.32,-31.74 -3.28,-8.5 7.68,-21.37 32.06,-30.39 24.07,-9.05 61.69,-12.43 101.01,-2.47 39.29,10.01 70.62,30.86 87.31,50.26 16.99,19.53 20.32,36.01 13.34,41.92z"/>
  <path class="fil8" d="M17654.03 3432.2c-9.94,30.71 7.84,64.44 39.72,75.41 31.8,10.96 65.69,-4.96 75.65,-35.66 9.94,-30.71 -7.85,-64.47 -39.65,-75.42 -31.87,-10.99 -65.77,4.98 -75.72,35.67z"/>
  <path class="fil8" d="M17595.23 3161.13c5.1,9.73 58.98,-10.49 122.14,7.7 63.33,17.28 100.43,63.04 109.49,57.24 4.35,-2.46 0.86,-18.4 -15.12,-38.86 -15.7,-20.31 -45.55,-44.23 -84.95,-55.3 -39.43,-11.02 -76.69,-5.97 -99.94,3.42 -23.68,9.37 -34.22,21.33 -31.62,25.8z"/>
  <path class="fil8" d="M17687.53 2968.15c8.35,17.89 61.36,16.93 120.18,32.95 59.31,14.19 105.51,40.54 121.22,28.8 7.1,-5.86 3.38,-22.47 -14.44,-42.25 -17.52,-19.63 -50.09,-40.9 -90.7,-51.32 -40.6,-10.35 -79.23,-7.32 -103.8,1.57 -24.93,8.83 -35.94,21.68 -32.46,30.25z"/>
  <path class="fil10" d="M17075.36 3405.72c10.92,-33.72 -2.1,-125.93 -33.71,-141.99 -84.37,-42.87 -246.95,-88.03 -322.13,137.27 -102.76,307.98 227.65,347.62 231.14,338.97 2.73,-6.76 86.99,-217.75 124.7,-334.25z"/>
  <path class="fil11" d="M16903.23 3599.11c-1.02,-1.43 -6.62,1.98 -17.06,3.1 -10.21,1.09 -26.35,-1.18 -40.4,-12.55 -28.55,-22.8 -38.71,-83.59 -21.67,-139.6 8.56,-28.31 23.33,-53.03 40.64,-71.83 16.93,-19.39 36.74,-30.26 54.1,-27.7 17.55,1.66 25.87,15.34 26.76,25.25 1.26,10 -2.76,15.5 -1.3,16.56 0.6,1.07 8.33,-2.94 10.09,-16.48 0.77,-6.55 -0.41,-15.02 -5.69,-23.36 -5.38,-8.47 -15.21,-15.16 -27.05,-17.74 -24.3,-6.27 -52.96,8.45 -71.97,29.06 -20.35,20.29 -37.62,47.87 -47.24,79.64 -18.74,62.72 -6.35,131.38 33.89,159.11 19.77,12.87 40.03,12.38 51.79,8.22 12.07,-4.4 15.99,-10.76 15.11,-11.68z"/>
  <path class="fil8" d="M17028.64 3261.22l57.55 103.74c431.24,-237.22 1322.2,-881.51 1271.65,-842.45 0,0 -209.54,-159.56 -476.6,-184.16 -267.04,-24.61 -785.67,-25.97 -858.59,277.29 -72.9,303.27 5.99,645.58 5.99,645.58z"/>
  <path class="fil5" d="M16687.02 3487.83c-1.33,0.54 -7.64,-11.1 -17.83,-32.71 -10.06,-21.65 -24.32,-53.24 -38.21,-93.98 -14.07,-40.44 -26.1,-91.76 -27.81,-148.9 -2.41,-57.03 1.31,-119.57 9.88,-184.5 15.1,-132.11 71.86,-240.87 115.91,-313.47 22.56,-36.53 43.4,-64.37 58.63,-82.87 15.2,-18.53 24.73,-27.8 25.75,-26.98 2.81,2.18 -30.13,43.52 -71.56,117.4 -40.3,73.78 -93.34,180.58 -107.88,308.71 -17.47,128.06 -16.12,245.86 11.28,326.16 24.66,80.81 45.36,129.82 41.84,131.14z"/>
  <path class="fil11" d="M18329.89 4119.6c2.05,0.93 -6.95,27.05 -27.28,66.75 -20.57,39.44 -52.8,92.53 -97.31,144.35 -44.09,52.16 -91.69,92.6 -129,117.23 -37.28,24.87 -63.19,35.1 -64.16,33.16 -1.38,-2.54 22.04,-16.7 56.54,-43.68 34.59,-26.78 79.5,-67.6 122.63,-118.62 87.06,-101.83 133.28,-201.95 138.58,-199.19z"/>
  <path class="fil8" d="M18579.5 12664.73l-467.44 846.67c0,0 755.63,779.22 685.39,944.44l-1773.41 -885.02 670.93 -1350.35 884.53 444.26z"/>
  <path class="fil1" d="M17600.25 13165.13c-38.79,-8.26 -80.86,16.37 -89.4,53.1 -8.53,36.73 18.86,79.33 57.53,88.23 38.65,8.92 90.17,-19.11 94.34,-56.72 4.19,-37.59 -30.75,-86.01 -70.12,-85.8l7.65 1.19z"/>
  <path class="fil5" d="M17024.04 13570.82l73.28 -133.34 1672.9 898.41c0,0 62.61,71.86 27.23,119.95l-1773.41 -885.02z"/>
  <path class="fil3" d="M18145.09 13517.22c-4.4,8.04 -49.58,-9.87 -105.42,-4.83 -56.06,3.64 -95.89,28.12 -102.21,20.9 -7.18,-5.56 30.37,-48.05 98.16,-52.98 67.7,-5.56 115.14,30.34 109.47,36.91z"/>
  <path class="fil3" d="M18294.5 13682.73c-2.02,8.91 -46.53,4.11 -93.36,24.04 -47.5,18.58 -73.77,52.28 -82.22,47.62 -8.78,-2.76 9.35,-53.68 68.13,-77.36 58.52,-24.19 111.2,-2.2 107.45,5.7z"/>
  <path class="fil3" d="M18294.21 13945.79c-8.74,-2.19 -0.21,-49.08 44.59,-82.78 44.56,-34.05 94.29,-31.34 94.52,-22.69 1.5,9.17 -36.89,20.08 -73.22,48.32 -37.03,27.36 -56.87,60.64 -65.89,57.15z"/>
  <path class="fil3" d="M18228.93 13311.95c-7.39,5.65 -41.43,-25.47 -91.96,-46.75 -50.13,-22.26 -96.03,-25.75 -97.01,-35.02 -2.03,-8.42 50.41,-20.14 109.59,5.72 59.35,25.42 86.86,71.74 79.38,76.05z"/>
  <path class="fil8" d="M18787.35 12694.74l-467.43 846.69c0,0 755.62,779.21 685.39,944.43l-1773.41 -885.02 670.93 -1350.35 884.52 444.25z"/>
  <path class="fil1" d="M17808.11 13195.15c-38.79,-8.26 -80.86,16.36 -89.4,53.1 -8.53,36.73 18.86,79.33 57.53,88.24 38.65,8.91 90.17,-19.12 94.34,-56.73 4.18,-37.59 -30.75,-86.01 -70.12,-85.8l7.65 1.19z"/>
  <path class="fil5" d="M17231.9 13600.84l73.27 -133.34 1672.91 898.42c0,0 62.61,71.85 27.23,119.94l-1773.41 -885.02z"/>
  <path class="fil3" d="M18352.95 13547.24c-4.4,8.04 -49.58,-9.86 -105.42,-4.82 -56.06,3.63 -95.89,28.11 -102.22,20.89 -7.17,-5.57 30.37,-48.05 98.17,-52.99 67.69,-5.55 115.13,30.35 109.47,36.92z"/>
  <path class="fil3" d="M18502.36 13712.74c-2.02,8.92 -46.53,4.12 -93.37,24.05 -47.49,18.58 -73.76,52.29 -82.21,47.61 -8.78,-2.75 9.35,-53.67 68.12,-77.35 58.52,-24.19 111.21,-2.2 107.46,5.69z"/>
  <path class="fil3" d="M18502.07 13975.81c-8.74,-2.19 -0.2,-49.08 44.59,-82.78 44.56,-34.04 94.28,-31.34 94.51,-22.69 1.51,9.17 -36.88,20.08 -73.2,48.32 -37.04,27.36 -56.88,60.64 -65.9,57.15z"/>
  <path class="fil3" d="M18436.78 13341.97c-7.39,5.65 -41.42,-25.47 -91.96,-46.75 -50.12,-22.26 -96.02,-25.75 -97,-35.02 -2.03,-8.42 50.41,-20.14 109.59,5.72 59.35,25.42 86.86,71.74 79.37,76.05z"/>
  <path class="fil8" d="M14992.54 7907.12c0,0 -506.23,1765.29 52.78,2129.51 730.65,476.04 3811.76,366.23 3755.62,420.47 -285.64,275.93 -817.54,1647.27 -1148.71,2464.14l727.73 487.49c0,0 1508.1,-2203.27 1786.79,-2778.12 187.56,-386.88 194.16,-952.24 -265.49,-1155.03 -289.38,-127.67 -2741.81,-773.93 -2741.81,-773.93l-279.27 -739.33 -1887.64 -55.2z"/>
  <path class="fil5" d="M14992.54 7907.12c0,0 10.53,-0.09 31.67,0.33 21.49,0.49 53,1.21 94.42,2.16 83.82,2.14 207.5,5.31 368.36,9.44 323.18,8.78 795.48,21.63 1393.34,37.9l3.6 0.09 1.28 3.38c84.22,222.21 178.73,471.56 280.1,739.01l-4.26 -3.83c431.86,113.82 910.98,241.52 1429.08,383.61 259,71.25 527.84,145.71 804.74,226.25 138.31,40.83 279.02,81.56 420.25,129.25 141.8,44.4 279.34,131.26 363.8,262.54l30.17 49.84c9.06,17.16 16.19,35.36 24.38,53.04 3.88,8.93 8.14,17.74 11.72,26.81l8.79 27.94c5.46,18.74 12.61,37.11 16.7,56.25 18.27,76.35 24.77,155.28 24.21,234.45 -5.32,158.21 -41.86,317.17 -109.5,464.5 -15.67,37.46 -36.64,72.07 -54.79,108.4 -18.29,36.27 -38.71,71.37 -59.01,106.68 -39.91,71.03 -81.88,141.3 -124.56,211.63 -84.97,140.92 -173.35,281.7 -263.4,423.29 -360.87,565.93 -747.78,1145.3 -1148.31,1736.73 -49.45,72.66 -98.76,145.09 -147.78,217.11l-5.12 7.52 -7.58 -5.08c-249,-166.83 -493.57,-330.69 -727.68,-487.54l-6.17 -4.13 2.79 -6.88c231.7,-571.98 451.15,-1130.59 690.89,-1656 60.18,-131.21 121.3,-260.5 186.75,-386.04 66.54,-124.82 132.39,-249.04 216.92,-360.21l34.65 -39.46 17.3 -19.67 4.33 -4.91c1.51,-1.81 -3.99,3.33 -0.24,8.08 0.95,1.58 1.77,1.44 0.86,1.21 -2.15,-0.86 -6.53,-1.83 -10.43,-2.41 -32.87,-4.57 -67.56,-5.54 -101.45,-7.09 -68.14,-2.55 -136.04,-3.85 -203.5,-5.16 -134.97,-2.36 -268.28,-4.69 -399.84,-6.99 -526.26,-9.88 -1024.64,-27.77 -1488.38,-65.53 -231.83,-18.97 -455.02,-42.78 -668.01,-75.01 -212.79,-32.6 -416.12,-72.34 -603.91,-132.77 -93.53,-30.68 -183.72,-66.33 -263.99,-115.79 -81.12,-49.8 -140.14,-125.51 -177.53,-206.02 -38.08,-80.7 -59.35,-164.99 -74.1,-246.88 -15.12,-82.05 -21.08,-162.67 -24.31,-240.38 -9.41,-311.57 29.86,-577.51 64.79,-792.04 36.76,-214.71 75.26,-379 102.55,-489.81 13.86,-55.37 25.09,-97.36 32.89,-125.49 7.82,-28.04 12.52,-42.32 12.52,-42.32 -2.76,11.06 -15.21,60.98 -42.06,168.63 -26.19,111.01 -63.62,275.44 -99.31,490.09 -33.88,214.43 -72.08,480.25 -61.75,790.56 3.44,77.37 9.62,157.57 24.84,238.95 14.86,81.22 36.18,164.64 73.85,243.93 37.09,79.23 94.68,152.56 173.74,200.88 79.06,48.49 168.63,83.74 261.66,114.02 186.81,59.71 389.72,99 602.12,131.17 212.63,31.79 435.56,55.22 667.17,73.84 463.34,37.05 961.42,54.34 1487.52,63.7 131.56,2.18 264.87,4.39 399.85,6.62 67.5,1.25 135.42,2.49 203.83,5 34.32,1.57 68.31,2.36 103.53,7.22 4.57,0.79 8.74,1.34 14.58,3.63 1.13,0.43 3.78,1.58 6.19,4.64 5.1,6.82 -1.92,13.68 -1.92,13.68l-4.19 4.78 -16.78 19.15 -33.65 38.36c-83.09,109.38 -148.87,233.42 -215.01,357.77 -65.16,125.18 -126.1,254.3 -186.12,385.36 -239.16,524.9 -458.32,1083.43 -689.94,1655.56l-3.37 -11c234.13,156.82 478.71,320.65 727.75,487.44l-12.69 2.45c49.01,-72 98.3,-144.42 147.74,-217.06 400.45,-591.31 787.44,-1170.54 1148.36,-1736.05 90.05,-141.48 178.44,-282.14 263.36,-422.81 42.67,-70.23 84.61,-140.37 124.43,-211.16 20.27,-35.21 40.67,-70.23 58.83,-106.2 18,-35.99 39.01,-70.64 54.4,-107.46 66.77,-145.11 102.89,-302.02 108.24,-457.63 0.58,-77.84 -5.75,-155.31 -23.56,-230.02 -3.98,-18.75 -10.98,-36.66 -16.29,-54.99l-8.55 -27.31c-3.49,-8.85 -7.64,-17.42 -11.42,-26.14 -7.99,-17.23 -14.89,-35 -23.71,-51.72l-29.32 -48.52c-82.31,-127.77 -214.91,-212.08 -355.11,-256.27 -140.53,-47.6 -281.27,-88.51 -419.39,-129.43 -276.65,-80.8 -545.37,-155.57 -804.23,-227.15 -517.83,-142.75 -996.73,-271.25 -1428.3,-385.92l-3.14 -0.83 -1.13 -3.02c-100.77,-267.68 -194.71,-517.25 -278.44,-739.64l4.87 3.46c-596.63,-18.66 -1067.95,-33.4 -1390.46,-43.49 -161.27,-5.3 -285.26,-9.37 -369.29,-12.13 -41.76,-1.49 -73.53,-2.62 -95.2,-3.39 -21.41,-0.83 -32.53,-1.55 -32.53,-1.55z"/>
  <path class="fil10" d="M18265.17 5164.98c0,0 -158.02,-134.53 -151.62,-256.25 6.41,-121.72 14.95,-138.81 -14.95,-187.92 -29.89,-49.11 -102.5,-136.67 -61.93,-145.21 40.58,-8.54 106.78,-32.03 160.16,44.84l44.84 55.53 -12.81 -330.99c0,0 -123.85,-19.22 -119.58,-64.07 4.27,-44.84 42.71,-91.82 102.5,-98.22 59.79,-6.41 175.1,87.55 175.1,87.55l27.76 163.46c0,0 220.57,-32.79 246.19,110.28 0,0 139.59,14.02 133.37,106.34 0,0 115.86,23.51 98.78,162.31 -17.09,138.8 -68.34,305.37 -119.59,397.19 -51.25,91.82 -25.65,100.36 -25.65,100.36l-362.99 42.71 -133.45 -134.51 13.87 -53.4z"/>
  <path class="fil11" d="M18676.42 4545.39c0.78,3.38 -53.19,-7.85 -122.07,33.95 -33.96,20.16 -68.3,53.37 -101.25,94.7 -16.49,21.29 -33.65,43.44 -51.4,66.34 -18.5,22.51 -43.46,46.97 -77.84,53.23 -16.63,3.15 -34.76,1.93 -50.41,-6.21 -15.72,-8.03 -27,-22.58 -32.49,-37.74 -11.1,-30.68 -7.09,-60.89 -3.05,-87.41 8.4,-53.8 27.46,-101 52.84,-134.13 25.18,-33.36 54.31,-52.35 75.43,-61.37 21.35,-9.07 34.34,-9.76 34.49,-8.8 0.41,1.49 -11.85,4.58 -31.33,15.22 -19.3,10.57 -45.64,30.17 -68.07,62.56 -22.58,32.16 -39.41,77.15 -46.62,129.08 -3.67,25.75 -6.21,53.8 3.1,78.35 8.33,25.02 35.13,38.51 62.73,32.39 27.61,-4.89 49.39,-25.14 67.38,-46.68 17.96,-21.96 34.8,-45.05 52.16,-65.57 34.31,-41.56 71.17,-75.45 107.84,-95.21 36.34,-20.21 70.31,-26.79 93.27,-27.28 23.18,-0.63 35.5,3.73 35.29,4.58z"/>
  <path class="fil11" d="M18796.69 4647.79c1.84,2.82 -60.49,15.38 -122.81,87.82 -30.53,35.38 -61.47,83.84 -99.03,134.32 -18.53,25.75 -37.85,52.61 -57.84,80.4 -19.69,28.32 -41.78,57.61 -69.7,82.72 -13.83,12.62 -28.57,23.83 -43.57,33.94 -14.11,11.19 -35.72,18.65 -54.23,17.28 -18.98,-0.65 -37.46,-6.94 -52.1,-18.77 -15.33,-11.55 -22.89,-31.22 -24.7,-47.4 -4.99,-33.18 2.44,-65.29 11.49,-91.72 8.58,-27.14 18.8,-51.74 29.74,-73.33 21.86,-43.26 45.52,-74.6 62.47,-95.34 17.11,-20.71 27.73,-31.09 28.62,-30.35 1.06,0.87 -7.7,12.82 -22.91,34.66 -15.07,21.88 -36.68,53.84 -56.48,96.67 -9.91,21.38 -19.14,45.53 -26.88,72.15 -8.41,26.67 -14.06,54.89 -9.32,84.7 2.3,14.87 7.42,27.57 18.99,36.31 11.17,8.9 26.32,14.08 41.65,14.43 16.01,0.33 29.38,-3.75 43.41,-14.42 14.39,-9.78 28.38,-20.46 41.48,-32.42 26.39,-23.73 47.62,-51.57 67.3,-79.44 19.75,-27.94 40.03,-54.42 58.75,-79.84 38.56,-50.23 70.07,-97.34 103.25,-133.29 33.23,-35.5 67.07,-57.29 92.06,-67.81 24.99,-10.82 40.22,-12.12 40.36,-11.27z"/>
  <path class="fil11" d="M18822.49 4818.6c2.04,1.11 -9.95,28.55 -35.63,69.49 -25.56,40.9 -65.79,94.77 -118.19,146.87 -25.98,25.98 -55.25,50.09 -89.05,58.35 -34,9.02 -66.44,-3.38 -85.6,-19.35 -20.07,-16.01 -29.56,-35.29 -33.15,-48.66 -3.57,-13.59 -2.35,-21.39 -1.37,-21.43 3.27,-1.53 4.28,32.73 42.31,59.69 18.24,12.91 45.34,21.74 73.55,13.37 28.39,-7.71 55.04,-29.58 80.35,-54.99 103.43,-102.18 161.97,-206.38 166.78,-203.34z"/>
  <path class="fil12" d="M18335.05 7121.47c9.1,0 278.8,-227.28 290.92,-503.04 12.13,-275.76 124.25,-1342.47 124.25,-1342.47l-500.02 -57.58c0,0 -254.55,1224.29 -321.22,1327.32 -66.67,103.04 -527.29,512.14 -527.29,512.14l933.36 63.63z"/>
  <path class="fil12" d="M16790.87 4433.7c0,0 794.55,495.61 847.3,270.01 79.79,146.08 216.34,498.37 273.89,724.87 119.05,468.5 112.59,960.25 18.62,1166.67 -100.25,220.23 -426.68,499.07 -426.68,499.07l-555.5 950.01 -1929.32 -112.43c0,0 -80.52,-102.12 -48.25,-202.45 123.43,-383.68 493.37,-1321.16 696.55,-1818.81 301.78,-739.18 391.99,-1111.82 801.24,-1375.41 140.46,-90.47 322.15,-101.53 322.15,-101.53z"/>
  <path class="fil8" d="M17922.77 5472.67c0.63,-0.13 2.32,5.29 4.98,15.73 2.95,12.59 6.49,27.71 10.75,45.86 8.81,39.94 20.27,98.02 32.27,170.2 22.61,144.3 50.6,345.7 42.95,569.96 -2.9,55.96 -6.85,110.77 -17.65,162.99 -9.71,52.45 -28.68,101.52 -50.53,144.72 -43.01,87.74 -97.87,157.92 -149.81,209.91 -52.09,52.12 -100.33,87.31 -134.16,110.33 -16.97,11.5 -30.44,19.94 -39.82,25.29 -9.3,5.45 -14.34,8.06 -14.68,7.52 -0.88,-1.34 17.9,-13.95 50.34,-38.62 32.35,-24.66 78.91,-61.11 129.02,-113.58 49.97,-52.38 102.56,-121.87 143.9,-208.28 21.24,-43.2 38.8,-89.58 48.08,-140.74 10.29,-50.9 14.09,-105.05 16.95,-160.32 7.61,-221.91 -18.15,-422.93 -37.44,-567.22 -10.32,-72.22 -19.81,-130.52 -26.44,-170.82 -2.92,-18.39 -5.34,-33.72 -7.36,-46.47 -1.48,-10.67 -1.96,-16.34 -1.35,-16.46z"/>
  <path class="fil10" d="M19218.13 7131.16l352.89 -172.78c0,0 220.5,17.23 287.21,56.78 66.7,39.56 246.76,150.85 246.76,150.85 0,0 239.05,-40.03 267.37,10.97 48.16,86.72 -136.11,140.12 -136.11,140.12l116.5 89.84c0,0 -109.97,73.3 -205.97,28.21 -96.01,-45.09 -100.71,-75.97 -100.71,-75.97l-61.18 14.44 183.11 226.73c0,0 -82.07,41.83 -165.67,2.45 -83.6,-39.38 -173.4,-170.95 -173.4,-170.95 0,0 -359.34,117.62 -483.91,134.57 -124.57,16.95 -363.26,-4.49 -363.26,-4.49l106.65 -440.12 129.72 9.35z"/>
  <path class="fil11" d="M20247.62 7302.62c1.5,4.85 -140.19,53.09 -316.44,107.74 -176.31,54.67 -320.41,95.04 -321.91,90.19 -1.5,-4.84 140.16,-53.07 316.47,-107.74 176.25,-54.65 320.38,-95.03 321.88,-90.19z"/>
  <path class="fil11" d="M19733.69 7191.72c-0.39,-5.06 84.73,-15.76 190.09,-23.9 105.39,-8.14 191.13,-10.64 191.52,-5.58 0.39,5.06 -84.71,15.76 -190.11,23.9 -105.36,8.14 -191.11,10.64 -191.5,5.58z"/>
  <path class="fil11" d="M19658.49 7015.17c2.51,-4.41 63.08,27.89 135.25,72.13 72.2,44.27 128.4,83.54 125.55,87.75 -2.85,4.19 -63.4,-28.1 -135.26,-72.15 -71.84,-44.04 -128.06,-83.33 -125.54,-87.73z"/>
  <path class="fil12" d="M16195.48 5790.11c0,47.16 467.03,1967.34 891.48,2073.45 424.45,106.11 2014.74,-254.66 2014.74,-254.66l0 -531.65 -1509.14 -147.73c0,0 -43.81,-333 -54.28,-465.16 -7.69,-97.08 -174.35,-1690.5 -539.84,-1902.72 -365.5,-212.23 -641.6,-21.53 -757.86,256.96 -172.66,413.58 -45.1,971.51 -45.1,971.51z"/>
  <path class="fil8" d="M16195.48 5790.11c0,0 -2.15,-7.08 -5.27,-21.24 -3.05,-14.15 -7.3,-35.29 -12.09,-63.21 -9.45,-55.83 -21.54,-138.85 -28.07,-247.05 -5.8,-108.06 -6.41,-241.89 17.41,-395.53 13.97,-76.34 32.79,-157.83 65.93,-240.19 32.76,-82.28 83.74,-163.89 155.34,-232.82 37.22,-32.66 78.19,-63.9 126.1,-85.23 47.73,-20.45 99.69,-37.06 154.53,-38.87 109.63,-7.79 222.34,28.58 324.37,85.32 53.03,28.72 93.11,76.71 126.51,127.11 33.41,50.96 61.92,106.06 86.31,163.72 50.21,114.89 88.18,238.52 123.21,366.26 68.67,256.08 119.87,531.21 162.92,819.34 21.04,144.24 40.54,291.47 55.19,442.57 17.58,150.12 35.47,302.91 53.64,458.05l-8.07 -7.8c320.16,31.29 652.98,63.82 993.19,97.06 174.11,17.06 346.28,33.93 515.96,50.55l8.26 0.81 0 8.3c-0.05,180.17 -0.09,357.56 -0.13,531.64l-0.01 7.24 -7.02 1.55c-302.45,66.89 -597.01,124.38 -881.2,172.21 -284.2,46.95 -558.1,86.47 -820.17,98.58 -65.48,2.99 -130.3,3.28 -194.14,-0.75 -31.9,-1.81 -63.62,-5.27 -94.79,-11.19 -31.06,-4.59 -63.04,-15.35 -89.43,-32.67 -53.27,-34.44 -94.71,-81.04 -130.95,-128.7 -36.32,-47.89 -67.66,-97.89 -96.22,-148.09 -112.99,-201.72 -190.47,-401.64 -257.79,-583.54 -131.91,-365.28 -214.25,-665.31 -269.12,-871.71 -27.06,-103.36 -46.42,-183.65 -58.65,-238.17 -6.11,-27.26 -10.43,-48.09 -12.99,-62.14 -2.68,-14.05 -2.76,-21.41 -2.76,-21.41 0,0 5.55,28.57 18.93,82.8 13.26,54.24 33.6,134.24 61.6,237.28 56.74,205.76 140.8,505.14 274,869.31 67.92,181.27 146.05,380.63 258.89,580.66 28.48,49.75 59.7,99.2 95.59,146.26 35.75,46.85 76.68,92.27 127.34,124.79 25.5,16.42 53.49,25.85 84.38,30.48 30.28,5.66 61.47,9.02 92.97,10.73 62.99,3.83 127.36,3.42 192.48,0.31 260.71,-12.56 534.25,-52.46 817.99,-99.73 283.73,-48.14 578.15,-105.9 880.06,-172.89l-7.02 8.79c-0.04,-174.08 -0.08,-351.47 -0.13,-531.64l8.25 9.09c-169.69,-16.59 -341.86,-33.44 -515.97,-50.46 -340.2,-33.36 -673,-65.99 -993.16,-97.38l-7.25 -0.71 -0.82 -7.1c-18.08,-155.47 -35.88,-308.57 -53.37,-459 -14.41,-150.08 -33.76,-297.59 -54.57,-441.48 -42.6,-287.71 -93.28,-562.44 -161.19,-817.73 -34.63,-127.32 -72.2,-250.5 -121.67,-364.42 -24.02,-57.21 -52.07,-111.66 -84.66,-161.66 -32.69,-49.59 -71.12,-95.62 -121.32,-122.93 -100.24,-56.11 -210.25,-91.81 -316.67,-84.59 -53.27,1.53 -103.67,17.54 -150.16,37.2 -46.65,20.54 -86.7,50.86 -123.25,82.62 -70.29,67.15 -120.89,147.15 -153.59,228.18 -33.16,81.26 -52.27,161.99 -66.58,237.72 -24.57,152.5 -24.95,285.86 -20.15,393.66 5.52,107.95 16.56,190.95 24.93,246.87 4.55,27.53 8.04,48.62 10.48,63.41 2.57,14.2 3.64,21.56 3.64,21.56z"/>
  <path class="fil1" d="M18034.7 14811.69l-4517.52 0c-61.46,0 -119.2,-29.66 -158.4,-81.37 -44.79,-59.09 -59.22,-138.18 -38.62,-211.6l1105.15 -3940.53 67.94 19.08 -1105.15 3940.54c-14.68,52.26 -4.62,108.31 26.9,149.89 26.12,34.45 62.43,53.44 102.18,53.44l4517.52 0c40.35,0 78.28,-20.43 104.11,-56.02 31.63,-43.65 40.21,-101.36 22.88,-154.34l-1285.92 -3932.09 67.04 -21.91 1285.92 3932.09c24.36,74.41 12.06,155.79 -32.8,217.66 -39.24,54.12 -98.01,85.16 -161.23,85.16z"/>
  <path class="fil5" d="M14143.22 10152.43c-1.17,-11.05 -2.2,-22.1 -2.69,-33.12 -9.41,-211.82 76.37,-414.85 158.96,-610.13 221.4,-523.53 435.59,-1078.98 373.38,-1643.98 -82.27,-747.14 -630.09,-1365.04 -825.63,-2087.68 -23.01,-85.06 -100.87,-143.6 -188.99,-143.6 -132.23,0 -228.22,128.54 -187.65,254.4 217.82,675.8 714.7,1268.2 792.74,1976.88 62.21,565 -151.98,1120.45 -373.38,1643.98 -82.59,195.28 -168.37,398.31 -158.96,610.13 9.41,211.83 145.27,434.48 354.58,468.42l20.28 0 389.25 0 2703.58 0c108.46,0 196.38,-87.93 196.38,-196.38l0 -42.54c0,-108.46 -87.92,-196.38 -196.38,-196.38l-3055.47 0z"/>
  <path class="fil1" d="M21884.83 5521.62c-40.48,-7.64 -79.48,18.98 -87.12,59.46l-416.35 2206.35 -2024.6 0c-30.27,0 -54.81,24.54 -54.81,54.81 0,30.26 24.54,54.8 54.81,54.8l2147.22 0 0 -8.79 9.81 1.84 430.5 -2281.35c7.64,-40.47 -18.98,-79.48 -59.46,-87.12z"/>
  <polygon class="fil5" points="17726.51,14803.56 17378.88,14803.56 17378.88,7974.2 17726.51,7974.2 "/>
  <polygon class="fil5" points="23891.48,14811.64 23543.85,14811.64 23543.85,7938.97 23891.48,7938.97 "/>
  <polygon class="fil5" points="24356.72,8317.58 16903.35,8317.58 16903.35,7907.12 24356.72,7907.12 "/>
  <path class="fil8" d="M24356.72 8317.58c0,5.08 -1657.33,9.19 -3701.27,9.19 -2044.65,0 -3701.63,-4.11 -3701.63,-9.19 0,-5.07 1656.98,-9.18 3701.63,-9.18 2043.94,0 3701.27,4.11 3701.27,9.18z"/>
  <path class="fil5" d="M22561.26 4816.34c-50.31,-6.95 -95.67,16.52 -119.65,50.95 -23.98,34.42 -29.59,78.17 -28.6,121.49 0.87,38.08 7.27,78.69 33.01,113.36 30.62,41.24 85.18,67.71 137.78,75.04 52.59,7.34 103.34,-2.37 148.63,-18.65 11.75,-49.34 -0.61,-110.97 -11.7,-163.8 -7.99,-38.05 -21.59,-76.92 -48.12,-110.64 -26.52,-33.72 -67.67,-61.72 -111.35,-67.75z"/>
  <path class="fil8" d="M23648.47 4701.25c0.42,0.16 -1.22,6.02 -4.72,17.05 -4.03,12.18 -9.31,28.13 -15.88,48.01 -14.28,41.5 -33.92,101.92 -56.98,176.9 -23.26,74.93 -48.62,164.85 -74.41,265.3 -25.19,100.59 -50.47,211.79 -72.89,329.33 -21.97,117.68 -38.96,230.46 -52.17,333.33 -12.59,102.95 -21.75,195.94 -27.4,274.19 -5.85,78.23 -9.59,141.64 -11.41,185.49 -1.13,20.91 -2.02,37.68 -2.71,50.49 -0.76,11.54 -1.38,17.6 -1.82,17.59 -0.44,-0.01 -0.69,-6.08 -0.76,-17.65 0.08,-12.83 0.18,-29.64 0.31,-50.59 0.3,-43.94 2.66,-107.51 7.36,-185.95 4.51,-78.47 12.75,-171.74 24.73,-275 12.59,-103.18 29.27,-216.31 51.31,-334.27 22.47,-117.84 48.16,-229.24 74.03,-329.9 26.48,-100.51 52.79,-190.36 77.2,-265.07 24.21,-74.77 45.17,-134.82 60.92,-175.86 7.51,-19.55 13.54,-35.24 18.15,-47.23 4.28,-10.74 6.73,-16.31 7.14,-16.16z"/>
  <path class="fil8" d="M22665.36 5051.14c0.38,-0.23 3.64,4.48 9.5,13.65 6.43,10.36 14.76,23.79 25.1,40.45 21.79,35.15 51.55,87.09 86.62,152.19 35.26,65.01 74.48,143.92 115.21,232.84 40.1,89.21 81.36,188.58 119.97,294.67 38.16,106.29 69.98,209.11 96.18,303.35 25.54,94.43 45.84,180.18 60.3,252.71 14.66,72.48 24.99,131.44 30.7,172.39 2.7,19.42 4.88,35.07 6.56,47.15 1.36,10.79 1.86,16.49 1.43,16.56 -0.44,0.07 -1.79,-5.5 -3.98,-16.16 -2.28,-11.97 -5.25,-27.47 -8.93,-46.72 -7.2,-40.65 -18.87,-99.26 -34.64,-171.34 -15.54,-72.14 -36.71,-157.44 -62.79,-251.43 -26.76,-93.81 -58.82,-196.19 -96.86,-302.16 -38.5,-105.76 -79.29,-204.96 -118.7,-294.18 -40.02,-88.94 -78.29,-168.06 -112.46,-233.46 -33.96,-65.5 -62.47,-118.03 -82.92,-153.9 -9.48,-17.16 -17.11,-30.97 -23.01,-41.64 -5.14,-9.59 -7.65,-14.74 -7.28,-14.97z"/>
  <path class="fil13" d="M23552.36 6314.11l-534.24 0c-14.72,0 -26.65,-11.93 -26.65,-26.65l0 -1.91c0,-14.71 11.93,-26.65 26.65,-26.65l534.24 0c14.72,0 26.65,11.94 26.65,26.65l0 1.91c0,14.72 -11.93,26.65 -26.65,26.65z"/>
  <path class="fil13" d="M23770.81 6879.16c-19.56,-215.07 -189.02,-244.4 -221.61,-267.22 -6.98,-4.88 -13.22,-11.12 -18.7,-17.9 -20.44,-25.25 -30.18,-57.52 -30.18,-90l0 -217.53 -203.65 0 -17.95 0 -203.65 0 0 217.53c0,32.48 -9.74,64.75 -30.18,90 -5.48,6.78 -11.72,13.02 -18.7,17.9 -32.59,22.82 -202.05,52.15 -221.6,267.22 -19.56,215.09 -91.25,703.91 35.84,860.34 117.08,144.1 231.47,152.69 421.99,153.14l0 0.03c8.59,0 16.97,0 25.27,0 8.3,0 16.69,0 25.27,0l0 -0.03c190.53,-0.45 304.92,-9.04 422,-153.14 127.09,-156.43 55.4,-645.25 35.85,-860.34z"/>
  <path class="fil8" d="M23565.49 6315.74c0,3.53 -125.48,6.4 -280.24,6.4 -154.81,0 -280.26,-2.87 -280.26,-6.4 0,-3.53 125.45,-6.39 280.26,-6.39 154.76,0 280.24,2.86 280.24,6.39z"/>
  <path class="fil5" d="M23906.46 4535.91c-19.2,-48.79 -70.24,-79.94 -122.2,-86.9 -51.96,-6.96 -104.61,6.82 -153.24,26.42 -42.73,17.24 -85.37,40.59 -110.85,78.99 -30.31,45.67 -30.97,106.77 -10.98,157.8 19.99,51.03 58.31,93.03 101.16,127.21 62.31,-10.61 125.58,-48.46 179.55,-81.36 38.87,-23.7 75.64,-52.86 99.63,-91.56 23.97,-38.7 33.6,-88.24 16.93,-130.6z"/>
  <path class="fil5" d="M22534.61 5603.85c-22.76,-34.34 -19.8,-81.23 -0.87,-117.81 18.94,-36.58 51.54,-64.25 86.06,-86.72 30.36,-19.73 64.6,-36.65 100.8,-35.75 43.05,1.08 82.67,28.18 106.5,64.05 23.84,35.86 33.6,79.45 36.29,122.43 -34.91,35.32 -87.78,58.98 -133.28,78.89 -32.76,14.34 -68.11,24.86 -103.82,22.86 -35.71,-2 -71.93,-18.14 -91.68,-47.95z"/>
  <path class="fil5" d="M23112.32 5337.38c-22.75,-34.34 -19.8,-81.23 -0.86,-117.81 18.93,-36.58 51.53,-64.26 86.06,-86.71 30.35,-19.74 64.6,-36.66 100.79,-35.76 43.05,1.08 82.67,28.19 106.51,64.05 23.84,35.86 33.6,79.45 36.29,122.43 -34.91,35.32 -87.78,58.99 -133.28,78.89 -32.77,14.34 -68.11,24.87 -103.83,22.86 -35.71,-2 -71.93,-18.13 -91.68,-47.95z"/>
  <path class="fil5" d="M23875.76 5295.87c27.45,-31.46 30.76,-78.96 16.63,-118.25 -14.13,-39.28 -43.18,-71.45 -74.87,-98.63 -27.85,-23.89 -59.99,-45.47 -96.48,-49.4 -43.4,-4.68 -86.83,17.25 -115.57,50.09 -28.75,32.84 -44.39,75.33 -52.85,118.15 30.35,40.16 80.31,71.01 123.36,97.1 31,18.79 65.1,34.09 101.25,36.85 36.15,2.76 74.7,-8.59 98.53,-35.91z"/>
  <path class="fil5" d="M23078.44 4995.61c-8.33,-48.26 -38.84,-81.3 -72,-91 -33.16,-9.69 -68.54,0.63 -101.79,16.81 -29.23,14.22 -58.91,34.37 -78.72,70.05 -23.57,42.43 -29.19,101.46 -20.54,151.95 8.65,50.48 29.97,93.28 54.9,128.77 41.38,-6.7 85.7,-39.68 123.55,-68.42 27.27,-20.7 53.64,-46.79 72.5,-82.84 18.87,-36.05 29.33,-83.4 22.1,-125.32z"/>
  <path class="fil5" d="M23335.38 4691.35c-50.31,-6.95 -95.67,16.52 -119.65,50.95 -23.98,34.42 -29.59,78.17 -28.6,121.49 0.87,38.09 7.27,78.7 33.01,113.37 30.62,41.23 85.19,67.7 137.78,75.04 52.6,7.33 103.35,-2.37 148.63,-18.66 11.75,-49.34 -0.61,-110.97 -11.7,-163.8 -7.99,-38.05 -21.59,-76.92 -48.11,-110.64 -26.53,-33.72 -67.68,-61.72 -111.36,-67.75z"/>
  <path class="fil8" d="M22874.02 5070.04c1.91,0.29 -0.66,24.45 -3.46,63.43 -2.8,38.97 -5.22,92.9 -2.38,152.31 2.93,59.41 11,112.74 18.84,150.95 7.77,38.24 14.26,61.63 12.34,62.25 -1.43,0.48 -11.01,-22.03 -21.15,-60.2 -10.2,-38.12 -19.84,-92.13 -22.81,-152.38 -2.88,-60.23 1.02,-114.79 6.16,-153.83 5.14,-39.08 10.88,-62.79 12.46,-62.53z"/>
  <path class="fil8" d="M22989.95 5710.49c-3.43,1.54 -24.98,-45.95 -68.18,-92.31 -21.34,-23.24 -43.21,-41.68 -60.21,-53.26 -16.88,-11.84 -28.97,-16.22 -28.43,-18.17 0.27,-1.49 14.12,0.02 33.11,10.43 19.04,10.1 42.87,28.28 64.95,52.35 44.9,48.28 62.02,100.15 58.76,100.96z"/>
  <path class="fil8" d="M23429.86 5271.09c3.12,-1.1 17.96,37.37 20.63,87.63 2.94,50.27 -7.52,90.13 -10.75,89.39 -3.71,-0.61 0.85,-40.15 -2.03,-88.68 -2.54,-48.52 -11.46,-87.32 -7.85,-88.34z"/>
  <path class="fil8" d="M23580.73 5156.52c2.91,2.03 -21.24,41.7 -53.92,88.61 -32.68,46.92 -61.52,83.32 -64.42,81.3 -2.9,-2.02 21.24,-41.69 53.93,-88.61 32.67,-46.91 61.52,-83.31 64.41,-81.3z"/>
  <path class="fil8" d="M23501.11 5147.48c-3.53,-0.17 -4.73,-34.5 -2.68,-76.67 2.05,-42.18 6.58,-76.23 10.11,-76.06 3.52,0.17 4.72,34.5 2.67,76.68 -2.05,42.17 -6.57,76.22 -10.1,76.05z"/>
  <path class="fil8" d="M22848.91 7258.03c-1.67,0.11 -5.58,-30.68 -8.36,-80.75 -2.8,-50.05 -4.05,-119.41 -0.57,-195.88 2,-38.25 3.72,-74.55 8.55,-107.85 4.84,-33.19 14.75,-62.91 28.89,-84.54 13.92,-21.76 30.47,-35.45 43,-42.32 12.56,-7.01 20.54,-8.25 20.73,-7.61 1.53,1.88 -31.23,11.53 -56,54.64 -12.35,20.97 -20.85,49.17 -24.94,81.49 -4.07,32.29 -5.47,68.78 -7.45,106.76 -3.47,76.08 -3.65,145.07 -3.17,195.02 0.46,49.96 1.17,80.92 -0.68,81.04z"/>
  <path class="fil5" d="M12347.5 10144.65c1.17,-11.02 2.21,-22.04 2.7,-33.02 9.41,-211.22 -76.38,-413.66 -158.97,-608.39 -221.4,-522.02 -435.58,-1075.87 -373.37,-1639.24 82.27,-745 630.08,-1361.12 825.63,-2081.68 23.01,-84.81 100.86,-143.19 188.97,-143.19l0.01 0c132.23,0 228.21,128.17 187.65,253.67 -217.82,673.85 -714.69,1264.55 -792.73,1971.2 -62.21,563.37 151.97,1117.22 373.38,1639.24 82.59,194.73 168.36,397.17 158.95,608.39 -9.41,211.21 -145.27,433.22 -354.57,467.06l-20.29 0 -389.24 0 -2703.58 0c-108.46,0 -196.38,-87.67 -196.38,-195.81l0 -42.41c0,-108.15 87.92,-195.82 196.38,-195.82l3055.46 0z"/>
  <path class="fil1" d="M12973.51 14811.69l-4517.51 0c-63.11,0 -121.82,-31 -161.05,-85.09 -45.02,-62.05 -57.35,-143.63 -32.99,-218.28l1285.93 -3940.57 67.08 21.91 -1285.94 3940.57c-17.36,53.23 -8.76,111.14 23.02,154.93 25.8,35.58 63.7,55.98 103.95,55.98l4517.51 0c39.69,0 75.93,-18.95 102.05,-53.37 31.62,-41.72 41.75,-98.01 27.08,-150.55l-1105.15 -3949.01 67.94 -19.02 1105.14 3949.01c20.6,73.69 6.1,153 -38.82,212.22 -39.17,51.64 -96.88,81.27 -158.24,81.27z"/>
  <path class="fil14" d="M6637.44 7659.04c0,0 164.54,-399.82 327.06,-484.38 162.52,-84.55 369.49,-138.64 369.49,-138.64l723.52 0 7.18 468.42c0,0 -104.5,104.74 -247.72,84.94 -143.22,-19.82 -500.77,-108.2 -500.77,-108.2l-176.49 9.65 -162.65 208.61c0,0 -132.05,40.11 -85.58,-84.82 46.48,-124.94 67.22,-180 67.22,-180 0,0 -156.23,243.1 -216.16,254.27 -59.93,11.17 -105.1,-29.85 -105.1,-29.85z"/>
  <path class="fil15" d="M9627.83 6151.29l-575.76 828.15 -994.56 56.58 -13.54 454.36 749.38 147.53c389.22,76.62 791.26,-42.73 1075.62,-319.32l109.67 -1001.67 -350.81 -165.63z"/>
  <path class="fil8" d="M8868.63 12861.05l801.17 783.49c0,0 -578.43,1116.74 -445.37,1276.62l1672.44 -1573.73 -1195.02 -1274.47 -833.22 788.09z"/>
  <path class="fil1" d="M10122.15 13089.54c40.29,-22.11 95.19,-8.82 116.92,29.09 21.73,37.91 5.54,94.32 -34.39,117.1 -39.91,22.8 -106.43,8.89 -123.61,-31.46 -17.19,-40.32 5.42,-105.69 49.18,-118.6l-8.1 3.87z"/>
  <path class="fil5" d="M10896.88 13347.43l-125.8 -123.5 -1556.45 1555.06c0,0 -45.5,100.63 9.8,142.17l1672.45 -1573.73z"/>
  <path class="fil3" d="M9635.08 13662.02c7.58,7.45 51.73,-27.49 115.38,-40.53 63.41,-14.67 115.77,-0.8 120.38,-10.93 6.11,-8.56 -49.73,-43.17 -126.6,-26.03 -76.97,16.43 -117.63,72.09 -109.16,77.49z"/>
  <path class="fil3" d="M9524.53 13895.52c5.22,9.21 53,-10.96 111.62,-4.49 58.9,4.77 99.3,33.41 107.11,25.41 8.83,-5.99 -28.28,-56.43 -101.4,-63.11 -73,-7.3 -124.12,34.67 -117.33,42.19z"/>
  <path class="fil3" d="M9612.63 14187.31c8.97,-5.35 -16.15,-54.52 -77.1,-76.97 -60.79,-22.91 -115.07,-3.32 -112.44,6.35 1.39,10.68 47.62,9.99 97.36,29.2 50.22,18 83.34,48.3 92.18,41.42z"/>
  <path class="fil3" d="M9473.58 13462.23c10.08,3.8 37.46,-42.09 86.44,-82.56 48.19,-41.43 97.95,-60.62 95.95,-71.23 -0.56,-10.02 -62.66,-5.53 -119.7,42.92 -57.37,48.01 -72.44,108.58 -62.69,110.87z"/>
  <path class="fil8" d="M9259.96 8355.25c-122.36,0 -3103.49,868.39 -3426.08,1161.93 -322.58,293.55 -563.91,3926.13 -563.91,3926.13l1249.97 428.55c0,0 263.45,-1774.1 423.11,-2347.07 126.93,-455.48 97.75,-880.81 97.75,-880.81l2475 -1077.87 -255.84 -1210.86z"/>
  <path class="fil8" d="M9335.13 8547.32c-55.62,24.46 -2221.58,949.22 -2425.13,1568.78 -165.87,504.89 26.98,949.42 258.72,1296.88 261.59,392.21 2180.01,2142.81 2180.01,2142.81l1082.76 -774.2 -1856.3 -1917.08c0,0 973.98,-601.24 1007.35,-601.24 33.37,0 1045.83,-66.93 1366.79,-103.27 299.71,-33.93 463.7,-463.69 463.7,-463.69l267.3 -1232.17 -2008.8 -463.59 -336.4 546.77z"/>
  <path class="fil5" d="M9335.13 8547.32c0,0 6.95,-12.37 21.17,-36.02 14.46,-23.85 35.7,-58.92 63.66,-105.07 56.53,-92.59 140.03,-229.37 248.73,-407.43l1.25 -2.04 2.34 0.54c448.01,102.67 1138.24,260.86 2009.5,460.54l6.21 1.43 -1.34 6.24c-80.04,370.43 -169.95,786.55 -266.27,1232.39l-0.14 0.64 -0.19 0.45c-45.81,110.21 -107.66,216.32 -190.73,308.89 -41.62,46.01 -90.75,86.82 -146.88,116.88 -13.91,7.83 -28.07,15.2 -43.48,19.99 -15.24,4.91 -29.69,12.66 -45.86,14.67 -15.81,2.97 -31.74,6.73 -47.57,8.99l-47.44 5.02c-253.58,25.04 -515.89,43.81 -785.67,63.47 -134.92,9.2 -271.71,18.52 -410.22,27.97 -34.69,2.1 -69.49,4.22 -104.4,6.33l-13.43 0.59c-2.89,-0.13 -2.53,0.95 -3.85,1.05 -0.81,0.1 -3.46,1.52 -5.11,2.22 -7.47,3.22 -15.27,7.6 -22.9,11.47l-45.84 25.35c-60.95,34.67 -121.74,70.7 -182.77,107.07 -243.95,145.85 -491.86,297.83 -744,453.18l1.73 -13.84c462.3,477.33 949.34,980.2 1449.66,1496.79 136.69,141.17 272.39,281.32 406.79,420.13l7.41 7.65 -8.67 6.19c-369.27,263.96 -730.96,522.51 -1082.85,774.05l-5.93 4.24 -5.37 -4.91c-387.69,-355.33 -760,-703.04 -1113.41,-1040.95 -176.68,-168.96 -348.55,-335.56 -513.8,-500.88 -165.22,-165.3 -325.66,-327.64 -470.23,-496.77 -18.9,-20.35 -34.51,-43.67 -51.67,-65.41 -16.81,-22.06 -34.02,-43.75 -48.17,-67.24 -29.97,-45.9 -58.51,-92.32 -84.81,-139.56 -53.08,-94.18 -98.82,-190.85 -134.51,-289.59 -35.61,-98.7 -61.57,-199.38 -74.65,-300.27 -12.83,-100.91 -13.06,-201.52 -2.07,-298.98 10.58,-97.64 33.16,-191.77 67.49,-280.23 38.02,-87.73 98.3,-160.12 159.76,-226.13 126.21,-130.05 264.61,-235.1 399.52,-329.03 271,-186.93 529.78,-331.81 757.93,-454.06 228.49,-121.89 427.94,-219.41 591.3,-296.92 163.4,-77.5 290.93,-134.65 377.45,-172.69 43.17,-18.67 76.09,-32.91 98.55,-42.62 22.29,-9.41 33.78,-13.78 33.78,-13.78 0,0 -11.13,5.44 -33.12,15.28 -22.31,10.05 -55.01,24.77 -97.89,44.08 -86.08,38.99 -213.15,97.06 -376.06,175.41 -162.87,78.37 -361.81,176.69 -589.71,299.27 -227.53,122.94 -485.68,268.45 -755.56,455.59 -134.33,93.98 -272.07,199.08 -396.92,328.29 -60.75,65.45 -120.06,137.28 -156.73,222.46 -33.33,86.29 -55.86,180.41 -66.02,276.65 -10.7,96.36 -10.32,195.78 2.53,295.54 13.09,99.74 38.92,199.35 74.35,297.1 35.51,97.79 81.01,193.64 133.87,287.13 26.18,46.88 54.62,93 84.48,138.62 14.15,23.42 31.14,44.72 47.74,66.44 17,21.45 32.23,44.25 51.16,64.58 143.99,168.05 304.6,330.26 469.81,495.22 165.29,165.02 337.25,331.4 514,500.16 353.53,337.51 726.04,684.97 1113.73,1040.01l-11.28 -0.68c351.83,-251.63 713.45,-510.28 1082.65,-774.34l-1.25 13.83c-134.41,-138.8 -270.12,-278.94 -406.81,-420.1 -500.22,-516.7 -987.14,-1019.69 -1449.34,-1497.12l-7.75 -8.01 9.48 -5.84c252.3,-155.27 500.27,-307.11 744.49,-452.9 61.12,-36.37 121.96,-72.37 183.18,-107.13l46.27 -25.54c7.99,-4.05 15.46,-8.28 24.04,-12.01 2.39,-0.98 3.53,-1.88 6.94,-2.9 2.93,-0.85 7.31,-2 8.86,-1.82l12.75 -0.56c34.8,-2.08 69.5,-4.17 104.09,-6.24 138.48,-9.32 275.23,-18.54 410.13,-27.62 269.67,-19.41 532.11,-37.92 785.22,-62.63 64,-4.08 124.28,-16.89 178.59,-46.7 54.11,-28.88 102.02,-68.43 142.84,-113.46 81.43,-90.37 143.11,-195.85 188.11,-303.75l-0.32 1.08c97.08,-445.68 187.68,-861.64 268.34,-1231.94l4.86 7.66c-870.66,-202.32 -1560.4,-362.59 -2008.09,-466.63l3.58 -1.5c-110.11,177.58 -194.69,314 -251.95,406.35 -28.52,45.65 -50.2,80.35 -64.94,103.95 -14.63,23.24 -22.35,34.72 -22.35,34.72z"/>
  <path class="fil8" d="M9532.2 2622.6c-97.53,19.84 -204.91,-43.69 -234.46,-138.73 -29.55,-95.04 22.86,-208.25 114.45,-247.22 -66.76,-57.43 -91.1,-159.06 -57.61,-240.51 33.48,-81.45 122.26,-136.57 210.12,-130.44 -3.95,-86.85 40.51,-174.36 113.01,-222.37 72.5,-48 170.42,-54.76 248.84,-17.21 88.49,-90.39 242.47,-106.95 348.16,-37.46 82.75,-22.88 178.39,13.89 224.5,86.32 46.12,72.43 38.94,174.65 -16.83,239.93l-950.18 707.69z"/>
  <path class="fil15" d="M10335.67 1784.55l-44.46 3.94c-447.37,39.55 -789.39,415.95 -785.91,865.06 3.22,417.71 12.14,879.15 34.56,1101.4 46.42,460.21 513.55,491.12 513.55,491.12l9.98 556.95 1115.07 -133.49 -78.58 -2016.19c-1.04,-482.01 -282.42,-883.16 -764.21,-868.79z"/>
  <path class="fil14" d="M10052.8 4246.02c0,0 292.52,-8.59 584.79,-230.33 0,0 -118.62,352.46 -582.01,351.62l-2.78 -121.29z"/>
  <path class="fil8" d="M9669.93 3080.77c1.82,34.85 32.87,62.04 69.31,60.77 36.35,-1.26 64.41,-30.45 62.56,-65.31 -1.84,-34.85 -32.87,-62.06 -69.24,-60.82 -36.43,1.26 -64.48,30.53 -62.63,65.36z"/>
  <path class="fil8" d="M9622.66 2870.2c8.91,7.86 55.47,-33.44 126.3,-39.51 70.65,-7.08 125.84,24.75 132.74,15.41 3.44,-4.19 -6.24,-18.94 -30.32,-33.41 -23.72,-14.43 -63.11,-27.02 -107.21,-22.94 -44.07,4.15 -79.73,23.66 -99.59,42.16 -20.3,18.63 -26.29,34.8 -21.92,38.29z"/>
  <path class="fil8" d="M10308.13 3044.13c1.84,34.84 32.88,62.02 69.31,60.75 36.36,-1.24 64.42,-30.45 62.58,-65.31 -1.85,-34.84 -32.89,-62.05 -69.26,-60.81 -36.43,1.25 -64.48,30.52 -62.63,65.37z"/>
  <path class="fil8" d="M10321.34 2821.87c8.92,7.86 55.57,-33.43 126.34,-39.49 70.62,-7.08 125.82,24.74 132.73,15.39 3.43,-4.17 -6.16,-18.94 -30.34,-33.39 -23.71,-14.43 -63.09,-27.02 -107.18,-22.95 -44.08,4.14 -79.75,23.66 -99.61,42.16 -20.23,18.62 -26.28,34.8 -21.94,38.28z"/>
  <path class="fil8" d="M10110.82 3369.65c-0.01,-4.06 -44.7,-7.78 -116.81,-10.6 -18.24,-0.25 -35.68,-2.33 -39.82,-14.4 -5.4,-12.69 0.43,-32.84 7.33,-54.67 13.13,-45.23 26.87,-92.67 41.29,-142.38 56.92,-202.57 96.4,-368.47 88.24,-370.7 -8.19,-2.2 -60.95,160.17 -117.85,362.73 -13.61,49.91 -26.63,97.5 -38.98,143.01 -5.02,21.16 -14.73,45.5 -3.1,71.78 6.06,13.08 20.19,21.73 32.05,23.81 11.91,2.51 22.09,1.82 31.08,1.55 72.11,-2.48 116.65,-6.11 116.57,-10.13z"/>
  <path class="fil8" d="M10235.85 2554.9c10.93,17.12 69.88,-7.7 144.38,-16.72 74.26,-10.7 138.46,-2.19 143.64,-21.45 2.16,-9.14 -12.54,-24.09 -40.73,-36.09 -27.96,-12 -69.56,-19.52 -114.16,-13.65 -44.59,5.96 -82.16,23.96 -105.25,42.75 -23.32,18.81 -32.79,36.97 -27.88,45.16z"/>
  <path class="fil8" d="M9593.41 2578.57c16.34,14.76 73.28,-7.11 143.49,-14.1 69.98,-9.05 130.72,-0.67 142.92,-18.69 5.28,-8.7 -5.5,-23.99 -32.84,-36.91 -26.96,-12.9 -70.92,-21.51 -119.09,-16.02 -48.16,5.55 -88.72,23.82 -111.72,42.45 -23.34,18.73 -30.05,36.01 -22.76,43.27z"/>
  <path class="fil8" d="M9530.92 2438.35c0,0 96.01,-299.26 229.17,-378.89 161.22,-96.4 250.07,82.05 406.61,23 156.54,-59.05 310.4,-151.48 485.4,-41.91 191.55,119.93 115.86,222.64 145.02,426.08 118.24,824.79 290.31,1045.78 298.85,651.6 0.94,-43.18 116.62,-87.69 118.24,-269.94 2.08,-236.32 -14.06,-521.62 -81.05,-683.27 -56.48,-136.26 -144.94,-226.03 -297.68,-320.12 -241.1,-148.52 -552.12,-124.66 -761.26,-84.77 -209.12,39.88 -594.46,318.66 -543.3,678.22z"/>
  <path class="fil15" d="M11065.5 3108.29c-3.38,-71.36 52.92,-132.92 124.37,-132.44 86.64,0.56 186.57,40.9 196.6,218.95 17.78,315.86 -303,268.57 -304.05,259.54 -0.72,-6.13 -10.65,-213.8 -16.92,-346.05z"/>
  <path class="fil14" d="M11144.44 3331.63c1.33,-1.08 5.73,3.55 15.27,7.28 9.29,3.65 25.05,5.63 41.18,-1.47 32.68,-14.12 57.79,-68.68 56.11,-125.7 -0.81,-28.77 -8.37,-55.82 -19.84,-77.9 -10.95,-22.58 -26.79,-37.87 -43.75,-39.9 -16.94,-2.94 -28.27,7.8 -31.63,16.9 -3.74,9.07 -1.39,15.26 -3.02,15.91 -0.84,0.84 -7.08,-4.93 -5.27,-18.11 0.95,-6.34 4.23,-14.01 11.31,-20.49 7.23,-6.59 18.21,-10.36 29.97,-9.75 24.45,0.31 47.64,21.49 60.23,45.73 13.95,24.28 23.13,54.63 24.04,86.95 1.57,63.77 -27.66,125.17 -72.58,140.93 -21.89,7.05 -40.8,1.39 -50.8,-5.51 -10.22,-7.26 -12.27,-14.23 -11.22,-14.87z"/>
  <path class="fil8" d="M11005.39 2498.58c-38.44,31.54 -79.11,64.16 -127.96,73.4 -48.86,9.24 -107.73,-14.08 -120.36,-62.18 -5.67,-21.61 -2.57,-47.51 -18.47,-63.18 -18.99,-18.69 -50.17,-9.56 -76.31,-4.42 -90.72,17.8 -206.66,-73.88 -237.85,-160.9 -20.26,37.03 -70.49,52.12 -107.85,32.46 -37.36,-19.65 -51.4,-31.52 -81.85,-60.75 -30.47,-29.23 -71.79,-54.12 -112.9,-44.53 -23,5.37 -43.57,21.16 -67.18,21.15 -41.69,-0.01 -66.16,-46.66 -76.05,-87.16 -9.89,-40.5 -18.99,-87.97 -56,-107.19 -34.28,-17.81 -75.31,-2.13 -112.89,6.84 -37.57,8.98 -87.53,4.39 -100.57,-31.99 -6.84,-19.07 -0.28,-40.36 9.05,-58.37 42.21,-81.54 146.13,-125.3 233.96,-98.51 21.62,-106.81 111.79,-196.42 218.74,-217.34 106.95,-20.94 224.24,28.05 284.53,118.83 61.23,-66.29 155.72,-100.18 245.12,-87.94 89.41,12.24 171.31,70.28 212.47,150.59 74.84,-26.92 164.78,-5.02 218.87,53.3 54.06,58.33 69.11,149.68 36.61,222.27 59.47,27.34 112.92,79.31 119.86,144.41 6.93,65.09 -50.83,135.66 -115.27,124.08 29.92,48.5 15.32,119.23 -31.34,151.93 -46.69,32.71 -118.14,22.29 -153.54,-22.37l17.18 7.57z"/>
  <path class="fil5" d="M9936.96 1947.99c-0.27,0.05 -0.07,2 0.57,5.76 0.76,3.75 1.48,9.46 3.5,16.65 4.18,14.29 11.94,35.31 28.23,58.67 16.36,22.98 40.87,49.03 76.43,68.29 34.89,19.59 81.53,32.68 132.27,25.39l-5.95 -6.51c-7.4,27.8 -1.87,59.9 14.01,86.41 15.19,27.04 37.42,50.23 60.75,72.69 11.88,10.72 22.51,23.62 38.45,33.03 15.48,9.01 33.47,13.44 51.55,14.11 35.92,1.39 75.04,-13.14 98.17,-45.3l-12.07 -2.32c13.55,61.9 54.69,121.4 114.65,154.6 31.85,18.99 70.07,28.94 106.43,24.75 36.43,-3.59 69.37,-17.28 99.95,-31.39l-8.75 -2.96c20.39,37.66 49.35,68.75 83.15,90.63 33.18,21.87 75.78,32.66 112.37,20.18 72.95,-22.31 116.8,-88.5 121.59,-147.6l-6.84 3.96c38.66,16.84 78.42,15.27 109.64,6.33 31.68,-8.73 55.71,-24.96 72.5,-40.33 16.83,-15.66 26.25,-31.05 31.79,-41.6 4.99,-10.91 6.91,-16.87 6.54,-17.01 -1.69,-1.15 -8.31,24.87 -41.88,54.64 -16.81,14.28 -40.39,29.25 -70.95,36.9 -30.11,7.92 -67.84,8.51 -103.61,-7.74l-6.2 -2.82 -0.65 6.78c-5.19,55.19 -47.57,117.09 -115.29,136.98 -33.19,10.94 -70.65,1.24 -102.1,-19.45 -31.58,-20.65 -59.23,-50.65 -78.2,-86.06l-3 -5.61 -5.76 2.64c-30.12,13.8 -61.93,26.71 -95.61,29.92 -33.66,3.71 -67.93,-5.12 -98.3,-23.1 -56.64,-31.42 -95.25,-87.07 -108.37,-145.65l-3.29 -14.73 -8.79 12.4c-19.48,27.49 -54.42,41.17 -86.7,39.98 -16.2,-0.52 -32.17,-4.38 -45.66,-12.14 -13.16,-7.42 -24.18,-20.12 -36.22,-30.95 -23.28,-22.03 -44.86,-44.33 -59.27,-69.46 -15.06,-24.76 -20.01,-52.97 -13.81,-78.1l1.91 -7.74 -7.87 1.23c-47.74,7.48 -92.57,-4.15 -126.57,-22.4 -34.65,-17.87 -59.02,-42.51 -75.65,-64.34 -32.89,-45.09 -34.91,-78.53 -37.09,-77.61z"/>
  <path class="fil8" d="M10116.89 3596.37c0.72,-11.9 79.64,-2.57 143.76,-63.35 64.3,-60.65 65.56,-145.83 76.66,-145.12 5.09,-0.5 13.08,20.58 9.78,56.2 -3.01,34.96 -20.31,84.47 -59.54,121.67 -39.3,37.06 -87.26,49.26 -119.94,48.05 -33.36,-0.95 -51.84,-12.1 -50.72,-17.45z"/>
  <path class="fil8" d="M5519.17 12878.3l-159.76 1109.15c0,0 -1242.91,192 -1293.47,393.78l2257.44 421.54 323.72 -1716.84 -1127.93 -207.63z"/>
  <path class="fil1" d="M6074.41 14025.14c41.62,19.48 63.29,71.64 45.51,111.56 -17.79,39.91 -72.87,60.13 -114.83,41.33 -41.95,-18.77 -69.98,-80.68 -47.55,-118.36 22.41,-37.66 88.53,-57.99 124.77,-30.28l-7.9 -4.25z"/>
  <path class="fil5" d="M6323.38 14802.77l25.47 -174.43 -2173.92 -338.93c0,0 -108.08,22.65 -108.99,91.82l2257.44 421.54z"/>
  <path class="fil3" d="M5324.82 13969.73c-1.55,10.52 52.72,25.54 100.8,69.23 49.27,42.54 68.96,92.99 79.86,90.74 10.51,-0.12 5.51,-65.62 -53.69,-117.57 -58.69,-52.44 -127.61,-52.42 -126.97,-42.4z"/>
  <path class="fil3" d="M5071.07 14018.27c-4.36,9.65 40.12,36.32 69.48,87.47 30.91,50.36 31.63,99.88 42.7,101.46 10.04,3.59 28.87,-56.13 -8.89,-119.1 -37.18,-63.25 -101.24,-79.75 -103.29,-69.83z"/>
  <path class="fil3" d="M4887.48 14261.58c9.61,4.09 34.49,-45.21 16.65,-107.66 -17.38,-62.61 -65.23,-94.86 -71.49,-87.03 -7.8,7.42 20.05,44.34 33.88,95.83 15.11,51.16 10.19,95.78 20.96,98.86z"/>
  <path class="fil3" d="M5390.8 13721.44c2.89,10.39 56.09,5.42 117.66,21.08 61.89,14.45 106.75,43.31 114.13,35.42 7.76,-6.36 -32.51,-53.84 -105.28,-71.3 -72.61,-17.99 -130.41,5.59 -126.51,14.8z"/>
  <path class="fil16" d="M10012.85 4874.73l42.24 -191.2 1123.37 -557.82 97.94 152.89c0,0 420.39,342.1 581.36,638.98 160.97,296.88 -29.96,2728.16 -56.81,3082.97 -54.12,715.01 -321.3,1650.84 -321.3,1650.84 0,0 -360.45,-250.94 -1420.95,-686.36 -1060.5,-435.42 -1117.31,-632.53 -1117.31,-632.53l624.93 -792.49 446.53 -2665.28z"/>
  <path class="fil16" d="M10029.8 4941.64c-6.29,35.25 -514,1254.55 -514,1254.55 0,0 263.79,147.18 300.59,154.54 36.79,7.36 213.41,-1409.09 213.41,-1409.09z"/>
  <path class="fil8" d="M9978.64 5141.57c5.02,0.79 -40.03,310.62 -100.6,691.92 -60.58,381.45 -113.74,689.91 -118.76,689.12 -5.01,-0.8 40.03,-310.56 100.62,-691.99 60.56,-381.31 113.73,-689.85 118.74,-689.05z"/>
  <path class="fil15" d="M6414.95 7580.75c0,0 302.59,-446.47 482.91,-524.86 180.33,-78.39 405.95,-120.84 405.95,-120.84l760.88 101.73 -13.54 454.36c0,0 -119.71,104.34 -271.57,72.43 -151.86,-31.91 -528.06,-153.24 -528.06,-153.24l-189.68 -2.86 -189.73 211.2c0,0 -144.38,33.09 -85.29,-97.2 59.09,-130.3 85.41,-187.7 85.41,-187.7 0,0 -185.42,248.61 -250.41,256.1 -65,7.48 -206.87,-9.12 -206.87,-9.12z"/>
  <path class="fil15" d="M10391.08 5792.57l-527.5 1225.86 -1806.07 17.59 -13.54 454.36c0,0 1741.6,614.06 2205.35,494.8 463.76,-119.26 1232.89,-1759.23 1232.89,-1759.23l-1091.13 -433.38z"/>
  <path class="fil16" d="M10818.17 4758.29c-49.33,44.73 -212.48,236.42 -386.68,653.15 -174.19,416.73 -418.64,903.7 -418.64,903.7l1245.13 496.3c0,0 283.86,-653.04 415.58,-943.58 100.3,-221.22 170.54,-656.37 79.13,-866.96 -91.42,-210.6 -500.9,-635.78 -934.52,-242.61z"/>
  <path class="fil8" d="M10818.17 4758.29c0,0 3.65,-3.93 11.41,-10.93 7.92,-6.79 19.04,-17.76 35.14,-30.29 31.85,-25.26 81.3,-61.12 153.51,-90.74 71.93,-28.02 170.47,-46.83 279.37,-20.71 108.58,24.46 221.63,91.22 319.03,190.77 48.59,49.92 94.29,107.83 130.04,175.61 35.08,68.82 50.1,148.91 54.23,230.51 7.81,163.88 -15.48,339.1 -64.83,516.29 -23.91,89.2 -64.83,175.31 -103,262.72 -38.57,87.77 -77.95,177.39 -118.05,268.63 -80.29,182.46 -163.44,371.39 -248.61,564.96l-3.59 8.15 -8.25 -3.28c-5.68,-2.27 -11.86,-4.73 -18.04,-7.19 -440.99,-176.12 -858.6,-342.91 -1226.75,-489.95l-8.37 -3.34 4.03 -8.09c116.34,-233.08 219.31,-450.2 307.51,-644.83 88.93,-194.11 155.98,-369.63 229.57,-506.39 71.41,-137.59 138.8,-240.3 189.91,-306.47 25.45,-33.18 46.66,-57.38 61.62,-73.06 15.12,-15.57 24.12,-22.37 24.12,-22.37 0.15,0.17 -1.71,2.27 -5.52,6.23 -4.23,4.58 -9.67,10.45 -16.62,17.96 -14.25,16.21 -34.71,40.85 -59.39,74.4 -49.58,66.91 -115.39,170.06 -185.3,307.85 -71.99,136.78 -137.71,312.44 -225.82,507.5 -87.28,195.31 -189.42,412.89 -305.26,646.62l-4.33 -11.42c368.35,146.54 786.18,312.77 1227.4,488.3 6.19,2.46 12.36,4.92 18.05,7.18l-11.82 4.87c85.32,-193.56 168.61,-382.5 249.04,-564.95 40.25,-91.2 79.79,-180.78 118.51,-268.51 38.63,-88.07 78.87,-172.14 102.73,-260.22 49.3,-175.15 72.97,-349.26 65.89,-510.75 -3.76,-80.59 -18.18,-158.46 -51.65,-224.91 -34.46,-66.17 -79.21,-123.64 -126.73,-173.02 -95.37,-98.64 -206.02,-164.96 -312.11,-189.84 -106.4,-26.52 -203.05,-9.22 -274.44,17.4 -71.63,28.2 -121.41,62.8 -153.82,87.01 -16.39,11.99 -27.87,22.47 -36.17,28.78 -8.15,6.52 -12.64,9.52 -12.64,9.52z"/>
  <path class="fil14" d="M7213.26 7164.5c0.46,5.88 -93.56,-2.44 -192.56,48.74 -99.96,49.38 -148.99,130 -153.46,126.14 -1.79,-1.02 7.5,-22.46 31.07,-51.71 23.36,-29.19 62.7,-64.73 114.1,-90.83 51.48,-25.9 103.42,-36.49 140.78,-37.99 37.53,-1.64 60.31,3.6 60.07,5.65z"/>
  <path class="fil14" d="M10143.76 6367.31c0.41,0.18 -0.95,4.5 -3.99,12.66 -3.73,9.52 -8.34,21.31 -14,35.77 -13.55,32.92 -32.09,77.97 -55.21,134.17 -49.31,116.67 -118.05,279.32 -199.39,471.78l-2.09 4.94 -5.42 0.06c-164.27,1.88 -351.04,4.01 -548.56,6.27 -346.4,2.33 -659.88,4.43 -889.25,5.97 -112.24,-0.12 -203.79,-0.22 -269.5,-0.29 -30.36,-0.42 -54.71,-0.76 -73.28,-1.02 -16.75,-0.43 -25.55,-0.96 -25.56,-1.6 -0.01,-0.63 8.78,-1.34 25.53,-2.1 18.55,-0.61 42.89,-1.42 73.24,-2.43 65.7,-1.35 157.22,-3.24 269.44,-5.55 229.36,-2.93 542.82,-6.93 889.2,-11.35 197.52,-1.59 384.3,-3.1 548.57,-4.42l-7.5 4.99c83.84,-191.39 154.69,-353.12 205.51,-469.15 24.91,-55.43 44.87,-99.86 59.47,-132.33 6.61,-14.06 11.99,-25.52 16.34,-34.77 3.84,-7.81 6.03,-11.78 6.45,-11.6z"/>
  <polygon class="fil1" points="5254.18,7933.47 7575.72,7933.47 7575.72,7823.86 5254.18,7823.86 "/>
  <polygon class="fil5" points="1750.88,14802.77 1403.24,14802.77 1403.24,8000.55 1750.88,8000.55 "/>
  <polygon class="fil5" points="8995.57,14803.56 8647.94,14803.56 8647.94,8048.49 8995.57,8048.49 "/>
  <polygon class="fil5" points="9339.97,8343.94 927.71,8343.94 927.71,7933.47 9339.97,7933.47 "/>
  <path class="fil1" d="M4623.46 2161.2l-262.51 43.16c0,0 -286.42,1044.49 -74.83,2525.61 198.98,1392.86 578.61,1919.32 578.61,1919.32l274.95 -66.28 -516.22 -4421.81z"/>
  <path class="fil1" d="M4424.62 4803.79l-77.93 -288.81c-18.01,7.92 -399.52,102.87 -485.35,332.36 -85.84,229.48 0,2832.91 0,2832.91l9.54 253.22 264.61 0c0,0 -89.57,-2813.11 -29.26,-2936.03 79.89,-162.86 146.71,-183.11 318.39,-193.65z"/>
  <polygon class="fil1" points="5111.77,7933.47 3869.4,7933.47 3869.4,7779.15 5111.77,7779.15 "/>
  <path class="fil5" d="M4864.73 6649.29c-5.04,0.57 -121.91,-994.08 -261.01,-2221.33 -139.14,-1227.67 -247.81,-2223.03 -242.77,-2223.6 5.04,-0.57 121.89,993.86 261.03,2221.53 139.09,1227.25 247.79,2222.83 242.75,2223.4z"/>
  <polygon class="fil17" points="3565.85,7962.46 1319.75,7962.46 1319.75,7650.92 3565.85,7650.92 "/>
  <polygon class="fil4" points="3529.22,7922.31 1319.75,7922.31 1319.75,7689.84 3529.22,7689.84 "/>
  <polygon class="fil9" points="3129.4,7962.46 3129.4,7650.92 3565.85,7650.92 3565.85,7962.46 "/>
  <path class="fil8" d="M3529.22 7740.66c0,0 -1.93,0.11 -5.71,0.16 -3.84,0.04 -9.43,0.1 -16.76,0.17 -14.79,0.07 -36.5,0.17 -64.44,0.31 -56.03,0.12 -136.99,0.3 -237.01,0.52 -200.18,0.12 -476.62,0.29 -781.95,0.48 -305.42,-0.19 -581.89,-0.36 -782.07,-0.48 -100.03,-0.22 -180.98,-0.4 -237,-0.52 -27.94,-0.14 -49.64,-0.24 -64.43,-0.31 -7.33,-0.07 -12.92,-0.13 -16.76,-0.17 -3.78,-0.05 -5.71,-0.16 -5.71,-0.16 0,0 1.93,-0.12 5.71,-0.17 3.84,-0.04 9.43,-0.09 16.76,-0.16 14.79,-0.07 36.49,-0.18 64.43,-0.31 56.02,-0.12 136.97,-0.3 237,-0.52 200.18,-0.13 476.65,-0.3 782.07,-0.48 305.33,0.18 581.77,0.35 781.95,0.48 100.02,0.22 180.98,0.4 237.01,0.52 27.94,0.13 49.65,0.24 64.44,0.31 7.33,0.07 12.92,0.12 16.76,0.16 3.78,0.05 5.71,0.17 5.71,0.17z"/>
  <path class="fil8" d="M3529.22 7802.81c0,0 -1.93,0.12 -5.71,0.17 -3.84,0.04 -9.43,0.09 -16.76,0.17 -14.79,0.07 -36.5,0.17 -64.44,0.3 -56.03,0.13 -136.99,0.31 -237.01,0.52 -200.18,0.13 -476.62,0.3 -781.95,0.49 -305.42,-0.19 -581.89,-0.36 -782.07,-0.49 -100.03,-0.21 -180.98,-0.39 -237,-0.52 -27.94,-0.13 -49.64,-0.23 -64.43,-0.3 -7.33,-0.08 -12.92,-0.13 -16.76,-0.17 -3.78,-0.05 -5.71,-0.17 -5.71,-0.17 0,0 1.93,-0.11 5.71,-0.16 3.84,-0.04 9.43,-0.09 16.76,-0.16 14.79,-0.08 36.49,-0.18 64.43,-0.31 56.02,-0.12 136.97,-0.3 237,-0.52 200.18,-0.13 476.65,-0.3 782.07,-0.49 305.33,0.19 581.77,0.36 781.95,0.49 100.02,0.22 180.98,0.4 237.01,0.52 27.94,0.13 49.65,0.23 64.44,0.31 7.33,0.07 12.92,0.12 16.76,0.16 3.78,0.05 5.71,0.16 5.71,0.16z"/>
  <path class="fil8" d="M3130.68 7957.28c-0.78,0 -1.41,-67.82 -1.41,-151.45 0,-83.68 0.63,-151.48 1.41,-151.48 0.78,0 1.42,67.8 1.42,151.48 0,83.63 -0.64,151.45 -1.42,151.45z"/>
  <polygon class="fil5" points="3244.38,7650.92 1691.04,7650.92 1691.04,7362.65 3244.38,7362.65 "/>
  <polygon class="fil5" points="2956.92,7649.25 2956.92,7364.32 3379.64,7364.32 3379.64,7649.25 "/>
  <polygon class="fil4" points="2996.68,7608.08 2996.68,7403.36 3379.64,7403.36 3379.64,7608.08 "/>
  <polygon class="fil9" points="2956.92,7649.25 2956.92,7364.32 3379.64,7364.32 3379.64,7649.25 "/>
  <path class="fil8" d="M2843.27 7587.69c0,0 -0.08,-2.73 -0.11,-7.95 -0.04,-5.28 -0.08,-13.01 -0.14,-23.18 -0.08,-20.38 -0.18,-50.43 -0.33,-89.42l0.58 0.67c-180,0.16 -585.6,0.54 -1056.8,0.97l-0.06 0 1.41 -1.64c0,41.29 0,82.15 0,120.55l-1.41 -1.64c296.45,0.28 560.45,0.52 750.42,0.7 95.05,0.21 171.57,0.37 224.39,0.48 26.4,0.1 46.86,0.18 60.79,0.23 6.91,0.05 12.19,0.09 15.81,0.11 3.58,0.04 5.45,0.12 5.45,0.12 0,0 -1.75,0.07 -5.26,0.11 -3.57,0.03 -8.8,0.06 -15.63,0.11 -13.86,0.05 -34.21,0.13 -60.46,0.23 -52.75,0.11 -129.15,0.28 -224.07,0.48 -190.23,0.18 -454.59,0.43 -751.44,0.7l-1.4 0 0 -1.63c0,-38.4 -0.01,-79.26 -0.01,-120.55l0 -1.64 1.41 0 0.06 0c471.2,0.43 876.8,0.8 1056.8,0.96l0.58 0 0 0.68c-0.15,39.16 -0.26,69.34 -0.33,89.81 -0.06,10.1 -0.11,17.79 -0.14,23.02 -0.04,5.16 -0.11,7.72 -0.11,7.72z"/>
  <path class="fil8" d="M2957.43 7649.03c-0.77,0 -1.41,-64.59 -1.41,-144.25 0,-79.69 0.64,-144.27 1.41,-144.27 0.78,0 1.42,64.58 1.42,144.27 0,79.66 -0.64,144.25 -1.42,144.25z"/>
  <path class="fil8" d="M9187.58 8344.01c0,5.07 -1847.3,9.19 -4125.53,9.19 -2279.02,0 -4125.93,-4.12 -4125.93,-9.19 0,-5.07 1846.91,-9.19 4125.93,-9.19 2278.23,0 4125.53,4.12 4125.53,9.19z"/>
 </g>
</svg>
