<svg xmlns="http://www.w3.org/2000/svg" xml:space="preserve" width="160mm" height="30mm" version="1.1" style="shape-rendering:geometricPrecision; text-rendering:geometricPrecision; image-rendering:optimizeQuality; fill-rule:evenodd; clip-rule:evenodd"
viewBox="0 0 16000 3000"
 xmlns:xlink="http://www.w3.org/1999/xlink"
 xmlns:xodm="http://www.corel.com/coreldraw/odm/2003">
 <defs>
  <style type="text/css">
   <![CDATA[
    .fil1 {fill:#B3ADD9}
    .fil0 {fill:#F2F2F2}
    .fil2 {fill:#8091F2}
   ]]>
  </style>
 </defs>
 <g id="Capa_x0020_1">
  <metadata id="CorelCorpID_0Corel-Layer"/>
  <g id="_1864033873024">
   <path class="fil0" d="M7957.83 1964.18l333.28 -1095.22 344.19 0 353.13 1095.94 348.81 -1095.94 349.1 0 -539.69 1570.2 -322.08 0 -358.17 -1114.21 -350.3 1114.21 -327.52 0 -549.57 -1570.2 352.97 0 365.85 1095.22zm1708.82 -311.02c0,-229.94 67.46,-439.1 231.36,-603.52 163.86,-164.38 373.4,-231.96 603.22,-231.96 230.31,0 438.44,68.52 602.7,232.78 164.11,164.12 232.78,372.61 232.78,602.7 0,230.61 -68.22,439.93 -232.78,604.5 -164.26,164.26 -372.39,232.78 -602.7,232.78 -230.27,0 -439.44,-68.02 -603.3,-232.94 -163.75,-164.79 -231.28,-374.21 -231.28,-604.34zm2169.39 -693.92c20.67,-19.26 43.01,-37.04 67.12,-53.23 88.09,-59.16 186.55,-88.33 292.65,-88.33 36.11,0 72.05,3.99 107.38,11.36 36.96,7.71 73.12,19.08 107.96,33.59l42.99 17.91 0 322.61 -89.91 -26.97c-25.78,-7.73 -52.32,-14.41 -78.94,-18.59 -22.59,-3.55 -45.44,-5.9 -68.33,-5.9 -86.32,0 -167.59,20.31 -235.59,75 -71.39,57.41 -116.2,143.44 -145.33,229.05l0 983.42 -328.61 0 0 -1570.2 328.61 0 0 90.28zm1004.06 499.14l729.61 -589.42 500.93 0 -750.38 605.38 808.89 964.82 -432.75 0 -638.34 -758.12 -217.96 177.99 0 580.13 -328.61 0 0 -2088.42 328.61 0 0 1107.64zm1134.19 390.35l325.62 0 7.53 61.32c9.95,80.98 43.79,145.2 113.09,190.15 87.93,57.03 212.48,69.72 314.68,69.72 103.91,0 241.05,-9.4 334.46,-59.6 55.72,-29.94 89.19,-69.92 89.19,-135.07 0,-35.2 -9.11,-64.86 -36.99,-87.34 -41.71,-33.64 -119.07,-49.63 -170.61,-57.25l-416.56 -61.63c-129.6,-19.17 -284.39,-56.94 -386.15,-144.3 -94.59,-81.21 -131.41,-194.14 -131.41,-316.6 0,-156.14 71.47,-279.04 200.64,-365.33 146.35,-97.76 332.24,-125.12 504.83,-125.12 176.62,0 364.09,30.67 510.18,136.55 133.6,96.82 200.33,231.69 203.38,396.23l1.32 71.14 -317.95 0 -8.57 -59.96c-10.6,-74.22 -44.28,-130.34 -108.9,-169.04 -85.89,-51.44 -207.68,-62.5 -305.55,-62.5 -86.55,0 -194.37,9.62 -270.85,53.99 -45.49,26.41 -74.52,59.61 -74.52,113.69 0,35.97 10.63,63.68 40.32,84.76 50.05,35.54 168.75,55.65 228.41,64.84l367.98 56.68c126.16,19.43 277.81,56.58 376.56,142.23 92.32,80.06 128.45,190.35 128.45,310.52 0,170.37 -68.73,309.48 -211.92,403.43 -160.61,105.36 -377.36,130.2 -565.09,130.2 -181.05,0 -370.43,-33.39 -518.32,-144.45 -138.55,-104.05 -206.01,-251.16 -218.02,-422.54l-5.23 -74.72zm-3976.33 -195.57c0,141 34.37,274.51 135.17,377.05 99.46,101.2 228.61,137.02 368.1,137.02 139.37,0 267.16,-36.84 366.25,-137.87 100.45,-102.4 135.22,-235.42 135.22,-376.2 0,-140.32 -34.62,-272.96 -135.17,-375.25 -99.06,-100.79 -227.25,-137.02 -366.3,-137.02 -139.49,0 -268.64,35.82 -368.1,137.02 -100.55,102.29 -135.17,234.93 -135.17,375.25z"/>
   <path class="fil1" d="M769.57 1016.71c57.06,-57.25 122.62,-104.66 196.84,-141.19 116.41,-57.3 242.56,-81.29 371.77,-81.29 403.07,0 610.89,184.87 610.89,594.28l0 994.82 -282.23 0 0 -870.23c0,-105.25 -9.67,-275.22 -81.12,-360.11 -65.46,-77.76 -185.08,-93.13 -280.3,-93.13 -140.93,0 -274.82,34.05 -384.15,125.9 -98.84,83.04 -146.16,187.79 -146.16,316.73l0 880.84 -282.24 0 0 -1558.64 276.7 0 0 192.02zm1398.87 586.38c0,-228.91 66.53,-436.99 229.73,-600.72 163.17,-163.68 371.61,-230.29 600.36,-230.29 229.29,0 436.27,67.59 599.84,231.16 163.43,163.43 231.17,370.78 231.17,599.85 0,139.66 -24.9,271.4 -81.3,390.08 -54.82,-96.91 -136.87,-167.84 -230.63,-210.17 14.97,-57.42 21.38,-117.93 21.38,-179.91 0,-150.94 -38.06,-293.26 -146.12,-403.2 -106.62,-108.47 -244.56,-148.34 -394.34,-148.34 -150.23,0 -289.15,39.44 -396.18,148.34 -108.07,109.94 -146.13,252.26 -146.13,403.2 0,151.66 37.81,294.85 146.13,405.05 60.63,61.68 131.5,101.07 208.85,123.64 -21.6,93.46 -17.98,192.87 12.86,284.02l1.82 6.24c-160.84,-27.15 -306.66,-95.5 -427.76,-217.37 -163.07,-164.11 -229.68,-372.46 -229.68,-601.58zm2463.35 423.87l522.8 -1202.27 314.51 0 -712.18 1558.64 -257.53 0 -708.74 -1558.64 321.83 0 519.31 1202.27zm2349.74 88.13c8.4,8.79 46.89,4.7 58.38,2.78 12.14,-2.02 24.16,-5.32 35.93,-8.85l58.35 -17.51 1.45 260.77 -32.18 10.06c-55.09,17.22 -115.86,29.3 -173.72,29.3 -65.81,0 -132.02,-16.19 -176.35,-68.14 -25.89,-30.34 -41.83,-71 -51.85,-112.89 -64.71,59.81 -137.8,109.01 -220.36,143.38 -118.18,49.2 -250.28,65.34 -377.46,65.34 -152.84,0 -316.7,-27.25 -439.52,-124.8 -114.21,-90.71 -162.14,-216.9 -162.14,-361.03 0,-142.96 58.01,-262.35 172.21,-348.77 51.62,-38.35 118.78,-63.98 180.32,-81.36 47.33,-13.37 96.65,-23.25 144.99,-32.17 71.96,-13.28 144.5,-24.23 216.99,-34.19 50.54,-6.94 101.34,-12.76 151.98,-19 80.27,-9.89 282.1,-40.45 313.93,-133.78 3.21,-9.41 4.62,-19.16 4.62,-29.09 0,-64.5 -26.4,-111.18 -81.48,-144.71 -77.29,-47.05 -191.68,-56.11 -279.94,-56.11 -114.56,0 -258.64,13.2 -357.18,77.5 -79.1,51.61 -114.56,127.28 -120.62,220.42l-2.78 42.64 -282.26 0 2.99 -48.4c10.35,-167.9 69.65,-318.15 207,-420.47 147.47,-109.86 348.92,-137.31 527.93,-137.31 115.15,0 242.64,8.48 352.78,44.21 145.7,47.27 257.53,147.08 297.63,296.93 19.28,72.02 20.94,164.05 20.94,238.36l0 650.67c0,18.09 0.96,79.27 9.42,96.22zm-294.43 -502.05c-34.14,12.16 -69.95,21.57 -102.6,29.33 -47,11.18 -95.05,19.92 -142.62,28.25 -69.17,12.11 -138.59,23.08 -207.97,33.83 -84.78,13.13 -171.56,28.37 -254.48,50.57 -38.01,10.17 -95.52,26.75 -128.29,49.1 -46.94,32 -64.07,78.73 -64.07,134.45 0,66.47 28.88,114.65 83.2,152.14 71.82,49.57 165.62,63 250.98,63 146.29,0 294.95,-28.67 414.34,-117.84 98.81,-73.81 151.51,-169 151.51,-292.96l0 -129.87z"/>
   <path class="fil2" d="M3311.63 1843.24c222.87,0 403.54,180.67 403.54,403.54 0,222.88 -180.67,403.55 -403.54,403.55 -222.87,0 -403.54,-180.67 -403.54,-403.55 0,-222.87 180.67,-403.54 403.54,-403.54z"/>
  </g>
 </g>
</svg>