<svg xmlns="http://www.w3.org/2000/svg" xml:space="preserve" width="58mm" height="43mm" version="1.1" style="shape-rendering:geometricPrecision; text-rendering:geometricPrecision; image-rendering:optimizeQuality; fill-rule:evenodd; clip-rule:evenodd"
viewBox="0 0 5800 4300"
 xmlns:xlink="http://www.w3.org/1999/xlink"
 xmlns:xodm="http://www.corel.com/coreldraw/odm/2003">
 <defs>
  <style type="text/css">
   <![CDATA[
    .fil0 {fill:#274073}
    .fil3 {fill:#4B61A6}
    .fil2 {fill:#8091F2}
    .fil1 {fill:#F2F2F2}
   ]]>
  </style>
 </defs>
 <g id="Capa_x0020_1">
  <metadata id="CorelCorpID_0Corel-Layer"/>
  <g id="_2097922031216">
   <rect class="fil0" x="46.92" y="15.77" width="5697.99" height="4269.5" rx="639.26" ry="732.16"/>
   <path class="fil1" d="M1611.43 1393.78l2549.71 0c208,0 378.19,123.03 378.19,273.4l0 1446.39c0,123.02 77.39,512.44 -77.94,546.44 -34.5,7.55 -494.26,-273.03 -532.05,-273.03l-2317.91 0c-208,0 -378.19,-123.03 -378.19,-273.41l0 -1446.39c0,-150.37 170.18,-273.4 378.19,-273.4z"/>
   <path class="fil2" d="M1594.06 702.81c88.28,0 159.84,71.56 159.84,159.85 0,88.28 -71.56,159.84 -159.84,159.84 -88.29,0 -159.85,-71.56 -159.85,-159.84 0,-88.29 71.56,-159.85 159.85,-159.85z"/>
   <path class="fil3" d="M3418.97 2478.32c1.53,243.24 -232.25,441.03 -523,441.03 -290.17,0 -525.25,-198 -522.97,-441.03l1045.97 0z"/>
   <path class="fil3" d="M1594.06 1085.32c41.05,0 74.32,33.27 74.32,74.32 0,41.05 -33.27,74.33 -74.32,74.33 -41.06,0 -74.33,-33.28 -74.33,-74.33 0,-41.05 33.27,-74.32 74.33,-74.32z"/>
   <path class="fil3" d="M2213.13 1968.99c88.28,0 159.84,71.56 159.84,159.85 0,88.28 -71.56,159.84 -159.84,159.84 -88.29,0 -159.85,-71.56 -159.85,-159.84 0,-88.29 71.56,-159.85 159.85,-159.85z"/>
   <path class="fil3" d="M3578.75 1968.99c88.28,0 159.84,71.56 159.84,159.85 0,88.28 -71.56,159.84 -159.84,159.84 -88.29,0 -159.85,-71.56 -159.85,-159.84 0,-88.29 71.56,-159.85 159.85,-159.85z"/>
  </g>
 </g>
</svg>