<svg xmlns="http://www.w3.org/2000/svg" xml:space="preserve" width="58mm" height="43mm" version="1.1" style="shape-rendering:geometricPrecision; text-rendering:geometricPrecision; image-rendering:optimizeQuality; fill-rule:evenodd; clip-rule:evenodd"
viewBox="0 0 5800 4300"
 xmlns:xlink="http://www.w3.org/1999/xlink"
 xmlns:xodm="http://www.corel.com/coreldraw/odm/2003">
 <defs>
  <style type="text/css">
   <![CDATA[
    .fil0 {fill:#274073}
    .fil2 {fill:#8091F2}
    .fil3 {fill:#B3ADD9}
    .fil1 {fill:#F2F2F2}
   ]]>
  </style>
 </defs>
 <g id="Capa_x0020_1">
  <metadata id="CorelCorpID_0Corel-Layer"/>
  <rect class="fil0" x="46.92" y="15.77" width="5697.99" height="4269.5" rx="639.26" ry="732.16"/>
  <path class="fil1" d="M3552.66 2369.47c85.3,-0.06 173.18,5.4 234.53,-39.15 129.94,-94.38 119.93,-275.05 -1.49,-358.1 -73.29,-50.12 -134.04,-39.92 -232.98,-40.65 0,-498.57 60.44,-437.88 -438,-437.88 0,99.6 8.81,159.68 -40.77,232.85 -79.1,116.74 -254.98,136.81 -357.76,1.66 -48.77,-64.11 -39.18,-147.37 -39.18,-234.51 -500.8,1.27 -436.71,-62.93 -438,437.85 -100.18,0.26 -159.27,-9.33 -232.93,40.72 -129.36,87.91 -123.26,273.56 -1.89,358.34 69.08,48.24 143.54,38.91 234.82,38.94 0,498.28 -60.48,437.86 438,437.86 0,-99.1 -9.12,-160.19 40.69,-232.99 31.26,-45.7 90.78,-94.64 178.15,-95.17 85.99,-0.52 143.92,46.08 179.78,93.51 48.3,63.87 39.22,147.65 39.16,234.58 499.17,-0.37 437.5,61.28 437.87,-437.86z"/>
  <g id="_2062273982144">
   <path class="fil2" d="M2239.11 3792.53l1313.61 -0.01 0.05 -266.85c-0.07,-108.1 19.86,-225.03 -130.05,-225.74l-307.81 -0.07 -0.06 -82.06c-0.35,-331.85 -438.76,-317.52 -437.89,-13.68l0 95.77 -307.83 -0.03c-83.62,0 -130.01,39.18 -130.02,123.19l0.03 253.13 -0.03 116.35z"/>
   <path class="fil3" d="M2239.19 515.41l-0.08 362.6c-0.09,153.65 159.13,123.18 321.59,123.21l116.27 -0.03 0.08 68.39c-0.45,357.5 437.97,325.88 437.84,27.36l-0.05 -95.74 314.73 -0.03c128.07,-0.06 123.11,-98.72 123.19,-177.89l-0.03 -314.74 -1313.54 6.87z"/>
   <path class="fil2" d="M4045.25 1931.65l68.46 -0.01c300.6,-0.43 309.87,283.64 180.24,385.45 -76.03,59.72 -147.69,52.4 -248.67,52.32l0.05 307.92c0,82.78 40.22,130.05 123.12,130.03l369.46 0 0.02 -1313.64 -362.64 -0.02c-88.47,0 -130.05,41.57 -130.03,130.04l0.04 246.29 -0.05 61.62z"/>
   <path class="fil3" d="M1746.6 2369.42c-91.53,0 -165.65,9.52 -234.86,-38.9 -122.51,-85.7 -126.16,-271.01 1.87,-358.21 72.41,-49.33 133.82,-40.66 232.99,-40.66 0,-77.56 -0.12,-155.11 -0.03,-232.66 0.3,-251.28 -33.66,-204.4 -492.62,-205.24l-0.02 1313.61c461.19,0 492.77,44.09 492.67,-205.29 -0.02,-77.55 -0.11,-155.1 0,-232.65z"/>
  </g>
 </g>
</svg>