<svg xmlns="http://www.w3.org/2000/svg" xml:space="preserve" width="58mm" height="43mm" version="1.1" style="shape-rendering:geometricPrecision; text-rendering:geometricPrecision; image-rendering:optimizeQuality; fill-rule:evenodd; clip-rule:evenodd"
viewBox="0 0 5800 4300"
 xmlns:xlink="http://www.w3.org/1999/xlink"
 xmlns:xodm="http://www.corel.com/coreldraw/odm/2003">
 <defs>
  <style type="text/css">
   <![CDATA[
    .fil1 {fill:#274073}
    .fil0 {fill:#8091F2}
   ]]>
  </style>
    <clipPath id="id0">
     <path d="M994.89 56.09l3695.8 0 0 3669.59 -3695.8 0 0 -3669.59z"/>
    </clipPath>
 </defs>
 <g id="Capa_x0020_1">
  <metadata id="CorelCorpID_0Corel-Layer"/>
  <path class="fil0" d="M3525.39 2496.59c-432.85,73.52 -815.72,485.9 -724.76,1015.75 74.39,433.31 485.47,807.6 1014.51,719.71 431.53,-71.69 806.18,-484.99 721.01,-1012.89 -69.28,-429.36 -487.34,-811.48 -1010.76,-722.57z"/>
  <g id="_2624434342016">
   <g style="clip-path:url(#id0)">
    <image x="994.89" y="56.09" width="3695.8" height="3669.59" xlink:href="IMG MINI LOGO_Images\IMG MINI LOGO_ImgID1.png"/>
   </g>
  </g>
  <path class="fil1" d="M2606.46 3744.64c-64.79,-262.83 -70.09,-355.99 -30.84,-634.99 -101.66,-17.51 -234.45,-91.96 -304.55,-139.65 -111.01,-75.53 -150.15,-122 -225.56,-214.55 -464.12,-569.57 -358.17,-2109.33 1076.95,-1991.9 497.18,40.68 863.1,328.38 991.81,792.25 73.46,264.76 57.55,530.7 4.79,795.95 110.91,65.83 204.95,109.99 282.98,190.77 36.42,37.69 79.3,75.59 116,120.85 34.03,41.97 68.71,106.85 103.44,141.17 170.44,-315.46 213.16,-837.12 143.62,-1233.12 -130.18,-741.28 -689.34,-1296.47 -1464.95,-1402.16 -441.1,-60.11 -851.21,2.31 -1205.46,177.52 -592.29,292.94 -1031.24,991.91 -897.41,1937.96 57.49,406.34 200.72,688.23 462.29,969.6 191.09,205.54 540.56,435.39 946.89,490.3z"/>
 </g>
</svg>