<svg xmlns="http://www.w3.org/2000/svg" xml:space="preserve" width="252mm" height="152mm" version="1.1" style="shape-rendering:geometricPrecision; text-rendering:geometricPrecision; image-rendering:optimizeQuality; fill-rule:evenodd; clip-rule:evenodd"
viewBox="0 0 25200 15200"
 xmlns:xlink="http://www.w3.org/1999/xlink"
 xmlns:xodm="http://www.corel.com/coreldraw/odm/2003">
 <defs>
  <style type="text/css">
   <![CDATA[
    .fil5 {fill:#263138;fill-rule:nonzero}
    .fil13 {fill:#265C4B;fill-rule:nonzero}
    .fil0 {fill:#274073;fill-rule:nonzero}
    .fil11 {fill:#3DC3DB;fill-rule:nonzero}
    .fil6 {fill:#445964;fill-rule:nonzero}
    .fil14 {fill:#569C6F;fill-rule:nonzero}
    .fil12 {fill:#8091F2;fill-rule:nonzero}
    .fil4 {fill:#B3ADD9;fill-rule:nonzero}
    .fil8 {fill:#DFDFDF;fill-rule:nonzero}
    .fil10 {fill:#EB996E;fill-rule:nonzero}
    .fil1 {fill:#EBEBEB;fill-rule:nonzero}
    .fil3 {fill:#F2F2F2;fill-rule:nonzero}
    .fil15 {fill:#F9F9F9;fill-rule:nonzero}
    .fil9 {fill:#FFBD9C;fill-rule:nonzero}
    .fil7 {fill:white;fill-rule:nonzero}
    .fil17 {fill:black;fill-rule:nonzero;fill-opacity:0.301961}
    .fil16 {fill:#263138;fill-rule:nonzero;fill-opacity:0.301961}
    .fil2 {fill:#274073;fill-rule:nonzero;fill-opacity:0.501961}
   ]]>
  </style>
 </defs>
 <g id="Capa_x0020_1">
  <metadata id="CorelCorpID_0Corel-Layer"/>
  <g id="_2665549552000">
   <polygon class="fil0" points="7684.23,10751.81 8016.45,10980.4 7802.96,11290.7 7470.72,11062.1 "/>
   <path class="fil1" d="M8845.66 13711.66l175.81 -46.37c0,0 -38.94,-147.61 113.76,-190.72 79.31,-22.38 134.39,18.91 161.71,54.46 31.74,41.28 39.8,95.75 25.04,145.69 -16.85,57.03 -70.4,118.96 -194.4,129.33l104.57 396.4 173.84 -45.85 -61.25 -232.2c0,0 227.18,-127.34 156.31,-396.03 -67.82,-257.08 -314.1,-255.97 -412.79,-229.94 -75.46,19.91 -327.73,105.96 -242.6,415.23z"/>
   <polygon class="fil1" points="9473.1,14400.47 9296.66,14447.01 9253.2,14282.24 9429.63,14235.7 "/>
   <path class="fil2" d="M13383.47 781.35c90.06,-54.42 185.95,-95.69 284.84,-123.79l58.68 -281.96 476.37 -8.35 68.54 279.68c99.83,24.61 197.12,62.47 289.05,113.72l240.76 -157.82 342.75 330.95 -149.22 246.11c54.45,90.1 95.71,186.02 123.78,284.92l281.93 58.67 8.36 476.36 -279.69 68.57c-24.6,99.81 -62.47,197.08 -113.7,289.01l157.78 240.78 -330.9 342.76 -246.13 -149.23c-90.09,54.43 -185.99,95.69 -284.9,123.77l-58.69 281.96 -476.34 8.36 -68.56 -279.72c-99.83,-24.6 -197.09,-62.49 -289.03,-113.71l-240.75 157.82 -342.77 -330.94 149.23 -246.12c-54.43,-90.09 -95.72,-185.97 -123.8,-284.89l-281.93 -58.68 -8.36 -476.36 279.7 -68.58c24.6,-99.81 62.51,-197.08 113.71,-289.01l-157.8 -240.77 330.91 -342.75 246.18 149.24zm253.93 634.59l0 0c-196.07,203.1 -190.38,526.65 12.71,722.7 203.07,196.07 526.63,190.37 722.68,-12.71 196.04,-203.07 190.37,-526.64 -12.71,-722.69 -203.07,-196.04 -526.62,-190.36 -722.68,12.7z"/>
   <path class="fil2" d="M18528.45 6712.15c51.87,-31.35 107.1,-55.11 164.06,-71.3l33.8 -162.39 274.38 -4.81 39.48 161.08c57.5,14.18 113.53,35.99 166.49,65.5l138.66 -90.89 197.42 190.61 -85.95 141.76c31.37,51.89 55.13,107.13 71.3,164.1l162.38 33.79 4.82 274.37 -161.1 39.5c-14.16,57.48 -35.98,113.5 -65.49,166.46l90.88 138.68 -190.59 197.42 -141.76 -85.96c-51.89,31.36 -107.12,55.12 -164.09,71.3l-33.81 162.39 -274.37 4.82 -39.49 -161.11c-57.49,-14.17 -113.51,-35.99 -166.46,-65.49l-138.67 90.9 -197.42 -190.62 85.95 -141.75c-31.36,-51.89 -55.14,-107.12 -71.31,-164.09l-162.39 -33.8 -4.81 -274.36 161.1 -39.51c14.17,-57.48 36,-113.51 65.49,-166.46l-90.89 -138.67 190.6 -197.43 141.79 85.96zm146.26 365.52l0 0c-112.92,116.96 -109.65,303.32 7.32,416.25 116.97,112.93 303.33,109.65 416.25,-7.32 112.92,-116.96 109.65,-303.33 -7.32,-416.25 -116.97,-112.92 -303.32,-109.65 -416.25,7.32z"/>
   <path class="fil3" d="M6648.73 3359.4l75.82 -124.94c639.14,-1053.24 1794.73,-1688.16 3013.09,-1611.11 156.61,9.9 312.56,31.1 466.41,64.03 1107.74,237.12 2071.61,1074.81 2471.13,2147.65 234.96,630.95 300.61,1357.41 746.5,1858.23 580.3,651.79 1565.51,672.25 2431.71,645.25 866.19,-27 1852.04,-3.97 2429.52,650.39 361.67,409.81 476.61,992.6 447.44,1541.42 -77.21,1453.04 -1089.7,2752.27 -2377.35,3398.06 -1287.65,645.78 -2803.71,703.63 -4212.95,419.54 -1974.2,-397.96 -3851.65,-1490.85 -4980.14,-3178.87 -1128.48,-1688 -1414.08,-3987.74 -511.18,-5809.65z"/>
   <path class="fil4" d="M7810.72 11848.59c0,431.54 -349.83,781.36 -781.35,781.36 -431.54,0 -781.36,-349.82 -781.36,-781.36 0,-431.52 349.82,-781.35 781.36,-781.35 431.52,0 781.35,349.83 781.35,781.35z"/>
   <path class="fil5" d="M19267.2 14830.78c0,4.48 -2954.13,8.11 -6597.39,8.11 -3644.52,0 -6598.01,-3.63 -6598.01,-8.11 0,-4.48 2953.49,-8.11 6598.01,-8.11 3643.26,0 6597.39,3.63 6597.39,8.11z"/>
   <path class="fil6" d="M17830.29 14808.14l-4424.31 -2.62c-532.11,-0.28 -963.28,-431.81 -963.17,-963.93l2.16 -11091.83c0.11,-532.41 431.89,-963.87 964.31,-963.57l4424.32 2.6c532.11,0.32 963.27,431.83 963.17,963.94l-2.17 11091.86c-0.11,532.41 -431.9,963.87 -964.31,963.55z"/>
   <path class="fil7" d="M17828.91 2181.11l-857.8 -0.5c-115.02,-0.05 -208.33,97.4 -208.32,217.62l-0.06 155.6c0.01,120.25 -93.29,217.7 -208.32,217.63l-1672.03 -0.99c-115.03,-0.05 -208.28,-97.61 -208.25,-217.87l0.03 -155.6c0.02,-120.25 -93.24,-217.8 -208.27,-217.87l-301.68 -0.18 -750.78 -0.43c-372.86,-0.22 -675.27,301.95 -675.34,674.83l-2.12 10826.42c-0.08,372.71 301.88,674.9 674.55,675.12l4415.48 2.58c372.84,0.23 675.24,-301.94 675.35,-674.82l2.12 -10826.46c0.05,-372.66 -301.9,-674.86 -674.56,-675.08z"/>
   <path class="fil1" d="M18503.15 4456.7l0 -1612.97c-6.61,-366.9 -305.75,-662.4 -674.24,-662.62l-857.8 -0.5c-115.02,-0.05 -208.33,97.4 -208.32,217.62l-0.06 155.6c0.01,120.25 -93.3,217.7 -208.32,217.63l-1672.03 -0.99c-115.03,-0.05 -208.28,-97.61 -208.26,-217.87l0.04 -155.6c0.01,-120.25 -93.23,-217.8 -208.27,-217.87l-301.68 -0.18 -750.78 -0.43c-372.86,-0.22 -675.27,301.95 -675.34,674.83l-0.32 1608.07 5765.38 0 0 -4.72z"/>
   <path class="fil8" d="M14612.48 5946.99c0,385.11 -312.85,697.3 -698.78,697.3 -385.93,0 -698.79,-312.19 -698.79,-697.3 0,-385.11 312.86,-697.3 698.79,-697.3 385.93,0 698.78,312.19 698.78,697.3z"/>
   <path class="fil6" d="M13587.41 6121.49l182.92 -15.53 446.86 75.28 52.72 336.19 -7.48 39.11c-216.04,119.89 -457.72,116.95 -662.4,15.23l-12.62 -450.28z"/>
   <path class="fil6" d="M14121.62 6175.87c0,0 140.74,-27.86 231.76,101.86 55.69,79.39 83.03,132.02 83.03,132.02 -72.63,79.02 -131.82,139.16 -232.91,174.25l-81.88 -408.13z"/>
   <path class="fil6" d="M13587.41 6121.49c0,0 -120.9,14.79 -167.86,117.87 -46.95,103.08 -57.62,135.5 -57.62,135.5 62.61,75.19 142.05,164.23 239.55,197.62 0,0 22.23,-259.65 25.19,-333.12 3.24,-80.48 6.39,-120.19 -39.26,-117.87z"/>
   <path class="fil5" d="M13698.11 5461.02c65.3,-79.64 152.99,-125.5 256.1,-127.19 58.17,-0.97 82.24,11.1 124.13,22.37 41.89,11.28 79.69,33.71 104.68,69.11 29.69,42.03 54.62,89.11 60.22,140.23 5.77,52.52 11.55,105.38 7.57,158.06 -3.96,52.68 -18.3,105.73 -49.39,148.49l-134.32 23.29c-74.18,2.52 -149.38,4.94 -221.66,-11.94 -72.27,-16.89 -142.48,-55.69 -181.19,-118.89 -53.77,-87.81 -31.45,-223.88 33.86,-303.53z"/>
   <path class="fil5" d="M13567.92 5850.14c3.33,-30.25 19.22,-59.96 45.47,-75.44 26.25,-15.47 62.92,-13.87 84.79,7.33l21.11 25.1c33.08,14.06 53.87,51.59 49.86,87.25 -3.99,35.66 -31.48,67.1 -65.87,77.56 -34.38,10.48 -73.83,0.33 -100.12,-24.13 -26.31,-24.48 -39.18,-62 -35.24,-97.67z"/>
   <path class="fil6" d="M13594.54 5940.51c0.98,-0.45 -8.34,-9.02 -7.23,-26.67 1.13,-17.15 13.61,-39.64 30.75,-60.24 17.47,-20.72 38.05,-34.87 53.82,-43.07 15.74,-8.42 26.56,-11.51 26.22,-12.61 -0.13,-0.64 -11.52,0.86 -28.28,8.43 -16.71,7.32 -38.61,21.44 -56.79,42.99 -9.1,10.7 -16.4,22.03 -21.72,32.96 -5.4,10.86 -8.74,21.86 -8.66,31.4 -0.03,9.55 3.06,16.96 6.03,21.25 3.03,4.35 5.61,5.86 5.86,5.56z"/>
   <path class="fil9" d="M14065.87 6151.87c0,0 -0.73,-124.57 -0.73,-124.35 0,0 109.53,-12.04 139.8,-152.12 15.04,-69.66 17.83,-185.08 17.08,-279.59 -0.69,-85.06 -73.29,-200.9 -178.55,-201.27l-46.78 -5.42 -179.07 71.02c-25.86,1.3 -46.43,22.14 -47.33,47.97l-5.37 598.32 82.01 114.95c68.03,95.38 218.37,47.64 218.94,-69.51z"/>
   <path class="fil10" d="M13994.37 5842.62c0.97,-7.38 5.09,-13.91 10.33,-18.39 10.49,-8.97 25.82,-9.84 37.05,-2.11 11.22,7.72 17.66,23.58 15.54,38.31 -6.3,8.65 -15.94,14.49 -26.62,15.41 -1.66,0.15 -3.32,0.2 -4.99,0.15 -8.09,-0.2 -16.32,-2.93 -22.5,-8.88 -6.19,-5.95 -10.01,-15.38 -8.81,-24.49z"/>
   <path class="fil5" d="M14157.43 5693.44c-0.19,9.6 -8.48,17.35 -18.51,17.33 -10.03,-0.01 -18.02,-7.77 -17.83,-17.36 0.18,-9.59 8.48,-17.35 18.5,-17.34 10.04,0.01 18.03,7.79 17.84,17.37z"/>
   <path class="fil5" d="M14187.16 5648.27c-2.39,2.24 -15.59,-8.67 -35.14,-9.69 -19.51,-1.3 -34.4,7.95 -36.39,5.44 -0.98,-1.11 1.55,-5.25 8.04,-9.45 6.4,-4.17 17.13,-7.99 29.3,-7.28 12.16,0.74 22.16,5.77 27.8,10.67 5.75,4.93 7.56,9.31 6.39,10.31z"/>
   <path class="fil5" d="M14064.34 5796.01c-0.04,-1.11 12.23,-2.54 32.05,-3.98 5.02,-0.24 9.8,-0.97 10.83,-4.32 1.37,-3.54 -0.42,-9.01 -2.52,-14.94 -4.03,-12.31 -8.24,-25.21 -12.68,-38.73 -17.52,-55.11 -29.92,-100.31 -27.68,-100.99 2.23,-0.69 18.24,43.42 35.77,98.53 4.2,13.58 8.22,26.53 12.04,38.92 1.58,5.76 4.47,12.35 1.51,19.68 -1.55,3.65 -5.36,6.15 -8.61,6.84 -3.25,0.79 -6.06,0.7 -8.54,0.71 -19.87,-0.02 -32.15,-0.61 -32.17,-1.72z"/>
   <path class="fil10" d="M14065.14 6027.52c0,0 -95.6,0.91 -186.87,-60.87 0,0 45.14,100.71 187.6,95.25l-0.73 -34.38z"/>
   <path class="fil5" d="M14006.08 5806.34c3.19,0 2.07,21.17 19.4,37.18 17.29,16.08 40.03,14.94 40.04,17.9 0.22,1.35 -5.26,3.84 -14.82,3.57 -9.38,-0.18 -22.89,-3.94 -33.48,-13.74 -10.58,-9.82 -14.67,-22.37 -14.92,-31.09 -0.32,-8.9 2.34,-14.02 3.78,-13.82z"/>
   <path class="fil5" d="M14183.27 5574.77c-3.54,4.58 -18.33,0.57 -35.89,1.07 -17.59,-0.07 -32.31,4.29 -35.92,-0.2 -1.59,-2.19 0.57,-6.73 6.9,-11.19 6.22,-4.44 16.79,-8.3 28.87,-8.45 12.08,-0.13 22.69,3.46 28.99,7.75 6.38,4.31 8.61,8.79 7.05,11.02z"/>
   <path class="fil5" d="M13943.13 5692.13c-0.5,9.59 7.2,17.9 17.22,18.62 9.99,0.71 18.52,-6.46 19.03,-16.04 0.51,-9.58 -7.2,-17.91 -17.19,-18.62 -10.01,-0.72 -18.54,6.47 -19.06,16.04z"/>
   <path class="fil5" d="M13919.34 5641.29c2.22,2.4 16.17,-7.53 35.74,-7.14 19.55,0.11 33.74,10.41 35.91,8.05 1.06,-1.04 -1.17,-5.36 -7.34,-10 -6.08,-4.64 -16.5,-9.21 -28.69,-9.38 -12.19,-0.14 -22.52,4.16 -28.5,8.64 -6.09,4.5 -8.2,8.74 -7.12,9.83z"/>
   <path class="fil5" d="M13908.11 5599.36c3.77,4.51 18.96,0.16 37.12,0.26 18.15,-0.47 33.47,3.57 37.09,-1.01 1.59,-2.22 -0.75,-6.71 -7.4,-11.03 -6.55,-4.3 -17.56,-7.9 -30.05,-7.78 -12.47,0.13 -23.35,3.96 -29.74,8.39 -6.5,4.45 -8.68,8.98 -7.02,11.17z"/>
   <path class="fil9" d="M13794.61 5745.57c0.56,-10.52 -10.27,-35.99 -20.59,-38.19 -27.58,-5.85 -77.83,-6.37 -82.17,64.09 -5.94,96.3 92.18,82.39 92.53,79.64 0.26,-2.16 8.32,-69.2 10.23,-105.54z"/>
   <path class="fil10" d="M13759.92 5814.29c-0.41,-0.33 -1.75,1.07 -4.67,2.2 -2.86,1.09 -7.68,1.68 -12.59,-0.52 -9.97,-4.35 -17.55,-21.03 -16.95,-38.42 0.29,-8.79 2.65,-17.02 6.18,-23.74 3.38,-6.86 8.25,-11.51 13.45,-12.1 5.17,-0.86 8.62,2.42 9.63,5.2 1.13,2.78 0.4,4.67 0.9,4.86 0.26,0.26 2.18,-1.48 1.64,-5.51 -0.29,-1.93 -1.28,-4.28 -3.43,-6.27 -2.2,-2.02 -5.55,-3.19 -9.15,-3.02 -7.48,0.06 -14.59,6.47 -18.48,13.85 -4.3,7.39 -7.15,16.63 -7.48,26.49 -0.58,19.44 8.26,38.22 21.97,43.09 6.67,2.19 12.46,0.49 15.52,-1.6 3.14,-2.19 3.78,-4.31 3.46,-4.51z"/>
   <path class="fil5" d="M13770.07 5707.65l24.53 25.39c105.9,-101.15 312.85,-354.4 301.3,-339.3 0,0 -72.55,-29.78 -151.29,-16.4 -78.74,13.39 -228.09,52.72 -225.8,145.38 2.3,92.68 51.26,184.93 51.26,184.93z"/>
   <path class="fil6" d="M13629.84 5686.39c-0.17,-0.05 0.34,-1.97 1.47,-5.58 1.16,-3.59 3.23,-8.79 6.58,-15.18 6.72,-12.68 19.55,-29.84 40.34,-45.29 20.48,-15.86 48.87,-28.81 81.21,-38.98 32.29,-10.49 68.68,-18.63 104.41,-33.94 35.95,-14.74 68.02,-33.73 95.36,-53.3 27.25,-19.77 49.74,-40.27 67.3,-58.72 17.55,-18.46 30.31,-34.71 38.91,-46.08 3.95,-5.41 7.16,-9.81 9.68,-13.28 2.25,-3.02 3.49,-4.57 3.64,-4.48 0.14,0.1 -0.83,1.82 -2.81,5.04 -2.01,3.17 -4.86,7.95 -8.94,13.83 -8.15,11.77 -20.57,28.45 -37.93,47.35 -17.35,18.89 -39.81,39.85 -67.18,60.01 -27.45,19.96 -59.78,39.28 -96.13,54.18 -36.2,15.49 -72.84,23.54 -104.93,33.72 -32.2,9.88 -60.15,22.25 -80.51,37.46 -20.65,14.8 -33.61,31.23 -40.73,43.43 -7.08,12.29 -9.24,20 -9.74,19.81z"/>
   <path class="fil6" d="M13657.93 5701.55c0,0 -0.97,-7.89 3.74,-21.05 4.51,-13.06 15.93,-30.8 36.27,-45.34 20.15,-15.02 48.92,-24.31 80.54,-31.5 31.75,-7 66.21,-15.94 100.08,-31.7 33.82,-15.64 64.18,-34.57 89.23,-54.96 25.19,-20.24 45.51,-41.25 61.17,-60 15.86,-18.63 26.49,-35.4 34.1,-46.78 3.33,-5.47 6.03,-9.93 8.18,-13.48 1.92,-3.06 3,-4.63 3.16,-4.56 0.15,0.08 -0.65,1.81 -2.28,5.04 -1.95,3.68 -4.4,8.31 -7.41,13.99 -7.14,11.73 -17.4,28.92 -33.05,48.01 -15.44,19.18 -35.7,40.66 -61,61.31 -25.17,20.81 -55.81,40.1 -90.04,55.92 -34.22,15.94 -69.44,24.92 -101.11,31.63 -31.57,6.94 -59.74,15.71 -79.55,29.92 -20.04,13.8 -31.56,30.67 -36.49,43.19 -5.15,12.6 -4.89,20.47 -5.54,20.36z"/>
   <path class="fil5" d="M13601.48 6571.77c-1.78,0 -3.22,-41.23 -3.22,-92.08 0,-50.88 1.44,-92.1 3.22,-92.1 1.79,0 3.22,41.22 3.22,92.1 0,50.85 -1.43,92.08 -3.22,92.08z"/>
   <path class="fil5" d="M14262.74 6558.94c-0.96,-0.12 -0.07,-12.61 1.09,-32.73 0.93,-20.08 2.23,-47.98 -2.69,-78.07 -5.09,-30.08 -15.24,-56.2 -22.44,-75.03 -7.45,-18.8 -12.17,-30.44 -11.3,-30.83 0.74,-0.33 6.94,10.65 15.51,29.12 8.31,18.49 19.35,44.79 24.59,75.72 5.05,30.97 2.97,59.34 0.88,79.44 -2.33,20.16 -4.83,32.47 -5.64,32.38z"/>
   <path class="fil1" d="M17625.28 6832.3l-2381.49 0c-118.25,0 -214.12,-95.87 -214.12,-214.12l0 -1000.01 -262.53 -233.06 262.53 0 2595.61 0c118.26,0 214.13,95.87 214.13,214.12l0 1018.95c0,118.25 -95.87,214.12 -214.13,214.12z"/>
   <path class="fil8" d="M17462.07 6994.31c0,4.49 -113.75,8.12 -254.04,8.12 -140.34,0 -254.07,-3.63 -254.07,-8.12 0,-4.48 113.73,-8.1 254.07,-8.1 140.29,0 254.04,3.62 254.04,8.1z"/>
   <path class="fil11" d="M17567.18 7014.31c-2.7,-0.34 -4.17,-0.88 -5.62,-2.42l-49.14 -51.45c-2.98,-3.12 -2.86,-8.05 0.25,-11.02 3.1,-2.94 8.06,-2.86 11.01,0.25l43.59 45.65 95.51 -97.18c3.07,-3.05 8,-3.09 11.01,-0.09 3.07,3.02 3.13,7.94 0.12,11.02l-101.15 102.9c-1.5,1.5 -3.48,2.34 -5.58,2.34z"/>
   <path class="fil11" d="M17637.4 7012.69c-0.06,0 -0.12,0 -0.18,0l-9.03 -0.23c-4.33,-0.11 -7.7,-3.68 -7.61,-7.98 0.12,-4.3 4.23,-7.61 7.97,-7.6l5.66 0.16 98.78 -100.52c3.08,-3.06 8,-3.09 11.02,-0.09 3.07,3.01 3.13,7.94 0.12,11.01l-101.16 102.92c-1.49,1.49 -3.47,2.33 -5.57,2.33z"/>
   <path class="fil8" d="M17462.07 10909.4c0,4.49 -113.75,8.12 -254.04,8.12 -140.34,0 -254.07,-3.63 -254.07,-8.12 0,-4.47 113.73,-8.1 254.07,-8.1 140.29,0 254.04,3.63 254.04,8.1z"/>
   <path class="fil11" d="M17567.18 10929.41c-0.02,0 -0.02,0 -0.06,0 -2.09,0 -4.11,-0.89 -5.56,-2.41l-49.14 -51.45c-2.98,-3.1 -2.86,-8.03 0.25,-11.01 3.1,-2.92 8.06,-2.83 11.01,0.24l43.59 45.64 95.51 -97.18c3.07,-3.07 8,-3.12 11.01,-0.12 3.07,3.05 3.13,7.97 0.12,11.02l-101.15 102.92c-1.5,1.49 -3.48,2.35 -5.58,2.35z"/>
   <path class="fil11" d="M17637.4 10927.79c-0.06,0 -0.15,0 -0.21,0l-9.04 -0.25c-4.29,-0.11 -7.7,-3.71 -7.57,-7.99 0.12,-4.29 3.34,-8.37 8,-7.58l5.66 0.15 98.75 -100.48c3.08,-3.11 8,-3.11 11.02,-0.13 3.07,3.04 3.13,7.97 0.12,11.01l-101.16 102.93c-1.49,1.49 -3.47,2.34 -5.57,2.34z"/>
   <path class="fil7" d="M17594.82 5671.48c0,4.48 -519.95,8.11 -1161.18,8.11 -641.46,0 -1161.31,-3.63 -1161.31,-8.11 0,-4.48 519.85,-8.11 1161.31,-8.11 641.23,0 1161.18,3.63 1161.18,8.11z"/>
   <path class="fil7" d="M17594.82 5842.08c0,4.49 -519.95,8.12 -1161.18,8.12 -641.46,0 -1161.31,-3.63 -1161.31,-8.12 0,-4.47 519.85,-8.1 1161.31,-8.1 641.23,0 1161.18,3.63 1161.18,8.1z"/>
   <path class="fil7" d="M17594.82 6012.7c0,4.48 -519.95,8.11 -1161.18,8.11 -641.46,0 -1161.31,-3.63 -1161.31,-8.11 0,-4.48 519.85,-8.12 1161.31,-8.12 641.23,0 1161.18,3.64 1161.18,8.12z"/>
   <path class="fil8" d="M14612.48 10294.98c0,385.11 -312.85,697.3 -698.78,697.3 -385.93,0 -698.79,-312.19 -698.79,-697.3 0,-385.11 312.86,-697.3 698.79,-697.3 385.93,0 698.78,312.19 698.78,697.3z"/>
   <path class="fil6" d="M13587.41 10469.48l182.92 -15.52 446.86 75.27 52.72 336.2 -7.48 39.11c-216.04,119.9 -457.72,116.96 -662.4,15.22l-12.62 -450.28z"/>
   <path class="fil6" d="M14121.62 10523.86c0,0 140.74,-27.85 231.76,101.87 55.69,79.39 83.03,132.01 83.03,132.01 -72.63,79.02 -131.82,139.18 -232.91,174.26l-81.88 -408.14z"/>
   <path class="fil6" d="M13587.41 10469.48c0,0 -120.9,14.79 -167.86,117.88 -46.95,103.08 -57.62,135.49 -57.62,135.49 62.61,75.2 142.05,164.23 239.55,197.63 0,0 22.23,-259.66 25.19,-333.12 3.24,-80.48 6.39,-120.19 -39.26,-117.88z"/>
   <path class="fil5" d="M13698.11 9809.01c65.3,-79.63 152.99,-125.48 256.1,-127.19 58.17,-0.96 82.24,11.1 124.13,22.39 41.89,11.27 79.69,33.7 104.68,69.09 29.69,42.05 54.62,89.12 60.22,140.24 5.77,52.51 11.55,105.38 7.57,158.05 -3.96,52.69 -18.3,105.74 -49.39,148.5l-134.32 23.28c-74.18,2.53 -149.38,4.95 -221.66,-11.94 -72.27,-16.88 -142.48,-55.68 -181.19,-118.89 -53.77,-87.8 -31.45,-223.88 33.86,-303.53z"/>
   <path class="fil5" d="M13567.92 10198.13c3.33,-30.24 19.22,-59.95 45.47,-75.43 26.25,-15.47 62.92,-13.88 84.79,7.33l21.11 25.1c33.08,14.05 53.87,51.59 49.86,87.24 -3.99,35.66 -31.48,67.09 -65.87,77.57 -34.38,10.47 -73.83,0.32 -100.12,-24.14 -26.31,-24.47 -39.18,-62 -35.24,-97.67z"/>
   <path class="fil6" d="M13594.54 10288.52c0.98,-0.46 -8.34,-9.04 -7.23,-26.67 1.13,-17.16 13.61,-39.65 30.75,-60.26 17.47,-20.71 38.05,-34.88 53.82,-43.06 15.74,-8.43 26.56,-11.51 26.22,-12.61 -0.13,-0.65 -11.52,0.85 -28.28,8.43 -16.71,7.32 -38.61,21.44 -56.79,42.99 -9.1,10.69 -16.4,22.02 -21.72,32.95 -5.4,10.87 -8.74,21.86 -8.66,31.41 -0.03,9.54 3.06,16.94 6.03,21.25 3.03,4.34 5.61,5.85 5.86,5.57z"/>
   <path class="fil9" d="M14066.49 10511.3c0,0 -0.72,-124.57 -0.71,-124.35 0,0 109.52,-12.05 139.78,-152.12 15.05,-69.66 17.84,-185.08 17.08,-279.58 -0.69,-85.07 -73.28,-200.92 -178.54,-201.29l-46.78 -5.42 -179.07 71.03c-25.86,1.29 -46.43,22.14 -47.33,47.97l-5.38 598.31 82.02 114.96c68.04,95.37 218.38,47.64 218.93,-69.51z"/>
   <path class="fil10" d="M13994.37 10190.62c0.97,-7.39 5.09,-13.92 10.33,-18.4 10.49,-8.97 25.82,-9.84 37.05,-2.11 11.22,7.74 17.66,23.59 15.54,38.33 -6.3,8.63 -15.94,14.47 -26.62,15.4 -1.66,0.14 -3.32,0.19 -4.99,0.16 -8.09,-0.21 -16.32,-2.94 -22.5,-8.9 -6.19,-5.95 -10.01,-15.38 -8.81,-24.48z"/>
   <path class="fil5" d="M14157.43 10053.27c-0.19,9.6 -8.48,17.34 -18.51,17.33 -10.03,-0.01 -18.02,-7.78 -17.83,-17.36 0.18,-9.6 8.48,-17.35 18.5,-17.34 10.04,0.01 18.03,7.79 17.84,17.37z"/>
   <path class="fil5" d="M14187.16 10008.1c-2.39,2.24 -15.59,-8.67 -35.14,-9.69 -19.51,-1.3 -34.4,7.95 -36.39,5.44 -0.98,-1.11 1.55,-5.24 8.04,-9.45 6.4,-4.18 17.13,-7.99 29.3,-7.28 12.16,0.74 22.16,5.77 27.8,10.66 5.75,4.94 7.56,9.33 6.39,10.32z"/>
   <path class="fil5" d="M14064.34 10155.84c-0.04,-1.11 12.23,-2.54 32.05,-3.98 5.02,-0.24 9.8,-0.97 10.83,-4.32 1.37,-3.54 -0.42,-9.02 -2.52,-14.94 -4.03,-12.31 -8.24,-25.22 -12.68,-38.74 -17.52,-55.1 -29.92,-100.31 -27.68,-100.99 2.23,-0.68 18.24,43.43 35.77,98.54 4.2,13.58 8.22,26.53 12.04,38.92 1.58,5.76 4.47,12.36 1.51,19.68 -1.55,3.65 -5.36,6.15 -8.61,6.84 -3.25,0.8 -6.06,0.69 -8.54,0.7 -19.87,-0.01 -32.15,-0.6 -32.17,-1.71z"/>
   <path class="fil10" d="M14065.14 10387.34c0,0 -95.6,0.92 -186.87,-60.86 0,0 45.14,100.72 187.6,95.25l-0.73 -34.39z"/>
   <path class="fil5" d="M14006.08 10166.18c3.19,-0.01 2.07,21.16 19.4,37.17 17.29,16.07 40.03,14.93 40.04,17.9 0.22,1.34 -5.26,3.83 -14.82,3.57 -9.38,-0.19 -22.89,-3.94 -33.48,-13.74 -10.58,-9.81 -14.67,-22.37 -14.92,-31.1 -0.32,-8.89 2.34,-14.01 3.78,-13.8z"/>
   <path class="fil5" d="M14183.27 9934.6c-3.54,4.58 -18.33,0.57 -35.89,1.07 -17.59,-0.06 -32.31,4.29 -35.92,-0.21 -1.59,-2.19 0.57,-6.73 6.9,-11.19 6.22,-4.43 16.79,-8.28 28.87,-8.44 12.08,-0.13 22.69,3.46 28.99,7.75 6.38,4.31 8.61,8.78 7.05,11.02z"/>
   <path class="fil5" d="M13943.13 10051.96c-0.5,9.58 7.2,17.9 17.22,18.62 9.99,0.71 18.52,-6.46 19.03,-16.04 0.51,-9.57 -7.2,-17.91 -17.19,-18.62 -10.01,-0.72 -18.54,6.47 -19.06,16.04z"/>
   <path class="fil5" d="M13919.34 10001.11c2.22,2.41 16.17,-7.52 35.74,-7.13 19.55,0.1 33.74,10.41 35.91,8.05 1.06,-1.04 -1.17,-5.35 -7.34,-10 -6.08,-4.63 -16.5,-9.21 -28.69,-9.38 -12.19,-0.14 -22.52,4.16 -28.5,8.63 -6.09,4.51 -8.2,8.75 -7.12,9.83z"/>
   <path class="fil5" d="M13908.11 9959.2c3.77,4.5 18.96,0.16 37.12,0.26 18.15,-0.47 33.47,3.56 37.09,-1.02 1.59,-2.22 -0.75,-6.71 -7.4,-11.03 -6.55,-4.29 -17.56,-7.9 -30.05,-7.79 -12.47,0.14 -23.35,3.97 -29.74,8.4 -6.5,4.45 -8.68,8.98 -7.02,11.18z"/>
   <path class="fil9" d="M13794.61 10093.57c0.56,-10.52 -10.27,-36 -20.59,-38.19 -27.58,-5.86 -77.83,-6.38 -82.17,64.09 -5.94,96.31 92.18,82.38 92.53,79.63 0.26,-2.14 8.32,-69.19 10.23,-105.53z"/>
   <path class="fil10" d="M13759.92 10162.29c-0.41,-0.34 -1.75,1.07 -4.67,2.2 -2.86,1.08 -7.68,1.67 -12.59,-0.52 -9.97,-4.36 -17.55,-21.04 -16.95,-38.43 0.29,-8.78 2.65,-17.02 6.18,-23.74 3.38,-6.86 8.25,-11.5 13.45,-12.09 5.17,-0.87 8.62,2.42 9.63,5.2 1.13,2.78 0.4,4.66 0.9,4.85 0.26,0.27 2.18,-1.48 1.64,-5.5 -0.29,-1.94 -1.28,-4.29 -3.43,-6.28 -2.2,-2.02 -5.55,-3.18 -9.15,-3.02 -7.48,0.06 -14.59,6.49 -18.48,13.86 -4.3,7.38 -7.15,16.63 -7.48,26.48 -0.58,19.45 8.26,38.22 21.97,43.11 6.67,2.18 12.46,0.48 15.52,-1.61 3.14,-2.19 3.78,-4.32 3.46,-4.51z"/>
   <path class="fil5" d="M13770.07 10055.65l24.53 25.38c105.9,-101.15 312.85,-354.39 301.3,-339.3 0,0 -72.55,-29.78 -151.29,-16.39 -78.74,13.39 -228.09,52.71 -225.8,145.38 2.3,92.68 51.26,184.93 51.26,184.93z"/>
   <path class="fil6" d="M13629.84 10034.39c-0.17,-0.05 0.34,-1.96 1.47,-5.57 1.16,-3.61 3.23,-8.82 6.58,-15.19 6.72,-12.68 19.55,-29.84 40.34,-45.29 20.48,-15.87 48.87,-28.81 81.21,-38.99 32.29,-10.49 68.68,-18.63 104.41,-33.93 35.95,-14.74 68.02,-33.74 95.36,-53.31 27.25,-19.76 49.74,-40.27 67.3,-58.71 17.55,-18.46 30.31,-34.71 38.91,-46.09 3.95,-5.41 7.16,-9.81 9.68,-13.28 2.25,-3.02 3.49,-4.56 3.64,-4.47 0.14,0.09 -0.83,1.81 -2.81,5.03 -2.01,3.17 -4.86,7.96 -8.94,13.85 -8.15,11.76 -20.57,28.44 -37.93,47.35 -17.35,18.88 -39.81,39.84 -67.18,60 -27.45,19.96 -59.78,39.28 -96.13,54.17 -36.2,15.5 -72.84,23.55 -104.93,33.73 -32.2,9.87 -60.15,22.24 -80.51,37.45 -20.65,14.81 -33.61,31.24 -40.73,43.43 -7.08,12.3 -9.24,20 -9.74,19.82z"/>
   <path class="fil6" d="M13657.93 10049.54c0,0 -0.97,-7.88 3.74,-21.04 4.51,-13.05 15.93,-30.8 36.27,-45.35 20.15,-15.01 48.92,-24.3 80.54,-31.51 31.75,-6.98 66.21,-15.92 100.08,-31.68 33.82,-15.64 64.18,-34.58 89.23,-54.97 25.19,-20.23 45.51,-41.25 61.17,-59.99 15.86,-18.64 26.49,-35.41 34.1,-46.77 3.33,-5.49 6.03,-9.95 8.18,-13.5 1.92,-3.05 3,-4.63 3.16,-4.55 0.15,0.08 -0.65,1.81 -2.28,5.03 -1.95,3.68 -4.4,8.32 -7.41,14.01 -7.14,11.72 -17.4,28.9 -33.05,47.99 -15.44,19.18 -35.7,40.67 -61,61.32 -25.17,20.8 -55.81,40.1 -90.04,55.91 -34.22,15.94 -69.44,24.92 -101.11,31.64 -31.57,6.94 -59.74,15.71 -79.55,29.92 -20.04,13.8 -31.56,30.66 -36.49,43.19 -5.15,12.6 -4.89,20.47 -5.54,20.35z"/>
   <path class="fil5" d="M13601.48 10919.76c-1.78,0 -3.22,-41.23 -3.22,-92.08 0,-50.86 1.44,-92.1 3.22,-92.1 1.79,0 3.22,41.24 3.22,92.1 0,50.85 -1.43,92.08 -3.22,92.08z"/>
   <path class="fil5" d="M14262.74 10906.93c-0.96,-0.11 -0.07,-12.61 1.09,-32.72 0.93,-20.09 2.23,-47.98 -2.69,-78.08 -5.09,-30.08 -15.24,-56.18 -22.44,-75.03 -7.45,-18.8 -12.17,-30.44 -11.3,-30.83 0.74,-0.32 6.94,10.65 15.51,29.13 8.31,18.49 19.35,44.79 24.59,75.72 5.05,30.96 2.97,59.34 0.88,79.44 -2.33,20.17 -4.83,32.46 -5.64,32.37z"/>
   <path class="fil1" d="M17625.28 10704.95l-2381.49 0c-118.25,0 -214.12,-95.87 -214.12,-214.12l0 -524.66 -262.53 -233.07 262.53 0 2595.61 0c118.26,0 214.13,95.87 214.13,214.14l0 543.59c0,118.25 -95.87,214.12 -214.13,214.12z"/>
   <path class="fil7" d="M17594.82 10019.47c0,4.48 -519.95,8.12 -1161.18,8.12 -641.46,0 -1161.31,-3.64 -1161.31,-8.12 0,-4.47 519.85,-8.11 1161.31,-8.11 641.23,0 1161.18,3.64 1161.18,8.11z"/>
   <path class="fil7" d="M17594.82 10190.09c0,4.47 -519.95,8.1 -1161.18,8.1 -641.46,0 -1161.31,-3.63 -1161.31,-8.1 0,-4.49 519.85,-8.12 1161.31,-8.12 641.23,0 1161.18,3.63 1161.18,8.12z"/>
   <path class="fil7" d="M17594.82 10360.69c0,4.48 -519.95,8.12 -1161.18,8.12 -641.46,0 -1161.31,-3.64 -1161.31,-8.12 0,-4.48 519.85,-8.1 1161.31,-8.1 641.23,0 1161.18,3.62 1161.18,8.1z"/>
   <path class="fil7" d="M17594.82 6183.3c0,4.49 -519.95,8.12 -1161.18,8.12 -641.46,0 -1161.31,-3.63 -1161.31,-8.12 0,-4.47 519.85,-8.1 1161.31,-8.1 641.23,0 1161.18,3.63 1161.18,8.1z"/>
   <path class="fil7" d="M17594.82 6353.92c0,4.47 -519.95,8.11 -1161.18,8.11 -641.46,0 -1161.31,-3.64 -1161.31,-8.11 0,-4.48 519.85,-8.12 1161.31,-8.12 641.23,0 1161.18,3.64 1161.18,8.12z"/>
   <path class="fil7" d="M17594.82 6558.94c0,4.47 -519.95,8.1 -1161.18,8.1 -641.46,0 -1161.31,-3.63 -1161.31,-8.1 0,-4.49 519.85,-8.12 1161.31,-8.12 641.23,0 1161.18,3.63 1161.18,8.12z"/>
   <path class="fil5" d="M15284.87 3594.24c0,-67.99 52.21,-116.67 122.49,-116.67 39.01,0 71.56,14.19 92.82,39.98l-33.52 30.94c-15.15,-17.41 -34.17,-26.44 -56.71,-26.44 -42.23,0 -72.2,29.66 -72.2,72.19 0,42.55 29.97,72.2 72.2,72.2 22.54,0 41.56,-9.02 56.71,-26.74l33.52 30.94c-21.26,26.1 -53.81,40.28 -93.16,40.28 -69.94,0 -122.15,-48.66 -122.15,-116.68z"/>
   <path class="fil5" d="M15708.92 3607.78l0 99.28 -50.26 0 0 -91.54c0,-28.04 -12.9,-40.93 -35.14,-40.93 -24.18,0 -41.59,14.83 -41.59,46.73l0 85.74 -50.26 0 0 -239.15 50.26 0 0 83.8c13.54,-13.54 32.89,-20.63 55.12,-20.63 40.93,0 71.87,23.86 71.87,76.7z"/>
   <path class="fil5" d="M15907.67 3608.1l0 98.96 -47.03 0 0 -21.6c-9.37,15.8 -27.42,24.18 -52.88,24.18 -40.58,0 -64.77,-22.58 -64.77,-52.54 0,-30.62 21.6,-51.89 74.44,-51.89l39.98 0c0,-21.6 -12.89,-34.17 -39.98,-34.17 -18.36,0 -37.38,6.12 -49.95,16.12l-18.04 -35.13c19.02,-13.54 47.06,-20.95 74.79,-20.95 52.84,0 83.44,24.5 83.44,77.02zm-50.26 44.16l0 0 0 -17.72 -34.5 0c-23.52,0 -30.94,8.7 -30.94,20.31 0,12.57 10.65,20.95 28.36,20.95 16.76,0 31.27,-7.75 37.08,-23.54z"/>
   <path class="fil5" d="M16064.9 3698.67c-10.31,7.41 -25.46,10.97 -40.94,10.97 -40.93,0 -64.78,-20.96 -64.78,-62.22l0 -71.22 -26.74 0 0 -38.68 26.74 0 0 -42.21 50.29 0 0 42.21 43.18 0 0 38.68 -43.18 0 0 70.59c0,14.82 8.03,22.88 21.57,22.88 7.42,0 14.85,-2.25 20.33,-6.46l13.53 35.46z"/>
   <path class="fil5" d="M16953.96 3941.76c0,4.48 -530.95,8.11 -1185.77,8.11 -655.04,0 -1185.88,-3.63 -1185.88,-8.11 0,-4.48 530.84,-8.11 1185.88,-8.11 654.82,0 1185.77,3.63 1185.77,8.11z"/>
   <path class="fil5" d="M18059.99 3539c0,30.5 -24.71,55.22 -55.21,55.22 -30.49,0 -55.22,-24.72 -55.22,-55.22 0,-30.49 24.73,-55.22 55.22,-55.22 30.5,0 55.21,24.73 55.21,55.22z"/>
   <path class="fil5" d="M18059.99 3699.94c0,30.49 -24.71,55.21 -55.21,55.21 -30.49,0 -55.22,-24.72 -55.22,-55.21 0,-30.5 24.73,-55.22 55.22,-55.22 30.5,0 55.21,24.72 55.21,55.22z"/>
   <path class="fil5" d="M18059.99 3860.87c0,30.49 -24.71,55.21 -55.21,55.21 -30.49,0 -55.22,-24.72 -55.22,-55.21 0,-30.5 24.73,-55.22 55.22,-55.22 30.5,0 55.21,24.72 55.21,55.22z"/>
   <path class="fil5" d="M13520.47 3725.93c-3.23,0 -6.46,-0.97 -9.22,-3.01l-146.22 -107.23c-4.02,-2.95 -6.39,-7.64 -6.36,-12.63 0.03,-4.99 2.43,-9.67 6.48,-12.57l146.22 -105.21c6.91,-5 16.7,-3.45 21.75,3.55 5.02,6.98 3.44,16.71 -3.56,21.74l-128.82 92.68 128.95 94.54c6.93,5.1 8.42,14.85 3.34,21.78 -3.04,4.15 -7.79,6.36 -12.56,6.36z"/>
   <path class="fil8" d="M18032.28 8267.11c0,385.11 -312.86,697.3 -698.79,697.3 -385.93,0 -698.79,-312.19 -698.79,-697.3 0,-385.1 312.86,-697.29 698.79,-697.29 385.93,0 698.79,312.19 698.79,697.29z"/>
   <path class="fil5" d="M17524.78 8679.08l-367.46 0c-26.18,0 -47.4,-21.23 -47.4,-47.41 0,-26.18 21.22,-47.41 47.4,-47.41l367.46 0c26.19,0 47.41,21.23 47.41,47.41 0,26.18 -21.22,47.41 -47.41,47.41z"/>
   <polygon class="fil5" points="17361.83,7976.89 17329.54,7976.89 17329.54,7813.66 17361.83,7813.66 "/>
   <path class="fil12" d="M16964.08 8371.55c0,52.39 -42.47,94.86 -94.85,94.86 -52.38,0 -94.85,-42.47 -94.85,-94.86 0,-52.38 42.47,-94.85 94.85,-94.85 52.38,0 94.85,42.47 94.85,94.85z"/>
   <path class="fil12" d="M17921.68 8365.31c0,52.39 -42.46,94.84 -94.85,94.84 -52.38,0 -94.84,-42.45 -94.84,-94.84 0,-52.39 42.46,-94.85 94.84,-94.85 52.39,0 94.85,42.46 94.85,94.85z"/>
   <path class="fil12" d="M17359.8 7942.74c0,0 385.67,-4.64 446.73,329.4 61.05,334.05 -265.12,340.29 -358.92,346.62 -42.54,2.86 -133.54,3.16 -213.85,1.76 -177.78,-3.08 -303.41,-37.49 -346.16,-202.44 -4.98,-19.23 -8.35,-38.98 -9.6,-59.08 -11.32,-180.77 111.06,-425.16 481.8,-416.26z"/>
   <path class="fil5" d="M17080.01 8451.51l560.31 8.75c58.74,0.91 107.09,-45.96 108,-104.68 0.92,-58.74 -45.94,-107.09 -104.68,-108l-560.31 -8.76c-58.73,-0.91 -107.09,45.96 -108.01,104.69 -0.92,58.73 45.96,107.08 104.69,108z"/>
   <path class="fil7" d="M17524.05 8343.97c3.62,18.51 21.56,30.57 40.06,26.94 18.5,-3.62 30.56,-21.56 26.93,-40.06 -3.62,-18.49 -21.55,-30.55 -40.05,-26.92 -18.5,3.62 -30.56,21.54 -26.94,40.04z"/>
   <path class="fil7" d="M17132.6 8337.73c3.63,18.5 21.57,30.56 40.07,26.94 18.49,-3.63 30.55,-21.56 26.92,-40.06 -3.62,-18.5 -21.55,-30.56 -40.05,-26.94 -18.5,3.63 -30.56,21.56 -26.94,40.06z"/>
   <path class="fil12" d="M17398.89 7810.4c0,29.39 -23.82,53.21 -53.21,53.21 -29.38,0 -53.2,-23.82 -53.2,-53.21 0,-29.38 23.82,-53.21 53.2,-53.21 29.39,0 53.21,23.83 53.21,53.21z"/>
   <path class="fil7" d="M17425.93 8328.24c0.92,-0.15 2.43,2.63 3.4,8.17 1.01,5.52 0.84,13.89 -2.05,23.68 -2.85,9.79 -8.88,20.8 -18.72,30.36 -9.7,9.54 -23.79,17.39 -40.14,19.04 -16.39,1.34 -31.66,-3.83 -42.94,-11.45 -11.41,-7.62 -19.34,-17.36 -23.91,-26.47 -4.62,-9.11 -6.3,-17.31 -6.31,-22.92 -0.05,-5.62 0.93,-8.63 1.86,-8.65 2.42,-0.19 3.21,11.81 13.39,26.19 4.96,7.17 12.43,14.62 22.18,20.33 9.7,5.73 21.9,9.27 34.38,8.28 12.46,-1.29 23.81,-6.97 32.31,-14.37 8.56,-7.38 14.56,-16.07 18.14,-24 7.4,-16 6,-27.95 8.41,-28.19z"/>
   <path class="fil5" d="M17805.65 8261.23c0.2,-0.06 1.27,2.87 3.04,8.25 0.93,2.67 1.97,5.98 2.92,9.9 0.98,3.89 2.27,8.3 3.17,13.3 2.15,9.89 3.86,21.88 4.91,35.25 0.84,13.39 0.92,28.17 -0.38,43.61 -1.44,15.42 -4.12,29.97 -7.31,42.99 -3.39,12.99 -7.18,24.48 -11.04,33.85 -1.76,4.75 -3.81,8.87 -5.46,12.53 -1.63,3.69 -3.23,6.76 -4.61,9.23 -2.69,4.98 -4.28,7.69 -4.45,7.59 -0.18,-0.1 1.05,-2.99 3.42,-8.1 1.21,-2.54 2.66,-5.67 4.13,-9.39 1.5,-3.71 3.4,-7.85 5.01,-12.62 3.61,-9.38 7.15,-20.85 10.35,-33.73 3.02,-12.95 5.59,-27.34 7.02,-42.62 1.29,-15.28 1.29,-29.9 0.6,-43.16 -0.89,-13.26 -2.36,-25.16 -4.25,-35.04 -0.75,-4.98 -1.89,-9.38 -2.71,-13.31 -0.8,-3.92 -1.67,-7.25 -2.42,-9.97 -1.43,-5.44 -2.13,-8.5 -1.94,-8.56z"/>
   <path class="fil5" d="M16891.94 8263.3c-0.19,-0.06 -1.27,2.87 -3.05,8.25 -0.91,2.69 -1.96,5.99 -2.9,9.9 -0.99,3.9 -2.28,8.3 -3.17,13.3 -2.16,9.9 -3.87,21.88 -4.91,35.25 -0.85,13.39 -0.93,28.17 0.37,43.61 1.44,15.43 4.12,29.97 7.31,43 3.38,12.99 7.17,24.48 11.05,33.85 1.75,4.76 3.8,8.86 5.46,12.53 1.62,3.68 3.23,6.76 4.61,9.23 2.69,4.98 4.26,7.68 4.44,7.58 0.18,-0.09 -1.05,-2.98 -3.42,-8.09 -1.21,-2.54 -2.66,-5.67 -4.12,-9.39 -1.51,-3.71 -3.41,-7.84 -5.03,-12.62 -3.59,-9.39 -7.14,-20.84 -10.35,-33.74 -3.02,-12.94 -5.58,-27.34 -7,-42.61 -1.29,-15.28 -1.3,-29.91 -0.61,-43.17 0.88,-13.25 2.36,-25.15 4.25,-35.03 0.75,-4.98 1.89,-9.39 2.72,-13.31 0.78,-3.92 1.66,-7.25 2.41,-9.97 1.43,-5.45 2.14,-8.5 1.94,-8.57z"/>
   <path class="fil12" d="M16975.31 8865.87c0,0 114.47,-111.97 354.23,-111.97 239.77,0 362.25,111.97 362.25,111.97 0,0 -333.99,225.66 -716.48,0z"/>
   <path class="fil1" d="M13509.67 8978.04l2381.49 0c118.25,0 214.12,-95.87 214.12,-214.13l0 -690.98 262.53 -233.07 -262.53 0 -2595.61 0c-118.26,0 -214.13,95.87 -214.13,214.12l0 709.93c0,118.26 95.87,214.13 214.13,214.13z"/>
   <path class="fil7" d="M15785.56 8177.68c0,4.48 -490.49,8.11 -1095.41,8.11 -605.13,0 -1095.52,-3.63 -1095.52,-8.11 0,-4.48 490.39,-8.11 1095.52,-8.11 604.92,0 1095.41,3.63 1095.41,8.11z"/>
   <path class="fil7" d="M15785.56 8362.67c0,4.49 -490.49,8.12 -1095.41,8.12 -605.13,0 -1095.52,-3.63 -1095.52,-8.12 0,-4.48 490.39,-8.11 1095.52,-8.11 604.92,0 1095.41,3.63 1095.41,8.11z"/>
   <path class="fil7" d="M15785.56 8547.66c0,4.49 -490.49,8.12 -1095.41,8.12 -605.13,0 -1095.52,-3.63 -1095.52,-8.12 0,-4.48 490.39,-8.11 1095.52,-8.11 604.92,0 1095.41,3.63 1095.41,8.11z"/>
   <path class="fil7" d="M15785.56 8732.65c0,4.49 -490.49,8.12 -1095.41,8.12 -605.13,0 -1095.52,-3.63 -1095.52,-8.12 0,-4.48 490.39,-8.11 1095.52,-8.11 604.92,0 1095.41,3.63 1095.41,8.11z"/>
   <path class="fil8" d="M18032.28 12138.83c0,385.11 -312.86,697.3 -698.79,697.3 -385.93,0 -698.79,-312.19 -698.79,-697.3 0,-385.12 312.86,-697.31 698.79,-697.31 385.93,0 698.79,312.19 698.79,697.31z"/>
   <path class="fil5" d="M17524.78 12550.81l-367.46 0c-26.18,0 -47.4,-21.23 -47.4,-47.43 0,-26.18 21.22,-47.41 47.4,-47.41l367.46 0c26.19,0 47.41,21.23 47.41,47.41 0,26.2 -21.22,47.43 -47.41,47.43z"/>
   <polygon class="fil5" points="17361.83,11848.59 17329.54,11848.59 17329.54,11685.36 17361.83,11685.36 "/>
   <path class="fil12" d="M16964.08 12243.27c0,52.38 -42.47,94.85 -94.85,94.85 -52.38,0 -94.85,-42.47 -94.85,-94.85 0,-52.39 42.47,-94.85 94.85,-94.85 52.38,0 94.85,42.46 94.85,94.85z"/>
   <path class="fil12" d="M17921.68 12237.02c0,52.39 -42.46,94.86 -94.85,94.86 -52.38,0 -94.84,-42.47 -94.84,-94.86 0,-52.38 42.46,-94.85 94.84,-94.85 52.39,0 94.85,42.47 94.85,94.85z"/>
   <path class="fil12" d="M17359.8 11814.44c0,0 385.67,-4.63 446.73,329.42 61.05,334.05 -265.12,340.29 -358.92,346.61 -42.54,2.87 -133.54,3.16 -213.85,1.77 -177.78,-3.08 -303.41,-37.5 -346.16,-202.44 -4.98,-19.24 -8.35,-38.98 -9.6,-59.07 -11.32,-180.79 111.06,-425.19 481.8,-416.29z"/>
   <path class="fil5" d="M17080.01 12323.22l560.31 8.75c58.74,0.92 107.09,-45.94 108,-104.68 0.92,-58.72 -45.94,-107.08 -104.68,-108l-560.31 -8.74c-58.73,-0.92 -107.09,45.94 -108.01,104.67 -0.92,58.74 45.96,107.09 104.69,108z"/>
   <path class="fil7" d="M17524.05 12215.7c3.62,18.49 21.56,30.55 40.06,26.93 18.5,-3.63 30.56,-21.56 26.93,-40.06 -3.62,-18.5 -21.55,-30.56 -40.05,-26.93 -18.5,3.62 -30.56,21.56 -26.94,40.06z"/>
   <path class="fil7" d="M17132.6 12209.45c3.63,18.5 21.57,30.55 40.07,26.93 18.49,-3.62 30.55,-21.56 26.92,-40.06 -3.62,-18.49 -21.55,-30.55 -40.05,-26.93 -18.5,3.63 -30.56,21.56 -26.94,40.06z"/>
   <path class="fil12" d="M17398.89 11682.11c0,29.38 -23.82,53.21 -53.21,53.21 -29.38,0 -53.2,-23.83 -53.2,-53.21 0,-29.39 23.82,-53.2 53.2,-53.2 29.39,0 53.21,23.81 53.21,53.2z"/>
   <path class="fil7" d="M17425.93 12199.95c0.92,-0.15 2.43,2.63 3.4,8.17 1.01,5.52 0.84,13.89 -2.05,23.68 -2.85,9.79 -8.88,20.8 -18.72,30.37 -9.7,9.53 -23.79,17.38 -40.14,19.04 -16.39,1.34 -31.66,-3.83 -42.94,-11.45 -11.41,-7.63 -19.34,-17.37 -23.91,-26.47 -4.62,-9.11 -6.3,-17.31 -6.31,-22.92 -0.05,-5.63 0.93,-8.64 1.86,-8.65 2.42,-0.2 3.21,11.81 13.39,26.2 4.96,7.15 12.43,14.61 22.18,20.32 9.7,5.73 21.9,9.27 34.38,8.28 12.46,-1.29 23.81,-6.98 32.31,-14.37 8.56,-7.38 14.56,-16.07 18.14,-24.01 7.4,-15.99 6,-27.94 8.41,-28.19z"/>
   <path class="fil5" d="M17805.65 12132.94c0.2,-0.06 1.27,2.88 3.04,8.25 0.93,2.69 1.97,5.99 2.92,9.9 0.98,3.9 2.27,8.31 3.17,13.3 2.15,9.9 3.86,21.88 4.91,35.25 0.84,13.39 0.92,28.17 -0.38,43.61 -1.44,15.43 -4.12,29.97 -7.31,43 -3.39,12.99 -7.18,24.48 -11.04,33.85 -1.76,4.76 -3.81,8.86 -5.46,12.53 -1.63,3.68 -3.23,6.75 -4.61,9.23 -2.69,4.98 -4.28,7.68 -4.45,7.58 -0.18,-0.09 1.05,-2.97 3.42,-8.09 1.21,-2.54 2.66,-5.67 4.13,-9.39 1.5,-3.71 3.4,-7.84 5.01,-12.61 3.61,-9.4 7.15,-20.85 10.35,-33.75 3.02,-12.93 5.59,-27.34 7.02,-42.61 1.29,-15.28 1.29,-29.91 0.6,-43.17 -0.89,-13.26 -2.36,-25.15 -4.25,-35.03 -0.75,-4.98 -1.89,-9.39 -2.71,-13.3 -0.8,-3.93 -1.67,-7.26 -2.42,-9.98 -1.43,-5.45 -2.13,-8.51 -1.94,-8.57z"/>
   <path class="fil5" d="M16891.94 12135.02c-0.19,-0.06 -1.27,2.87 -3.05,8.25 -0.91,2.68 -1.96,5.98 -2.9,9.9 -0.99,3.89 -2.28,8.31 -3.17,13.29 -2.16,9.91 -3.87,21.89 -4.91,35.27 -0.85,13.38 -0.93,28.16 0.37,43.6 1.44,15.43 4.12,29.97 7.31,43 3.38,12.98 7.17,24.47 11.05,33.84 1.75,4.76 3.8,8.87 5.46,12.53 1.62,3.69 3.23,6.76 4.61,9.23 2.69,4.98 4.26,7.68 4.44,7.59 0.18,-0.1 -1.05,-2.98 -3.42,-8.09 -1.21,-2.54 -2.66,-5.67 -4.12,-9.4 -1.51,-3.71 -3.41,-7.84 -5.03,-12.61 -3.59,-9.39 -7.14,-20.85 -10.35,-33.74 -3.02,-12.94 -5.58,-27.34 -7,-42.61 -1.29,-15.28 -1.3,-29.91 -0.61,-43.18 0.88,-13.24 2.36,-25.15 4.25,-35.03 0.75,-4.98 1.89,-9.39 2.72,-13.3 0.78,-3.93 1.66,-7.26 2.41,-9.98 1.43,-5.45 2.14,-8.5 1.94,-8.56z"/>
   <path class="fil12" d="M16975.31 12737.58c0,0 114.47,-111.97 354.23,-111.97 239.77,0 362.25,111.97 362.25,111.97 0,0 -333.99,225.68 -716.48,0z"/>
   <path class="fil1" d="M13509.67 12849.76l2381.49 0c118.25,0 214.12,-95.87 214.12,-214.13l0 -691 262.53 -233.07 -262.53 0 -2595.61 0c-118.26,0 -214.13,95.87 -214.13,214.13l0 709.94c0,118.26 95.87,214.13 214.13,214.13z"/>
   <path class="fil1" d="M13509.67 13930.25l2381.49 0c118.25,0 214.12,-95.86 214.12,-214.12l0 -228.97 262.53 -233.06 -262.53 0 -2595.61 0c-118.26,0 -214.13,95.86 -214.13,214.12l0 247.91c0,118.26 95.87,214.12 214.13,214.12z"/>
   <path class="fil7" d="M15785.56 12049.4c0,4.48 -490.49,8.11 -1095.41,8.11 -605.13,0 -1095.52,-3.63 -1095.52,-8.11 0,-4.48 490.39,-8.11 1095.52,-8.11 604.92,0 1095.41,3.63 1095.41,8.11z"/>
   <path class="fil7" d="M15785.56 12234.38c0,4.49 -490.49,8.12 -1095.41,8.12 -605.13,0 -1095.52,-3.63 -1095.52,-8.12 0,-4.47 490.39,-8.1 1095.52,-8.1 604.92,0 1095.41,3.63 1095.41,8.1z"/>
   <path class="fil7" d="M15785.56 12419.38c0,4.48 -490.49,8.11 -1095.41,8.11 -605.13,0 -1095.52,-3.63 -1095.52,-8.11 0,-4.48 490.39,-8.11 1095.52,-8.11 604.92,0 1095.41,3.63 1095.41,8.11z"/>
   <path class="fil7" d="M15785.56 12604.37c0,4.48 -490.49,8.11 -1095.41,8.11 -605.13,0 -1095.52,-3.63 -1095.52,-8.11 0,-4.48 490.39,-8.11 1095.52,-8.11 604.92,0 1095.41,3.63 1095.41,8.11z"/>
   <path class="fil7" d="M15792.35 13601.99c0,4.48 -485.34,8.11 -1083.89,8.11 -598.77,0 -1083.99,-3.63 -1083.99,-8.11 0,-4.49 485.22,-8.12 1083.99,-8.12 598.55,0 1083.89,3.63 1083.89,8.12z"/>
   <path class="fil13" d="M7823.23 13150.98c84.37,17.21 156.31,76.63 201.6,149.87 45.27,73.24 66.14,159.29 74.35,245.01 15.88,165.84 -41.6,348.78 -113.33,499.14 -161.54,-90.2 -236.81,-291.21 -268.58,-395.58 -50.23,-164.95 -40.82,-493.58 105.96,-498.44z"/>
   <path class="fil13" d="M8200.88 14278.8c-41.18,-86.93 -24.32,-195.39 32.72,-272.85 57.03,-77.45 149.6,-124.69 244.95,-137.35 44.09,-5.86 93.65,-3.11 126.04,27.36 30.29,28.49 37.53,75.65 26.31,115.68 -11.23,40.03 -38.15,73.88 -68.04,102.78 -102.5,99.13 -219.89,176.24 -361.98,164.38z"/>
   <path class="fil5" d="M8130.94 14812.36c-0.87,-0.01 -1.48,-12.22 -2.16,-34.26 -0.67,-24.31 -1.51,-55.71 -2.53,-93.42 -0.81,-78.34 -4.21,-190.11 32.1,-306.96 35.58,-116.43 100.02,-210.26 159.89,-262.7 29.61,-26.66 56.65,-44.5 76.22,-54.97 9.55,-5.64 17.67,-8.73 22.91,-11.27 5.34,-2.35 8.21,-3.4 8.39,-3.03 1.53,2.44 -44.85,21.31 -101.71,75.51 -57.27,53.08 -119.15,145.56 -154.17,260.03 -35.63,114.45 -33.76,224.96 -35.09,303.33 -0.29,39.43 -0.54,71.4 -1.32,93.48 -0.76,22.08 -1.73,34.28 -2.53,34.26z"/>
   <path class="fil5" d="M7838.18 13401.87c0.4,-0.1 2.03,4.79 4.74,14.18 2.92,10.65 6.67,24.31 11.3,41.22 9.6,35.85 22.83,87.89 38.64,152.34 31.62,128.89 72.83,307.57 113.88,505.87 40.99,198.37 74.06,378.76 96.15,509.61 11.07,65.43 19.57,118.45 24.98,155.16 2.44,17.36 4.43,31.39 5.97,42.32 1.24,9.7 1.68,14.82 1.28,14.89 -0.42,0.06 -1.66,-4.93 -3.68,-14.48 -2.12,-10.84 -4.85,-24.74 -8.21,-41.94 -7.06,-37.96 -16.81,-90.35 -28.74,-154.45 -24.24,-130.42 -58.61,-310.42 -99.57,-508.68 -41.03,-198.16 -80.89,-377.01 -110.37,-506.34 -14.49,-63.57 -26.32,-115.53 -34.89,-153.18 -3.73,-17.13 -6.75,-30.98 -9.1,-41.76 -1.95,-9.57 -2.78,-14.66 -2.38,-14.76z"/>
   <path class="fil14" d="M7985.75 14427.27c-72.45,-189.41 -241.96,-338.66 -439.01,-386.55 -50.18,-12.19 -112.71,-13.88 -143.01,27.93 -30.35,41.89 -9.06,101.06 19.27,144.34 117.85,180.08 352.31,275.25 562.33,228.27l0.42 -13.99z"/>
   <path class="fil5" d="M7601.31 14189.66c0.2,-0.8 11.41,1.54 31.61,6.51 10.12,2.41 22.5,5.42 36.38,10.52 13.87,5.06 30.26,9.4 47.15,17.31 17.11,7.36 36.07,15.03 55.2,25.78 19.76,9.62 39.61,22.09 60.43,35.35 40.92,27.51 83.48,61.71 122.48,103.39 38.61,42.05 69.63,87.01 93.77,130.05 11.41,21.91 22.32,42.67 30.11,63.24 9.05,20.02 14.98,39.61 20.67,57.35 6.33,17.56 8.98,34.32 12.64,48.62 3.72,14.33 5.42,26.96 6.74,37.28 2.8,20.61 3.95,32.01 3.12,32.12 -2.68,0.46 -7.55,-45.46 -30.63,-115.41 -6.13,-17.35 -12.43,-36.49 -21.75,-56.04 -8.06,-20.08 -19.14,-40.35 -30.61,-61.74 -24.28,-42.02 -55,-85.95 -92.91,-127.26 -38.31,-40.94 -79.89,-74.77 -119.81,-102.37 -20.34,-13.29 -39.69,-25.9 -58.96,-35.75 -18.66,-10.99 -37.17,-18.98 -53.86,-26.77 -67.46,-29.61 -112.48,-39.63 -111.77,-42.18z"/>
   <path class="fil15" d="M8591.39 5060.54l-115.31 -359.65c117.2,-190.26 184.96,-414.24 184.96,-654.1 0,-689.78 -559.19,-1248.97 -1248.98,-1248.97 -689.79,0 -1248.96,559.19 -1248.96,1248.97 0,689.79 559.17,1248.98 1248.96,1248.98 288.03,0 553.08,-97.76 764.36,-261.55l-0.43 0.56 415.4 25.76z"/>
   <path class="fil5" d="M8591.39 5060.54c0,0 -8.55,-0.17 -26.14,-1.05 -18.25,-0.95 -44.49,-2.31 -78.92,-4.1 -70.88,-3.91 -175,-9.65 -310.55,-17.11 -1.93,-0.11 -3.41,-1.77 -3.31,-3.69 0.05,-0.73 0.33,-1.43 0.74,-1.98l0.43 -0.55 4.94 4.94c-127.51,99.3 -316.58,206.7 -563.86,247.66 -61.48,10.35 -126.22,16.21 -193.32,16.7 -66.95,-2.76 -136.69,-3.01 -207.19,-16.51 -141.25,-22.08 -288.03,-70.03 -426.59,-149.53 -138.49,-79.16 -268.47,-189.68 -373.97,-328.08 -105.56,-138.08 -186.24,-304.2 -227.36,-485.98 -42.06,-181.47 -41.5,-378.5 4.97,-569.28 6.11,-23.78 12.24,-47.62 18.39,-71.54 7.03,-23.64 16.57,-46.57 24.78,-69.98 9.25,-23.02 15.44,-47.39 27.3,-69.44 10.83,-22.49 21.69,-45.03 32.57,-67.64 10.01,-23.07 23.61,-44.27 36.72,-65.8l39.47 -64.71 45.59 -60.99 22.88 -30.6c7.82,-10.05 16.94,-19.05 25.37,-28.64 137.25,-156.14 308.73,-278.47 496.37,-347.94 186.68,-71.5 385.18,-96.13 573.57,-78.48 188.69,17.96 365.92,80.47 517.32,170.59 151.74,90.3 277.67,208.77 372.79,339.11 95.47,130.41 160.04,272.44 197.64,411.63 20.56,69.4 29.27,138.98 38.49,205.8 2.9,67.44 8.56,132.48 3.62,194.97 -14.8,250.98 -101.22,449.63 -185.18,584.33l0.34 -2.79c36.66,117.3 64.89,207.63 84.15,269.26 9.23,29.88 16.28,52.69 21.2,68.61 4.7,15.32 6.75,22.81 6.75,22.81 0,0 -3,-8.23 -8.22,-23.82 -5.31,-16.03 -12.93,-38.98 -22.92,-69.06 -20,-60.82 -49.31,-149.97 -87.38,-265.74 -0.31,-0.96 -0.15,-2.01 0.34,-2.81 82.34,-134.72 166.83,-332.46 180.35,-581.39 4.63,-61.98 -1.3,-126.46 -4.41,-193.25 -9.43,-66.19 -18.29,-135.07 -38.9,-203.72 -37.73,-137.71 -102.06,-278.05 -196.83,-406.8 -94.43,-128.69 -219.21,-245.54 -369.32,-334.49 -149.81,-88.79 -324.94,-150.26 -511.33,-167.77 -186.12,-17.21 -382.08,7.3 -566.3,77.97 -185.19,68.67 -354.39,189.51 -489.91,343.63 -8.31,9.47 -17.33,18.34 -25.05,28.27l-22.57 30.2 -45.03 60.2 -38.95 63.88c-12.96,21.25 -26.41,42.16 -36.27,64.94 -10.75,22.31 -21.47,44.55 -32.16,66.75 -11.75,21.75 -17.82,45.83 -26.98,68.52 -8.11,23.12 -17.56,45.74 -24.51,69.07 -6.07,23.61 -12.12,47.15 -18.16,70.62 -46,188.27 -46.75,382.9 -5.4,562.13 40.39,179.56 119.83,343.76 223.9,480.42 104.01,136.99 232.27,246.54 369.05,325.18 136.86,78.98 281.93,126.87 421.71,149.19 69.76,13.64 138.84,14.1 205.18,17.12 66.49,-0.22 130.67,-5.75 191.67,-15.76 245.32,-39.49 433.64,-144.89 561.27,-242.58 1.54,-1.2 3.75,-0.93 4.94,0.61 1.01,1.28 0.95,3.08 0,4.32l-0.42 0.55 -2.56 -5.66c134.35,9.28 237.56,16.41 307.83,21.27 34.81,2.5 61.34,4.41 79.79,5.74 18.01,1.33 27.55,2.27 27.55,2.27z"/>
   <path class="fil5" d="M7060.06 4046.38c0,70.08 -56.8,126.88 -126.86,126.88 -70.1,0 -126.9,-56.8 -126.9,-126.88 0,-70.08 56.8,-126.88 126.9,-126.88 70.06,0 126.86,56.8 126.86,126.88z"/>
   <path class="fil5" d="M7567.82 4046.38c0,70.08 -56.81,126.88 -126.88,126.88 -70.07,0 -126.88,-56.8 -126.88,-126.88 0,-70.08 56.81,-126.88 126.88,-126.88 70.07,0 126.88,56.8 126.88,126.88z"/>
   <path class="fil5" d="M8074.29 3982.94c35.03,60.69 14.24,138.29 -46.45,173.32 -60.69,35.04 -138.29,14.26 -173.32,-46.43 -35.04,-60.7 -14.25,-138.3 46.43,-173.34 60.7,-35.03 138.3,-14.24 173.34,46.45z"/>
   <path class="fil12" d="M8124.68 9650.81l-1313.64 -137.22 -554.31 -1261.4 -431.78 112.64c0,0 319.14,1332.91 675.84,1539.42 356.69,206.51 1576.96,244.06 1576.96,244.06l46.93 -497.5z"/>
   <path class="fil5" d="M7805.54 9904.25c0,321.42 260.54,581.97 581.97,581.97 321.41,0 581.97,-260.55 581.97,-581.97 0,-321.42 -260.56,-581.97 -581.97,-581.97 -321.43,0 -581.97,260.55 -581.97,581.97z"/>
   <path class="fil5" d="M8387.51 10487.02c-155.66,0 -302,-60.64 -412.07,-170.71 -110.06,-110.04 -170.68,-256.38 -170.68,-412.05 0,-155.69 60.62,-302.02 170.68,-412.07 110.07,-110.07 256.41,-170.7 412.07,-170.7 155.66,0 302,60.63 412.07,170.7 110.06,110.05 170.67,256.42 170.67,412.07 0,155.64 -60.61,302.01 -170.67,412.05 -110.07,110.07 -256.41,170.71 -412.07,170.71zm0 -1163.95l0 0c-155.25,0 -301.19,60.46 -410.98,170.22 -109.76,109.77 -170.22,255.71 -170.22,410.97 0,155.24 60.46,301.18 170.22,410.95 109.79,109.77 255.73,170.22 410.98,170.22 155.23,0 301.19,-60.45 410.96,-170.22 109.78,-109.77 170.24,-255.71 170.24,-410.95 0,-155.26 -60.46,-301.2 -170.24,-410.97 -109.77,-109.76 -255.73,-170.22 -410.96,-170.22z"/>
   <path class="fil5" d="M6156.41 9579.91c0,241.06 195.41,436.48 436.47,436.48 241.07,0 436.49,-195.42 436.49,-436.48 0,-241.06 -195.42,-436.48 -436.49,-436.48 -241.06,0 -436.47,195.42 -436.47,436.48z"/>
   <path class="fil5" d="M5652.7 8102.32c0,196.95 159.66,356.62 356.63,356.62 196.95,0 356.62,-159.67 356.62,-356.62 0,-196.95 -159.67,-356.62 -356.62,-356.62 -196.97,0 -356.63,159.67 -356.63,356.62z"/>
   <path class="fil5" d="M6272.17 8156.92l293.19 -247.6c32.25,-27.23 36.32,-75.46 9.08,-107.71l-7.22 -8.55c-27.23,-32.25 -75.46,-36.31 -107.71,-9.07l-293.19 247.6 105.85 125.33z"/>
   <path class="fil5" d="M6192.26 7827.64l0 -372.74c0,-42.21 -34.22,-76.43 -76.43,-76.43l-11.19 0c-42.21,0 -76.43,34.22 -76.43,76.43l0 372.74c0,6.08 4.93,11.02 11.02,11.02l142.01 0c6.09,0 11.02,-4.94 11.02,-11.02z"/>
   <path class="fil5" d="M6009.21 7820.1l-81.37 -363.73c-9.22,-41.2 -50.08,-67.12 -91.28,-57.91l-10.92 2.45c-41.19,9.21 -67.11,50.08 -57.9,91.27l81.38 363.74c1.32,5.95 7.21,9.68 13.15,8.36l138.59 -31.01c5.94,-1.33 9.68,-7.22 8.35,-13.17z"/>
   <path class="fil5" d="M5829.66 7870.28l-186.37 -322.8c-21.1,-36.56 -67.85,-49.08 -104.41,-27.97l-9.68 5.59c-36.56,21.1 -49.09,67.85 -27.98,104.41l186.37 322.79c3.04,5.28 9.78,7.09 15.05,4.04l122.99 -71c5.27,-3.05 7.08,-9.79 4.03,-15.06z"/>
   <polygon class="fil12" points="14220.38,12750.32 13827.7,12917.33 12694.42,10252.68 13087.1,10085.67 "/>
   <path class="fil5" d="M13255.49 10136.5c94.73,-307.13 -77.46,-632.91 -384.59,-727.64 -307.14,-94.73 -632.91,77.45 -727.64,384.59 -94.73,307.14 77.46,632.92 384.6,727.66 307.13,94.73 632.9,-77.47 727.63,-384.61z"/>
   <path class="fil5" d="M12700.1 10548.01c-57.72,0 -115.74,-8.67 -172.47,-26.19 -148.74,-45.85 -270.72,-146.92 -343.47,-284.52 -72.74,-137.61 -87.52,-295.32 -41.64,-444.09 45.88,-148.74 146.93,-270.71 284.55,-343.45 137.65,-72.71 295.32,-87.53 444.06,-41.63 148.74,45.85 270.72,146.92 343.46,284.53 72.74,137.6 87.52,295.32 41.64,444.09 -45.87,148.74 -146.91,270.71 -284.55,343.45 -85.12,44.97 -177.94,67.81 -271.58,67.81zm-1.47 -1164.48l0 0c-93.36,0 -185.94,22.75 -270.85,67.63 -137.24,72.52 -238.02,194.19 -283.77,342.53 -45.76,148.34 -31,305.64 41.54,442.87 72.55,137.25 194.19,238.04 342.54,283.8 148.37,45.72 305.65,31 442.86,-41.56 137.28,-72.53 238.04,-194.2 283.83,-342.54l0.72 0.25 -0.72 -0.25c45.72,-148.34 30.97,-305.64 -41.56,-442.87 -72.56,-137.24 -194.19,-238.04 -342.57,-283.79 -56.55,-17.43 -114.45,-26.07 -172.02,-26.07z"/>
   <path class="fil5" d="M13874.49 11716.01c71.05,-230.36 -58.1,-474.69 -288.45,-545.74 -230.35,-71.04 -474.69,58.09 -545.73,288.45 -71.05,230.35 58.09,474.69 288.44,545.73 230.36,71.05 474.7,-58.09 545.74,-288.44z"/>
   <path class="fil5" d="M14453.47 12832.62c-62.36,-186.82 -264.37,-287.72 -451.19,-225.36 -186.82,62.37 -287.72,264.37 -225.36,451.19 62.36,186.83 264.37,287.73 451.2,225.36 186.82,-62.36 287.71,-264.36 225.35,-451.19z"/>
   <path class="fil5" d="M13848.58 12976.97l-199.7 327.69c-21.97,36.05 -10.56,83.08 25.48,105.05l9.56 5.82c36.05,21.97 83.07,10.56 105.04,-25.49l199.71 -327.7 -140.09 -85.37z"/>
   <path class="fil5" d="M14028.64 13264.02l118.02 353.56c13.37,40.04 56.66,61.66 96.7,48.3l10.61 -3.54c40.04,-13.37 61.67,-56.67 48.3,-96.71l-118.02 -353.55c-1.92,-5.78 -8.16,-8.9 -13.94,-6.97l-134.71 44.97c-5.76,1.92 -8.88,8.17 -6.96,13.94z"/>
   <path class="fil5" d="M14204.66 13213.2l192.36 319.26c21.78,36.17 68.76,47.82 104.91,26.03l9.58 -5.78c36.16,-21.78 47.81,-68.75 26.03,-104.91l-192.36 -319.26c-3.14,-5.21 -9.92,-6.89 -15.13,-3.76l-121.63 73.29c-5.22,3.14 -6.9,9.92 -3.76,15.13z"/>
   <path class="fil5" d="M14359.09 13108.76l278.98 247.18c31.6,28 79.9,25.08 107.89,-6.52l7.43 -8.37c27.99,-31.59 25.07,-79.9 -6.52,-107.89l-278.99 -247.19c-4.56,-4.04 -11.52,-3.61 -15.55,0.94l-94.19 106.29c-4.03,4.56 -3.61,11.53 0.95,15.56z"/>
   <path class="fil12" d="M8213.4 9298.9c0,0 41.99,4085.27 2334.63,4165.19 2292.62,79.92 2388.7,-4135.96 2388.7,-4165.19 0,0 -270.76,-609.26 -2361.65,-585.42 -2090.91,23.84 -2361.68,585.42 -2361.68,585.42z"/>
   <path class="fil5" d="M9501.53 8579.6l1937.88 0c126.45,0 228.96,-102.52 228.96,-228.97l0 -33.51c0,-126.46 -102.51,-228.96 -228.96,-228.96l-1937.88 0c-126.45,0 -228.96,102.5 -228.96,228.96l0 33.51c0,126.45 102.51,228.97 228.96,228.97z"/>
   <polygon class="fil5" points="10387.26,4946.82 10554.56,4946.82 10554.56,4100.87 10387.26,4100.87 "/>
   <path class="fil12" d="M12424.13 6985.81c0,271.48 220.08,491.56 491.56,491.56 271.49,0 491.57,-220.08 491.57,-491.56 0,-271.49 -220.08,-491.58 -491.57,-491.58 -271.48,0 -491.56,220.09 -491.56,491.58z"/>
   <path class="fil12" d="M7461.31 6953.44c0,271.48 220.07,491.57 491.56,491.57 271.49,0 491.57,-220.09 491.57,-491.57 0,-271.49 -220.08,-491.57 -491.57,-491.57 -271.49,0 -491.56,220.08 -491.56,491.57z"/>
   <path class="fil12" d="M10373.33 4763.41c0,0 -1998.8,-24.03 -2315.21,1707.19 -316.41,1731.22 1373.94,1763.54 1860.09,1796.34 220.47,14.87 692.1,16.4 1108.3,9.18 921.39,-16 1572.46,-194.34 1794,-1049.16 25.83,-99.68 43.26,-202.04 49.77,-306.17 58.59,-936.92 -575.61,-2203.51 -2496.95,-2157.38z"/>
   <path class="fil5" d="M11823.35 7400.18l-2903.88 45.34c-304.37,4.76 -554.96,-238.13 -559.72,-542.51 -4.75,-304.38 238.14,-554.97 542.52,-559.72l2903.88 -45.33c304.36,-4.76 554.96,238.13 559.71,542.51 4.75,304.36 -238.14,554.96 -542.51,559.71z"/>
   <path class="fil7" d="M9522.05 6842.9c-18.78,95.86 -111.73,158.35 -207.59,139.57 -95.87,-18.77 -158.37,-111.73 -139.59,-207.59 18.79,-95.87 111.73,-158.36 207.6,-139.57 95.87,18.77 158.36,111.72 139.58,207.59z"/>
   <path class="fil7" d="M11550.74 6810.53c-18.77,95.87 -111.72,158.36 -207.59,139.57 -95.86,-18.78 -158.36,-111.72 -139.57,-207.58 18.77,-95.87 111.72,-158.37 207.58,-139.59 95.87,18.79 158.36,111.73 139.58,207.6z"/>
   <path class="fil5" d="M11258.82 10921.33c-31.82,435.4 -410.57,762.56 -845.97,730.74 -435.4,-31.83 -762.57,-410.59 -730.74,-845.99 31.82,-435.4 410.58,-762.55 845.98,-730.73 435.41,31.82 762.57,410.57 730.73,845.98z"/>
   <path class="fil7" d="M11044.95 10905.69c-23.19,317.28 -299.21,555.68 -616.47,532.49 -317.28,-23.19 -555.68,-299.19 -532.49,-616.47 23.19,-317.28 299.2,-555.67 616.47,-532.48 317.27,23.19 555.68,299.2 532.49,616.46z"/>
   <path class="fil0" d="M10767.18 11010.39c-2.21,-1.33 -3.9,-35.44 -5.34,-95.01 -1.42,-59.6 -2.6,-144.46 -2.7,-248.21l6.35 11.39c-86.26,-50.32 -186.71,-108.9 -296.36,-172.85l16.55 0.24c-93,52.26 -193.81,108.91 -299.04,168.04 -8.09,13.49 10.89,-18.33 8.94,-15.02l0 0.09 0 0.17 0 0.35 -0.01 0.71 -0.02 1.41 -0.04 2.83 -0.09 5.63 -0.16 11.26 -0.34 22.43 -0.71 44.46c-0.48,29.46 -0.98,58.57 -1.45,87.25 -1.11,57.22 -2.17,112.8 -3.18,166.38l-8.07 -14.44c108.33,66.18 207.05,126.48 292.77,178.87l-13.04 -0.2c91.38,-49.15 166.64,-88.38 219.77,-115.41 53.13,-26.98 83.95,-41.68 86.17,-40.37 2.22,1.31 -24.34,18.65 -74.84,49.48 -50.45,30.76 -124.97,75.13 -218.39,129.1l-6.39 3.7 -6.67 -3.89c-86.75,-50.61 -186.7,-108.89 -296.36,-172.85l-8.17 -4.77 0.09 -9.7c0.54,-53.6 1.11,-109.18 1.69,-166.4 0.35,-28.7 0.71,-57.79 1.08,-87.25l0.61 -44.47 0.31 -22.43 0.16 -11.26 0.08 -5.64 0.04 -2.82 0.02 -1.41 0 -0.72 0.01 -0.34 0.01 -0.18 0 -0.08c-1.98,3.24 17.07,-28.62 9.05,-15.15 105.58,-58.51 206.73,-114.56 300.04,-166.27l8.47 -4.7 8.08 4.93c108.32,66.17 207.55,126.8 292.78,178.87l6.58 4.02 -0.22 7.39c-3.18,107.82 -6.88,194.48 -10.02,253.49 -3.19,59.07 -5.83,90.69 -8.04,89.35z"/>
   <path class="fil12" d="M10195.17 4084c0,152.29 123.45,275.75 275.74,275.75 152.29,0 275.74,-123.46 275.74,-275.75 0,-152.29 -123.45,-275.75 -275.74,-275.75 -152.29,0 -275.74,123.46 -275.74,275.75z"/>
   <path class="fil7" d="M10030.55 6761.31c13.15,1.42 6.59,63.27 45.2,145.51 18.66,40.85 49.71,85.5 93.9,123.43 43.84,37.97 102.2,67.1 166.17,73.72 64.12,5.09 126.81,-12.99 176.81,-42.4 50.34,-29.29 88.96,-67.58 114.71,-104.37 52.87,-73.89 57.62,-135.9 70.81,-134.91 5.14,0.1 10.52,15.71 10.54,44.99 0.18,29.21 -8.3,71.94 -32.18,119.46 -23.63,47.49 -64.82,98.33 -124.18,138.16 -58.72,39.8 -138.37,66.85 -223.9,59.85 -85.36,-8.63 -158.77,-49.65 -209.3,-99.41 -51.15,-49.94 -82.45,-107.38 -97.08,-158.36 -14.88,-51.06 -15.49,-94.64 -10.01,-123.33 5.32,-28.79 13.43,-43.17 18.51,-42.34z"/>
   <path class="fil5" d="M12691.87 7568.61c-2.94,-1.7 32.9,-56.07 67.38,-154.24 35.41,-97.65 66.28,-238.97 81.06,-397.04 15.8,-158.18 13.4,-302.53 9.35,-406.59 -2.41,-52.05 -4.86,-94.21 -7.21,-123.29 -2.08,-29.11 -2.71,-45.28 -1.6,-45.42 1.12,-0.14 3.86,15.8 7.89,44.78 4.28,28.95 8.48,71.09 12.37,123.28 7,104.31 11.26,249.49 -4.64,408.8 -14.88,159.18 -47.87,301.71 -86.45,399.44 -18.74,49.07 -38.1,87.1 -52.91,112.37 -15.38,25.04 -24.29,38.51 -25.24,37.91z"/>
   <path class="fil5" d="M8062.65 6414.04c1.06,0.34 -2.52,16.19 -9.87,44.45 -3.85,14.09 -8.36,31.36 -12.44,51.7 -4.24,20.29 -10.14,43.14 -14.02,68.94 -9.73,51.21 -17.34,112.86 -21.89,181.53 -3.56,68.73 -3.5,144.5 3.16,223.66 7.38,79.12 20.66,153.73 36.28,220.78 16.58,66.8 34.92,126.16 53.52,174.84 8.35,24.72 18.19,46.17 25.95,65.4 7.59,19.3 15.06,35.51 21.34,48.69 12.21,26.53 18.52,41.5 17.53,42.03 -0.98,0.52 -9.18,-13.44 -23.2,-39.24 -7.17,-12.81 -15.52,-28.72 -23.96,-47.79 -8.59,-18.99 -19.24,-40.29 -28.35,-64.95 -20.13,-48.55 -39.8,-108.1 -57.35,-175.4 -16.58,-67.54 -30.46,-142.93 -37.92,-222.92 -6.74,-80.04 -6.35,-156.68 -1.92,-226.06 5.42,-69.33 14.3,-131.42 25.55,-182.77 4.64,-25.86 11.37,-48.71 16.48,-68.91 4.95,-20.27 10.37,-37.39 15.18,-51.27 9.25,-27.87 14.86,-43.06 15.93,-42.71z"/>
   <path class="fil16" d="M8203.87 9295.25c0.1,-0.25 4.17,0.93 12.03,3.51 8.56,2.91 20.06,6.82 34.71,11.81 31.22,11 75.82,26.73 132.86,46.85 28.88,10.3 60.88,21.73 95.84,34.21 35.28,11.79 74.17,22.9 115.63,35.81 83.25,24.72 176.93,56.72 283.41,81.77 52.96,13.58 108.42,27.82 166.18,42.64 57.84,14.55 119.02,25.39 181.8,39.02 125.33,28.79 261.32,48.35 403.93,71.44 286.27,38.89 603.32,65.56 936.89,67 333.67,-1.36 650.81,-27.99 937.13,-66.84 142.64,-23.06 278.64,-42.61 403.98,-71.38 62.79,-13.62 123.98,-24.45 181.82,-39 57.77,-14.81 113.23,-29.02 166.19,-42.61 106.48,-25.03 200.16,-57.01 283.41,-81.73 41.46,-12.9 80.35,-24 115.63,-35.78 34.96,-12.48 66.96,-23.9 95.83,-34.19 57.04,-20.1 101.63,-35.82 132.85,-46.82 14.65,-4.98 26.15,-8.89 34.71,-11.79 7.85,-2.57 11.92,-3.77 12.03,-3.51 0.1,0.27 -3.78,1.97 -11.43,5.05 -8.42,3.28 -19.72,7.68 -34.14,13.3 -30.99,11.68 -75.27,28.38 -131.89,49.72 -28.77,10.71 -60.64,22.59 -95.48,35.56 -35.17,12.24 -73.97,23.77 -115.36,37.11 -83.1,25.57 -176.71,58.38 -283.19,84.17 -52.98,13.92 -108.46,28.5 -166.25,43.7 -57.88,14.9 -119.12,26.06 -181.98,39.99 -125.49,29.4 -261.69,49.49 -404.6,73.01 -286.86,39.75 -604.77,66.9 -939.26,68.27 -334.39,-1.43 -652.21,-28.63 -939.02,-68.43 -142.88,-23.55 -279.07,-43.66 -404.54,-73.07 -62.85,-13.94 -124.09,-25.12 -181.97,-40.02 -57.79,-15.2 -113.26,-29.79 -166.23,-43.73 -106.48,-25.81 -200.09,-58.62 -283.2,-84.22 -41.38,-13.33 -80.19,-24.88 -115.36,-37.12 -34.84,-12.98 -66.72,-24.87 -95.49,-35.59 -56.63,-21.35 -100.91,-38.05 -131.9,-49.74 -14.42,-5.62 -25.72,-10.03 -34.14,-13.31 -7.66,-3.09 -11.53,-4.79 -11.43,-5.06z"/>
   <path class="fil17" d="M8213.4 9298.9c0,0 270.77,-561.58 2361.68,-585.42 2090.89,-23.84 2361.65,585.42 2361.65,585.42 0,0 -2109.11,1040.22 -4723.33,0z"/>
   <path class="fil7" d="M10120.33 4892.91c0.01,0.27 -2.42,0.68 -7.18,1.2 -5.73,0.52 -12.67,1.14 -21.14,1.91 -18.54,1.93 -46.04,2.51 -81.16,6.73 -70.39,6.38 -171.99,20.25 -294.99,48.89 -122.99,28.44 -266.85,74.53 -418.29,144.7 -151.41,69.93 -309.34,165.79 -458.31,287.73 -148.06,123.16 -272.17,260.07 -369.56,395.48 -97.65,135.4 -170.2,267.92 -221.44,383.27 -51.46,115.33 -84.35,212.45 -103.97,280.33 -10.81,33.69 -16.59,60.58 -22,78.41 -2.36,8.17 -4.3,14.86 -5.89,20.39 -1.42,4.57 -2.27,6.88 -2.55,6.82 -0.27,-0.06 0.05,-2.49 0.94,-7.19 1.16,-5.64 2.59,-12.46 4.32,-20.78 4.38,-18.12 9.2,-45.31 19.11,-79.36 17.8,-68.62 49.16,-166.72 99.55,-283.27 50.18,-116.57 122.14,-250.53 219.79,-387.34 97.4,-136.84 222.14,-275.14 371.38,-399.27 150.14,-122.93 309.56,-219.13 462.37,-288.79 152.84,-69.91 298.01,-115.15 421.98,-142.31 123.99,-27.36 226.27,-39.54 297.03,-44 35.3,-3.26 62.93,-2.83 81.55,-3.7 8.5,-0.13 15.46,-0.23 21.22,-0.3 4.79,0.01 7.24,0.16 7.24,0.45z"/>
   <path class="fil7" d="M8164.55 7291.11c-1.87,0.77 -13.93,-22.48 -28.42,-62.2 -14.51,-39.66 -30.59,-96.11 -40.65,-159.94 -9.95,-63.88 -11.9,-122.55 -10.21,-164.74 1.64,-42.25 6,-68.06 8.02,-67.9 5.1,0.23 -1.96,104.25 18.22,230.12 19.29,125.98 57.82,222.89 53.04,224.66z"/>
   <path class="fil12" d="M7640.31 7130.14c-0.77,0.65 -7.06,-5.04 -16.86,-16.8 -9.82,-11.72 -22.6,-30 -35.23,-54.43 -25.4,-48.25 -47.48,-124.96 -36.34,-209.39 11.26,-84.44 52.58,-152.74 89.68,-192.7 18.57,-20.29 35.67,-34.6 48.21,-43.36 12.52,-8.8 20.08,-12.65 20.66,-11.83 1.79,2.34 -26.28,21.36 -60.17,62.68 -33.81,40.67 -71.56,106.86 -82.3,187.35 -10.61,80.47 8.57,154.2 30.6,202.3 21.95,48.72 44.09,74.41 41.75,76.18z"/>
   <path class="fil7" d="M10489.2 3891.84c-0.68,3.05 -28.44,-7.17 -73.31,-1.8 -43.75,4.6 -106.64,29.81 -143.96,87.1 -36.57,57.79 -33.31,125.48 -19.28,167.17 13.8,43.04 34.64,64.02 32.14,65.9 -0.69,0.66 -6.47,-3.81 -15.04,-13.81 -8.62,-9.94 -19.22,-26.17 -27.92,-48.29 -17.65,-43.03 -23.7,-116.13 16.44,-179.74 41.12,-62.95 110.09,-87.88 156.57,-89.75 23.74,-1.29 42.9,1.59 55.53,5.29 12.66,3.63 19.13,7.03 18.83,7.93z"/>
   <path class="fil7" d="M13204.17 6752.27c-3.4,3.67 -51.88,-42.58 -125.09,-77.62 -72.86,-35.82 -139.18,-45.26 -138.4,-50.2 -0.14,-4 69.59,-1.59 145.48,35.6 76.16,36.56 121.23,89.85 118.01,92.22z"/>
   <path class="fil7" d="M8932.41 12206.33c-0.25,0.13 -1.59,-1.9 -3.96,-6 -2.77,-4.99 -6.12,-11.03 -10.2,-18.38 -9.3,-17.57 -21.91,-41.4 -37.83,-71.44 -8.13,-15.73 -17.08,-33.05 -26.83,-51.92 -9.05,-19.46 -18.81,-40.5 -29.28,-63.04 -21.2,-45.17 -45.08,-96.73 -68.24,-155.11 -11.94,-29.08 -24.43,-59.51 -37.44,-91.19 -11.9,-32.18 -24.28,-65.61 -37.09,-100.21 -26.77,-68.87 -49.43,-144.5 -76.16,-223.11 -48.82,-158.72 -96.74,-334.97 -138.79,-521.91 -41.15,-187.22 -72.68,-367.11 -97.5,-531.26 -22.92,-164.42 -41.11,-312.86 -51.06,-438 -6.06,-62.47 -9.71,-119.14 -12.84,-168.89 -3.48,-49.74 -5.81,-92.61 -6.83,-127.69 -1.12,-33.97 -2.02,-60.91 -2.67,-80.76 -0.11,-8.42 -0.21,-15.31 -0.29,-21.02 0.03,-4.74 0.18,-7.17 0.46,-7.18 0.28,-0.02 0.68,2.4 1.2,7.11 0.51,5.69 1.14,12.56 1.9,20.94 1.4,19.81 3.3,46.67 5.7,80.56 1.99,35 5.25,77.77 9.58,127.38 3.98,49.64 8.43,106.16 15.22,168.47 11.4,124.83 30.72,272.88 54.42,436.88 25.58,163.71 57.49,343.14 98.55,529.93 41.96,186.52 89.31,362.43 137.23,520.99 26.27,78.52 48.4,154.13 74.54,223 12.47,34.63 24.53,68.09 36.12,100.28 12.63,31.73 24.77,62.21 36.37,91.34 22.42,58.52 45.51,110.26 65.87,155.69 10.01,22.69 19.36,43.88 28,63.48 9.27,19.04 17.79,36.55 25.51,52.42 14.75,30.6 26.45,54.86 35.08,72.75 3.5,7.64 6.38,13.92 8.76,19.11 1.89,4.35 2.75,6.65 2.5,6.78z"/>
   <path class="fil7" d="M7712.04 9666.53c-0.32,4.46 -102.25,0.85 -227.64,-8.08 -125.44,-8.94 -226.83,-19.8 -226.52,-24.27 0.32,-4.47 102.23,-0.85 227.67,8.08 125.39,8.94 226.81,19.8 226.49,24.27z"/>
   <path class="fil7" d="M6540.01 9001.36c-3.93,2.14 -57.03,-88.23 -118.56,-201.81 -61.55,-113.63 -108.24,-207.43 -104.3,-209.57 3.94,-2.14 57.01,88.21 118.57,201.84 61.53,113.58 108.23,207.41 104.29,209.54z"/>
   <path class="fil7" d="M10037.06 13188.6c-0.2,1.11 -13.15,-0.53 -36.5,-4.45 -23.4,-3.56 -56.84,-11.42 -97.42,-23.52 -40.71,-11.84 -88.02,-29.84 -138.96,-53.39 -50.54,-24.31 -104.49,-54.61 -157.68,-91.63 -52.87,-37.54 -99.64,-78.06 -139.63,-117.4 -39.4,-39.97 -72.34,-78.4 -97.26,-112.7 -25.12,-34.11 -43.83,-62.9 -55.1,-83.71 -11.59,-20.65 -17.5,-32.28 -16.53,-32.84 2.64,-1.59 28.69,43.77 80.72,109.55 25.81,33.05 59.23,70.2 98.65,109.04 40.02,38.23 86.4,77.78 138.48,114.79 52.43,36.47 105.33,66.71 154.83,91.44 49.89,23.94 96.15,42.83 135.98,55.92 79.51,26.71 131.02,35.88 130.42,38.9z"/>
   <path class="fil7" d="M10514.99 11747.34c0.04,0.55 -7.46,1.31 -21.82,2.22 -14.35,0.3 -35.6,3.45 -62.95,1.82 -54.68,-0.13 -134.37,-8.92 -228.43,-37.06 -47.11,-13.79 -96.95,-34.41 -148.78,-59.85 -50.78,-27.37 -104.23,-58.81 -154.72,-99.9 -101.97,-80.23 -196.6,-192.8 -257.7,-330.55 -58.96,-138.73 -76.62,-284.76 -65.61,-414.06 4.45,-64.94 17.97,-125.49 32.65,-181.27 16.79,-55.24 35.75,-105.74 57.85,-149.57 43.65,-87.95 91.64,-152.16 128.88,-192.2 17.48,-21.09 34.29,-34.46 44.29,-44.75 10.48,-9.86 16.15,-14.83 16.53,-14.42 1.23,1.25 -20.73,22.1 -56.05,63.31 -35.51,41 -81.52,105.57 -123.31,193.02 -21.17,43.6 -39.23,93.65 -55.25,148.25 -13.89,55.14 -26.73,114.85 -30.69,178.79 -10.02,127.3 7.86,270.52 65.59,406.44 59.89,134.93 152.31,245.74 252.15,325.33 49.41,40.76 101.8,72.13 151.58,99.62 50.82,25.59 99.72,46.55 146.02,60.87 92.42,29.18 171.02,39.64 225.23,41.69 54.23,2.33 84.47,0.52 84.54,2.27z"/>
   <path class="fil7" d="M6743.2 9294.01c-1.31,2.63 -24.09,-9.01 -63.4,-17.93 -39.13,-9.12 -95.65,-12.6 -155.4,1.56 -59.7,14.49 -108.49,43.24 -139.22,69.12 -30.98,25.78 -46,46.49 -48.36,44.74 -1.32,-0.75 10.51,-24.21 40.76,-53.33 29.89,-29.12 80.42,-61.15 143.03,-76.31 62.67,-14.88 122.22,-9.27 162.07,3.12 40.16,12.22 61.37,27.77 60.52,29.03z"/>
   <path class="fil7" d="M11343.48 6196.47c0,4.48 -382.51,8.12 -854.24,8.12 -471.9,0 -854.33,-3.64 -854.33,-8.12 0,-4.48 382.43,-8.12 854.33,-8.12 471.73,0 854.24,3.64 854.24,8.12z"/>
   <path class="fil7" d="M9885.74 8144.41c0.03,0.56 -4.94,1.34 -14.44,2.35 -11.43,0.98 -25.17,2.17 -41.67,3.59 -18.11,1.54 -40.3,2.99 -66.1,3.4 -25.8,0.55 -55.2,2.02 -87.68,1.01 -65.02,-0.16 -142.4,-4.62 -227.92,-13.68 -85.41,-9.97 -178.87,-25.09 -275.6,-47.53 -96.6,-23.1 -187.02,-51.27 -267.91,-80.45 -80.59,-30.06 -151.83,-60.61 -210.08,-89.47 -29.53,-13.6 -55.18,-28.03 -78.02,-40.05 -22.91,-11.87 -42.12,-23.07 -57.63,-32.52 -14.13,-8.64 -25.9,-15.83 -35.68,-21.81 -8.07,-5.14 -12.16,-8.06 -11.87,-8.55 0.28,-0.48 4.93,1.51 13.5,5.72 10.17,5.24 22.41,11.54 37.12,19.11 15.94,8.6 35.52,18.94 58.74,30.01 23.15,11.19 49.04,24.86 78.74,37.72 58.6,27.4 129.89,56.68 210.25,85.78 80.68,28.23 170.6,55.77 266.57,78.72 96.07,22.28 188.82,37.75 273.6,48.49 84.89,9.81 161.75,15.42 226.41,17.04 32.33,1.74 61.6,1.08 87.31,1.38 25.72,0.47 47.86,-0.05 65.97,-0.63 16.54,-0.22 30.3,-0.4 41.74,-0.55 9.56,0.07 14.61,0.36 14.65,0.92z"/>
   <path class="fil7" d="M12372.5 9548.45c0.1,0.26 -2.43,1.4 -7.44,3.38 -5.93,2.22 -13.29,4.99 -22.39,8.41 -21.02,7.47 -49.98,17.77 -86.67,30.83 -37.6,13.55 -83.85,29.38 -138.32,45.36 -54.37,16.29 -115.79,36.59 -185.15,53.88 -34.59,9.14 -70.77,18.7 -108.46,28.67 -37.75,9.82 -77.54,17.9 -118.46,27.42 -81.72,19.8 -170.19,35.36 -263.05,52.88 -186.36,31.45 -392.72,57.77 -610.47,71.85 -217.89,12.69 -425.98,11.82 -614.81,3.42 -94.33,-6.02 -184.05,-10.65 -267.58,-20.3 -41.79,-4.44 -82.27,-7.59 -120.94,-12.71 -38.62,-5.28 -75.71,-10.35 -111.14,-15.19 -70.95,-8.66 -134.4,-21.3 -190.35,-30.81 -56.01,-9.19 -103.85,-19.25 -142.82,-28.09 -38.01,-8.46 -68.02,-15.15 -89.78,-19.99 -9.44,-2.28 -17.09,-4.11 -23.25,-5.6 -5.22,-1.35 -7.86,-2.18 -7.8,-2.45 0.07,-0.28 2.82,0.02 8.16,0.83 6.25,1.07 14,2.39 23.59,4.02 21.89,4.12 52.08,9.81 90.33,17 39.11,7.88 87.05,17.02 143.12,25.35 56,8.64 119.46,20.45 190.36,28.37 35.4,4.51 72.46,9.21 111.04,14.12 38.63,4.79 79.05,7.62 120.75,11.76 83.39,9.05 172.91,13.16 267.02,18.75 188.36,7.57 395.84,7.97 613.11,-4.68 217.12,-14.03 422.93,-39.82 608.92,-70.39 92.7,-17.07 181.04,-32.09 262.69,-51.28 40.89,-9.21 80.65,-16.97 118.4,-26.44 37.69,-9.6 73.89,-18.8 108.47,-27.6 69.4,-16.54 130.94,-36.03 185.47,-51.46 54.63,-15.14 101.1,-30.07 138.95,-42.68 37.09,-11.83 66.36,-21.16 87.59,-27.93 9.31,-2.8 16.85,-5.06 22.92,-6.88 5.19,-1.47 7.9,-2.09 7.99,-1.82z"/>
   <path class="fil0" d="M9770.96 1618c51.88,-31.35 107.11,-55.13 164.07,-71.31l33.79 -162.4 274.38 -4.81 39.48 161.1c57.5,14.16 113.54,35.97 166.48,65.49l138.68 -90.9 197.41 190.62 -85.95 141.75c31.37,51.89 55.13,107.14 71.3,164.1l162.38 33.79 4.82 274.38 -161.1 39.49c-14.16,57.49 -35.98,113.52 -65.49,166.47l90.88 138.68 -190.59 197.41 -141.76 -85.95c-51.89,31.35 -107.13,55.12 -164.09,71.29l-33.8 162.41 -274.37 4.81 -39.49 -161.11c-57.49,-14.17 -113.52,-35.99 -166.47,-65.49l-138.67 90.89 -197.43 -190.61 85.96 -141.76c-31.35,-51.89 -55.14,-107.11 -71.3,-164.09l-162.4 -33.79 -4.81 -274.37 161.1 -39.5c14.17,-57.49 36.01,-113.51 65.49,-166.47l-90.88 -138.67 190.59 -197.42 141.79 85.97zm146.26 365.5l0 0c-112.93,116.98 -109.65,303.33 7.32,416.26 116.97,112.92 303.33,109.64 416.25,-7.32 112.91,-116.97 109.65,-303.34 -7.32,-416.26 -116.97,-112.91 -303.32,-109.64 -416.25,7.32z"/>
  </g>
 </g>
</svg>
