<svg xmlns="http://www.w3.org/2000/svg" xml:space="preserve" width="252mm" height="152mm" version="1.1" style="shape-rendering:geometricPrecision; text-rendering:geometricPrecision; image-rendering:optimizeQuality; fill-rule:evenodd; clip-rule:evenodd"
viewBox="0 0 25200 15200"
 xmlns:xlink="http://www.w3.org/1999/xlink"
 xmlns:xodm="http://www.corel.com/coreldraw/odm/2003">
 <defs>
  <style type="text/css">
   <![CDATA[
    .fil9 {fill:black;fill-rule:nonzero}
    .fil7 {fill:#263138;fill-rule:nonzero}
    .fil18 {fill:#265C4B;fill-rule:nonzero}
    .fil1 {fill:#274073;fill-rule:nonzero}
    .fil6 {fill:#445964;fill-rule:nonzero}
    .fil10 {fill:#4B61A6;fill-rule:nonzero}
    .fil21 {fill:#542828;fill-rule:nonzero}
    .fil19 {fill:#569C6F;fill-rule:nonzero}
    .fil20 {fill:#693939;fill-rule:nonzero}
    .fil15 {fill:#6E4438;fill-rule:nonzero}
    .fil12 {fill:#8091F2;fill-rule:nonzero}
    .fil14 {fill:#AE7460;fill-rule:nonzero}
    .fil8 {fill:#B3ADD9;fill-rule:nonzero}
    .fil2 {fill:#DFDFDF;fill-rule:nonzero}
    .fil13 {fill:#EBEBEB;fill-rule:nonzero}
    .fil4 {fill:#F2F2F2;fill-rule:nonzero}
    .fil3 {fill:#F9F9F9;fill-rule:nonzero}
    .fil11 {fill:white;fill-rule:nonzero}
    .fil17 {fill:black;fill-rule:nonzero;fill-opacity:0.301961}
    .fil16 {fill:#263138;fill-rule:nonzero;fill-opacity:0.301961}
    .fil0 {fill:#274073;fill-rule:nonzero;fill-opacity:0.501961}
    .fil5 {fill:#4B61A6;fill-rule:nonzero;fill-opacity:0.501961}
   ]]>
  </style>
 </defs>
 <g id="Capa_x0020_1">
  <metadata id="CorelCorpID_0Corel-Layer"/>
  <g id="_2665508200320">
   <path class="fil0" d="M5375.11 4767.25c46.42,-28.05 95.85,-49.32 146.82,-63.8l30.25 -145.34 245.53 -4.3 35.34 144.16c51.46,12.68 101.6,32.2 148.99,58.62l124.09 -81.35 176.68 170.58 -76.92 126.86c28.06,46.43 49.33,95.88 63.8,146.85l145.32 30.24 4.31 245.54 -144.17 35.35c-12.67,51.44 -32.2,101.58 -58.6,148.97l81.32 124.09 -170.56 176.68 -126.86 -76.93c-46.44,28.06 -95.87,49.33 -146.85,63.81l-30.25 145.33 -245.53 4.31 -35.34 -144.17c-51.46,-12.69 -101.59,-32.22 -148.98,-58.62l-124.09 81.35 -176.68 -170.58 76.92 -126.86c-28.06,-46.44 -49.34,-95.85 -63.8,-146.85l-145.33 -30.24 -4.31 -245.53 144.17 -35.35c12.68,-51.45 32.23,-101.58 58.61,-148.97l-81.33 -124.1 170.57 -176.67 126.88 76.92zm130.89 327.1l0 0c-101.06,104.68 -98.13,271.45 6.55,372.51 104.67,101.06 271.44,98.11 372.5,-6.56 101.05,-104.66 98.13,-271.45 -6.55,-372.5 -104.68,-101.05 -271.44,-98.12 -372.5,6.55z"/>
   <path class="fil1" d="M13882.95 651.57c39.52,-23.88 81.58,-41.98 124.97,-54.31l25.74 -123.71 208.99 -3.66 30.09 122.71c43.79,10.79 86.48,27.41 126.81,49.89l105.63 -69.24 150.38 145.2 -65.48 107.97c23.9,39.53 42,81.61 54.32,125l123.68 25.74 3.68 209 -122.72 30.09c-10.79,43.78 -27.4,86.45 -49.88,126.79l69.22 105.64 -145.17 150.38 -107.98 -65.47c-39.53,23.88 -81.61,41.98 -125,54.3l-25.75 123.71 -208.98 3.66 -30.09 -122.72c-43.79,-10.79 -86.47,-27.41 -126.8,-49.89l-105.64 69.24 -150.37 -145.19 65.47 -107.98c-23.88,-39.53 -42,-81.59 -54.31,-124.99l-123.7 -25.74 -3.67 -209 122.72 -30.09c10.79,-43.79 27.42,-86.46 49.88,-126.8l-69.22 -105.63 145.17 -150.37 108.01 65.47zm111.41 278.42l0 0c-86.03,89.1 -83.53,231.05 5.57,317.08 89.09,86.01 231.05,83.51 317.07,-5.59 86.01,-89.09 83.53,-231.06 -5.57,-317.07 -89.1,-86.01 -231.06,-83.51 -317.07,5.58z"/>
   <path class="fil1" d="M6816.78 793.65c64.19,-38.79 132.52,-68.2 202.99,-88.22l41.82 -200.93 339.47 -5.95 48.86 199.31c71.14,17.53 140.47,44.52 205.98,81.04l171.56 -112.47 244.26 235.84 -106.34 175.39c38.81,64.21 68.21,132.56 88.22,203.04l200.9 41.81 5.97 339.46 -199.32 48.88c-17.52,71.12 -44.52,140.43 -81.03,205.96l112.44 171.58 -235.8 244.26 -175.4 -106.35c-64.21,38.79 -132.54,68.19 -203.03,88.2l-41.82 200.94 -339.47 5.94 -48.86 -199.32c-71.13,-17.54 -140.44,-44.53 -205.97,-81.04l-171.57 112.48 -244.26 -235.84 106.35 -175.4c-38.79,-64.2 -68.21,-132.53 -88.22,-203.02l-200.92 -41.81 -5.96 -339.47 199.33 -48.87c17.53,-71.13 44.54,-140.45 81.02,-205.96l-112.44 -171.58 235.81 -244.26 175.43 106.36zm180.96 452.23l0 0c-139.72,144.73 -135.67,375.3 9.07,515.02 144.7,139.72 375.29,135.66 514.99,-9.06 139.71,-144.72 135.68,-375.3 -9.04,-515.02 -144.72,-139.7 -375.29,-135.65 -515.02,9.06z"/>
   <path class="fil0" d="M12292.21 6606.49c46.44,-28.05 95.86,-49.32 146.83,-63.8l30.24 -145.34 245.53 -4.29 35.34 144.15c51.46,12.68 101.6,32.2 148.99,58.61l124.09 -81.34 176.67 170.58 -76.91 126.86c28.06,46.43 49.33,95.88 63.79,146.85l145.32 30.24 4.31 245.54 -144.16 35.35c-12.68,51.44 -32.2,101.58 -58.61,148.97l81.34 124.09 -170.56 176.68 -126.87 -76.93c-46.44,28.06 -95.87,49.34 -146.85,63.81l-30.25 145.32 -245.52 4.31 -35.35 -144.16c-51.45,-12.69 -101.58,-32.22 -148.97,-58.62l-124.1 81.34 -176.66 -170.57 76.92 -126.86c-28.07,-46.44 -49.35,-95.86 -63.82,-146.85l-145.32 -30.24 -4.31 -245.53 144.17 -35.35c12.68,-51.45 32.22,-101.59 58.62,-148.97l-81.34 -124.1 170.56 -176.67 126.88 76.92zm130.9 327.1l0 0c-101.06,104.68 -98.14,271.45 6.55,372.51 104.66,101.06 271.44,98.11 372.49,-6.56 101.05,-104.66 98.13,-271.45 -6.56,-372.5 -104.65,-101.05 -271.43,-98.12 -372.48,6.55z"/>
   <path class="fil1" d="M12983.86 11000.94c46.43,-28.06 95.85,-49.32 146.82,-63.81l30.25 -145.33 245.54 -4.3 35.34 144.16c51.45,12.67 101.6,32.19 148.98,58.61l124.09 -81.35 176.67 170.59 -76.92 126.85c28.07,46.44 49.34,95.88 63.82,146.85l145.3 30.25 4.32 245.53 -144.16 35.35c-12.68,51.44 -32.2,101.58 -58.62,148.96l81.33 124.11 -170.55 176.68 -126.87 -76.93c-46.44,28.06 -95.86,49.32 -146.85,63.8l-30.25 145.33 -245.52 4.31 -35.34 -144.17c-51.46,-12.68 -101.59,-32.21 -148.98,-58.62l-124.1 81.35 -176.66 -170.58 76.91 -126.86c-28.06,-46.44 -49.34,-95.85 -63.81,-146.84l-145.31 -30.25 -4.31 -245.53 144.16 -35.35c12.68,-51.45 32.21,-101.58 58.61,-148.97l-81.33 -124.1 170.55 -176.67 126.89 76.93zm130.89 327.09l0 0c-101.06,104.68 -98.13,271.45 6.56,372.51 104.67,101.06 271.44,98.12 372.49,-6.56 101.05,-104.67 98.13,-271.45 -6.54,-372.49 -104.68,-101.05 -271.44,-98.13 -372.51,6.54z"/>
   <path class="fil2" d="M17754.68 5515.68c0,7.08 -270.4,12.83 -603.89,12.83 -333.59,0 -603.94,-5.75 -603.94,-12.83 0,-7.08 270.35,-12.83 603.94,-12.83 333.49,0 603.89,5.75 603.89,12.83z"/>
   <path class="fil2" d="M17754.68 5706.85c0,7.09 -270.4,12.84 -603.89,12.84 -333.59,0 -603.94,-5.75 -603.94,-12.84 0,-7.07 270.35,-12.82 603.94,-12.82 333.49,0 603.89,5.75 603.89,12.82z"/>
   <path class="fil2" d="M17754.68 5898.04c0,7.09 -270.4,12.83 -603.89,12.83 -333.59,0 -603.94,-5.74 -603.94,-12.83 0,-7.08 270.35,-12.83 603.94,-12.83 333.49,0 603.89,5.75 603.89,12.83z"/>
   <path class="fil2" d="M17754.68 6089.22c0,7.09 -270.4,12.83 -603.89,12.83 -333.59,0 -603.94,-5.74 -603.94,-12.83 0,-7.08 270.35,-12.83 603.94,-12.83 333.49,0 603.89,5.75 603.89,12.83z"/>
   <path class="fil2" d="M17754.68 6280.39c0,7.09 -270.4,12.84 -603.89,12.84 -333.59,0 -603.94,-5.75 -603.94,-12.84 0,-7.07 270.35,-12.82 603.94,-12.82 333.49,0 603.89,5.75 603.89,12.82z"/>
   <path class="fil2" d="M17754.68 6471.57c0,7.09 -270.4,12.84 -603.89,12.84 -333.59,0 -603.94,-5.75 -603.94,-12.84 0,-7.08 270.35,-12.83 603.94,-12.83 333.49,0 603.89,5.75 603.89,12.83z"/>
   <path class="fil2" d="M17754.68 6662.75c0,7.09 -270.4,12.84 -603.89,12.84 -333.59,0 -603.94,-5.75 -603.94,-12.84 0,-7.08 270.35,-12.82 603.94,-12.82 333.49,0 603.89,5.74 603.89,12.82z"/>
   <path class="fil1" d="M10045.64 2469.09l-987.13 0c-68.21,0 -123.51,-55.3 -123.51,-123.52l0 -1366.31c0,-68.22 55.3,-123.52 123.51,-123.52l626.04 0 484.6 499.48 0 990.35c0,68.22 -55.3,123.52 -123.51,123.52z"/>
   <path class="fil2" d="M10018.31 2469.09l-932.48 0c-83.3,0 -150.83,-67.54 -150.83,-150.85l0 -338.67 1234.15 0 0 338.67c0,83.31 -67.53,150.85 -150.84,150.85z"/>
   <path class="fil3" d="M9372.37 2295.33l31.07 -37.27c13.1,17.6 27.6,26.57 44.85,26.57 22.43,0 34.16,-13.45 34.16,-40.02l0 -114.92 -84.89 0 0 -44.85 140.45 0 0 156.66c0,59.69 -30.02,89.02 -86.96,89.02 -32.43,0 -61.08,-12.41 -78.68,-35.19z"/>
   <path class="fil3" d="M9571.4 2309.13l17.96 -38.65c16.55,10.69 41.74,17.94 64.51,17.94 24.84,0 34.17,-6.55 34.17,-16.9 0,-30.37 -112.15,0.68 -112.15,-73.5 0,-35.2 31.75,-60.05 85.92,-60.05 25.53,0 53.83,5.88 71.43,16.23l-17.94 38.3c-18.29,-10.36 -36.59,-13.8 -53.49,-13.8 -24.16,0 -34.51,7.59 -34.51,17.25 0,31.75 112.15,1.03 112.15,74.19 0,34.5 -32.09,59.01 -87.65,59.01 -31.39,0 -63.14,-8.63 -80.4,-20.02z"/>
   <path class="fil3" d="M9196.48 1722.62l38.7 -45.37c25.34,36.03 58.05,55.37 97.41,55.37 52.71,0 80.07,-32.01 80.07,-94.73l0 -262.21 -168.81 0 0 -58.06 234.85 0 0 316.92c0,104.1 -50.71,155.47 -146.11,155.47 -55.38,0 -106.09,-24.03 -136.11,-67.39z"/>
   <path class="fil3" d="M9560.84 1747.3l26.69 -50.71c30.02,21.36 78.07,36.7 124.1,36.7 59.38,0 84.07,-18.01 84.07,-48.03 0,-79.4 -223.52,-10.67 -223.52,-151.47 0,-63.38 56.71,-106.07 147.46,-106.07 46.03,0 98.08,12.01 128.76,32.02l-27.36 50.71c-32.01,-20.68 -67.38,-28.03 -102.08,-28.03 -56.03,0 -83.4,20.68 -83.4,48.71 0,83.4 224.19,15.35 224.19,152.79 0,64.06 -58.71,104.76 -152.8,104.76 -58.71,0 -116.75,-18.03 -146.11,-41.38z"/>
   <path class="fil4" d="M9684.55 855.74l0 384.54c0,63.44 51.42,114.87 114.86,114.88l369.74 0.06 -484.6 -499.48z"/>
   <path class="fil4" d="M9689.59 1274.02c0,0 -4.86,93.26 101.32,123.93 3.98,1.15 8.07,2.01 12.15,2.74 48.28,8.63 366.09,65.16 366.09,57.86 0,-7.9 0,-103.33 0,-103.33l-369.74 0c0,0 -92.32,-3.16 -109.82,-81.2z"/>
   <path class="fil5" d="M9376.68 8573.96c0,678.93 -550.38,1229.32 -1229.32,1229.32 -678.94,0 -1229.32,-550.39 -1229.32,-1229.32 0,-678.94 550.38,-1229.32 1229.32,-1229.32 678.94,0 1229.32,550.38 1229.32,1229.32z"/>
   <polygon class="fil6" points="4881.08,14249.83 6639.17,13062.66 15157.45,13021.95 15547.35,14267.66 "/>
   <polygon class="fil6" points="15525.18,14736.25 4863.59,14728.49 4863.59,14226.61 15529.86,14259.94 "/>
   <path class="fil7" d="M15263.67 14257.08c0,4.79 -2302.25,7.58 -5141.54,6.23 -2840.28,-1.35 -5142.03,-6.33 -5142.03,-11.12 0.01,-4.78 2301.76,-7.58 5142.04,-6.23 2839.29,1.35 5141.53,6.33 5141.53,11.12z"/>
   <path class="fil8" d="M12611.52 3245.32l-1673.81 0c-115.68,0 -209.44,-93.76 -209.44,-209.44l0 -2316.78c0,-115.68 93.76,-209.44 209.44,-209.44l1061.53 0 821.71 846.93 0 1679.29c0,115.68 -93.76,209.44 -209.43,209.44z"/>
   <path class="fil9" d="M12605.18 3245.32l-1661.13 0c-119.18,0 -215.78,-96.61 -215.78,-215.79l0 -572.99c0,-22.79 18.47,-41.27 41.26,-41.27l2010.16 0c22.79,0 41.26,18.48 41.26,41.27l0 572.99c0,119.18 -96.61,215.79 -215.77,215.79z"/>
   <path class="fil4" d="M11999.24 509.66l0 652.04c0,107.56 87.19,194.77 194.77,194.79l626.94 0.1 -821.71 -846.93z"/>
   <path class="fil9" d="M12007.8 1218.91c0,0 -8.26,158.15 171.78,210.14 6.76,1.96 13.69,3.41 20.62,4.65 81.86,14.63 620.75,110.48 620.75,98.11 0,-13.4 0,-175.22 0,-175.22l-626.94 0c0,0 -156.54,-5.35 -186.21,-137.68z"/>
   <path class="fil3" d="M11327.31 2776.93c0,-98.13 75.36,-168.32 176.7,-168.32 56.26,0 103.22,20.45 133.91,57.67l-48.35 44.64c-21.84,-25.12 -49.28,-38.14 -81.82,-38.14 -60.91,0 -104.15,42.78 -104.15,104.15 0,61.37 43.24,104.15 104.15,104.15 32.54,0 59.98,-13.02 81.82,-38.61l48.35 44.64c-30.69,37.68 -77.65,58.12 -134.37,58.12 -100.88,0 -176.24,-70.18 -176.24,-168.3z"/>
   <path class="fil3" d="M11660.05 2907.59l25.58 -56.74c27.44,19.99 68.33,33.95 107.41,33.95 44.63,0 62.76,-14.89 62.76,-34.87 0,-60.91 -189.22,-19.05 -189.22,-139.94 0,-55.34 44.64,-101.38 137.16,-101.38 40.93,0 82.74,9.75 112.96,28.84l-23.22 57.2c-30.22,-17.24 -61.38,-25.58 -90.21,-25.58 -44.63,0 -61.83,16.73 -61.83,37.18 0,59.97 189.22,18.62 189.22,138.12 0,54.37 -45.1,100.86 -138.09,100.86 -51.59,0 -103.69,-15.34 -132.52,-37.64z"/>
   <path class="fil3" d="M11956.57 2907.59l25.55 -56.74c27.44,19.99 68.36,33.95 107.43,33.95 44.64,0 62.77,-14.89 62.77,-34.87 0,-60.91 -189.26,-19.05 -189.26,-139.94 0,-55.34 44.64,-101.38 137.17,-101.38 40.92,0 82.77,9.75 112.99,28.84l-23.26 57.2c-30.22,-17.24 -61.37,-25.58 -90.2,-25.58 -44.63,0 -61.84,16.73 -61.84,37.18 0,59.97 189.26,18.62 189.26,138.12 0,54.37 -45.1,100.86 -138.09,100.86 -51.63,0 -103.69,-15.34 -132.52,-37.64z"/>
   <path class="fil3" d="M11433.62 1723.61c34.4,10.47 50.1,32.14 50.1,83.73l0 119.63c0,35.13 17.97,55.34 54.58,55.34l13.45 0 0 91.2 -43.33 0c-93.49,0 -141.34,-47.85 -141.34,-133.84l0 -135.31c0,-23.93 -12.69,-35.16 -32.88,-35.16l-24.68 0 0 -91.2 24.68 0c20.19,0 32.88,-11.23 32.88,-35.16l0 -135.33c0,-85.97 47.85,-133.82 141.34,-133.82l43.33 0 0 91.2 -13.45 0c-36.61,0 -54.58,20.19 -54.58,55.35l0 119.62c0,51.6 -15.7,73.28 -50.1,83.75z"/>
   <path class="fil3" d="M12239.7 1678l0 91.2 -24.69 0c-20.18,0 -32.87,11.23 -32.87,35.16l0 135.31c0,85.99 -47.86,133.84 -141.34,133.84l-43.33 0 0 -91.2 13.45 0c36.62,0 54.57,-20.21 54.57,-55.34l0 -119.63c0,-51.59 15.71,-73.26 50.11,-83.73 -34.4,-10.47 -50.11,-32.15 -50.11,-83.75l0 -119.62c0,-35.16 -17.95,-55.35 -54.57,-55.35l-13.45 0 0 -91.2 43.33 0c93.48,0 141.34,47.85 141.34,133.82l0 135.33c0,23.93 12.69,35.16 32.87,35.16l24.69 0z"/>
   <path class="fil10" d="M14955.45 4927.23l-1699.13 0c-117.41,0 -212.6,-95.18 -212.6,-212.6l0 -2351.82c0,-117.41 95.19,-212.59 212.6,-212.59l1077.59 0 834.14 859.73 0 1704.68c0,117.42 -95.19,212.6 -212.6,212.6z"/>
   <path class="fil9" d="M14938.34 4927.23l-1664.91 0c-126.87,0 -229.71,-102.84 -229.71,-229.7l0 -612.89 2124.33 0 0 612.89c0,126.86 -102.84,229.7 -229.71,229.7z"/>
   <path class="fil4" d="M14333.91 2150.22l0 661.89c0,109.2 88.51,197.73 197.71,197.74l636.43 0.1 -834.14 -859.73z"/>
   <path class="fil9" d="M14342.59 2870.19c0,0 -8.37,160.53 174.39,213.31 6.86,1.99 13.89,3.46 20.92,4.72 83.1,14.85 630.15,112.16 630.15,99.6 0,-13.59 0,-177.87 0,-177.87l-636.43 0c0,0 -158.91,-5.43 -189.03,-139.76z"/>
   <polygon class="fil3" points="13916.14,3388.83 13661.12,3482.27 13916.14,3574.92 13916.14,3670.66 13551.61,3532.06 13551.61,3432.5 13916.14,3293.87 "/>
   <polygon class="fil3" points="14190.17,3105.49 14296.61,3105.49 14043.88,3826.88 13937.44,3826.88 "/>
   <polygon class="fil3" points="14674.83,3432.5 14674.83,3532.06 14310.3,3670.66 14310.3,3574.92 14565.32,3482.27 14310.3,3388.83 14310.3,3293.87 "/>
   <polygon class="fil3" points="13829.4,4398.19 13829.4,4683.7 13763.34,4683.7 13763.34,4566.64 13633.62,4566.64 13633.62,4683.7 13567.56,4683.7 13567.56,4398.19 13633.62,4398.19 13633.62,4510.76 13763.34,4510.76 13763.34,4398.19 "/>
   <polygon class="fil3" points="13956.19,4452.03 13864.82,4452.03 13864.82,4398.19 14113.64,4398.19 14113.64,4452.03 14022.27,4452.03 14022.27,4683.7 13956.19,4683.7 "/>
   <polygon class="fil3" points="14408.89,4683.7 14408.48,4512.4 14324.46,4653.53 14294.68,4653.53 14211.07,4516.06 14211.07,4683.7 14149.08,4683.7 14149.08,4398.19 14203.72,4398.19 14310.6,4575.62 14415.81,4398.19 14470.07,4398.19 14470.88,4683.7 "/>
   <polygon class="fil3" points="14538.51,4398.19 14604.58,4398.19 14604.58,4629.86 14747.75,4629.86 14747.75,4683.7 14538.51,4683.7 "/>
   <path class="fil11" d="M8972.42 8323.06l-3084.99 0c-56.25,0 -101.85,-45.6 -101.85,-101.86l0 -5097.17c0,-56.26 45.6,-101.86 101.85,-101.86l3084.99 0c56.25,0 101.85,45.6 101.85,101.86l0 5097.17c0,56.26 -45.6,101.86 -101.85,101.86z"/>
   <path class="fil2" d="M9074.27 3614.46l-3288.69 0 0 -472.15c0,-66.35 53.8,-120.14 120.15,-120.14l3052.91 0c63.86,0 115.63,51.77 115.63,115.64l0 476.65z"/>
   <path class="fil7" d="M8963.95 8323.06c-0.22,-1 15.5,1.47 42.4,-9.41 13.16,-5.65 28.58,-15.7 42.11,-32.11 13.1,-16.51 24.04,-40.09 24.03,-68.17 -0.37,-113.48 -0.9,-280.27 -1.59,-494.98 -0.65,-430.18 -1.6,-1052.11 -2.76,-1820.54 -0.53,-768.71 -1.16,-1683.89 -1.86,-2700.06l-0.02 -47.71c0.07,-16.36 0.32,-31 -3.93,-45.3 -7.68,-28.68 -29.18,-53.14 -56.3,-65.4 -13.57,-6.24 -28.36,-9.28 -43.54,-9.12l-48.43 0.02c-32.34,0.01 -64.77,0.03 -97.29,0.04 -130.1,0.05 -261.69,0.09 -394.67,0.13 -265.98,0.08 -537.55,0.14 -814.02,0.22 -552.94,0.05 -1125.43,0.11 -1711.78,0.18 -34.03,-0.28 -67.09,17.61 -85.46,46.07 -9.01,14.17 -15.03,30.42 -16.16,47.24 -0.86,16.81 -0.24,36.08 -0.43,53.97 0,72.88 0,145.53 0,217.93 -0.02,144.82 -0.03,288.68 -0.04,431.49 -0.05,285.61 -0.09,567.04 -0.13,843.58 -0.17,553.05 -0.34,1086.52 -0.5,1594.72 -0.29,508.18 -0.55,991.09 -0.81,1443.05 -0.08,112.98 -0.16,224.03 -0.24,333.05 -0.04,54.51 -0.09,108.52 -0.12,162 -4.39,51.89 32.82,100.41 81.92,110.13 23.59,4.2 51.16,1.54 76.72,2.35 25.96,0.03 51.78,0.05 77.46,0.08 51.38,0.03 102.21,0.08 152.5,0.13 100.57,0.09 198.94,0.19 295.02,0.28 768.43,1.17 1390.3,2.11 1820.43,2.76 214.7,0.71 381.47,1.25 494.93,1.63 56.36,0.38 99.4,0.66 128.72,0.86 28.99,0.29 43.84,0.89 43.84,0.89 0,0 -14.85,0.59 -43.84,0.89 -29.32,0.19 -72.36,0.48 -128.72,0.86 -113.46,0.37 -280.23,0.92 -494.93,1.62 -430.13,0.66 -1052,1.59 -1820.43,2.77 -96.08,0.08 -194.45,0.18 -295.02,0.28 -50.29,0.05 -101.12,0.08 -152.5,0.13 -25.68,0.03 -51.5,0.05 -77.46,0.08 -26.24,-0.89 -51.29,2.21 -79.5,-2.51 -27.28,-5.68 -52.29,-21.72 -69.16,-44.18 -17.12,-22.14 -25.27,-51.77 -23.63,-79.05 -0.04,-53.48 -0.08,-107.49 -0.13,-162 -0.08,-109.02 -0.16,-220.07 -0.24,-333.05 -0.25,-451.96 -0.52,-934.87 -0.8,-1443.05 -0.16,-508.2 -0.33,-1041.67 -0.51,-1594.72 -0.04,-276.54 -0.08,-557.97 -0.12,-843.58 -0.02,-142.81 -0.03,-286.67 -0.04,-431.49 0,-72.4 -0.01,-145.05 -0.01,-217.93 0.22,-18.52 -0.48,-35.75 0.48,-55.38 1.35,-19.66 8.35,-38.77 18.94,-55.33 21.4,-33.28 60.32,-54.28 99.97,-53.92 586.35,0.06 1158.84,0.12 1711.78,0.17 276.47,0.08 548.04,0.14 814.02,0.22 132.98,0.04 264.57,0.09 394.67,0.13 32.52,0.02 64.95,0.03 97.29,0.04l48.43 0.02c17.08,-0.18 34.57,3.36 50.21,10.6 31.42,14.22 56.17,42.52 65.1,75.76 4.93,16.53 4.58,34.25 4.48,49.64l-0.02 47.71c-0.7,1016.17 -1.33,1931.35 -1.85,2700.06 -1.18,768.43 -2.11,1390.36 -2.76,1820.54 -0.72,214.72 -1.29,381.52 -1.66,495.01 -0.28,28.96 -11.84,53.09 -25.48,69.8 -14.09,16.63 -29.98,26.6 -43.47,32.08 -13.58,5.62 -24.74,6.73 -31.99,7.67 -7.39,0.22 -11.1,0.11 -11.1,0.11z"/>
   <path class="fil11" d="M6270.32 3364.5c0,53.58 -43.44,97.01 -97.02,97.01 -53.58,0 -97.02,-43.43 -97.02,-97.01 0,-53.58 43.44,-97.02 97.02,-97.02 53.58,0 97.02,43.44 97.02,97.02z"/>
   <path class="fil11" d="M6568.84 3364.5c0,53.58 -43.44,97.01 -97.02,97.01 -53.58,0 -97.02,-43.43 -97.02,-97.01 0,-53.58 43.44,-97.02 97.02,-97.02 53.58,0 97.02,43.44 97.02,97.02z"/>
   <path class="fil11" d="M6867.36 3364.5c0,53.58 -43.43,97.01 -97.02,97.01 -53.58,0 -97.02,-43.43 -97.02,-97.01 0,-53.58 43.44,-97.02 97.02,-97.02 53.59,0 97.02,43.44 97.02,97.02z"/>
   <path class="fil7" d="M7216.62 4417.6l-605.65 0c-36.29,0 -65.71,-29.42 -65.71,-65.71 0,-36.29 29.42,-65.71 65.71,-65.71l605.65 0c36.28,0 65.7,29.42 65.7,65.71 0,36.29 -29.42,65.71 -65.7,65.71z"/>
   <path class="fil2" d="M7216.62 4761.57l-605.65 0c-36.29,0 -65.71,-29.42 -65.71,-65.72 0,-36.29 29.42,-65.7 65.71,-65.7l605.65 0c36.28,0 65.7,29.41 65.7,65.7 0,36.3 -29.42,65.72 -65.7,65.72z"/>
   <path class="fil2" d="M7233.94 5703.74l-605.64 0c-36.29,0 -65.71,-29.42 -65.71,-65.71 0,-36.29 29.42,-65.71 65.71,-65.71l605.64 0c36.29,0 65.71,29.42 65.71,65.71 0,36.29 -29.42,65.71 -65.71,65.71z"/>
   <path class="fil12" d="M7216.62 5117.03l-605.65 0c-36.29,0 -65.71,-29.43 -65.71,-65.71 0,-36.3 29.42,-65.72 65.71,-65.72l605.65 0c36.28,0 65.7,29.42 65.7,65.72 0,36.28 -29.42,65.71 -65.7,65.71z"/>
   <path class="fil12" d="M7216.62 7099.22l-605.65 0c-36.29,0 -65.71,-29.42 -65.71,-65.71 0,-36.29 29.42,-65.71 65.71,-65.71l605.65 0c36.28,0 65.7,29.42 65.7,65.71 0,36.29 -29.42,65.71 -65.7,65.71z"/>
   <path class="fil6" d="M8186.89 4417.6l-605.64 0c-36.29,0 -65.71,-29.42 -65.71,-65.71 0,-36.29 29.42,-65.71 65.71,-65.71l605.64 0c36.29,0 65.71,29.42 65.71,65.71 0,36.29 -29.42,65.71 -65.71,65.71z"/>
   <path class="fil7" d="M8842.7 4761.57l-1267.08 0c-33.19,0 -60.08,-29.42 -60.08,-65.72 0,-36.29 26.89,-65.7 60.08,-65.7l1267.08 0c33.17,0 60.07,29.41 60.07,65.7 0,36.3 -26.9,65.72 -60.07,65.72z"/>
   <path class="fil2" d="M8808.61 5117.03l-1275.83 0c-34.12,0 -61.77,-29.42 -61.77,-65.71 0,-36.3 27.65,-65.72 61.77,-65.72l1275.83 0c34.11,0 61.77,29.42 61.77,65.72 0,36.29 -27.66,65.71 -61.77,65.71z"/>
   <path class="fil2" d="M7886.96 5404.48l-1275.83 0c-34.11,0 -61.77,-29.42 -61.77,-65.72 0,-36.29 27.66,-65.71 61.77,-65.71l1275.83 0c34.12,0 61.78,29.42 61.78,65.71 0,36.3 -27.66,65.72 -61.78,65.72z"/>
   <path class="fil6" d="M6314.09 4351.89c0,36.86 -29.89,66.75 -66.75,66.75 -36.86,0 -66.75,-29.89 -66.75,-66.75 0,-36.87 29.89,-66.75 66.75,-66.75 36.86,0 66.75,29.88 66.75,66.75z"/>
   <path class="fil6" d="M6314.09 4022.73c0,36.86 -29.89,66.74 -66.75,66.74 -36.86,0 -66.75,-29.88 -66.75,-66.74 0,-36.87 29.89,-66.75 66.75,-66.75 36.86,0 66.75,29.88 66.75,66.75z"/>
   <path class="fil6" d="M6314.09 4694.82c0,36.86 -29.89,66.75 -66.75,66.75 -36.86,0 -66.75,-29.89 -66.75,-66.75 0,-36.86 29.89,-66.75 66.75,-66.75 36.86,0 66.75,29.89 66.75,66.75z"/>
   <path class="fil6" d="M6314.09 5051.32c0,36.86 -29.89,66.74 -66.75,66.74 -36.86,0 -66.75,-29.88 -66.75,-66.74 0,-36.87 29.89,-66.75 66.75,-66.75 36.86,0 66.75,29.88 66.75,66.75z"/>
   <path class="fil2" d="M7233.94 6665.7l-605.64 0c-36.29,0 -65.71,-29.42 -65.71,-65.71 0,-36.29 29.42,-65.71 65.71,-65.71l605.64 0c36.29,0 65.71,29.42 65.71,65.71 0,36.29 -29.42,65.71 -65.71,65.71z"/>
   <path class="fil12" d="M7216.62 6078.99l-605.65 0c-36.29,0 -65.71,-29.42 -65.71,-65.72 0,-36.28 29.42,-65.7 65.71,-65.7l605.65 0c36.28,0 65.7,29.42 65.7,65.7 0,36.3 -29.42,65.72 -65.7,65.72z"/>
   <path class="fil2" d="M8808.61 6078.99l-1275.83 0c-34.12,0 -61.77,-29.42 -61.77,-65.72 0,-36.28 27.65,-65.7 61.77,-65.7l1275.83 0c34.11,0 61.77,29.42 61.77,65.7 0,36.3 -27.66,65.72 -61.77,65.72z"/>
   <path class="fil2" d="M7886.96 6366.43l-1275.83 0c-34.11,0 -61.77,-29.41 -61.77,-65.7 0,-36.29 27.66,-65.71 61.77,-65.71l1275.83 0c34.12,0 61.78,29.42 61.78,65.71 0,36.29 -27.66,65.7 -61.78,65.7z"/>
   <path class="fil6" d="M6314.09 6013.27c0,36.87 -29.89,66.75 -66.75,66.75 -36.86,0 -66.75,-29.88 -66.75,-66.75 0,-36.86 29.89,-66.74 66.75,-66.74 36.86,0 66.75,29.88 66.75,66.74z"/>
   <path class="fil6" d="M6959.92 4102.1l-379.16 0c-17.63,0 -31.91,-14.3 -31.91,-31.92l0 -62.93c0,-17.63 14.28,-31.91 31.91,-31.91l379.16 0c17.63,0 31.91,14.28 31.91,31.91l0 62.93c0,17.62 -14.28,31.92 -31.91,31.92z"/>
   <path class="fil7" d="M7216.62 7449.47l-605.65 0c-36.29,0 -65.71,-29.43 -65.71,-65.72 0,-36.29 29.42,-65.71 65.71,-65.71l605.65 0c36.28,0 65.7,29.42 65.7,65.71 0,36.29 -29.42,65.72 -65.7,65.72z"/>
   <path class="fil6" d="M8186.89 7449.47l-605.64 0c-36.29,0 -65.71,-29.43 -65.71,-65.72 0,-36.29 29.42,-65.71 65.71,-65.71l605.64 0c36.29,0 65.71,29.42 65.71,65.71 0,36.29 -29.42,65.72 -65.71,65.72z"/>
   <path class="fil6" d="M6314.09 7383.75c0,36.86 -29.89,66.75 -66.75,66.75 -36.86,0 -66.75,-29.89 -66.75,-66.75 0,-36.87 29.89,-66.75 66.75,-66.75 36.86,0 66.75,29.88 66.75,66.75z"/>
   <path class="fil6" d="M6314.09 7700.3c0,36.86 -29.89,66.73 -66.75,66.73 -36.86,0 -66.75,-29.87 -66.75,-66.73 0,-36.87 29.89,-66.75 66.75,-66.75 36.86,0 66.75,29.88 66.75,66.75z"/>
   <path class="fil6" d="M6959.92 7779.65l-379.16 0c-17.63,0 -31.91,-14.29 -31.91,-31.91l0 -62.93c0,-17.62 14.28,-31.91 31.91,-31.91l379.16 0c17.63,0 31.91,14.29 31.91,31.91l0 62.93c0,17.62 -14.28,31.91 -31.91,31.91z"/>
   <polygon class="fil11" points="15300.88,11325.93 9293.89,11325.93 9293.89,7504.84 15300.88,7504.84 "/>
   <polygon class="fil13" points="10375.78,11325.93 9293.89,11325.93 9293.89,7504.84 10375.78,7504.84 "/>
   <path class="fil2" d="M9769.36 7917.23c5.7,-3.45 11.76,-6.06 18.01,-7.83l3.72 -17.84 30.12 -0.53 4.34 17.69c6.3,1.56 12.46,3.95 18.28,7.19l15.21 -9.98 21.68 20.94 -9.43 15.55c3.44,5.71 6.05,11.77 7.83,18.02l17.82 3.71 0.53 30.13 -17.68 4.33c-1.56,6.32 -3.96,12.46 -7.2,18.28l9.98 15.22 -20.93 21.68 -15.56 -9.43c-5.69,3.43 -11.76,6.05 -18.01,7.81l-3.71 17.84 -30.13 0.53 -4.33 -17.69c-6.32,-1.56 -12.47,-3.95 -18.28,-7.19l-15.22 9.98 -21.68 -20.93 9.43 -15.56c-3.44,-5.7 -6.05,-11.76 -7.83,-18.02l-17.82 -3.71 -0.53 -30.12 17.69 -4.34c1.55,-6.31 3.95,-12.46 7.19,-18.27l-9.98 -15.23 20.92 -21.68 15.57 9.45zm16.06 40.12l0 0c-12.4,12.84 -12.04,33.3 0.8,45.71 12.84,12.39 33.3,12.04 45.71,-0.81 12.4,-12.84 12.04,-33.3 -0.8,-45.7 -12.85,-12.4 -33.31,-12.04 -45.71,0.8z"/>
   <path class="fil2" d="M10019.3 8761.37l-471.63 0c-26.76,0 -48.46,-21.7 -48.46,-48.47 0,-26.77 21.7,-48.47 48.46,-48.47l471.63 0c26.76,0 48.47,21.7 48.47,48.47 0,26.77 -21.71,48.47 -48.47,48.47z"/>
   <path class="fil2" d="M10019.3 8514.45l-471.63 0c-26.76,0 -48.46,-21.7 -48.46,-48.47 0,-26.76 21.7,-48.46 48.46,-48.46l471.63 0c26.76,0 48.47,21.7 48.47,48.46 0,26.77 -21.71,48.47 -48.47,48.47z"/>
   <path class="fil2" d="M10019.3 8288.58l-471.63 0c-26.76,0 -48.46,-21.7 -48.46,-48.46 0,-26.77 21.7,-48.48 48.46,-48.48l471.63 0c26.76,0 48.47,21.71 48.47,48.48 0,26.76 -21.71,48.46 -48.47,48.46z"/>
   <path class="fil7" d="M11286.46 8069.36l-446.72 0c-26.77,0 -48.47,-21.71 -48.47,-48.48 0,-26.76 21.7,-48.46 48.47,-48.46l446.72 0c26.75,0 48.46,21.7 48.46,48.46 0,26.77 -21.71,48.48 -48.46,48.48z"/>
   <path class="fil2" d="M11286.46 8323.06l-446.72 0c-26.77,0 -48.47,-21.7 -48.47,-48.46 0,-26.77 21.7,-48.48 48.47,-48.48l446.72 0c26.75,0 48.46,21.71 48.46,48.48 0,26.76 -21.71,48.46 -48.46,48.46z"/>
   <path class="fil12" d="M11286.46 8585.24l-446.72 0c-26.77,0 -48.47,-21.7 -48.47,-48.46 0,-26.78 21.7,-48.48 48.47,-48.48l446.72 0c26.75,0 48.46,21.7 48.46,48.48 0,26.76 -21.71,48.46 -48.46,48.46z"/>
   <path class="fil7" d="M11095.9 9092.15l-256.16 0c-26.77,0 -48.47,-21.7 -48.47,-48.47 0,-26.77 21.7,-48.46 48.47,-48.46l256.16 0c26.77,0 48.46,21.69 48.46,48.46 0,26.77 -21.69,48.47 -48.46,48.47z"/>
   <path class="fil7" d="M11095.9 9354.9l-256.16 0c-26.77,0 -48.47,-21.7 -48.47,-48.46 0,-26.77 21.7,-48.48 48.47,-48.48l256.16 0c26.77,0 48.46,21.71 48.46,48.48 0,26.76 -21.69,48.46 -48.46,48.46z"/>
   <path class="fil2" d="M11857.19 9354.9l-469.7 0c-26.77,0 -48.47,-21.7 -48.47,-48.46 0,-26.77 21.7,-48.48 48.47,-48.48l469.7 0c26.76,0 48.47,21.71 48.47,48.48 0,26.76 -21.71,48.46 -48.47,48.46z"/>
   <path class="fil12" d="M11591.52 9588.56l-469.69 0c-26.78,0 -48.47,-21.7 -48.47,-48.46 0,-26.77 21.69,-48.48 48.47,-48.48l469.69 0c26.77,0 48.46,21.71 48.46,48.48 0,26.76 -21.69,48.46 -48.46,48.46z"/>
   <path class="fil12" d="M11695.58 9855.08l-322.61 0c-18.28,0 -33.09,-14.81 -33.09,-33.09l0 -30.75c0,-18.28 14.81,-33.09 33.09,-33.09l322.61 0c18.27,0 33.09,14.81 33.09,33.09l0 30.75c0,18.28 -14.82,33.09 -33.09,33.09z"/>
   <path class="fil12" d="M11680.2 10377.4l-291.86 0c-26.77,0 -48.46,-21.7 -48.46,-48.47 0,-26.76 21.69,-48.46 48.46,-48.46l291.86 0c26.77,0 48.47,21.7 48.47,48.46 0,26.77 -21.7,48.47 -48.47,48.47z"/>
   <path class="fil12" d="M11680.2 10929.11l-291.86 0c-26.77,0 -48.46,-21.71 -48.46,-48.47 0,-26.77 21.69,-48.48 48.46,-48.48l291.86 0c26.77,0 48.47,21.71 48.47,48.48 0,26.76 -21.7,48.47 -48.47,48.47z"/>
   <path class="fil6" d="M12397.67 10929.11l-511.67 0c-26.77,0 -48.46,-21.71 -48.46,-48.47 0,-26.77 21.69,-48.48 48.46,-48.48l511.67 0c26.77,0 48.47,21.71 48.47,48.48 0,26.76 -21.7,48.47 -48.47,48.47z"/>
   <path class="fil2" d="M12755.8 10929.11l-73.7 0c-26.77,0 -48.47,-21.71 -48.47,-48.47 0,-26.77 21.7,-48.48 48.47,-48.48l73.7 0c26.77,0 48.46,21.71 48.46,48.48 0,26.76 -21.69,48.47 -48.46,48.47z"/>
   <path class="fil2" d="M12367.01 10377.4l-432.4 0c-26.77,0 -48.47,-21.7 -48.47,-48.47 0,-26.76 21.7,-48.46 48.47,-48.46l432.4 0c26.76,0 48.47,21.7 48.47,48.46 0,26.77 -21.71,48.47 -48.47,48.47z"/>
   <path class="fil2" d="M13315.19 10619.59l-1380.58 0c-26.77,0 -48.47,-21.7 -48.47,-48.46 0,-26.77 21.7,-48.48 48.47,-48.48l1380.58 0c26.76,0 48.46,21.71 48.46,48.48 0,26.76 -21.7,48.46 -48.46,48.46z"/>
   <path class="fil6" d="M13474.67 10377.4l-881.44 0c-26.77,0 -48.47,-21.7 -48.47,-48.47 0,-26.76 21.7,-48.46 48.47,-48.46l881.44 0c26.77,0 48.47,21.7 48.47,48.46 0,26.77 -21.7,48.47 -48.47,48.47z"/>
   <path class="fil6" d="M12284.66 9855.08l-395.94 0c-18.28,0 -33.09,-14.81 -33.09,-33.09l0 -30.75c0,-18.28 14.81,-33.09 33.09,-33.09l395.94 0c18.28,0 33.09,14.81 33.09,33.09l0 30.75c0,18.28 -14.81,33.09 -33.09,33.09z"/>
   <path class="fil2" d="M12600.72 9855.08l-121.5 0c-18.27,0 -33.08,-14.81 -33.08,-33.09l0 -30.75c0,-18.28 14.81,-33.09 33.08,-33.09l121.5 0c18.28,0 33.09,14.81 33.09,33.09l0 30.75c0,18.28 -14.81,33.09 -33.09,33.09z"/>
   <path class="fil2" d="M13296.99 9855.08l-487.37 0c-18.26,0 -33.09,-14.81 -33.09,-33.09l0 -30.75c0,-18.28 14.83,-33.09 33.09,-33.09l487.37 0c18.26,0 33.09,14.81 33.09,33.09l0 30.75c0,18.28 -14.83,33.09 -33.09,33.09z"/>
   <path class="fil7" d="M11909.68 9588.56l-104.64 0c-26.77,0 -48.47,-21.7 -48.47,-48.46 0,-26.77 21.7,-48.48 48.47,-48.48l104.64 0c26.77,0 48.46,21.71 48.46,48.48 0,26.76 -21.69,48.46 -48.46,48.46z"/>
   <path class="fil2" d="M12796.39 9588.56l-666.39 0c-26.77,0 -48.47,-21.7 -48.47,-48.46 0,-26.77 21.7,-48.48 48.47,-48.48l666.39 0c26.77,0 48.47,21.71 48.47,48.48 0,26.76 -21.7,48.46 -48.47,48.46z"/>
   <path class="fil6" d="M12002.12 8069.36l-446.71 0c-26.77,0 -48.48,-21.71 -48.48,-48.48 0,-26.76 21.71,-48.46 48.48,-48.46l446.71 0c26.77,0 48.47,21.7 48.47,48.46 0,26.77 -21.7,48.48 -48.47,48.48z"/>
   <path class="fil7" d="M12577.7 8323.06l-1022.29 0c-26.77,0 -48.48,-21.7 -48.48,-48.46 0,-26.77 21.71,-48.48 48.48,-48.48l1022.29 0c26.77,0 48.48,21.71 48.48,48.48 0,26.76 -21.71,48.46 -48.48,48.46z"/>
   <path class="fil2" d="M13678.34 8585.24l-2122.93 0c-26.77,0 -48.48,-21.7 -48.48,-48.46 0,-26.78 21.71,-48.48 48.48,-48.48l2122.93 0c26.77,0 48.47,21.7 48.47,48.48 0,26.76 -21.7,48.46 -48.47,48.46z"/>
   <path class="fil2" d="M12556.4 8769.92l-1000.99 0c-26.77,0 -48.48,-21.7 -48.48,-48.47 0,-26.76 21.71,-48.47 48.48,-48.47l1000.99 0c26.78,0 48.48,21.71 48.48,48.47 0,26.77 -21.7,48.47 -48.48,48.47z"/>
   <path class="fil6" d="M12351.64 9092.15l-1001 0c-26.77,0 -48.47,-21.7 -48.47,-48.47 0,-26.77 21.7,-48.46 48.47,-48.46l1001 0c26.77,0 48.47,21.69 48.47,48.46 0,26.77 -21.7,48.47 -48.47,48.47z"/>
   <path class="fil12" d="M12912.01 9092.15l-335.52 0c-26.77,0 -48.47,-21.7 -48.47,-48.47 0,-26.77 21.7,-48.46 48.47,-48.46l335.52 0c26.76,0 48.47,21.69 48.47,48.46 0,26.77 -21.71,48.47 -48.47,48.47z"/>
   <path class="fil7" d="M13769.85 9090.57l-633.8 0c-26.76,0 -48.46,-21.7 -48.46,-48.47 0,-26.76 21.7,-48.46 48.46,-48.46l633.8 0c26.77,0 48.47,21.7 48.47,48.46 0,26.77 -21.7,48.47 -48.47,48.47z"/>
   <path class="fil2" d="M14632.38 9090.57l-633.8 0c-26.76,0 -48.46,-21.7 -48.46,-48.47 0,-26.76 21.7,-48.46 48.46,-48.46l633.8 0c26.77,0 48.46,21.7 48.46,48.46 0,26.77 -21.69,48.47 -48.46,48.47z"/>
   <path class="fil2" d="M9815.05 9022.74l-267.38 0c-26.76,0 -48.46,-21.7 -48.46,-48.46 0,-26.77 21.7,-48.47 48.46,-48.47l267.38 0c26.76,0 48.46,21.7 48.46,48.47 0,26.76 -21.7,48.46 -48.46,48.46z"/>
   <path class="fil2" d="M9735.02 9806.86l-187.35 0c-26.76,0 -48.46,-21.69 -48.46,-48.46 0,-26.76 21.7,-48.46 48.46,-48.46l187.35 0c26.77,0 48.46,21.7 48.46,48.46 0,26.77 -21.69,48.46 -48.46,48.46z"/>
   <path class="fil2" d="M10067.77 9284.12l-520.1 0c-26.76,0 -48.46,-21.7 -48.46,-48.47 0,-26.76 21.7,-48.47 48.46,-48.47l520.1 0c26.76,0 48.46,21.71 48.46,48.47 0,26.77 -21.7,48.47 -48.46,48.47z"/>
   <path class="fil2" d="M9976.52 9545.5l-428.85 0c-26.76,0 -48.46,-21.7 -48.46,-48.48 0,-26.76 21.7,-48.46 48.46,-48.46l428.85 0c26.76,0 48.46,21.7 48.46,48.46 0,26.78 -21.7,48.48 -48.46,48.48z"/>
   <path class="fil6" d="M10620.77 8020.88c0,27.2 -22.05,49.24 -49.24,49.24 -27.18,0 -49.23,-22.04 -49.23,-49.24 0,-27.19 22.05,-49.22 49.23,-49.22 27.19,0 49.24,22.03 49.24,49.22z"/>
   <path class="fil6" d="M10620.77 7762.32c0,27.18 -22.05,49.23 -49.24,49.23 -27.18,0 -49.23,-22.05 -49.23,-49.23 0,-27.18 22.05,-49.23 49.23,-49.23 27.19,0 49.24,22.05 49.24,49.23z"/>
   <path class="fil6" d="M10620.77 8273.82c0,27.19 -22.05,49.24 -49.24,49.24 -27.18,0 -49.23,-22.05 -49.23,-49.24 0,-27.18 22.05,-49.23 49.23,-49.23 27.19,0 49.24,22.05 49.24,49.23z"/>
   <path class="fil6" d="M10620.77 8536.78c0,27.18 -22.05,49.22 -49.24,49.22 -27.18,0 -49.23,-22.04 -49.23,-49.22 0,-27.2 22.05,-49.24 49.23,-49.24 27.19,0 49.24,22.04 49.24,49.24z"/>
   <path class="fil6" d="M10620.77 8799.72c0,27.19 -22.05,49.23 -49.24,49.23 -27.18,0 -49.23,-22.04 -49.23,-49.23 0,-27.19 22.05,-49.24 49.23,-49.24 27.19,0 49.24,22.05 49.24,49.24z"/>
   <path class="fil6" d="M10620.77 9062.67c0,27.19 -22.05,49.23 -49.24,49.23 -27.18,0 -49.23,-22.04 -49.23,-49.23 0,-27.19 22.05,-49.24 49.23,-49.24 27.19,0 49.24,22.05 49.24,49.24z"/>
   <path class="fil6" d="M10620.77 9325.61c0,27.19 -22.05,49.24 -49.24,49.24 -27.18,0 -49.23,-22.05 -49.23,-49.24 0,-27.18 22.05,-49.22 49.23,-49.22 27.19,0 49.24,22.04 49.24,49.22z"/>
   <path class="fil6" d="M10620.77 9588.56c0,27.19 -22.05,49.24 -49.24,49.24 -27.18,0 -49.23,-22.05 -49.23,-49.24 0,-27.18 22.05,-49.23 49.23,-49.23 27.19,0 49.24,22.05 49.24,49.23z"/>
   <path class="fil6" d="M10620.77 9851.5c0,27.2 -22.05,49.24 -49.24,49.24 -27.18,0 -49.23,-22.04 -49.23,-49.24 0,-27.18 22.05,-49.22 49.23,-49.22 27.19,0 49.24,22.04 49.24,49.22z"/>
   <path class="fil6" d="M10620.77 10114.46c0,27.19 -22.05,49.23 -49.24,49.23 -27.18,0 -49.23,-22.04 -49.23,-49.23 0,-27.19 22.05,-49.24 49.23,-49.24 27.19,0 49.24,22.05 49.24,49.24z"/>
   <path class="fil6" d="M10620.77 10377.4c0,27.19 -22.05,49.23 -49.24,49.23 -27.18,0 -49.23,-22.04 -49.23,-49.23 0,-27.19 22.05,-49.23 49.23,-49.23 27.19,0 49.24,22.04 49.24,49.23z"/>
   <path class="fil6" d="M10620.77 10640.35c0,27.19 -22.05,49.24 -49.24,49.24 -27.18,0 -49.23,-22.05 -49.23,-49.24 0,-27.19 22.05,-49.24 49.23,-49.24 27.19,0 49.24,22.05 49.24,49.24z"/>
   <path class="fil6" d="M10620.77 10903.3c0,27.19 -22.05,49.23 -49.24,49.23 -27.18,0 -49.23,-22.04 -49.23,-49.23 0,-27.2 22.05,-49.23 49.23,-49.23 27.19,0 49.24,22.03 49.24,49.23z"/>
   <path class="fil2" d="M15173.15 6983.85l-5699.3 0c-99.39,0 -179.96,80.57 -179.96,179.96l0 341.03 6006.99 0 0 -393.27c0,-70.53 -57.19,-127.72 -127.73,-127.72z"/>
   <path class="fil11" d="M9675.86 7260.11c0,39.52 -32.03,71.55 -71.56,71.55 -39.52,0 -71.55,-32.03 -71.55,-71.55 0,-39.52 32.03,-71.56 71.55,-71.56 39.53,0 71.56,32.04 71.56,71.56z"/>
   <path class="fil11" d="M9896.05 7260.11c0,39.52 -32.04,71.55 -71.56,71.55 -39.52,0 -71.56,-32.03 -71.56,-71.55 0,-39.52 32.04,-71.56 71.56,-71.56 39.52,0 71.56,32.04 71.56,71.56z"/>
   <path class="fil11" d="M10116.23 7260.11c0,39.52 -32.03,71.55 -71.56,71.55 -39.52,0 -71.56,-32.03 -71.56,-71.55 0,-39.52 32.04,-71.56 71.56,-71.56 39.53,0 71.56,32.04 71.56,71.56z"/>
   <polygon class="fil11" points="10571.53,11266.31 11079.27,11815.2 11540.19,11266.31 "/>
   <path class="fil7" d="M15137.97 11325.93c-0.22,-1.22 18.83,1.61 52.55,-9.78 16.67,-5.76 36.73,-15.95 56.02,-33.7 19.29,-17.47 37.58,-43.25 46.63,-76.5 4.95,-16.57 6.13,-34.73 5.75,-54.15 -0.06,-19.42 -0.14,-39.85 -0.21,-61.28 -0.12,-42.88 -0.26,-89.76 -0.41,-140.53 -0.24,-101.61 -0.5,-218.78 -0.79,-350.68 -0.66,-527.96 -1.6,-1291.47 -2.76,-2234.86 -0.18,-235.9 -0.37,-483.03 -0.57,-740.51 -0.08,-128.76 -0.16,-260.11 -0.25,-393.94 -0.45,-33.1 0.89,-67.85 -1,-100.05 -3.71,-32.07 -17.14,-63.27 -39.26,-87.32 -21.58,-24.53 -51.55,-41.27 -83.59,-48.3 -31.77,-5.8 -67.48,-2.34 -101.87,-3.29 -554.77,0.25 -1147.52,0.51 -1771.26,0.8 -623.76,0.16 -1278.51,0.33 -1957.28,0.51 -339.38,0.03 -684.77,0.08 -1035.29,0.13 -175.26,0.01 -351.8,0.02 -529.52,0.03 -88.85,0.01 -178,0.01 -267.43,0.01 -21.96,0.35 -45.62,-0.79 -66.24,0.79 -21.11,2.08 -41.73,8.71 -60.18,19.2 -37.03,20.87 -64.78,57.65 -74.29,99.21 -6.84,28.41 -3.2,60.46 -4.17,91.75l0 93.86c0,62.52 0,124.89 0,187.13 -0.01,124.46 -0.01,248.37 -0.01,371.68 -0.02,246.62 -0.05,490.83 -0.07,732.33 -0.09,482.98 -0.17,955.05 -0.25,1413.6 -0.06,229.27 -0.13,455.15 -0.19,677.34 -0.03,111.09 -0.07,221.26 -0.1,330.45 0.2,54.39 -0.53,109.45 0.43,162.58 2.35,51.62 33.34,100.08 77.77,125.15 22.04,12.93 47.44,19.38 72.75,20.23 26.62,0.08 53.16,0.16 79.64,0.24 53.1,0.02 105.94,0.04 158.52,0.06 105.17,0.04 209.28,0.09 312.31,0.13 206.04,0.1 407.72,0.2 604.72,0.29l3.17 0 2.18 2.3c159.78,168.2 314.8,331.4 465,489.54l-10.42 0.32c142.59,-169.57 279.31,-332.17 411.18,-488.99l1.98 -2.36 3.06 0c1124.34,1.22 2037.68,2.21 2670.24,2.9 315.99,0.77 561.78,1.36 728.88,1.77 83.23,0.4 146.81,0.73 189.87,0.93 42.81,0.32 64.76,0.98 64.76,0.98 0,0 -21.95,0.65 -64.76,0.97 -43.06,0.22 -106.64,0.53 -189.87,0.94 -167.1,0.4 -412.89,0.99 -728.88,1.76 -632.56,0.69 -1545.9,1.68 -2670.24,2.9l5.02 -2.34c-131.65,156.99 -268.17,319.78 -410.52,489.55l-5.04 5.99 -5.4 -5.67c-150.39,-157.97 -305.59,-320.99 -465.56,-489.02l5.35 2.3c-197,0.09 -398.68,0.19 -604.72,0.29 -103.03,0.04 -207.14,0.09 -312.31,0.13 -52.58,0.02 -105.42,0.04 -158.52,0.06 -26.61,-0.06 -53.29,-0.11 -80.04,-0.18 -27.86,-0.88 -55.9,-8.03 -80.2,-22.24 -49,-27.58 -83.2,-81 -85.87,-137.97 -1.05,-55.05 -0.32,-108.73 -0.57,-163.54 -0.04,-109.19 -0.07,-219.36 -0.1,-330.45 -0.07,-222.19 -0.12,-448.07 -0.19,-677.34 -0.09,-458.55 -0.16,-930.62 -0.26,-1413.6 -0.01,-241.5 -0.03,-485.71 -0.06,-732.33 0,-123.31 -0.01,-247.22 -0.01,-371.68 0,-62.24 0,-124.61 -0.01,-187.13l0 -93.86 0 -47.01c-0.28,-15.48 0.82,-32.79 4.61,-48.68 10.6,-46.28 41.45,-87.16 82.65,-110.35 20.52,-11.68 43.51,-19.07 66.99,-21.38 24.08,-1.75 45.24,-0.48 67.97,-0.87 89.43,0 178.58,0 267.43,0 177.72,0.02 354.26,0.03 529.52,0.04 350.52,0.05 695.91,0.08 1035.29,0.13 678.77,0.17 1333.52,0.34 1957.28,0.51 623.74,0.28 1216.49,0.54 1771.26,0.79 34.77,1.1 68.71,-2.69 104.8,3.72 35.01,7.69 67.67,26.05 91.17,52.8 24.06,26.24 38.72,60.31 42.69,95.28 2.01,35.19 0.52,67.78 0.95,101.55 -0.08,133.83 -0.17,265.18 -0.25,393.94 -0.19,257.48 -0.38,504.61 -0.56,740.51 -1.16,943.39 -2.1,1706.9 -2.75,2234.86 -0.31,131.9 -0.57,249.07 -0.81,350.68 -0.14,50.77 -0.28,97.65 -0.4,140.53 -0.08,21.43 -0.14,41.86 -0.21,61.28 0.25,19.35 -1.11,38.3 -6.31,55.08 -9.51,33.9 -28.43,59.98 -48.22,77.52 -19.79,17.83 -40.27,27.89 -57.21,33.43 -17.01,5.61 -30.56,7.25 -39.54,7.86 -9.04,0.31 -13.59,0.24 -13.59,0.24z"/>
   <path class="fil11" d="M14282.92 6206.57l-4517.32 0c-58.3,0 -105.55,-47.26 -105.55,-105.55l0 -2303.09c0,-58.3 47.25,-105.56 105.55,-105.56l4537.97 0c58.3,0 105.56,47.26 105.56,105.56l0 2282.44c0,69.7 -56.51,126.2 -126.21,126.2z"/>
   <path class="fil2" d="M14409.13 4232.28l-4749.08 0 0 -424.23c0,-63.89 51.78,-115.68 115.67,-115.68l4517.73 0c63.89,0 115.68,51.79 115.68,115.68l0 424.23z"/>
   <path class="fil7" d="M14275.51 6206.58c-0.09,-0.8 12.78,0.45 36.24,-6.03 22.62,-6.59 58.14,-24.23 80.55,-66.48 11.26,-20.96 16.17,-47.19 14.66,-76.65 -0.13,-29.45 -0.27,-61.62 -0.41,-96.46 -0.24,-69.77 -0.5,-150.2 -0.8,-240.7 -0.65,-362.59 -1.59,-886.6 -2.75,-1534.02 -0.1,-80.96 -0.2,-163.85 -0.29,-248.58 -0.05,-42.38 -0.1,-85.2 -0.15,-128.49 3.78,-42.08 -19.43,-83.39 -57.71,-100.79 -19.03,-9.44 -39.52,-9.77 -62.33,-9.25 -22.32,0.02 -44.75,0.04 -67.28,0.07 -45.07,0.04 -90.58,0.09 -136.51,0.12 -91.86,0.08 -185.43,0.16 -280.62,0.25 -380.8,0.24 -787.66,0.52 -1215.79,0.79 -856.33,0.22 -1797.73,0.45 -2785.86,0.69 -15.85,0.02 -30.23,-0.45 -44.04,3.03 -13.89,3.28 -27.09,9.36 -38.62,17.73 -23.17,16.69 -39.26,42.76 -43.58,70.86 -2.23,13.63 -1.3,29.19 -1.51,44.57l0 45.95 -0.01 91.66c-0.01,122.03 -0.01,243.24 -0.02,363.57 -0.05,240.66 -0.09,477.8 -0.14,710.82 -0.07,233.01 -0.14,461.89 -0.21,686.05 -0.04,112.08 -0.09,222.98 -0.14,332.61 -2.23,52.39 30.4,102.78 78.4,121.38 23.71,10.36 49.28,9.46 76.73,9.26 26.93,0.01 53.78,0.03 80.54,0.04 856.36,0.7 1627.54,1.33 2275.29,1.86 647.42,1.16 1171.38,2.11 1533.91,2.76 180.84,0.71 321.33,1.25 417.04,1.62 47.42,0.38 83.65,0.67 108.47,0.86 24.43,0.3 36.94,0.9 36.94,0.9 0,0 -12.51,0.58 -36.94,0.89 -24.82,0.18 -61.05,0.48 -108.47,0.85 -95.71,0.37 -236.2,0.92 -417.04,1.63 -362.53,0.65 -886.49,1.59 -1533.91,2.76 -647.75,0.52 -1418.93,1.16 -2275.29,1.86 -26.76,0.01 -53.61,0.01 -80.54,0.03 -26.05,0.25 -56.05,1.34 -82.79,-10.35 -54.17,-20.65 -91.13,-78.45 -88.63,-136.35 -0.04,-109.63 -0.09,-220.53 -0.13,-332.61 -0.08,-224.16 -0.15,-453.04 -0.22,-686.05 -0.04,-233.02 -0.09,-470.16 -0.13,-710.82 -0.01,-120.33 -0.02,-241.54 -0.03,-363.57l-0.01 -91.66 0 -45.95c0.25,-15.21 -0.88,-30.53 1.71,-47.29 5.03,-32.63 23.69,-62.86 50.53,-82.18 13.36,-9.7 28.68,-16.76 44.81,-20.56 16.26,-4.08 33.08,-3.47 48.03,-3.51 988.13,0.24 1929.53,0.48 2785.86,0.69 428.13,0.27 834.99,0.54 1215.79,0.79 95.19,0.09 188.76,0.17 280.62,0.25 45.93,0.03 91.44,0.08 136.51,0.13 22.53,0.02 44.96,0.04 67.28,0.05 21.49,-0.54 46.89,-0.15 67.97,10.63 43.41,19.17 69.55,68.18 65.2,112.93 -0.05,43.29 -0.1,86.11 -0.14,128.49 -0.1,84.73 -0.2,167.62 -0.3,248.58 -1.16,647.42 -2.1,1171.43 -2.75,1534.02 -0.3,90.5 -0.56,170.93 -0.8,240.7 -0.14,34.84 -0.28,67.01 -0.4,96.46 0.02,14.61 -0.16,29.01 -2.88,42.28 -2.99,13.18 -7.3,25.33 -13.02,35.99 -23.54,43.09 -60.11,60.45 -83.17,66.56 -23.94,6 -36.72,4.33 -36.72,4.33z"/>
   <path class="fil11" d="M10101.92 4004.43c0,48.84 -39.6,88.43 -88.44,88.43 -48.84,0 -88.44,-39.59 -88.44,-88.43 0,-48.85 39.6,-88.44 88.44,-88.44 48.84,0 88.44,39.59 88.44,88.44z"/>
   <path class="fil11" d="M10374.03 4004.43c0,48.84 -39.6,88.43 -88.44,88.43 -48.85,0 -88.44,-39.59 -88.44,-88.43 0,-48.85 39.59,-88.44 88.44,-88.44 48.84,0 88.44,39.59 88.44,88.44z"/>
   <path class="fil11" d="M10646.14 4004.43c0,48.84 -39.59,88.43 -88.43,88.43 -48.84,0 -88.44,-39.59 -88.44,-88.43 0,-48.85 39.6,-88.44 88.44,-88.44 48.84,0 88.43,39.59 88.43,88.44z"/>
   <path class="fil7" d="M11028.48 4993.13l-552.07 0c-33.09,0 -59.9,-26.81 -59.9,-59.9 0,-33.08 26.81,-59.89 59.9,-59.89l552.07 0c33.08,0 59.89,26.81 59.89,59.89 0,33.09 -26.81,59.9 -59.89,59.9z"/>
   <path class="fil2" d="M11028.48 5306.67l-552.07 0c-33.09,0 -59.9,-26.81 -59.9,-59.9 0,-33.08 26.81,-59.89 59.9,-59.89l552.07 0c33.08,0 59.89,26.81 59.89,59.89 0,33.09 -26.81,59.9 -59.89,59.9z"/>
   <path class="fil2" d="M13942.76 4993.13l-1601.27 0c-33.09,0 -59.9,-26.81 -59.9,-59.9 0,-33.08 26.81,-59.89 59.9,-59.89l1601.27 0c33.09,0 59.9,26.81 59.9,59.89 0,33.09 -26.81,59.9 -59.9,59.9z"/>
   <path class="fil12" d="M11028.48 5630.69l-552.07 0c-33.09,0 -59.9,-26.82 -59.9,-59.89 0,-33.09 26.81,-59.9 59.9,-59.9l552.07 0c33.08,0 59.89,26.81 59.89,59.9 0,33.07 -26.81,59.89 -59.89,59.89z"/>
   <path class="fil12" d="M13560.78 5306.68l-552.07 0c-33.09,0 -59.91,-26.82 -59.91,-59.91 0,-33.07 26.82,-59.89 59.91,-59.89l552.07 0c33.07,0 59.9,26.82 59.9,59.89 0,33.09 -26.83,59.91 -59.9,59.91z"/>
   <path class="fil6" d="M11912.94 4993.13l-552.07 0c-33.09,0 -59.9,-26.81 -59.9,-59.9 0,-33.08 26.81,-59.89 59.9,-59.89l552.07 0c33.08,0 59.89,26.81 59.89,59.89 0,33.09 -26.81,59.9 -59.89,59.9z"/>
   <path class="fil7" d="M12624.28 5306.67l-1263.41 0c-33.09,0 -59.9,-26.81 -59.9,-59.9 0,-33.08 26.81,-59.89 59.9,-59.89l1263.41 0c33.07,0 59.9,26.81 59.9,59.89 0,33.09 -26.83,59.9 -59.9,59.9z"/>
   <path class="fil2" d="M13863.48 5630.69l-2505.31 0c-31.6,0 -57.2,-26.82 -57.2,-59.89 0,-33.09 25.6,-59.9 57.2,-59.9l2505.31 0c31.6,0 57.2,26.81 57.2,59.9 0,33.07 -25.6,59.89 -57.2,59.89z"/>
   <path class="fil2" d="M12597.96 5858.92l-1237.09 0c-33.09,0 -59.9,-26.81 -59.9,-59.89 0,-33.09 26.81,-59.9 59.9,-59.9l1237.09 0c33.07,0 59.89,26.81 59.89,59.9 0,33.08 -26.82,59.89 -59.89,59.89z"/>
   <path class="fil6" d="M10205.78 4933.23c0,33.6 -27.23,60.85 -60.84,60.85 -33.6,0 -60.84,-27.25 -60.84,-60.85 0,-33.6 27.24,-60.84 60.84,-60.84 33.61,0 60.84,27.24 60.84,60.84z"/>
   <path class="fil6" d="M10205.78 4633.18c0,33.61 -27.23,60.85 -60.84,60.85 -33.6,0 -60.84,-27.24 -60.84,-60.85 0,-33.6 27.24,-60.84 60.84,-60.84 33.61,0 60.84,27.24 60.84,60.84z"/>
   <path class="fil6" d="M10205.78 5245.83c0,33.6 -27.23,60.84 -60.84,60.84 -33.6,0 -60.84,-27.24 -60.84,-60.84 0,-33.6 27.24,-60.84 60.84,-60.84 33.61,0 60.84,27.24 60.84,60.84z"/>
   <path class="fil6" d="M10205.78 5570.8c0,33.6 -27.23,60.84 -60.84,60.84 -33.6,0 -60.84,-27.24 -60.84,-60.84 0,-33.6 27.24,-60.84 60.84,-60.84 33.61,0 60.84,27.24 60.84,60.84z"/>
   <path class="fil6" d="M10800.96 4676.78l-339.98 0c-17.63,0 -31.91,-14.29 -31.91,-31.92l0 -51.71c0,-17.63 14.28,-31.92 31.91,-31.92l339.98 0c17.61,0 31.91,14.29 31.91,31.92l0 51.71c0,17.63 -14.3,31.92 -31.91,31.92z"/>
   <path class="fil2" d="M8029.56 10076.51c0,0 -190.17,40.96 -223.19,175.96 -33.03,135 264.85,3363.9 276.82,3442.56 18.78,123.54 122.99,280.5 357.75,272.07 204.57,-7.36 2992.74,-0.86 3694.8,0.77 93.28,0.22 149.34,-79.23 161.65,-173.73l-3452.12 -203.78 -815.71 -3513.85z"/>
   <path class="fil2" d="M7942.98 10184.21l299.04 3482.17c5.73,56.87 53.13,100.45 110.29,101.38l3945.08 17.72 -757.86 -752.04 -2562.85 -18.06 -274.07 -2728.09c-3.82,-36.24 -30.17,-66.09 -65.67,-74.36l-574.1 -133.81c-65.38,-15.19 -126.37,38.28 -119.86,105.09z"/>
   <path class="fil7" d="M7942.99 10184.21c0,0 -1.15,-5.62 -0.65,-16.81 0.43,-11.06 3.33,-28.31 15.37,-47.09 11.64,-18.47 34.19,-38.59 67.08,-44.18 16.21,-3.22 34.57,-0.49 52.46,4.28 18.26,4.17 37.73,8.62 58.41,13.34 82.84,19.01 184.86,42.42 304.73,69.94 60,13.82 124.44,28.66 193.2,44.5 36.14,6.05 68.81,38.02 72.95,77.65 3.83,37.3 7.79,75.67 11.85,115.09 64.15,631.02 155.74,1532.02 265.7,2613.7l-7.35 -6.7c769.19,5.09 1636.6,10.84 2562.84,16.95l3.49 0.03 2.48 2.47c242.85,240.92 498.07,494.13 757.94,751.95l15.04 14.91 -21.18 -0.08c-55.21,-0.25 -114.9,-0.52 -174.75,-0.79 -1025.9,-4.85 -2003.16,-9.47 -2892.03,-13.67 -222.21,-1.13 -438.9,-2.22 -649.43,-3.28 -52.63,-0.28 -104.88,-0.54 -156.74,-0.81 -26.09,-0.28 -51.39,0.05 -77.84,-0.72 -27.44,-1.64 -53.95,-13.09 -73.91,-31.6 -20.06,-18.45 -33.29,-43.83 -37.14,-70.57 -2.88,-25.91 -4.49,-50.55 -6.78,-75.73 -4.27,-50.06 -8.49,-99.71 -12.68,-148.94 -33.44,-393.78 -64.58,-760.61 -93.01,-1095.52 -56.34,-669.59 -101.93,-1211.5 -133.48,-1586.41 -15.35,-187.08 -27.28,-332.42 -35.4,-431.39 -3.84,-49.08 -6.77,-86.58 -8.77,-112.23 -1.88,-25.3 -2.4,-38.29 -2.4,-38.29 0,0 1.7,12.89 4.16,38.13 2.39,25.61 5.9,63.06 10.49,112.07 8.87,98.91 21.89,244.14 38.66,431.09 32.83,374.8 80.29,916.52 138.95,1585.89 29.08,334.86 60.93,701.61 95.12,1095.33 4.27,49.22 8.56,98.85 12.91,148.91 2.29,24.84 4.05,50.57 6.8,74.98 3.4,23.36 15.02,45.64 32.63,61.78 17.53,16.21 40.8,26.18 64.74,27.58 24.98,0.69 51.35,0.36 77.11,0.6 51.85,0.19 104.1,0.39 156.74,0.59 210.53,0.83 427.21,1.68 649.41,2.56 888.86,3.78 1866.1,7.94 2891.97,12.3 59.85,0.27 119.55,0.55 174.74,0.79l-6.14 14.83c-259.82,-257.89 -514.97,-511.14 -757.78,-752.13l5.96 2.48c-926.24,-6.93 -1793.65,-13.41 -2562.83,-19.17l-6.69 -0.06 -0.66 -6.65c-107.41,-1081.93 -196.87,-1983.14 -259.53,-2614.29 -3.89,-39.41 -7.68,-77.76 -11.36,-115.04 -3.75,-36.03 -32.82,-65.23 -66.54,-71.09 -68.68,-16.18 -133.05,-31.36 -192.98,-45.49 -119.69,-28.33 -221.53,-52.44 -304.24,-72.01 -20.63,-4.91 -40.07,-9.53 -58.3,-13.87 -18.16,-4.99 -35.11,-7.66 -50.99,-4.78 -31.78,5.01 -54.01,24.21 -65.69,42.05 -12.06,18.13 -15.34,34.99 -16.13,45.89 -0.89,11.03 -0.1,16.72 -0.53,16.73z"/>
   <polygon class="fil7" points="10830.68,13695.03 11197.39,13695.03 10733.78,13093.65 10516.13,13093.65 "/>
   <path class="fil7" d="M8078.54 10341.61l280.05 3025.52 521.77 -414.99 -224.62 -2549.06c-1.84,-20.45 -17.49,-36.95 -37.81,-39.86l-489.11 -69.96c-28.5,-4.08 -53.24,19.72 -50.28,48.35z"/>
   <polygon class="fil7" points="8638.89,13695.03 9017.39,13695.03 9402.01,13093.65 9184.36,13093.65 "/>
   <polygon class="fil7" points="9103.45,13695.03 9470.16,13695.03 9671.12,13093.65 9453.46,13093.65 "/>
   <polygon class="fil7" points="9552.3,13695.03 9919.01,13695.03 9938.76,13093.65 9721.1,13093.65 "/>
   <polygon class="fil7" points="9968.48,13695.03 10335.18,13695.03 10199.82,13093.65 9982.15,13093.65 "/>
   <polygon class="fil7" points="10402.3,13695.03 10769.01,13695.03 10470.26,13093.65 10252.59,13093.65 "/>
   <path class="fil2" d="M11178.9 13577.81c0,2.87 -559.19,5.2 -1248.84,5.2 -689.87,0 -1248.94,-2.33 -1248.94,-5.2 0,-2.88 559.07,-5.21 1248.94,-5.21 689.65,0 1248.84,2.33 1248.84,5.21z"/>
   <path class="fil2" d="M11112.44 13467.52c0,2.88 -531.06,5.21 -1186,5.21 -655.18,0 -1186.13,-2.33 -1186.13,-5.21 0,-2.87 530.95,-5.2 1186.13,-5.2 654.94,0 1186,2.33 1186,5.2z"/>
   <path class="fil2" d="M11112.44 13367.47c0,5.76 -499.71,10.41 -1115.98,10.41 -616.5,0 -1116.1,-4.65 -1116.1,-10.41 0,-5.74 499.6,-10.41 1116.1,-10.41 616.27,0 1115.98,4.67 1115.98,10.41z"/>
   <path class="fil2" d="M11127.81 13276.15c0,5.74 -488.95,10.41 -1091.97,10.41 -603.24,0 -1092.09,-4.67 -1092.09,-10.41 0,-5.75 488.85,-10.41 1092.09,-10.41 603.02,0 1091.97,4.66 1091.97,10.41z"/>
   <path class="fil2" d="M11178.9 13209.46c0,5.75 -492.14,10.41 -1099.08,10.41 -607.17,0 -1099.2,-4.66 -1099.2,-10.41 0,-5.74 492.03,-10.41 1099.2,-10.41 606.94,0 1099.08,4.67 1099.08,10.41z"/>
   <path class="fil2" d="M11233.06 13139.82c0,5.75 -501.38,10.41 -1119.71,10.41 -618.56,0 -1119.82,-4.66 -1119.82,-10.41 0,-5.75 501.26,-10.41 1119.82,-10.41 618.33,0 1119.71,4.66 1119.71,10.41z"/>
   <path class="fil2" d="M8297.16 13666.38c227.82,-213.15 455.63,-426.3 683.46,-639.45l-683.46 639.45z"/>
   <path class="fil7" d="M8980.62 13026.93c3.26,3.51 -147.09,149.49 -335.79,326.05 -188.77,176.6 -344.4,316.89 -347.67,313.4 -3.27,-3.5 147.05,-149.46 335.82,-326.07 188.7,-176.55 344.36,-316.87 347.64,-313.38z"/>
   <path class="fil6" d="M20290.22 10645.19c0,0 -33.5,-353.5 -914.55,-579.74 -425.4,-109.24 -1440.84,-161.72 -1555.94,498.3 -3.72,21.37 -505.39,4172.5 -505.39,4172.5l1877.36 0 1098.52 -4091.06z"/>
   <path class="fil6" d="M19992.85 14736.25l-866.11 0 289.25 -4067.03c21.18,-197.9 226.01,-340.58 457.49,-318.69l77.53 7.33c231.48,21.91 378.08,244.88 371.45,498.91l-329.61 3879.48z"/>
   <path class="fil7" d="M19191.7 14589.83c-4.78,-0.39 56.4,-801.53 136.61,-1789.15 80.26,-987.98 149.15,-1788.32 153.93,-1787.93 4.78,0.39 -56.39,801.36 -136.64,1789.32 -80.21,987.64 -149.13,1788.15 -153.9,1787.76z"/>
   <path class="fil7" d="M20123.95 10453.09c-1.22,3.34 -45.11,-18.95 -121.74,-28.63 -75.47,-10.15 -186.76,-2.13 -288.87,56.2 -101.94,58.71 -165.04,150.76 -194.37,221.04 -30.33,71.03 -33.24,120.16 -36.73,119.53 -1,-0.09 -1.12,-12.27 1.7,-34.08 2.73,-21.8 9.63,-53.15 23.67,-90.08 27.13,-73.31 90.85,-170.25 197.09,-231.45 106.43,-60.8 222.27,-66.88 299.24,-53.3 38.98,6.51 69.53,16.39 89.73,25.03 20.24,8.59 30.7,14.83 30.28,15.74z"/>
   <path class="fil7" d="M17389.3 5368.39c8.69,-238.09 -152.69,-270.25 -276.91,-242.84 -150.94,-111.05 -380.05,-98.55 -518.02,28.27 -113.09,-61.68 -258.51,-59.29 -369.49,6.07 -111.02,65.37 -183.63,191.36 -184.56,320.17 -129.5,-15.89 -265.16,58.72 -321.04,176.61 -55.9,117.9 -27.81,270.17 66.48,360.35 -138.54,50.5 -224.9,213.91 -188.59,356.81 36.31,142.94 190.22,245.29 336.06,223.54l1460.97 -972.94c87.61,-92.23 -9.54,-128.91 -4.9,-256.04z"/>
   <path class="fil14" d="M15891.02 6641.07c29.87,-664.72 565.23,-1194.95 1230.2,-1218.58l66.08 -2.36c713.93,16.3 1098.96,631.73 1062.94,1344.95l-18.83 2376.18 -4.66 451.18 -1632.35 388.05 -16.59 -940.57c0,0 -688.72,-82.13 -721.52,-766.62 -15.84,-330.58 6.93,-1013.97 34.73,-1632.23z"/>
   <path class="fil15" d="M16572.11 9039.16c0,0 438.24,10.75 887.95,-294.54 0,0 -193.52,500.34 -879.02,462.97l-8.93 -168.43z"/>
   <path class="fil7" d="M16090.34 7331.74c-0.01,51.7 43.8,94.33 97.8,95.31 53.9,0.96 97.69,-40.03 97.67,-91.74 -0.03,-51.71 -43.8,-94.41 -97.7,-95.39 -53.99,-0.98 -97.78,40.13 -97.77,91.82z"/>
   <path class="fil7" d="M16043.73 7005.94c12.56,12.32 84.68,-45.15 189.94,-48.6 105.08,-4.98 184.23,46.43 195.17,33.14 5.42,-5.92 -7.76,-28.51 -42.25,-51.78 -33.96,-23.22 -91.26,-44.91 -156.82,-42.31 -65.53,2.71 -119.82,28.8 -150.63,54.62 -31.48,25.98 -41.61,49.44 -35.41,54.93z"/>
   <path class="fil7" d="M16936.26 7310.06c0,51.7 43.8,94.31 97.81,95.3 53.89,0.99 97.68,-40.03 97.67,-91.77 -0.02,-51.67 -43.84,-94.36 -97.72,-95.36 -53.98,-1 -97.78,40.12 -97.76,91.83z"/>
   <path class="fil7" d="M17049.93 6955.5c12.6,12.33 84.83,-45.13 190.01,-48.59 105.05,-4.97 184.22,46.42 195.19,33.12 5.39,-5.9 -7.66,-28.48 -42.3,-51.76 -33.95,-23.21 -91.25,-44.91 -156.8,-42.31 -65.52,2.69 -119.81,28.78 -150.65,54.61 -31.37,25.98 -41.59,49.43 -35.45,54.93z"/>
   <path class="fil7" d="M16731.06 7747.76c0.29,-6.02 -65.52,-15 -171.99,-24.78 -26.98,-1.8 -52.6,-6.24 -57.78,-24.44 -7.02,-19.18 3.19,-48.55 15.1,-80.29 22.95,-65.91 46.96,-135.01 72.19,-207.45 100.02,-295.25 171.36,-537.63 159.45,-541.56 -11.94,-3.91 -102.67,232.2 -202.65,527.48 -24.01,72.77 -47,142.18 -68.81,208.54 -9.08,30.9 -25.34,66.17 -10.2,105.96 7.96,19.82 28.19,33.71 45.58,37.72 17.42,4.65 32.54,4.4 45.87,4.71 106.88,1.96 173.05,0.08 173.24,-5.89z"/>
   <path class="fil7" d="M17043.36 7809.51c-17.14,-0.38 -13.31,113.84 -108.19,198.39 -94.71,84.81 -216.93,76.32 -217.26,92.32 -1.32,7.22 27.91,21.22 79.37,20.79 50.46,-0.06 123.51,-18.87 181.57,-70.57 57.87,-51.88 81.17,-119.12 83.4,-166.11 2.66,-47.93 -11.09,-75.77 -18.89,-74.82z"/>
   <path class="fil7" d="M17037.91 6654.95c13.48,26.88 103.25,-0.85 213.45,-2.96 110.11,-4.63 202.71,17.54 213.07,-10.06 4.48,-13.15 -14.83,-37.38 -54.3,-59.29 -39.14,-21.89 -98.84,-39.22 -164.9,-37.25 -66.03,2.09 -123.54,22.97 -160.03,47.19 -36.82,24.22 -53.28,49.56 -47.29,62.37z"/>
   <path class="fil7" d="M16057.33 6716.5c17.38,24.75 90.98,3.32 178.18,6.23 87.28,-0.16 160.18,23.54 178.31,-0.66 8.02,-11.78 -2.48,-36.26 -33.67,-60.37 -30.71,-24.02 -83,-44.92 -142.96,-45.89 -59.95,-0.89 -112.86,18.35 -144.31,41.39 -31.92,23.12 -43.19,47.28 -35.55,59.3z"/>
   <path class="fil7" d="M15945.71 6324.67c0,0 165.37,-435.27 368.6,-542.69 246.04,-130.06 363.58,140.89 599.78,65.73 236.2,-75.18 471.06,-199.93 721.44,-24.16 274.03,192.37 154.04,338.43 181.32,641.7 110.65,1229.5 347.99,1569.85 391.35,987.33 4.74,-63.81 179.38,-120.65 195.98,-390.16 21.52,-349.48 19.86,-772.83 -66.65,-1017.23 -72.93,-205.99 -196.82,-345.7 -415.45,-496.81 -345.13,-238.53 -807.16,-227.49 -1119.69,-184.78 -312.48,42.71 -904.35,425.13 -856.68,961.07z"/>
   <path class="fil14" d="M18163.9 7435.51c0.55,-105.85 88.66,-192.55 194.32,-186.28 128.14,7.61 272.84,75.08 273.79,339.3 1.72,468.68 -469.21,373.69 -470.07,360.26 -0.58,-9.13 0.93,-317.14 1.96,-513.28z"/>
   <path class="fil15" d="M18263.28 7772.08c2.05,-1.51 8.2,5.7 22.02,11.97 13.46,6.11 36.62,10.27 61.03,1.02 49.46,-18.34 90.87,-97.09 92.84,-181.59 1.02,-42.63 -8.06,-83.23 -23.3,-116.8 -14.43,-34.25 -36.68,-58.11 -61.63,-62.44 -24.83,-5.66 -42.42,9.32 -48.09,22.53 -6.25,13.14 -3.25,22.48 -5.72,23.3 -1.3,1.19 -10.09,-7.83 -6.38,-27.2 1.9,-9.3 7.35,-20.39 18.33,-29.41 11.22,-9.21 27.74,-13.93 45.1,-12.1 36.16,2.35 68.81,35.5 85.56,72.35 18.73,37.01 29.95,82.62 28.78,130.52 -2.66,94.48 -50.68,183.01 -118.37,202.83 -32.94,8.73 -60.47,-1.11 -74.73,-12.11 -14.55,-11.55 -17.04,-22.01 -15.44,-22.87z"/>
   <path class="fil7" d="M18122.49 6528.76c-59.32,43.66 -122.04,88.74 -195.04,98.6 -73,9.86 -158.28,-29.25 -173.22,-101.38 -6.7,-32.39 -0.09,-70.48 -22.41,-94.91 -26.63,-29.14 -73.47,-18.04 -112.55,-12.49 -135.6,19.28 -278.4,-72.04 -317.79,-203.23 -32.86,53.21 -113.97,53.83 -167.71,21.84 -53.74,-32 -89.53,-86.22 -132.32,-131.84 -42.79,-45.62 -101.99,-85.69 -163.56,-74.69 -34.44,6.15 -66.11,27.9 -101.03,26.05 -61.68,-3.27 -94.25,-74.2 -105.72,-134.9 -11.49,-60.68 -21.25,-131.62 -74.49,-162.95 -49.35,-29.01 -111.26,-9.01 -167.57,1.33 -56.28,10.36 -129.85,-0.33 -146.29,-55.16 -8.64,-28.75 2.74,-59.75 17.93,-85.66 68.81,-117.35 225.98,-173.99 353.84,-127.51 40.3,-156.33 180.69,-281.88 340.56,-304.5 159.84,-22.65 329.57,58.98 411.7,197.99 95.75,-93.28 238.19,-136.09 369.52,-111 131.33,25.07 247.97,117.34 302.61,239.37 112.81,-34 244.18,5.41 319.64,95.93 75.46,90.51 90.59,226.83 36.84,331.7 85.87,45.08 160.9,126.14 166.07,222.99 5.2,96.84 -85.76,196.76 -180.19,174.58 40.47,74.11 13.36,177.61 -58.23,222.36 -71.61,44.74 -176.53,23.76 -225.41,-45.08l24.82 12.56z"/>
   <path class="fil6" d="M18415.61 6336.67c1.57,-1.3 10.03,39.04 -25.97,91.03 -17.86,24.7 -48.95,50.83 -91.83,59.28 -41.92,8.57 -93.99,0.07 -134.85,-34.04l19.7 -3.67c-21.73,41.13 -50.82,83.28 -89.3,120.07 -24.78,23.46 -52.49,43.68 -83.43,56.06 -30.28,13.35 -65.2,15.75 -93.93,12.14 -59.58,-4.44 -112.48,-34.47 -137.87,-72.69 -26.32,-37.35 -35.46,-72.57 -41.35,-96.08 -5.61,-23.79 -6.54,-37.3 -4.96,-37.7 2.02,-0.52 6.44,12.21 15,34.62 8.7,22.1 20.74,55.3 46.41,87.5 46.77,65.58 192.57,94.72 281.58,-3.4 35.73,-34.15 63.92,-74.02 85.21,-112.6l7.76 -14.08 11.96 10.41c33.18,28.88 77.82,37.96 114.15,31.95 36.95,-5.71 65.22,-26.58 83.16,-47.67 36.05,-43.98 34.43,-82.19 38.56,-81.13z"/>
   <path class="fil14" d="M12879.69 12467.67c0,0 -883.55,-26.48 -936.51,-43.03 -52.94,-16.54 -182,-19.85 -244.89,0 -62.87,19.86 -314.37,109.21 -314.37,109.21l-533.77 142.29c0,0 -536.41,350.87 -525.18,421.08 11.23,70.2 69.49,118.33 165.47,81.93 95.96,-36.41 580.25,-287.9 580.25,-287.9l531.56 -56.26c0,0 726.99,261.13 873.72,248.19 146.73,-12.95 522.84,-76.58 522.84,-76.58 0,0 52.96,-376.79 26.48,-436.35 -26.48,-59.57 -145.6,-102.58 -145.6,-102.58z"/>
   <path class="fil14" d="M10363.35 13409.29c0,0 447.78,-480.13 571.86,-544.87 124.08,-64.74 814.61,-178.03 814.61,-178.03 0,0 221.17,-91.72 302.11,-59.34 80.91,32.36 938.68,161.83 976.44,167.24 37.76,5.39 -183.42,755.26 -183.42,755.26 0,0 -296.71,53.95 -641.98,-26.97 -345.26,-80.93 -463.94,-188.82 -463.94,-188.82l-344.67 -90.51 -210.88 80.43c0,0 -37.88,312.19 -188.94,296l-70.13 -48.55 53.95 -345.26 -221.18 91.7c0,0 -172.64,258.95 -302.11,221.2 -129.48,-37.77 -91.72,-129.48 -91.72,-129.48z"/>
   <path class="fil15" d="M10363.35 13409.29c0.87,0.06 -5.47,12.51 -3.42,37.46 1.24,12.25 5.58,27.61 16.69,42.15 10.94,14.59 28.54,27.53 50.68,36.92 22.14,9.36 48.61,17.4 77.71,11.14 28.79,-6.56 57.59,-22.63 85.7,-43.49 56.15,-42.26 110.77,-104.06 162.55,-178.51l0.84 -1.19 1.27 -0.54c66.31,-27.76 140.82,-58.94 220.88,-92.44l9.04 -3.79 -1.49 9.72c-15.97,103.89 -33.87,220.45 -53.06,345.39l-2.68 -6.24c21.41,14.75 45.65,31.45 70.23,48.39l-3.04 -1.13c28.24,2.54 56.32,-8.3 77.81,-28.54 21.65,-20.03 38.66,-46.37 51.5,-74.93 26.15,-57 42.41,-121.21 51.69,-186.85l0.62 -4.4 4.02 -1.54c65.7,-25.17 137.38,-52.63 210.75,-80.74l2.28 -0.87 2.38 0.61c108.89,28.47 225.13,58.85 344.76,90.11l1.54 0.41 1.83 1.42c67.74,52.96 152.79,89.46 238.45,121.54 86.7,31.08 177.89,56.26 271.62,75.54 93.8,19.17 191.02,29.49 289.78,32.67 98.61,2.77 199.63,-0.97 299.11,-16.53l-6.75 6.06c15.25,-52.93 31.64,-109.81 48.13,-167.03 47.36,-169.65 95,-336.64 129.6,-501.71 3.97,-20.59 7.83,-41.38 9.43,-61.49 0.38,-4.96 0.48,-10.06 0,-13.97 0.34,-2.17 -2.05,-3.42 1.38,-0.65 0.6,0.34 1.29,0.51 1.91,0.5l-0.88 -0.14 -1.94 -0.29 -3.91 -0.58 -31.11 -4.67c-41.36,-6.33 -82.45,-12.63 -123.28,-18.88 -81.57,-12.85 -162.05,-25.53 -241.33,-38.02 -158.46,-25.59 -312.01,-50.68 -459.27,-78.79 -36.91,-7.69 -72.91,-13.84 -109.45,-25.05 -32.69,-12.73 -68.87,-8.41 -103.62,-3.13 -69.73,12.36 -136.55,35.15 -199.69,59.93l-0.85 0.34 -0.77 0.12c-241.38,40.57 -462.17,80.28 -654.77,126.5 -48.07,11.61 -94.49,24.13 -137.21,40.16 -42.15,16.57 -75.97,46.62 -108.84,73.62 -65.18,55.29 -121.81,109.98 -172.85,159.26 -101.82,98.94 -179.29,179.03 -232.4,233.24 -26.09,26.8 -46.27,47.52 -60.43,62.06 -13.72,14.05 -21.14,20.87 -21.14,20.87 0,0 6.38,-7.95 19.5,-22.42 13.79,-14.89 33.45,-36.11 58.88,-63.57 52.1,-55.21 128.62,-136.26 229.69,-236.21 50.69,-49.79 106.92,-104.96 172.13,-161.04 16.34,-13.98 33.19,-28.05 51.37,-41.38 17.81,-13.57 37.83,-26.31 59.9,-34.68 43.86,-16.75 90.29,-29.49 138.54,-41.43 193.08,-47.39 413.66,-87.98 655.27,-129.37l-1.61 0.46c64.17,-25.41 130.99,-48.49 202.74,-61.46 35.34,-5.47 74.56,-10.5 111.38,3.54 33.65,10.24 70.89,16.74 107.23,24.17 146.9,27.7 300.49,52.51 458.89,77.85 79.26,12.38 159.72,24.95 241.3,37.69 40.8,6.21 81.88,12.46 123.23,18.76l31.03 4.62 3.88 0.58 1.94 0.28 1.07 0.17c1.2,0.29 2.48,0.75 3.66,1.39 7.67,5.78 6.49,10.4 7.36,13.27 0.78,6.5 0.51,11.99 0.14,17.51 -1.74,21.85 -5.65,42.66 -9.65,63.63 -34.8,166.52 -82.33,333.19 -129.76,503.13 -16.51,57.29 -32.93,114.24 -48.21,167.22l-1.52 5.25 -5.24 0.82c-101.82,15.9 -202.97,19.49 -302.73,16.68 -99.68,-3.29 -197.83,-13.79 -292.6,-33.27 -94.72,-19.6 -186.28,-45.01 -273.94,-76.57 -43.75,-15.96 -86.35,-33.8 -127.36,-53.93 -40.98,-20.51 -80.4,-41.94 -116.24,-71.27l3.36 1.82c-119.56,-31.54 -235.72,-62.2 -344.55,-90.91l4.64 -0.25c-73.45,27.9 -145.22,55.14 -210.99,80.12l4.63 -5.92c-9.77,67.41 -26.3,131.98 -53.56,191.02 -13.42,29.44 -31.2,57.18 -54.99,79.05 -23.44,22.11 -56.27,34.86 -88.31,31.6l-1.67 -0.17 -1.39 -0.97c-24.51,-17.05 -48.67,-33.86 -70.02,-48.7l-3.31 -2.3 0.63 -3.96c19.83,-124.84 38.34,-241.32 54.83,-345.12l7.55 5.93c-80.28,32.97 -154.99,63.66 -221.49,90.97l2.11 -1.73c-53.04,75.03 -108.36,136.6 -166.05,179.15 -28.87,20.94 -58.59,37.17 -88.79,43.66 -30.74,6.25 -58.91,-2.77 -80.98,-12.63 -22.56,-10 -40.61,-23.73 -51.7,-39.22 -11.25,-15.43 -15.33,-31.54 -16.19,-44.18 -1.24,-25.72 5.97,-37.68 5.97,-37.68z"/>
   <path class="fil15" d="M11719.41 13002.95c-0.16,1.19 -12.27,0.83 -34.02,-0.85 -21.75,-1.67 -53.16,-4.65 -91.91,-8.7 -40.21,-4.48 -85.99,-9.58 -136.01,-15.14 -12.84,-1.51 -25.94,-3.05 -39.29,-4.61 -13.38,-2.02 -25.06,-1.12 -39.12,0.82 -27.1,3.72 -55.29,10.23 -83.91,17.43 -112.32,32.63 -224.69,54.28 -267.97,120.91 -23.01,30.25 -33.66,60.08 -39.96,80.51 -6,20.7 -7.62,32.63 -8.86,32.55 -1.15,-0.04 -1.82,-12.4 2.3,-34.15 4.45,-21.48 13.56,-53.11 36.64,-86.16 11.73,-16.18 26.53,-32.92 45.77,-46.94 19.15,-13.81 42.49,-25.42 66.86,-33.92 48.76,-17.79 103,-34.71 160.96,-49.62 29.03,-7.29 57.53,-13.78 86.04,-17.48 13.66,-1.97 29.77,-2.7 43.09,-0.42 13.34,1.76 26.42,3.5 39.24,5.2 49.91,6.93 95.58,13.27 135.7,18.84 38.59,5.62 69.77,10.45 91.28,14.19 21.5,3.73 33.32,6.35 33.17,7.54z"/>
   <path class="fil15" d="M10516.92 13249.6c-0.76,-0.82 12.21,-14.35 37.04,-37.29 24.85,-22.93 61.48,-55.35 107.91,-94.05 46.49,-38.62 102.59,-83.8 167.37,-130.85 32.55,-23.34 67.19,-47.24 104.74,-69.86 18.9,-11.13 38.5,-21.97 59.65,-31.19 21.76,-9.16 43.63,-15 66,-21.17 178.89,-49.31 346.34,-62.17 465.51,-80.06 57.57,-7.16 105.34,-13.1 141.92,-17.65 33.56,-3.78 52.19,-5.31 52.35,-4.12 0.15,1.18 -18.17,4.98 -51.43,10.81 -36.36,5.95 -83.84,13.72 -141.08,23.09 -118.8,21 -285.66,35.81 -462.73,84.67 -22.01,6.03 -44.18,12.04 -63.81,20.32 -19.99,8.66 -39.16,19.13 -57.73,29.94 -36.99,22 -71.54,45.41 -104.1,68.22 -64.87,46.04 -121.59,90.07 -168.92,127.38 -45.12,36.35 -82.56,66.51 -111.22,89.61 -26.14,21.33 -40.61,33.15 -41.47,32.2z"/>
   <path class="fil12" d="M16096.91 10121.11c0,0 -235.57,323.4 -422.21,712.08 -159.96,333.11 -677.74,1467.07 -677.74,1467.07l-2109.21 110.7 31.12 814.91c0,0 2037.21,725.76 2493.26,585.76 456.06,-140 941.85,-665.82 941.85,-665.82l218.12 -3437.32c0,0 -180.97,-34.11 -475.19,412.62z"/>
   <path class="fil12" d="M16537.88 9716.24c0,0 -540.83,1226.68 -619.84,1746.31 -156.87,1031.59 -209.57,1677.27 -209.57,1677.27l-183.9 1596.43 3602.17 0c0,0 119.28,-2958.75 42.67,-3950.8 -57.4,-743.25 -626.66,-1206.18 -859.52,-1460.43 -14.01,-15.31 -78.17,-223.4 -78.17,-223.4l-1678.57 429.91 -15.27 184.71z"/>
   <path class="fil16" d="M16363.7 9902.66c0.27,0.12 -1.15,4.07 -4.16,11.64 -3.44,8.35 -7.99,19.41 -13.76,33.45 -12.72,30.25 -30.8,73.26 -53.9,128.18 -46.33,111.44 -113.1,273.05 -180.3,478.04 -67.64,204.79 -133.84,453.39 -186.23,733.8 -53.58,280.15 -96.98,591.04 -133.19,918.35 -66.38,655.35 -126.46,1248.53 -170.07,1679.05 -22.29,214.03 -40.35,387.56 -52.96,508.68 -6.55,59.23 -11.68,105.6 -15.29,138.21 -1.84,15.07 -3.3,26.93 -4.4,35.89 -1.09,8.08 -1.79,12.19 -2.09,12.17 -0.3,-0.04 -0.18,-4.23 0.33,-12.36 0.67,-9 1.55,-20.94 2.69,-36.09 2.84,-32.69 6.88,-79.17 12.04,-138.54 11.31,-121.27 27.51,-294.99 47.49,-509.26 41.66,-429.91 96.69,-1023.91 165.02,-1679.68 36.25,-327.59 80.17,-638.87 134.74,-919.44 53.36,-280.82 121,-529.88 190.29,-734.65 68.85,-205 137.46,-366.12 185.72,-476.82 23.83,-55.51 43.71,-98 56.9,-126.94 6.44,-13.75 11.52,-24.59 15.35,-32.76 3.55,-7.33 5.5,-11.04 5.78,-10.92z"/>
   <path class="fil17" d="M18235.11 11833.72c-33.16,-326.84 -179.99,-654.7 -448.87,-843.45l-2196.38 3136.44c387.76,209.08 818.25,425 1249.05,332.86 231.73,-49.57 437.81,-186.25 604.89,-354.29 347.33,-349.29 535.76,-825.23 668.2,-1299.67 88.32,-316.43 156.27,-645.07 123.11,-971.89z"/>
   <path class="fil12" d="M18484.09 11454.82c-273.65,968.36 -889.51,2149.89 -1078.64,2387.27 -369.47,463.75 -857.8,563.85 -1149.15,563.85 -247.8,0 -2342.22,-407.86 -2962.88,-529.81 -104.79,-20.59 -186.92,-101.81 -208.89,-206.32l-5.4 -25.69 -279.41 -75.25 148.79 -749.72 29.69 -41.55 2995.44 94.23 871.4 -2426.98c16.45,-27.73 268.12,-842.17 950.47,-805.18l688.58 1815.15z"/>
   <path class="fil7" d="M17795.51 9639.67c0,0 -7.65,0.33 -22.64,0.3 -15,0.27 -37.38,-1.21 -66.76,1.63 -58.5,3.47 -146.64,15.36 -251.7,59.78 -104.19,45.2 -222.54,127.03 -328.72,253.57 -107.32,125.87 -201.6,292.01 -276.46,492.39l0.4 -0.83c-220.06,614.92 -518.92,1450 -868.87,2427.87l-1.85 5.17 -5.51 -0.17c-891.45,-27.72 -1909.94,-59.39 -2995.46,-93.16l7.29 -3.6c-9.29,13 -19.48,27.26 -29.69,41.55l1.45 -3.34c-43.03,216.83 -88.79,447.5 -135.05,680.65 -4.71,23.67 -9.39,47.3 -13.71,69.08l-6.25 -10.05c97.02,26.12 190.89,51.41 279.4,75.25l5.45 1.47 0.78 5.12c9.55,62.35 36.58,119.84 82.32,161.39 22.38,20.76 48.33,37.7 76.57,49.11 27.92,12.02 58.41,16.58 89.45,22.83 123.1,24.03 245.32,47.9 366.59,71.59 242.69,46.69 481.59,92.65 716.13,137.77 469.33,88.95 921.47,173.51 1352.77,246.49 107.87,17.87 214.44,35 319.76,49.89 52.72,6.59 105.13,13.98 156.82,16.35 52.04,0.7 104.04,-1.91 155.14,-7.75 204.9,-21.83 398.2,-86.68 566.13,-181.61 168.5,-94.92 309.09,-221.94 422.45,-360.35 55.87,-69.64 100.84,-145.67 145.33,-219.21 43.64,-74.19 84.79,-147.66 123.8,-220.05 310.17,-580.42 513.22,-1072.58 642.26,-1415.23 63.4,-171.9 108.48,-306.71 137.16,-398.62 14.11,-45.78 24.89,-80.75 32.27,-104.65 7.35,-23.55 11.53,-35.48 11.53,-35.48 0,0 -3.06,12.25 -9.88,35.95 -7.01,24.03 -17.26,59.17 -30.68,105.18 -27.64,92.28 -71.74,227.52 -134.24,399.9 -127.25,343.64 -328.7,836.78 -637.87,1418.65 -38.89,72.57 -79.94,146.26 -123.54,220.74 -44.49,73.86 -89.35,150.18 -145.95,221.07 -114,139.75 -255.67,268.23 -425.67,364.37 -169.44,96.14 -364.53,161.92 -571.49,184.25 -51.67,5.96 -104.1,8.67 -156.95,8.03 -53.32,-2.37 -105.71,-9.75 -158.68,-16.3 -105.63,-14.8 -212.31,-31.82 -320.3,-49.6 -431.62,-72.58 -883.86,-156.78 -1353.3,-245.48 -234.6,-45.01 -473.54,-90.88 -716.26,-137.46 -121.3,-23.66 -243.54,-47.5 -366.65,-71.51 -30.3,-6.1 -62.55,-10.88 -92.73,-23.8 -30.14,-12.17 -57.86,-30.23 -81.73,-52.39 -48.66,-43.56 -78.07,-107.43 -87.52,-170.5l6.23 6.57c-88.51,-23.83 -182.4,-49.11 -279.42,-75.24l-7.82 -2.11 1.57 -7.96c4.33,-21.77 9.01,-45.41 13.71,-69.07 46.28,-233.15 92.08,-463.81 135.12,-680.64l0.37 -1.83 1.07 -1.51c10.21,-14.28 20.41,-28.55 29.7,-41.55l2.69 -3.75 4.61 0.14c1085.5,34.54 2103.96,66.94 2995.39,95.31l-7.34 4.99c351.99,-977.13 652.58,-1811.59 873.92,-2426.06l0.4 -0.84c74.33,-197.85 170.84,-366.87 279.08,-492.32 107.43,-126.85 227.19,-208.69 332.43,-253.43 106.12,-43.98 194.86,-55.06 253.59,-57.67 29.52,-2.41 51.95,-0.49 66.95,-0.32 15.01,0.46 22.61,1.04 22.61,1.04z"/>
   <path class="fil16" d="M15313.62 12679.67c-5.15,2.65 -46.59,-108.19 -144.42,-211.97 -96.63,-104.96 -204.24,-154.12 -201.23,-159.08 0.81,-1.81 28.59,7.9 69.71,31.56 41.07,23.54 94.61,62.6 144.2,115.7 49.44,53.22 84.63,109.38 105.19,152.01 20.7,42.7 28.41,71.1 26.55,71.78z"/>
   <path class="fil16" d="M16335.85 13459.05c-2.96,0.43 -8.8,-38.4 -26.17,-98.83 -17.22,-60.39 -48.5,-141.93 -98.28,-223.78 -50.08,-81.71 -108.32,-146.8 -154.17,-189.71 -45.81,-43.07 -77.67,-66 -75.93,-68.44 0.68,-0.99 9.22,3.89 24.15,13.6 15.08,9.5 35.71,25.05 59.99,45.73 48.63,41.16 109.67,106.38 160.76,189.78 50.81,83.53 80.93,167.61 95.33,229.68 7.3,31.05 11.7,56.51 13.26,74.26 1.82,17.73 2.25,27.55 1.06,27.71z"/>
   <path class="fil17" d="M15536.82 12852.95l174.35 6.45c28.11,-684.16 169.12,-1366.41 289.77,-2040.43 -307.45,627.91 -388.05,1338.99 -464.12,2033.98z"/>
   <path class="fil7" d="M18251.38 9325.02c0.13,0.57 -5.53,2.54 -16.46,5.73 -12.87,3.52 -28.7,7.86 -47.93,13.14 -44.2,11.76 -103.91,27.64 -176.59,46.96 -149.1,39.61 -354.58,96.43 -583.02,154.04 -228.48,57.76 -437.41,102.21 -589.89,127.25 -76.21,12.6 -138.11,21.48 -181.1,25.88 -19.85,2 -36.2,3.66 -49.48,5 -11.34,0.95 -17.32,1.17 -17.39,0.57 -0.08,-0.59 5.77,-1.97 16.94,-4.04 13.17,-2.21 29.35,-4.92 49.01,-8.21 42.63,-6.45 104.12,-17.16 179.88,-31.27 151.59,-28.08 359.56,-74.31 587.8,-132 228.19,-57.55 434.22,-112.5 584.21,-149.09 74.94,-18.51 135.82,-32.6 178.04,-41.65 19.56,-4 35.64,-7.31 48.73,-9.99 11.18,-2.1 17.11,-2.91 17.25,-2.32z"/>
   <path class="fil18" d="M7747.34 12755.53c5.04,-169.26 -65.2,-381.62 -65.2,-381.62 -93.47,133.21 -104.38,247.63 -86.37,334.85 -37.42,-49.08 -84.32,-91.53 -138.85,-102.05 0,0 32.54,238.92 132.65,285.87l207.13 0c190.17,-59.79 157.84,-401.06 157.84,-401.06 -156.12,114.21 -175.86,161.82 -207.2,264.01z"/>
   <path class="fil19" d="M7550.27 12861.44c24.05,1.45 58.31,-3.98 66.26,-44.36 0,0 31.43,43.98 75.42,36.8 43.98,-7.18 51.16,-52.07 51.16,-52.07 0,0 26.29,62.29 113.17,57.87 -16.93,14.33 -36.62,25.68 -59.58,32.9l-207.13 0c-14.48,-6.79 -27.54,-17.62 -39.3,-31.14z"/>
   <polygon class="fil20" points="7478.96,12892.58 7916.18,12892.58 7817.83,13222.39 7564.34,13222.39 "/>
   <path class="fil21" d="M7530.26 13090.75c77.16,-28.1 241.85,-96.18 347.83,-198.17l38.09 0 -98.35 329.81 -253.49 0 -34.08 -131.64z"/>
   <path class="fil15" d="M7334.37 14035.05c-277.81,120.96 -545.49,132.09 -799.97,0l-185.7 -1556.54 1154.27 0 -168.6 1556.54z"/>
   <path class="fil2" d="M7426.55 12388.19l-34.73 -111.16 -869.48 -106.19c-23.68,-2.89 -46.16,11.17 -53.91,33.74l-63.13 183.61 -111.15 0 0 201.47c436.65,76.94 854.65,81.49 1250.5,0l0 -201.47 -118.1 0z"/>
   <path class="fil7" d="M7426.55 12388.19c0.17,-0.24 2.93,-0.46 8.14,-0.71 6.16,-0.22 13.67,-0.48 22.89,-0.8 21.17,-0.43 50.14,-1.02 87.06,-1.77l3.26 -0.06 0.03 3.34c0.5,51.96 1.15,119.95 1.93,201.47l0.04 4.22 -4.2 0.89c-138.44,29.11 -322.42,56.87 -536.75,61.35 -214.15,5.13 -457.8,-12.74 -711.47,-57.12l-4.83 -0.8 -7.17 -1.19 0.01 -7.35c0.02,-68.41 0.04,-135.78 0.06,-201.47l0.01 -8.6 8.6 0c37.64,0.03 74.71,0.07 111.14,0.1l-8.03 5.73c21.24,-61.48 41.99,-121.56 62.19,-180 4.47,-16.18 17.47,-31.86 33.8,-38.38 8.14,-3.41 17.04,-5.01 25.78,-4.55 8.71,0.72 15.31,1.8 23.02,2.68 29.76,3.71 59.06,7.36 87.86,10.95 115.05,14.48 222.16,27.94 319.32,40.17 192.33,24.97 344.91,44.78 442.97,57.51l2.14 0.28 0.58 1.99c10.16,35.01 18.11,62.45 23.92,82.5 2.41,8.76 4.37,15.89 5.98,21.76 1.29,4.97 1.89,7.62 1.72,7.86 -0.17,0.22 -1.1,-1.97 -2.78,-6.53 -1.97,-5.59 -4.36,-12.38 -7.31,-20.73 -6.74,-20.15 -15.97,-47.73 -27.74,-82.92l2.71 2.25c-98.24,-11.24 -251.12,-28.73 -443.79,-50.78 -97.26,-11.52 -204.46,-24.23 -319.61,-37.87 -28.82,-3.45 -58.14,-6.96 -87.92,-10.52 -15.64,-1.8 -28.81,-4.83 -40.49,0.9 -11.95,5.23 -20.76,15.12 -24.64,28.76 -20.02,58.5 -40.59,118.66 -61.64,180.19l-1.96 5.74 -6.08 0.01c-36.43,0.02 -73.5,0.06 -111.14,0.1l8.6 -8.6c0.02,65.69 0.04,133.06 0.07,201.47l-7.16 -8.54 4.79 0.8c252.67,44.19 495.03,62.64 708.19,58.74 213.31,-3.25 396.59,-29.16 534.94,-56.1l-4.15 5.1c0.78,-81.52 1.44,-149.51 1.93,-201.47l3.27 3.27c-37.58,-0.74 -67.07,-1.34 -88.61,-1.76 -8.98,-0.32 -16.3,-0.59 -22.31,-0.8 -4.93,-0.24 -7.34,-0.48 -7.17,-0.71z"/>
   <path class="fil14" d="M7415.77 13519.05c-301.6,48.72 -634.47,41.69 -986.78,0l-48 -471.86c371.7,39.98 736.34,41.67 1092.99,0l-58.21 471.86z"/>
   <path class="fil15" d="M6860.64 13198.69c-45.14,27.34 -63.43,84.8 -40.7,133.76l31.39 67.57c22.73,48.96 78.44,72.05 128.45,55.22l-119.14 -256.55z"/>
   <path class="fil15" d="M6881.69 13188.92l119.13 256.54c45.13,-27.33 63.44,-84.8 40.7,-133.76l-31.39 -67.57c-22.73,-48.97 -78.45,-72.05 -128.44,-55.21z"/>
   <path class="fil7" d="M7436.38 12391.13c0.27,1.17 -13.72,5.34 -39.31,11.87 -25.54,6.73 -62.92,14.72 -109.42,23.01 -92.92,16.69 -223.15,31.54 -367.51,31.37 -144.4,-0.44 -274.57,-15.86 -367.43,-32.96 -46.46,-8.47 -83.81,-16.62 -109.31,-23.47 -25.55,-6.63 -39.53,-10.86 -39.25,-12.03 0.27,-1.16 14.75,0.84 40.66,5.43 25.87,4.8 63.42,11.08 109.88,17.97 92.89,13.92 222.19,27.28 365.49,27.71 143.26,0.17 272.6,-12.62 365.55,-26.13 46.49,-6.7 84.07,-12.82 109.95,-17.51 25.94,-4.48 40.43,-6.42 40.7,-5.26z"/>
  </g>
 </g>
</svg>
