<svg xmlns="http://www.w3.org/2000/svg" xml:space="preserve" width="252mm" height="152mm" version="1.1" style="shape-rendering:geometricPrecision; text-rendering:geometricPrecision; image-rendering:optimizeQuality; fill-rule:evenodd; clip-rule:evenodd"
viewBox="0 0 25200 15200"
 xmlns:xlink="http://www.w3.org/1999/xlink"
 xmlns:xodm="http://www.corel.com/coreldraw/odm/2003">
 <defs>
  <style type="text/css">
   <![CDATA[
    .fil7 {fill:#263138;fill-rule:nonzero}
    .fil18 {fill:#265C4B;fill-rule:nonzero}
    .fil13 {fill:#274073;fill-rule:nonzero}
    .fil9 {fill:#373660;fill-rule:nonzero}
    .fil12 {fill:#4B61A6;fill-rule:nonzero}
    .fil8 {fill:#4F5285;fill-rule:nonzero}
    .fil6 {fill:#542828;fill-rule:nonzero}
    .fil19 {fill:#569C6F;fill-rule:nonzero}
    .fil5 {fill:#693939;fill-rule:nonzero}
    .fil16 {fill:#8091F2;fill-rule:nonzero}
    .fil15 {fill:#B3ADD9;fill-rule:nonzero}
    .fil4 {fill:#D1D1D1;fill-rule:nonzero}
    .fil3 {fill:#E8E8E8;fill-rule:nonzero}
    .fil0 {fill:#F7F7F7;fill-rule:nonzero}
    .fil17 {fill:#FE6C61;fill-rule:nonzero}
    .fil11 {fill:#FFB2A0;fill-rule:nonzero}
    .fil14 {fill:#FFC967;fill-rule:nonzero}
    .fil10 {fill:#FFD1C1;fill-rule:nonzero}
    .fil2 {fill:white;fill-rule:nonzero}
    .fil1 {fill:#274073;fill-rule:nonzero;fill-opacity:0.501961}
   ]]>
  </style>
 </defs>
 <g id="Capa_x0020_1">
  <metadata id="CorelCorpID_0Corel-Layer"/>
  <path class="fil0" d="M1330.17 14468.79l22655.28 0c0,0 2570.44,-8324.64 -3816.35,-10975.79 -6386.84,-2651.11 -8048.99,1951.08 -13287.85,2595.04 -5238.83,643.95 -7979.68,3454.16 -5551.08,8380.75z"/>
  <path class="fil1" d="M12973.43 3428.81c-409.84,0 -742.08,-332.24 -742.08,-742.05 0,-409.84 332.24,-742.08 742.08,-742.08 409.83,0 742.07,332.24 742.07,742.08 0,409.81 -332.24,742.05 -742.07,742.05zm1904.29 -1040.22l-297.28 0c-41.43,-225.57 -129.6,-438.55 -259.89,-627.31l210.24 -210.23c26.49,-26.46 26.49,-69.39 0,-95.84l-325.75 -325.8c-26.49,-26.47 -69.39,-26.47 -95.88,0l-210.24 210.22c-188.76,-130.26 -401.7,-218.48 -627.35,-259.85l0 -297.31c0,-37.42 -30.31,-67.76 -67.71,-67.76l-460.78 0c-37.4,0 -67.82,30.34 -67.82,67.76l0 297.31c-225.54,41.37 -438.5,129.59 -627.26,259.85l-210.24 -210.22c-26.47,-26.47 -69.37,-26.47 -95.86,0l-325.77 325.8c-26.48,26.45 -26.48,69.38 0,95.84l210.24 210.23c-130.29,188.76 -218.53,401.74 -259.88,627.31l-297.27 0c-37.5,0 -67.82,30.35 -67.82,67.76l0 460.77c0,37.42 30.32,67.76 67.82,67.76l297.27 0c41.35,225.59 129.59,438.57 259.88,627.32l-210.24 210.24c-26.48,26.46 -26.48,69.37 0,95.84l325.77 325.79c26.49,26.48 69.39,26.48 95.86,0l210.24 -210.23c188.76,130.28 401.72,218.49 627.26,259.85l0 297.31c0,37.44 30.42,67.78 67.82,67.78l460.78 0c37.4,0 67.71,-30.34 67.71,-67.78l0 -297.31c225.65,-41.36 438.59,-129.57 627.35,-259.85l210.24 210.23c26.49,26.48 69.39,26.48 95.88,0l325.75 -325.79c26.49,-26.47 26.49,-69.38 0,-95.84l-210.24 -210.24c130.29,-188.75 218.46,-401.73 259.89,-627.32l297.28 0c37.39,0 67.71,-30.34 67.71,-67.76l0 -460.77c0,-37.41 -30.32,-67.76 -67.71,-67.76z"/>
  <path class="fil2" d="M12973.43 1647.05c-573.25,0 -1039.64,466.41 -1039.64,1039.71 0,573.27 466.39,1039.66 1039.64,1039.66 573.32,0 1039.7,-466.39 1039.7,-1039.66 0,-573.3 -466.38,-1039.71 -1039.7,-1039.71zm0 2130.32c-601.39,0 -1090.57,-489.25 -1090.57,-1090.61 0,-601.41 489.18,-1090.66 1090.57,-1090.66 601.38,0 1090.65,489.25 1090.65,1090.66 0,601.36 -489.27,1090.61 -1090.65,1090.61z"/>
  <path class="fil1" d="M15948.61 5146.87c-282.33,0 -511.19,-228.9 -511.19,-511.27 0,-282.34 228.86,-511.24 511.19,-511.24 282.35,0 511.3,228.9 511.3,511.24 0,282.37 -228.95,511.27 -511.3,511.27zm1312.01 -716.68l-204.83 0c-28.48,-155.42 -89.31,-302.15 -179.06,-432.19l144.89 -144.84c18.18,-18.25 18.18,-47.8 0,-66.03l-224.48 -224.47c-18.26,-18.24 -47.8,-18.24 -66.06,0l-144.81 144.84c-130.02,-89.74 -276.84,-150.54 -432.21,-179.03l0 -204.84c0,-25.79 -20.89,-46.7 -46.66,-46.7l-317.48 0c-25.76,0 -46.66,20.91 -46.66,46.7l0 204.84c-155.45,28.49 -302.18,89.29 -432.2,179.03l-144.88 -144.84c-18.28,-18.24 -47.8,-18.24 -65.97,0l-224.51 224.47c-18.26,18.23 -18.26,47.78 0,66.03l144.81 144.84c-89.75,130.04 -150.49,276.77 -178.97,432.19l-204.83 0c-25.86,0 -46.75,20.9 -46.75,46.69l0 317.45c0,25.78 20.89,46.69 46.75,46.69l204.83 0c28.48,155.42 89.22,302.15 178.97,432.21l-144.81 144.84c-18.26,18.22 -18.26,47.78 0,66.03l224.51 224.47c18.17,18.2 47.69,18.2 65.97,0l144.88 -144.86c130.02,89.74 276.75,150.54 432.2,179.02l0 204.85c0,25.79 20.9,46.67 46.66,46.67l317.48 0c25.77,0 46.66,-20.88 46.66,-46.67l0 -204.85c155.37,-28.48 302.19,-89.28 432.21,-179.02l144.81 144.86c18.26,18.2 47.8,18.2 66.06,0l224.48 -224.47c18.18,-18.25 18.18,-47.81 0,-66.03l-144.89 -144.84c89.75,-130.06 150.58,-276.79 179.06,-432.21l204.83 0c25.79,0 46.66,-20.91 46.66,-46.69l0 -317.45c0,-25.79 -20.87,-46.69 -46.66,-46.69z"/>
  <path class="fil2" d="M15948.61 3919.31c-394.96,0 -716.29,321.33 -716.29,716.29 0,394.97 321.33,716.31 716.29,716.31 395,0 716.31,-321.34 716.31,-716.31 0,-394.96 -321.31,-716.29 -716.31,-716.29zm0 1467.7c-414.28,0 -751.4,-337.09 -751.4,-751.41 0,-414.32 337.12,-751.4 751.4,-751.4 414.39,0 751.44,337.08 751.44,751.4 0,414.32 -337.05,751.41 -751.44,751.41z"/>
  <path class="fil3" d="M4908.53 3276.93l-2504.36 0c-82.99,0 -150.25,-67.26 -150.25,-150.25l0 -1294.62c0,-82.99 67.26,-150.27 150.25,-150.27l2504.36 0c82.99,0 150.27,67.28 150.27,150.27l0 1294.62c0,82.99 -67.28,150.25 -150.27,150.25z"/>
  <path class="fil4" d="M4819.79 2165.55l-2326.86 0c-23.84,0 -43.17,-19.31 -43.17,-43.15l0 -119.39c0,-23.84 19.33,-43.16 43.17,-43.16l2326.86 0c23.83,0 43.17,19.32 43.17,43.16l0 119.39c0,23.84 -19.34,43.15 -43.17,43.15z"/>
  <path class="fil0" d="M4819.79 2582.23l-2326.86 0c-23.84,0 -43.17,-19.33 -43.17,-43.17l0 -119.37c0,-23.84 19.33,-43.18 43.17,-43.18l2326.86 0c23.83,0 43.17,19.34 43.17,43.18l0 119.37c0,23.84 -19.34,43.17 -43.17,43.17z"/>
  <path class="fil0" d="M3749.36 2998.89l-1267.55 0c-17.7,0 -32.05,-14.35 -32.05,-32.06l0 -141.58c0,-17.71 14.35,-32.08 32.05,-32.08l1267.55 0c17.71,0 32.06,14.37 32.06,32.08l0 141.58c0,17.71 -14.35,32.06 -32.06,32.06z"/>
  <path class="fil3" d="M20184.64 4394.09l-1556.49 0c-69.87,0 -126.7,-56.72 -126.7,-126.7l0 -1812.39c0,-69.98 56.83,-126.7 126.7,-126.7l1556.49 0c70.06,0 126.7,56.72 126.7,126.7l0 1812.39c0,69.98 -56.64,126.7 -126.7,126.7z"/>
  <path class="fil2" d="M19084.74 2872.12l-317.74 0c-14.65,0 -26.44,-11.9 -26.44,-26.59l0 -317.59c0,-14.69 11.79,-26.59 26.44,-26.59l317.74 0c14.65,0 26.44,11.9 26.44,26.59l0 317.59c0,14.69 -11.79,26.59 -26.44,26.59z"/>
  <path class="fil2" d="M19565.08 2872.12l-317.55 0c-14.65,0 -26.44,-11.9 -26.44,-26.59l0 -317.59c0,-14.69 11.79,-26.59 26.44,-26.59l317.55 0c14.66,0 26.63,11.9 26.63,26.59l0 317.59c0,14.69 -11.97,26.59 -26.63,26.59z"/>
  <path class="fil2" d="M20045.61 2872.12l-317.55 0c-14.65,0 -26.45,-11.9 -26.45,-26.59l0 -317.59c0,-14.69 11.8,-26.59 26.45,-26.59l317.55 0c14.66,0 26.63,11.9 26.63,26.59l0 317.59c0,14.69 -11.97,26.59 -26.63,26.59z"/>
  <path class="fil4" d="M20002.01 3196.46l-1191.22 0c-38.78,0 -70.23,-31.5 -70.23,-70.35l0 0c0,-38.85 31.45,-70.33 70.23,-70.33l1191.22 0c38.78,0 70.23,31.48 70.23,70.33l0 0c0,38.85 -31.45,70.35 -70.23,70.35z"/>
  <path class="fil4" d="M20002.01 3445.13l-1191.22 0c-38.78,0 -70.23,-31.49 -70.23,-70.34l0 0c0,-38.86 31.45,-70.35 70.23,-70.35l1191.22 0c38.78,0 70.23,31.49 70.23,70.35l0 0c0,38.85 -31.45,70.34 -70.23,70.34z"/>
  <path class="fil4" d="M20002.01 3693.81l-1191.22 0c-38.78,0 -70.23,-31.5 -70.23,-70.36l0 0c0,-38.85 31.45,-70.35 70.23,-70.35l1191.22 0c38.78,0 70.23,31.5 70.23,70.35l0 0c0,38.86 -31.45,70.36 -70.23,70.36z"/>
  <path class="fil4" d="M20002.01 3942.49l-1191.22 0c-38.78,0 -70.23,-31.5 -70.23,-70.35l0 0c0,-38.85 31.45,-70.36 70.23,-70.36l1191.22 0c38.78,0 70.23,31.51 70.23,70.36l0 0c0,38.85 -31.45,70.35 -70.23,70.35z"/>
  <path class="fil4" d="M20002.01 4191.15l-1191.22 0c-38.78,0 -70.23,-31.48 -70.23,-70.33l0 0c0,-38.87 31.45,-70.36 70.23,-70.36l1191.22 0c38.78,0 70.23,31.49 70.23,70.36l0 0c0,38.85 -31.45,70.33 -70.23,70.33z"/>
  <path class="fil5" d="M17835.79 10698.56l-6710.91 0c-27.27,0 -49.37,-22.11 -49.37,-49.38l0 -155.63c0,-27.25 22.1,-49.36 49.37,-49.36l6710.91 0c27.16,0 49.32,22.11 49.32,49.36l0 155.63c0,27.27 -22.16,49.38 -49.32,49.38z"/>
  <polygon class="fil6" points="11507.62,14468.79 11378.46,14468.79 12185.82,10698.56 12314.98,10698.56 "/>
  <polygon class="fil6" points="17453.01,14468.79 17582.03,14468.79 16774.77,10698.56 16645.6,10698.56 "/>
  <path class="fil7" d="M18853.67 8881.47l-1441.23 4526.29 828.82 135.44 1436.77 -3630.14c0,0 683.89,-275.79 657.08,-1031.59l-1481.44 0z"/>
  <path class="fil8" d="M17506.8 13803.44l-93.82 135.26 -603.88 212.1c-102.58,36 -190.59,123.91 -222.04,221.78l1296.62 0 110.08 -568.1 -486.96 -1.04z"/>
  <path class="fil9" d="M17340.25 13964.31l15.37 88.44c3.39,19.49 -12.87,42.99 -35.58,51.73l0 0c-20.71,7.96 -39.49,0.61 -43.25,-16.86l-20.37 -93.86 83.83 -29.45z"/>
  <path class="fil9" d="M17192.8 14016.32l15.3 88.42c3.32,19.49 -12.85,43.08 -35.47,51.73l0 0c-20.71,7.96 -39.59,0.62 -43.34,-16.86l-20.37 -93.85 83.88 -29.44z"/>
  <path class="fil9" d="M17026.16 14074.77l15.3 88.44c3.32,19.48 -12.85,42.99 -35.47,51.73l0 0c-20.71,7.95 -39.6,0.61 -43.35,-16.87l-20.36 -93.94 83.88 -29.36z"/>
  <polygon class="fil9" points="17883.68,14372.58 17852.77,14468.79 16556.04,14468.79 16587.06,14372.58 "/>
  <polygon class="fil10" points="17993.76,13804.48 18095.98,13519.44 17594.72,13437.55 17506.8,13803.44 "/>
  <polygon class="fil11" points="17587.02,13469.59 18040.42,13674.37 18095.98,13519.44 17594.72,13437.55 "/>
  <polygon class="fil7" points="20086.36,9322.41 20757.2,13005.61 20028.28,13239.62 19056.5,9725.01 "/>
  <path class="fil8" d="M20250.59 13486.68l-33.96 161.04 -474.27 429.85c-80.6,72.96 -127.6,188.14 -118.66,290.55l0 0 1195.16 -503.25 -119.2 -566.26 -449.07 188.07z"/>
  <path class="fil9" d="M20159.45 13699.46l48.43 75.66c10.72,16.62 4.82,44.57 -12.69,61.44l0 0c-15.91,15.3 -36.1,15.9 -46.47,1.3l-55.21 -78.73 65.94 -59.67z"/>
  <path class="fil9" d="M20043.65 13804.66l48.43 75.59c10.72,16.6 4.82,44.66 -12.51,61.44l0 0c-16.09,15.37 -36.28,15.9 -46.64,1.3l-55.04 -78.64 65.76 -59.69z"/>
  <path class="fil9" d="M19912.84 13923.16l48.25 75.59c10.72,16.69 5,44.65 -12.51,61.52l0 0c-15.9,15.29 -36.28,15.9 -46.46,1.22l-55.22 -78.65 65.94 -59.68z"/>
  <polygon class="fil9" points="20818.86,13864.87 20827.61,13965.55 19632.46,14468.79 19623.7,14368.12 "/>
  <polygon class="fil10" points="20699.66,13298.61 20685.01,13028.77 20176.24,13192.09 20250.59,13486.68 "/>
  <polygon class="fil11" points="20184.71,13225.62 20695.2,13216.4 20685.01,13028.77 20176.24,13192.09 "/>
  <path class="fil8" d="M19327.95 10722.86c-2.33,0 -4.47,-0.44 -6.61,-1.32 -8.05,-3.66 -11.8,-13.19 -8.22,-21.41l352.58 -799.05 5.18 -2.62c3.39,-1.58 331.31,-164.55 443.71,-352.76 4.65,-7.7 14.48,-10.24 22.34,-5.68 7.68,4.63 10.19,14.58 5.54,22.28 -110.62,185.33 -406.9,339.93 -451.93,362.64l-347.76 788.31c-2.68,6.02 -8.76,9.61 -14.83,9.61z"/>
  <path class="fil10" d="M19017.72 7637.81c-77.91,66.85 -1936.32,215.59 -1936.32,215.59 0,0 -230.61,183.06 -269.68,125.82 -28.22,-41.42 -45.78,-51.13 -85.81,-143.93 -12.22,-28.3 -37.74,-126.36 -33.38,-156.84 16.87,-116.5 96.39,-137.91 96.39,-137.91 57.67,-23.76 264.94,-5.06 264.94,-5.06l1701.35 -424.95 262.51 527.28z"/>
  <path class="fil11" d="M17704 7800.07c12.89,-1.85 641.8,-271.5 641.8,-271.5 0,0 22.61,-198.46 94.59,-339.4l240.99 -60.2 -16.34 572.87c-268.29,33.37 -643.22,69.57 -961.04,98.23z"/>
  <path class="fil11" d="M16890.73 7737.6c-48.86,-50.24 -95.61,-102.58 -142.36,-154.85 -8.26,2.25 -16.21,5.23 -23.83,8.86 -14.08,20.37 -26.45,48.44 -32.01,86.84 -4.36,30.48 21.16,128.54 33.38,156.84 40.03,92.8 57.59,102.51 85.81,143.93 36.92,54.1 244.9,-106.42 267.63,-124.21 -6.79,-2.55 -15.13,-3.19 -22.5,-4.85 -42.39,-9.79 -79.79,-34.08 -112.66,-61.78 -18.78,-15.92 -36.34,-33.13 -53.46,-50.78z"/>
  <path class="fil9" d="M19125.3 5221.51c0,0 -198.36,-22.8 -298.79,168.77 -67.73,129.47 53.97,397.48 125.99,577.33 52.36,130.99 194.78,204.86 330.77,166.89 10.01,-2.82 19.48,-6.09 28.42,-9.9l-186.39 -903.09z"/>
  <path class="fil10" d="M19518.27 5723.75c41.1,7.72 83.45,-34.45 94.71,-94.17 11.26,-59.76 -13.05,-114.46 -54.15,-122.18 -24.66,-4.65 -49.86,8.81 -68.26,33.17 -41.82,-172.13 -148.5,-294.63 -273.6,-294.63 -161.54,0 -292.35,203.53 -292.35,454.6 0,251.06 130.81,454.58 292.35,454.58l0 338.21 372.78 1.22 -57.01 -311.5c-15.73,-86.29 -23.59,-173.86 -23.59,-261.62l0 -200.34c2.86,1.11 5.9,2.08 9.12,2.66z"/>
  <path class="fil11" d="M19335.2 5284.78c3.68,81.24 -1.6,268.86 -118.23,355.82 -88.75,66.09 -223.2,59.48 -292.27,50.43 3.26,-246.68 132.77,-445.09 292.27,-445.09 42.09,0 82.08,13.88 118.23,38.84z"/>
  <path class="fil2" d="M19021.83 5960.14c0,0 68.09,20.18 144.39,-75.39 0,0 5.54,122.46 -58.43,128.11 -64.16,5.66 -85.96,-52.72 -85.96,-52.72z"/>
  <path class="fil11" d="M19216.97 6155.12c0,0 116.52,-17.58 189.43,-172.48 0,0 -23.77,216.39 -189.43,230.04l0 -57.56z"/>
  <path class="fil9" d="M19095.64 5286.95c0,0 -51.47,318.09 394.93,253.62 0,0 64.69,-72.97 110.97,0.39 46.28,73.36 -20.01,182.02 -92.39,180.13 0,0 -18.23,350.97 30.92,501.28 0,0 36.99,-120.52 128.13,-258.64 123.3,-186.99 124.73,-431.76 -7.51,-612.6 -57.54,-78.6 -139.03,-147.79 -254.29,-187.43 -403.51,-138.65 -310.76,123.25 -310.76,123.25z"/>
  <path class="fil12" d="M20381.22 8881.47l-318.45 -2046.89c-58.79,-303.33 -333.82,-515.68 -642.25,-495.63l0 0c-173.34,11.28 -327.74,94.38 -432.64,220.84l0 -0.07 -0.54 0.86c-13.22,15.92 -25.55,32.52 -36.99,49.75l-327.02 439.59c-159.4,214.31 -156.36,508.64 7.15,719.75l289.49 149.26 -66.3 962.54 1527.55 0z"/>
  <path class="fil13" d="M19610.3 6992.3c0,0 -52.72,1021.78 -459.98,1221.73l-255.82 74.65 25.47 -369.75 -93.1 -48 783.43 -878.63z"/>
  <path class="fil9" d="M20045.44 5423.43c128.84,28.97 241.07,123.28 291.64,245.09 39.31,94.64 42.35,200.04 40.74,302.54 -3.75,272.3 -32.88,554.19 62.9,809.13 -49.85,5.5 -99.71,-5.94 -148.5,-17.77 -147.78,-35.9 -311.3,-89.38 -379.02,-225.4 -47.9,-95.99 -35.21,-210.93 -7.69,-314.65 27.52,-103.72 68.62,-205.22 74.7,-312.36 5.9,-107.13 -32.7,-225.93 -127.06,-277.22 -37.7,-20.51 -212.83,-58.45 -151,-131.36 23.23,-27.5 66.66,-45.19 99.54,-58.08 36.27,-14.31 74.87,-23.6 113.83,-27.52 43.42,-4.34 87.38,-1.98 129.92,7.6z"/>
  <path class="fil14" d="M19728.6 5478.5l28.77 124.76c0,0 22.52,39.81 71.48,19.33 0,0 -31.27,-163.58 -37.88,-175.04 -6.44,-11.42 -62.73,-2.89 -62.37,30.95z"/>
  <path class="fil9" d="M17099.04 8604.03l-5.75 1.66c-25.61,7.78 -52.61,-6.64 -60.39,-32.25l-429.76 -1419.82c-7.79,-25.61 6.72,-52.7 32.24,-60.39l5.77 -1.75c25.61,-7.77 52.68,6.72 60.38,32.33l429.85 1419.75c7.78,25.61 -6.73,52.7 -32.34,60.47z"/>
  <path class="fil10" d="M19394.96 6705.15l0 0c-16.26,-5.35 -33.59,-9.47 -51.47,-12.4 -180.84,-29.74 -357.04,74.46 -425.3,244.42l-254.47 633 0 0 -1487.07 532c0,0 -208.69,-36.87 -263.73,-7.69 0,0 -99.36,37.31 -80.75,198.98 0,0 32.95,119.27 77.25,172.51 44.39,53.21 324.65,-88.17 324.65,-88.17 0,0 1120.13,-101.47 1755.06,-291.88 0,0 80.42,-34.35 151.54,-108.36l0 0c14.65,-15.28 29.13,-32.24 42.17,-51.02 27.7,-39.6 391.9,-780.11 391.9,-780.11 89.35,-171.01 3.75,-381.38 -179.78,-441.28z"/>
  <path class="fil11" d="M19552.93 6821.53c-7.36,0.45 -14.91,1.01 -22.69,1.7 0,0 -363.3,992.07 -473.74,1091.94 -110,99.39 -1315.08,404.39 -1324.67,406.81 379.54,-48.47 896.66,-127.9 1257.3,-236.06 0,0 80.42,-34.35 151.54,-108.36l0 0 0 0c14.65,-15.28 29.13,-32.24 42.17,-51.02 27.7,-39.6 391.9,-780.11 391.9,-780.11 56.76,-108.64 42.89,-233.16 -21.81,-324.9z"/>
  <path class="fil10" d="M13686.05 5628.36c0,0 148.56,-479.49 191.55,-470.43 42.98,9.04 -11.27,246.36 47.54,235.15 58.81,-11.2 146.98,-481.72 180.97,-454.59 33.9,27.16 235.24,285.04 205.79,429.81 -29.36,144.78 -396.91,435.67 -396.91,435.67l-228.94 -175.61z"/>
  <path class="fil10" d="M10048.56 5206.91c0,0 284.96,-413.19 251.31,-441.39 -33.72,-28.18 -186.65,161.21 -214.17,108.04 -27.63,-53.14 287.67,-413.39 245.37,-423.29 -42.3,-9.88 -369.46,-8.68 -465.07,103.93 -95.59,112.62 -97.07,581.34 -97.07,581.34l279.63 71.37z"/>
  <path class="fil10" d="M10626.79 4526.72c-192.43,38.92 -299.29,313.16 -238.75,612.52l53.31 263.4c21.16,104.62 32.77,210.95 34.79,317.65l7.24 385.15 444.36 -91.4 -81.63 -403.26c192.42,-38.92 299.39,-313.18 238.83,-612.52 -60.56,-299.36 -265.66,-510.48 -458.15,-471.54z"/>
  <path class="fil11" d="M11046.15 5435.06c0,0 -185.09,94.18 -233.25,44.21l33.21 131.51c86.38,-17.47 155.52,-82.39 200.03,-175.68l0.01 -0.04z"/>
  <polygon class="fil7" points="11845.1,8308.23 11378.55,13584.63 10243.69,13584.63 10837.03,8917.92 10003.99,13584.63 8776.05,13584.63 10090.06,8308.23 "/>
  <path class="fil8" d="M9318.96 13584.63c0,-1.96 0.63,-3.93 1.93,-5.6 45.48,-71 805.41,-3414.41 1223.08,-5270.8l19.1 0c-171.56,762.38 -1147.57,5091.33 -1224.63,5276.4l-19.48 0z"/>
  <path class="fil8" d="M10904.89 13584.63c0,-0.23 0.01,-0.47 0.03,-0.7l423.92 -5275.7 18.72 0 -424.05 5276.4 -18.62 0z"/>
  <path class="fil8" d="M11193.65 13584.63l-23.77 178.79 675.4 282.17c114.73,47.97 178.61,164.98 161.31,295.09l-1725.68 0 100.68 -756.05 812.06 0z"/>
  <path class="fil9" d="M10857.56 14009.76c-10.56,79.25 -83.36,143.57 -162.62,143.57 -79.25,0 -135.01,-64.32 -124.44,-143.57 10.58,-79.26 83.38,-143.57 162.63,-143.57 79.34,0 135.01,64.31 124.43,143.57z"/>
  <path class="fil9" d="M11251.24 13797.41l-73.93 117.71c-16.26,25.87 -9,57.24 16,68.85l0 0c22.71,10.58 52.25,0.81 67.79,-22.44l83.9 -124.97 -93.76 -39.15z"/>
  <path class="fil9" d="M11416.04 13866.62l-73.84 117.71c-16.33,25.87 -9.09,57.24 15.91,68.86l0 0c22.71,10.57 52.25,0.78 67.81,-22.46l83.88 -124.96 -93.76 -39.15z"/>
  <path class="fil9" d="M11602.43 13944.39l-73.91 117.71c-16.27,25.87 -9.01,57.24 15.97,68.86l0 0c22.73,10.58 52.27,0.79 67.82,-22.46l83.88 -124.96 -93.76 -39.15z"/>
  <polygon class="fil9" points="10280.91,14340.68 10263.79,14468.79 11989.55,14468.79 12006.59,14340.68 "/>
  <path class="fil8" d="M9048.78 13584.63l-23.77 178.79 -750.64 282.17c-127.43,47.97 -222.51,164.98 -239.85,295.09l1725.65 0 100.77 -756.05 -812.16 0z"/>
  <path class="fil9" d="M9271.69 14009.76c-10.56,79.25 45.1,143.57 124.36,143.57 79.34,0 152.15,-64.32 162.71,-143.57 10.58,-79.26 -45.18,-143.57 -124.43,-143.57 -79.26,0 -152.15,64.31 -162.64,143.57z"/>
  <path class="fil9" d="M8934.57 13797.41l42.55 117.71c9.35,25.87 -6.29,57.24 -34.24,68.85l0 0c-25.61,10.58 -52.54,0.81 -61.97,-22.44l-50.51 -124.97 104.17 -39.15z"/>
  <path class="fil9" d="M8751.31 13866.62l42.57 117.71c9.35,25.87 -6.29,57.24 -34.26,68.86l0 0c-25.6,10.57 -52.52,0.78 -61.95,-22.46l-50.52 -124.96 104.16 -39.15z"/>
  <path class="fil9" d="M8544.22 13944.39l42.56 117.71c9.35,25.87 -6.29,57.24 -34.25,68.86l0 0c-25.61,10.58 -52.53,0.79 -61.96,-22.46l-50.52 -124.96 104.17 -39.15z"/>
  <polygon class="fil9" points="9760.17,14340.68 9743.14,14468.79 8017.46,14468.79 8034.52,14340.68 "/>
  <path class="fil15" d="M13585.21 5484.03l-953.55 1287.77 -2.81 3.67 -828.23 -673.89c-245.8,-199.98 -545.63,-311.21 -838.89,-311.21l-767.33 0c-29.36,0 -58.37,1.18 -87.12,3.38l178.7 -601.63 -586.17 -163.34 -771.53 1792.13c-68.42,158.78 -62.04,339.86 17.3,493.4l0 0c77.86,150.93 218.28,259.88 383.8,297.89l0 0c142.62,32.69 291.42,-17.57 385.19,-129.93l78.82 -94.64 36.96 1077.8 2243.26 0 -277.88 -1134.17 248.45 216.72 -0.97 1.3 69.03 58.11 66.5 58.03 0.96 -1.22 46.14 38.89c129.85,109.4 301.31,156.15 468.74,127.66l0 0c170.39,-28.82 318.95,-132.56 404.76,-282.68l968.67 -1693.7 -482.8 -370.34z"/>
  <path class="fil13" d="M10107.28 5793.75c0,0 -473.38,67.21 -722.6,383.26l-424.68 570.08 338.71 -786.66c0,0 315.53,-355.46 808.57,-166.68z"/>
  <path class="fil13" d="M11795.73 7331.26l-450.65 -408.38c0,0 -85.55,637.68 728.53,1542.55l-277.88 -1134.17z"/>
  <path class="fil9" d="M10899.77 4630.17c0,0 123.04,300.15 85.64,398.61 0,0 -63.44,-110.08 -131.69,-44.69 -68.25,65.4 22.71,167.75 113.69,170.59 0,0 -205.97,292.86 -230.95,304.22 -24.92,11.38 -278.06,42.68 -278.06,42.68 0,0 -378.03,-466.31 -329.71,-716.51 48.32,-250.2 295.72,-446.38 562.93,-454.9 267.32,-8.53 557.26,191.92 557.26,191.92 0,0 -123.91,149.36 -349.11,108.08z"/>
  <path class="fil13" d="M9793.39 7387.63l-24.46 -544.06c0,0 -247.82,777.55 -439.55,768.63 0,0 270.89,105.13 464.01,-224.57z"/>
  <polygon class="fil9" points="14168.06,10345.6 14863.73,10345.6 14863.73,9649.84 14168.06,9649.84 "/>
  <polygon class="fil8" points="14168.06,9894.53 14863.73,9894.53 14863.73,9779.88 14168.06,9779.88 "/>
  <path class="fil9" d="M13224.22 9779.89c-135.37,0 -245.47,-110.12 -245.47,-245.47l0 -1546.02c0,-135.36 110.1,-245.46 245.47,-245.46l2583.36 0c135.37,0 245.46,110.1 245.46,245.46l0 1546.02c0,135.35 -110.09,245.47 -245.46,245.47l-2583.36 0z"/>
  <path class="fil2" d="M15807.58 9690.66l-2583.36 0c-86.25,0 -156.15,-70 -156.15,-156.24l0 -1546.02c0,-86.35 69.9,-156.25 156.15,-156.25l2583.36 0c86.24,0 156.26,69.9 156.26,156.25l0 1546.02c0,86.24 -70.02,156.24 -156.26,156.24z"/>
  <path class="fil8" d="M15033.69 10447.59l-1079.28 0 0 -18.44c0,-67.8 54.97,-122.77 122.77,-122.77l833.75 0c67.81,0 122.76,54.97 122.76,122.77l0 18.44z"/>
  <polygon class="fil16" points="13683.07,9318.39 13948.81,9318.39 13948.81,8204.41 13683.07,8204.41 "/>
  <polygon class="fil3" points="14149.71,9318.39 14415.44,9318.39 14415.44,8503.26 14149.71,8503.26 "/>
  <polygon class="fil3" points="14616.35,9318.39 14882.09,9318.39 14882.09,8638.19 14616.35,8638.19 "/>
  <polygon class="fil3" points="15082.98,9318.39 15348.72,9318.39 15348.72,8959.59 15082.98,8959.59 "/>
  <path class="fil9" d="M16509.02 10447.59l-505.78 0 0 -38.71c0,-139.72 113.24,-252.9 252.9,-252.9l0 0c139.64,0 252.88,113.18 252.88,252.9l0 38.71z"/>
  <path class="fil10" d="M6306.08 7474.32l789.31 -2175.3 260.3 166.96c0,0 -29.2,2011.57 -325.7,2176.73 -290.93,162.18 -723.91,-168.39 -723.91,-168.39z"/>
  <path class="fil11" d="M7232.71 7089.81c-576.79,-47.59 -730.88,-59.95 -764.39,-62.61l-162.24 447.12c0,0 432.98,330.57 723.91,168.39 89.99,-50.13 155.32,-270.46 202.72,-552.9z"/>
  <path class="fil10" d="M5282.95 4410.26c-190.3,38.49 -296.02,309.67 -236.14,605.69l52.7 260.48c0.21,1.02 0.41,2.07 0.62,3.09 30.99,154.67 33.44,313.67 11.05,469.81l-22.23 154.98 503.33 0 -92.48 -422.09c190.3,-38.49 296.02,-309.67 236.14,-605.67 -59.89,-296.02 -262.71,-504.78 -452.99,-466.29z"/>
  <path class="fil11" d="M5264.56 4785.05c0,0 196.18,79.41 465.33,63.94 -34.88,-147.48 -105.39,-271.13 -191.13,-350.06 -121.05,13.53 -322.91,38.9 -329.37,58.26 -9.24,27.72 55.17,227.86 55.17,227.86z"/>
  <path class="fil11" d="M5499.8 5482.22c0,0 -100.07,-0.77 -162.94,-63.62 0,0 16.12,139.19 181.86,150.02l0.01 0c165.75,10.85 -0.01,0 -0.01,0l-18.92 -86.4z"/>
  <path class="fil16" d="M6259.53 7594.99l361.53 -970.79 -888.64 -728.66c-4.51,-3.84 -9.1,-7.54 -13.71,-11.24l-6.97 -5.72 -0.04 0.07c-100.96,-78.73 -227.79,-125.41 -364.89,-125.41l-36.7 0c-305.19,0 -521.72,189.58 -602.08,529.23l-300.33 1344.24 269.11 43.43c-5.02,47.53 -11.91,94.91 -20.75,141.99l-169.43 901.48 1882.62 0 -213.45 -1196.21 103.73 77.59z"/>
  <polygon class="fil13" points="6155.8,7517.4 5913.42,6424.8 6472.89,7022.08 6276.08,7550.57 "/>
  <path class="fil13" d="M4676.81 7670.14l759.5 106.09 103.54 -994.6c0,0 107.36,1573.01 59.77,1625.96 -138.88,154.41 -1093.79,240.22 -1093.79,240.22l170.98 -977.67z"/>
  <path class="fil10" d="M7095.39 5299.02c0,0 -51.25,-517.45 -23.35,-541.35 27.87,-23.91 75.66,274.47 139.38,270.67 63.74,-3.81 191.2,-525.58 239,-517.61 47.78,7.97 242.94,278.79 234.97,374.39 -7.95,95.59 -329.7,580.86 -329.7,580.86 0,0 -255.85,-119.98 -260.3,-166.96z"/>
  <path class="fil11" d="M7450.42 4510.73c0,0 -121.06,666.89 -194.48,644.27 -73.43,-22.61 -183.9,-397.33 -183.9,-397.33 0,0 15.19,29.07 35.9,65.03 26.94,81.32 61.8,208.13 103.48,205.64 63.74,-3.81 191.2,-525.58 239,-517.61z"/>
  <path class="fil10" d="M7318 7130.98c-57.72,-2.97 -2782.92,512.16 -2782.92,512.16 0,0 27.05,522.39 264.33,638.44 293.95,143.75 2033.09,-676.71 2033.09,-676.71l0.33 -4.28 320.53 -149.34c0,0 236.19,44.9 334.64,3.93 98.45,-40.98 255.6,-186.23 255.6,-186.23 0,0 -367.86,-135.08 -425.6,-137.97z"/>
  <path class="fil11" d="M5384.67 7483.25c-0.99,0.78 -538.86,421.07 -782.4,518.67 -57.62,-174.13 -67.19,-358.78 -67.19,-358.78 0,0 374.97,-70.88 849.59,-159.89z"/>
  <path class="fil9" d="M5087.57 5224.5c27,-74.43 52.43,-149.43 76.33,-224.92 0,0 -107.92,-108.49 -38.18,-194.26 69.77,-85.78 131.99,70.62 123.59,97.53 0,0 94.18,-227.06 186.69,-274.14 92.5,-47.09 50.11,166.26 268.09,132.73 217.98,-33.5 209.28,-399.68 209.28,-399.68 0,0 -512.63,-144.75 -811.18,-81.41 -298.52,63.31 -123.63,199.02 -123.63,199.02 0,0 -250.29,72.37 -250.29,211.08 0,138.71 359.3,534.05 359.3,534.05z"/>
  <path class="fil8" d="M4276.55 13369.75l-68.05 151.79 498.29 511.37c84.6,86.78 107.6,216.45 58.01,327.09l0 0 -1466.1 -657.22 287.92 -642.29 689.93 309.26z"/>
  <path class="fil9" d="M3877.24 13624.47c-30.2,67.38 -109.26,97.43 -176.61,67.29 -67.33,-30.24 -97.46,-109.32 -67.28,-176.6 30.2,-67.38 109.26,-97.53 176.61,-67.29 67.34,30.14 97.47,109.24 67.28,176.6z"/>
  <path class="fil9" d="M4268.53 13583.14l-94.29 77.86c-20.74,17.14 -22.98,48.16 -4.89,68.07l0 0c16.51,18.19 44.19,20.62 63.65,5.68l104.7 -80.56 -69.17 -71.05z"/>
  <path class="fil9" d="M4390.03 13708.27l-94.29 77.79c-20.74,17.21 -22.98,48.14 -4.89,68.07l0 0c16.51,18.17 44.19,20.62 63.65,5.68l104.7 -80.58 -69.17 -70.96z"/>
  <path class="fil9" d="M4527.57 13849.23l-94.3 77.86c-20.75,17.12 -22.98,48.14 -4.87,68.07l0 0c16.49,18.17 44.19,20.64 63.65,5.68l104.68 -80.65 -69.16 -70.96z"/>
  <polygon class="fil9" points="3298.7,13702.78 3249.91,13811.67 4716.03,14468.79 4764.8,14360 "/>
  <path class="fil7" d="M6227.79 8713.61l-1633.94 0 -252.18 2215.56c-28.88,249.31 -99.68,491.97 -209.42,717.7l-697.88 1435.46 1058.12 388.79 661.88 -1645.2c45.89,-114.12 73.09,-234.8 80.58,-357.5l202.75 -2137.7 -44.28 4314.2 1056.63 0 -222.26 -4931.31z"/>
  <path class="fil8" d="M6277.92 13644.92l0 166.39 663.84 262.76c112.71,44.57 186.74,153.54 186.74,274.74l-1606.67 0 0 -703.89 756.09 0z"/>
  <path class="fil9" d="M6017.71 14040.69c0,73.75 -59.83,133.61 -133.63,133.61 -73.8,0 -133.61,-59.86 -133.61,-133.61 0,-73.84 59.81,-133.62 133.61,-133.62 73.8,0 133.63,59.78 133.63,133.62z"/>
  <path class="fil9" d="M6357.91 13842.94l-54.2 109.58c-11.94,24.12 -1.29,53.39 23.35,64.13l0 0c22.5,9.8 48.77,0.79 60.41,-20.87l62.58 -116.31 -92.14 -36.53z"/>
  <path class="fil9" d="M6519.94 13907.34l-54.22 109.67c-11.92,24.12 -1.27,53.3 23.37,64.05l0 0c22.5,9.88 48.77,0.79 60.4,-20.88l62.59 -116.31 -92.14 -36.53z"/>
  <path class="fil9" d="M6703.1 13979.79l-54.2 109.57c-11.92,24.12 -1.28,53.31 23.38,64.15l0 0c22.48,9.78 48.77,0.7 60.4,-20.89l62.58 -116.39 -92.16 -36.44z"/>
  <polygon class="fil9" points="5521.83,14468.09 7128.5,14468.09 7128.5,14348.81 5521.83,14348.81 "/>
  <path class="fil3" d="M9965.54 3873.55l-3535.76 0c-67.62,0 -122.43,-54.83 -122.43,-122.45l0 -2031.8c0,-67.64 54.81,-122.45 122.43,-122.45l3535.76 0c67.63,0 122.42,54.81 122.42,122.45l0 2031.8c0,67.62 -54.79,122.45 -122.42,122.45z"/>
  <path class="fil16" d="M6307.35 3486.95c92.29,-152.75 210.95,-291.77 362.68,-384.86 165.49,-101.52 373.98,-142.97 558.19,-81.68 131.24,43.69 240.53,134.26 357.76,207.65 117.21,73.39 256.49,132.02 391.23,100.75 118.89,-27.59 210.85,-119.49 292.97,-209.85 145.25,-159.94 283.13,-329.43 455.72,-459.44 172.57,-130.01 388.86,-218.57 602.87,-188.07 200.11,28.54 371.56,155.72 521.16,291.75 83.15,75.62 162.62,155.31 238.03,238.67l0 749.23c0,67.62 -54.79,122.45 -122.42,122.45l-3535.76 0c-67.62,0 -122.43,-54.83 -122.43,-122.45l0 -264.15z"/>
  <path class="fil9" d="M6307.35 2082.49l3780.61 0 0 -363.19c0,-67.64 -54.79,-122.45 -122.42,-122.45l-3535.76 0c-67.62,0 -122.43,54.81 -122.43,122.45l0 363.19z"/>
  <path class="fil17" d="M6717.99 1801.04c0,47.32 -38.37,85.67 -85.69,85.67 -47.3,0 -85.67,-38.35 -85.67,-85.67 0,-47.32 38.37,-85.69 85.67,-85.69 47.32,0 85.69,38.37 85.69,85.69z"/>
  <path class="fil2" d="M7053.86 1801.04c0,47.32 -38.35,85.67 -85.67,85.67 -47.32,0 -85.69,-38.35 -85.69,-85.67 0,-47.32 38.37,-85.69 85.69,-85.69 47.32,0 85.67,38.37 85.67,85.69z"/>
  <path class="fil2" d="M7389.75 1801.04c0,47.32 -38.37,85.67 -85.69,85.67 -47.32,0 -85.67,-38.35 -85.67,-85.67 0,-47.32 38.35,-85.69 85.67,-85.69 47.32,0 85.69,38.37 85.69,85.69z"/>
  <path class="fil18" d="M22712.91 12435.43c21.99,-737.18 -283.95,-1662.07 -283.95,-1662.07 -407.08,580.16 -454.62,1078.52 -376.17,1458.37 -162.97,-213.75 -367.23,-398.65 -604.73,-444.43 0,0 141.71,1040.58 577.75,1245.07l902.08 0c828.28,-260.43 687.47,-1746.76 687.47,-1746.76 -679.96,497.4 -765.92,704.76 -902.45,1149.82z"/>
  <path class="fil19" d="M21854.62 12896.72c104.74,6.3 253.95,-17.33 288.59,-193.2 0,0 136.89,191.55 328.46,160.28 191.57,-31.3 222.84,-226.78 222.84,-226.78 0,0 114.51,271.31 492.87,252.03 -73.71,62.42 -159.47,111.87 -259.49,143.32l-902.08 0c-63.08,-29.59 -119.97,-76.75 -171.19,-135.65z"/>
  <polygon class="fil5" points="21544.03,13032.37 23448.27,13032.37 23019.92,14468.79 21915.91,14468.79 "/>
  <path class="fil6" d="M21767.47 13895.45c336.05,-122.41 1053.35,-418.91 1514.91,-863.08l165.89 0 -428.35 1436.42 -1104.01 0 -148.44 -573.34z"/>
  <path class="fil3" d="M4223.83 4831.46l-1845.38 0c-68.78,0 -124.53,-55.77 -124.53,-124.55l0 -990.76c0,-68.78 55.75,-124.56 124.53,-124.56l1845.38 0c68.81,0 124.56,55.78 124.56,124.56l0 990.76c0,68.78 -55.75,124.55 -124.56,124.55z"/>
  <path class="fil4" d="M3307.44 3970.87l-842.8 0c-12.85,0 -23.25,-10.4 -23.25,-23.23l0 -97.14c0,-12.83 10.4,-23.24 23.25,-23.24l842.8 0c12.83,0 23.21,10.41 23.21,23.24l0 97.14c0,12.83 -10.38,23.23 -23.21,23.23z"/>
  <path class="fil0" d="M3307.44 4406.87l-842.8 0c-12.85,0 -23.25,-10.4 -23.25,-23.22l0 -97.16c0,-12.83 10.4,-23.23 23.25,-23.23l842.8 0c12.83,0 23.21,10.4 23.21,23.23l0 97.16c0,12.82 -10.38,23.22 -23.21,23.22z"/>
  <path class="fil0" d="M4178.3 4406.87l-744.77 0c-12.08,0 -21.9,-9.8 -21.9,-21.88l0 -99.86c0,-12.08 9.82,-21.87 21.9,-21.87l744.77 0c12.08,0 21.86,9.79 21.86,21.87l0 99.86c0,12.08 -9.78,21.88 -21.86,21.88z"/>
  <path class="fil0" d="M3806.26 3970.87l-378.83 0c-8.72,0 -15.8,-7.06 -15.8,-15.78l0 -112.05c0,-8.72 7.08,-15.78 15.8,-15.78l378.83 0c8.7,0 15.78,7.06 15.78,15.78l0 112.05c0,8.72 -7.08,15.78 -15.78,15.78z"/>
  <path class="fil0" d="M2891.31 4187.37l-433.08 0c-9.28,0 -16.84,-7.53 -16.84,-16.82l0 -109.95c0,-9.3 7.56,-16.84 16.84,-16.84l433.08 0c9.29,0 16.83,7.54 16.83,16.84l0 109.95c0,9.29 -7.54,16.82 -16.83,16.82z"/>
  <path class="fil0" d="M3799.7 4187.37l-777.97 0c-12.35,0 -22.34,-9.99 -22.34,-22.34l0 -98.91c0,-12.35 9.99,-22.36 22.34,-22.36l777.97 0c12.33,0 22.34,10.01 22.34,22.36l0 98.91c0,12.35 -10.01,22.34 -22.34,22.34z"/>
  <path class="fil0" d="M4186.4 4187.37l-284.75 0c-7.61,0 -13.77,-6.15 -13.77,-13.76l0 -116.07c0,-7.61 6.16,-13.78 13.77,-13.78l284.75 0c7.61,0 13.76,6.17 13.76,13.78l0 116.07c0,7.61 -6.15,13.76 -13.76,13.76z"/>
  <path class="fil0" d="M4186.4 3970.87l-284.75 0c-7.61,0 -13.77,-6.17 -13.77,-13.76l0 -116.09c0,-7.59 6.16,-13.76 13.77,-13.76l284.75 0c7.61,0 13.76,6.17 13.76,13.76l0 116.09c0,7.59 -6.15,13.76 -13.76,13.76z"/>
  <path class="fil4" d="M3324.54 4482.76l278.68 0c7.53,0 13.62,6.09 13.62,13.62l0 116.35c0,7.52 -6.09,13.64 -13.62,13.64l-278.68 0c-7.53,0 -13.64,-6.12 -13.64,-13.64l0 -116.35c0,-7.53 6.11,-13.62 13.64,-13.62z"/>
  <path class="fil4" d="M3702.69 4482.76l278.66 0c7.53,0 13.64,6.09 13.64,13.62l0 116.35c0,7.52 -6.11,13.64 -13.64,13.64l-278.66 0c-7.53,0 -13.64,-6.12 -13.64,-13.64l0 -116.35c0,-7.53 6.11,-13.62 13.64,-13.62z"/>
  <path class="fil4" d="M4098.9 4482.76l69.56 0c17.51,0 31.7,14.19 31.7,31.7l0 80.18c0,17.52 -14.19,31.73 -31.7,31.73l-69.56 0c-17.51,0 -31.7,-14.21 -31.7,-31.73l0 -80.18c0,-17.51 14.19,-31.7 31.7,-31.7z"/>
  <path class="fil0" d="M2835.32 4482.76l378.83 0c8.71,0 15.76,7.06 15.76,15.78l0 112.04c0,8.71 -7.05,15.79 -15.76,15.79l-378.83 0c-8.72,0 -15.78,-7.08 -15.78,-15.79l0 -112.04c0,-8.72 7.06,-15.78 15.78,-15.78z"/>
  <path class="fil0" d="M2455.17 4482.76l284.74 0c7.6,0 13.78,6.17 13.78,13.76l0 116.07c0,7.61 -6.18,13.78 -13.78,13.78l-284.74 0c-7.59,0 -13.78,-6.17 -13.78,-13.78l0 -116.07c0,-7.59 6.19,-13.76 13.78,-13.76z"/>
  <polygon class="fil9" points="643,14491.42 24750.04,14491.42 24750.04,14444.76 643,14444.76 "/>
 </g>
</svg>
